<?xml version="1.0" encoding="UTF-8"?>
<svg id="Layer_1" data-name="Layer 1" xmlns="http://www.w3.org/2000/svg" viewBox="0 0 1000 1000">
  <defs>
    <style>
      .cls-1 {
        fill: #fff;
      }

      .cls-2 {
        fill: #ee6c4d;
      }

      .cls-3 {
        fill: #fcd146;
      }
    </style>
  </defs>
  <path class="cls-2" d="m605.56,827.07c-10.23,5.2-19.55,11.56-28.67,17.75-6.3,4.29-12.28,8.35-18.38,11.94-2.54,1.49-5.14,2.9-7.8,4.17-.88.44-1.77.86-2.65,1.27-1.19.55-2.38,1.08-3.57,1.6-1.58.69-3.18,1.33-4.81,1.94-1.05.44-2.1.83-3.15,1.16-.06.06-.11.08-.17.06-1.05.39-2.1.75-3.15,1.05-1.3.44-2.63.83-3.93,1.19-.99.28-1.99.55-2.99.8-2.99.77-6,1.41-9.04,1.91-.94.19-1.91.36-2.88.47-1.96.3-3.93.55-5.89.72-.94.11-1.88.19-2.85.25-1.88.17-3.76.25-5.67.3-1.91-.06-3.82-.14-5.72-.3-.94-.06-1.88-.14-2.85-.25-3.29-.3-6.58-.77-9.84-1.38-.58-.08-1.16-.19-1.71-.33-.8-.14-1.6-.3-2.41-.5-.8-.17-1.6-.36-2.38-.55-.72-.17-1.41-.33-2.13-.53-.08,0-.17-.03-.25-.06-1.91-.5-3.79-1.05-5.67-1.63-.03,0-.03-.03-.06-.03-.83-.25-1.69-.53-2.52-.83-.86-.28-1.74-.58-2.6-.91-1.3-.44-2.57-.94-3.84-1.47-.61-.22-1.19-.47-1.8-.75-1.24-.5-2.46-1.05-3.68-1.6-.88-.39-1.77-.8-2.63-1.24-1.49-.72-2.99-1.47-4.45-2.29-1.33-.69-2.65-1.44-3.98-2.21-.19-.11-.41-.25-.61-.39-3.07-1.8-6.08-3.73-9.12-5.75-2.82-1.88-5.67-3.82-8.6-5.81-2.82-1.91-5.64-3.84-8.52-5.72-.99-.66-1.99-1.33-2.99-1.96-.33-.22-.69-.44-1.02-.66-1.44-.94-2.9-1.85-4.4-2.76-1.8-1.11-3.62-2.21-5.5-3.26-1.11-.64-2.24-1.27-3.4-1.88-.97-.53-1.96-1.05-2.99-1.55,0-.03-.03-.03-.06-.06.03.03.06.03.08.03,18.11-7.24,35.97-17.09,52.78-29.11,20.54-14.71,36.83-32.24,48.35-52.09,1.55-2.68,3.01-5.39,4.4-8.13,1.35,2.74,2.82,5.45,4.37,8.13,11.56,19.85,27.84,37.38,48.38,52.09,16.84,12.05,34.7,21.9,52.8,29.14h.03s.06.03.08.03Z"/>
  <path d="m945.97,640.48c-.06-.36-.11-.75-.19-1.11v-.44l-.28-.8c-2.16-17.75-6-39.04-14.79-59.25-.06-1.27-.3-2.57-.75-3.84-6.25-17.89-13.69-35.72-20.85-52.97-15.59-37.46-30.3-72.85-34.86-110.12l-.77-6.5c-.03-.11-.03-.19-.03-.28-.61-5.34-1.19-10.67-1.8-16.03-1.63-14.87-3.29-30.22-5.61-45.45v-.08l4.06-40.64c5.78-58.03-2.96-117.14-25.3-170.96-17.22-41.41-39.89-67.46-69.28-79.68-11.97-5-25.1-7.55-38.95-7.55-17.67,0-36.33,4.23-53.97,12.19-19.96,9.04-36.63,21.48-50.29,32.43l-3.21,2.57c-3.84-.64-8.32-1.19-13.49-1.74-56.2-6-175.06-6-231.23,0-5.2.55-9.68,1.11-13.52,1.74l-3.23-2.6c-13.66-10.95-30.3-23.36-50.23-32.4-17.67-7.96-36.33-12.19-53.99-12.19-13.85,0-26.98,2.54-38.98,7.55-29.39,12.22-52.03,38.29-69.25,79.65-22.34,53.85-31.07,112.99-25.3,170.99l4.06,40.64c-2.29,14.93-3.95,30-5.56,44.59-.61,5.64-1.22,11.25-1.88,16.97-.25,2.27-.53,4.53-.77,6.75-4.59,37.29-19.32,72.71-34.92,110.2-7.24,17.39-14.71,35.36-21.01,53.39-.39,1.11-.64,2.24-.72,3.37v.03c-8.76,20.18-12.61,41.44-14.79,59.14l-.3.88v1.82c-1.27,10.98-1.66,21.95-1.16,32.68,6.03,125.6,145.64,195.32,250.12,236.85,29.83,11.86,59.85,22.01,89.16,30.16,35.3,9.84,71.6,14.76,107.9,14.76s72.6-4.92,107.9-14.76c29.55-8.27,59.55-18.41,89.16-30.16,52.25-20.76,113.27-48.57,161.98-86.92,48.71-38.32,85.12-87.14,88.11-149.93.53-10.81.11-21.9-1.19-32.95ZM693.97,82.17c13.33-6,28.09-9.73,42.6-9.73,9.73,0,19.35,1.66,28.34,5.42,26.73,11.11,43.24,38.04,54.35,64.75,16.09,38.76,24.52,80.62,24.88,122.58-9.01-19.41-21.18-38.76-36.88-58.75-.11-.14-.22-.3-.33-.44-.42-.55-.83-1.11-1.3-1.63l-.03-.03c-.08-.14-.19-.25-.3-.39-5.14-6.5-10.7-13.08-17-20.18-.53-.58-1.02-1.13-1.55-1.71l-.03-.03c-.53-1.66-1.05-3.35-1.63-5-.3-.94-.61-1.88-.97-2.82-.39-1.19-.8-2.32-1.24-3.51-1.35-3.76-2.82-7.46-4.34-11.14-9.29-22.37-19.85-36.52-30.6-41-.41-.17-.83-.33-1.27-.47-.33-.11-.66-.22-1.02-.33-1.05-.33-2.13-.58-3.29-.75-.88-.14-1.8-.25-2.74-.36-.03,0-.08-.03-.11,0-.99-.08-1.99-.11-3.01-.11-.58,0-1.16,0-1.74.03s-1.19.06-1.8.11c-1.19.11-2.41.25-3.65.44-.64.08-1.24.19-1.88.3-1.91.36-3.84.83-5.78,1.38-2.07.61-4.2,1.35-6.33,2.18-1.05.41-2.13.88-3.18,1.35l-.03.03h-.03c-2.43-1.38-4.81-2.71-7.22-3.98-.11-.06-.19-.11-.3-.17-.17-.11-.36-.19-.55-.3h-.03c-.06-.03-.11-.06-.17-.08,0,0-.03,0-.03-.03-12.91-6.77-26.54-12.55-40.75-17.14,9.76-7.11,19.96-13.52,30.94-18.5Zm-306.65,35.55c6.19-.66,13.24-1.24,20.76-1.77,50.54-3.57,133.28-3.57,183.85,0,7.49.53,14.57,1.11,20.76,1.77,1.27.14,2.49.28,3.65.42-.28.77-.53,1.58-.8,2.35l-1.27,3.76-.61,1.74c-13.99,40.83-29.83,87.14-55.24,125.51-11.28,17.06-29.89,39.23-56.09,51.62-1.46.69-3.23.69-4.73,0-26.15-12.39-44.76-34.56-56.04-51.62-25.41-38.37-41.25-84.68-55.24-125.54l-.58-1.66-1.22-3.57c-.3-.86-.58-1.74-.88-2.6,1.19-.14,2.41-.28,3.68-.42Zm-206.63,24.88c11.11-26.71,27.65-53.63,54.35-64.75,9.01-3.76,18.63-5.42,28.37-5.42,14.51,0,29.28,3.73,42.58,9.73,10.98,4.98,21.15,11.36,30.88,18.47-14.18,4.64-27.81,10.42-40.67,17.17-.14.06-.28.14-.41.22-.17.06-.33.17-.5.25-.03.03-.06.06-.08.06-2.43,1.3-4.89,2.65-7.41,4.01-1.77-.8-3.54-1.52-5.28-2.13l-1.3-.47c-.22-.08-.41-.14-.61-.19-.55-.19-1.11-.39-1.66-.53-.17-.08-.36-.14-.53-.17-.94-.28-1.85-.53-2.76-.75-.61-.17-1.22-.3-1.82-.41-.61-.14-1.22-.25-1.8-.36-.69-.14-1.38-.25-2.05-.33-.5-.08-1-.14-1.49-.19-1.13-.11-2.27-.19-3.37-.25-.97-.03-1.91,0-2.85.03-.53,0-1.02.03-1.52.06-1.19.06-2.32.19-3.4.39-1.94.33-3.73.83-5.36,1.52-10.75,4.48-21.32,18.63-30.6,41-.83,1.99-1.6,3.95-2.38,5.97-.66,1.69-1.3,3.37-1.91,5.06-.41,1.11-.8,2.18-1.19,3.29-.53,1.44-1,2.9-1.49,4.34-.19.53-.33,1.05-.5,1.58-.17.5-.3.97-.47,1.47-.08.25-.14.5-.22.72-.08.19-.25.33-.39.5-.14.14-.28.3-.41.44-.28.3-.53.58-.77.88-6.3,7.1-11.86,13.68-16.78,19.93-.11.14-.22.28-.33.41-.55.66-1.11,1.35-1.52,1.88-15.81,20.04-28.12,39.62-37.21,59.22.33-41.97,8.79-83.85,24.88-122.64Zm-27.54,272.65c.3-2.29.55-4.56.8-6.72,0-.11.03-.19.03-.28.64-5.67,1.27-11.33,1.88-17.03,1.63-14.87,3.32-30.24,5.67-45.15,2.02-12.97,4.34-24.36,7.02-34.56-.06.08-.11.14-.19.22l1.38-4.53.08-.33v-.03c.25-.8.47-1.66.8-2.68l.28-.88c.17-.58.33-1.16.53-1.74.11-.36.22-.72.33-1.11.99-3.18,2.1-6.36,3.29-9.57,1.19-3.18,2.49-6.36,3.87-9.54.69-1.6,1.41-3.21,2.16-4.78,1.66-3.59,3.46-7.19,5.39-10.81,1.27-2.4,2.63-4.81,4.04-7.22,2.07-3.62,4.31-7.24,6.66-10.89,3.15-4.87,6.52-9.76,10.15-14.71,1.66-2.24,3.35-4.48,5.11-6.77v-.03c.8-1.02,1.6-2.07,2.43-3.12.17-.22.36-.47.58-.72.19-.28.41-.55.69-.86.61-.77,1.22-1.55,1.85-2.32.22-.61.39-1.24.53-1.88l-.33,1.63c4.26-5.31,8.9-10.81,14.24-16.78,1.02-1.19,2.07-2.35,3.23-3.57.72-.77,1.44-1.55,2.16-2.32,6.25-6.61,12.77-12.86,19.46-18.61.19-.17.39-.33.58-.53,7.69-6.61,15.98-12.94,24.58-18.8,1.96-1.35,3.95-2.65,5.97-3.95,2.35-1.49,4.73-2.93,7.1-4.37,3.37-2.05,6.75-3.98,10.12-5.83h.03c.94-.53,1.85-1,2.76-1.49.14-.06.25-.14.39-.19.5-.28,1-.53,1.52-.77.55-.3,1.08-.61,1.66-.83l.06-.06c1.44-.72,2.87-1.44,4.31-2.13,1.49-.72,2.96-1.41,4.45-2.07,1.77-.83,3.54-1.6,5.34-2.35,1.8-.77,3.62-1.52,5.45-2.24,5.47-2.18,11.06-4.17,16.75-5.94.53-.19,1.08-.36,1.63-.5.53-.19,1.05-.36,1.58-.5.03-.03.06-.03.08,0,.8-.28,1.6-.53,2.41-.75.11-.03.25-.06.36-.11.36-.08.75-.19,1.11-.3.28-.08.53-.14.8-.22.03.08.06.14.08.22.66,1.94,1.33,3.9,1.99,5.83l1.8,5.25c.19.55.39,1.13.58,1.71,13.71,40,30.8,89.35,57.75,130.1,20.54,31.07,46.53,53.44,75.14,64.75,1.63.64,3.35.97,5.09.97h2.52c1.74,0,3.46-.33,5.09-.97,28.59-11.28,54.57-33.67,75.14-64.75,26.96-40.75,44.04-90.07,57.75-130.05.19-.58.39-1.16.58-1.74l1.88-5.53c.64-1.85,1.27-3.7,1.91-5.58.03-.06.06-.11.08-.19.03-.06.03-.11.06-.17l.8.41h.03c.39.11.75.22,1.16.33.03,0,.06.03.08.03.06,0,.11.03.17.06.08.03.14.06.22.06.08.03.14.06.22.06.47.14.94.28,1.41.44.17.03.3.08.47.14h.19c.08.03.14.03.19.03h-.14c.77.22,1.58.47,2.35.75.61.19,1.22.39,1.82.58,1.35.41,2.71.86,4.06,1.33.47.14.94.3,1.41.47.22.08.41.14.64.22,1.55.55,3.12,1.11,4.67,1.69,3.54,1.3,7.02,2.71,10.48,4.17,1.11.47,2.21.94,3.32,1.46.94.39,1.85.8,2.76,1.22l.17.08c1.44.66,2.88,1.33,4.29,2.05.77.36,1.52.72,2.27,1.11.39.17.75.36,1.11.55,0,0,.03,0,.03.03l.03.03c.61.25,1.13.53,1.71.86.5.25.97.5,1.47.75.14.08.28.17.41.22.91.5,1.82.97,2.76,1.49h.03c3.37,1.85,6.77,3.82,10.2,5.89,2.32,1.38,4.67,2.82,7.02,4.31h.03c1.99,1.27,3.98,2.6,5.97,3.93,8.65,5.92,16.92,12.22,24.55,18.83.19.17.39.36.58.53,6.66,5.72,13.19,11.97,19.46,18.58.72.77,1.44,1.55,2.16,2.32,1.13,1.22,2.27,2.46,3.35,3.68,5.17,5.81,9.73,11.2,14.04,16.53l.03.03v.03c.08.08.14.17.22.28l.03.03c.44.55.88,1.13,1.33,1.69.06.08.14.17.19.25l.08.08c.06.06.08.11.14.17l.06.06.36.41c.06.08.14.17.19.25.08.11.17.19.22.3l.03.03s.03,0,.03.03c.08.08.14.14.19.22.03.03.03.06.06.08,0,0,0,.03.03.03.03.03.06.06.06.08v.03l.03.03c.03.06.08.06.08.11l.03.03s.03.03.06.06c.03.06.06.08.08.14l.33.41.06.06.08.08c.03.06.08.08.11.14l.08.08s.06.06.06.08c.08.11.17.19.25.3.11.17.25.33.36.5.36.41.66.83.97,1.24v.03c.91,1.16,1.8,2.35,2.65,3.51.88,1.16,1.74,2.32,2.6,3.48.86,1.13,1.69,2.27,2.46,3.4,1.05,1.49,2.1,2.99,3.12,4.45.72,1.08,1.44,2.13,2.16,3.21.8,1.22,1.6,2.43,2.38,3.65,1.05,1.63,2.07,3.23,3.07,4.87.94,1.49,1.82,2.96,2.68,4.45.5.86,1.02,1.74,1.52,2.63.14.22.25.44.39.66.17.28.3.55.47.83.06.11.11.19.17.3.28.5.55,1,.83,1.49.8,1.47,1.58,2.9,2.35,4.37,1.69,3.18,3.23,6.36,4.7,9.51.72,1.58,1.44,3.15,2.1,4.73.69,1.58,1.35,3.15,1.99,4.73.72,1.77,1.41,3.54,2.07,5.34.5,1.38,1,2.76,1.47,4.15.55,1.58,1.05,3.12,1.55,4.7.11.36.22.72.33,1.08v.03c.19.55.36,1.11.53,1.66l.06.25.44,1.49c.08.22.14.41.19.61l.36,1.24.08.3,1.41,4.59c-.11-.11-.19-.19-.25-.3,2.76,10.4,5.06,21.79,7.08,34.72,2.38,15.18,4.06,30.83,5.72,45.98.58,5.31,1.16,10.59,1.77,15.84,0,.14.03.33.06.47v.06l.83,6.77c4.51,37.05,18.11,72.29,32.21,106.41-7.41-3.98-15.32-7.35-23.69-10.15-1.82-.64-3.68-1.24-5.56-1.8-2.16-.69-4.37-1.3-6.58-1.91-1.16-.3-2.32-.61-3.51-.88-1.22-.3-2.46-.61-3.7-.88-1.3-.3-2.6-.58-3.93-.86-1.46-.3-2.9-.58-4.37-.86-1.88-.36-3.76-.66-5.64-.94-.58-.08-1.16-.17-1.77-.25-.3-.06-.61-.11-.94-.14-.72-.11-1.44-.22-2.16-.3-.28-.06-.58-.08-.86-.11-.58-.08-1.16-.17-1.71-.22-2.13-.25-4.28-.5-6.44-.69-.3-.03-.64-.06-.94-.08-1.08-.11-2.13-.19-3.21-.25-1.22-.11-2.43-.19-3.68-.25-1.58-.11-3.15-.19-4.76-.25h-.08c-3.81-.14-7.63-.22-11.45-.22-2.29,0-4.56.03-6.83.08-.61,0-1.22.03-1.8.06-.58,0-1.19.03-1.8.06-1.11.03-2.18.08-3.26.14-.8.03-1.6.06-2.38.14-.5,0-1,.03-1.47.08-.58.03-1.16.06-1.74.11-.58,0-1.16.06-1.74.11-3.37.25-6.66.58-9.59.88-1.69.19-3.37.36-5.06.55-.06.03-.11.03-.17.03-1.13.14-2.29.3-3.46.47-1.13.17-2.27.33-3.43.5-1.52.22-3.07.47-4.59.72-5.75.94-11.45,2.05-17.14,3.35-.3.08-.58.14-.88.19l-2.57.61c-.25.06-.53.14-.77.19-3.37.8-6.66,1.69-9.87,2.57-.44.11-.86.22-1.27.36-.8.22-1.58.47-2.35.69-9.79,2.88-19.41,6.28-28.64,10.09-11.09,4.59-21.81,9.87-31.85,15.59-.06.03-.11.06-.14.08-.39.19-.75.36-1.13.55l-1.41.69c-14.9,7.3-29.5,15.23-43.74,23.75-1.08-1.27-2.27-2.46-3.59-3.57-26.02-21.45-58.47-33.34-91.4-33.51h-.25c-32.9.17-65.36,12.05-91.37,33.51-1.33,1.11-2.54,2.29-3.62,3.59-14.21-8.51-28.81-16.45-43.71-23.78l-1.16-.55-.19-.11c-10.26-5.92-21.37-11.42-33.01-16.26-11.11-4.59-22.5-8.49-33.7-11.56,1.49.44,2.99.88,4.48,1.35-1.58-.5-3.15-.97-4.73-1.41-1.58-.44-3.18-.86-4.78-1.27-.06-.03-.11-.03-.17-.06-.55-.14-1.13-.28-1.69-.41-.47-.11-.94-.22-1.41-.33-1.33-.33-2.65-.64-3.95-.94-1.8-.42-3.59-.8-5.39-1.19-.83-.17-1.66-.33-2.49-.5-.19-.06-.39-.08-.61-.11-1.13-.22-2.27-.44-3.43-.66-1.05-.22-2.1-.41-3.18-.58-1.49-.28-2.99-.53-4.51-.75-1.66-.28-3.35-.53-5.03-.75-1.27-.17-2.54-.36-3.82-.5-3.32-.41-6.63-.8-9.95-1.11-.86-.08-1.71-.17-2.57-.22-.69-.06-1.41-.08-2.1-.14-.3-.03-.58-.06-.86-.08-.94-.08-1.88-.14-2.85-.19-1.33-.08-2.68-.17-4.04-.22-.28-.03-.58-.06-.91-.06-2.24-.11-4.51-.19-6.8-.22-2.16-.06-4.34-.08-6.5-.08-3.82,0-7.63.08-11.45.22-6.05.25-11.97.69-17.78,1.38-.83.08-1.66.17-2.49.28-1.33.17-2.68.36-3.98.55-1.49.22-2.99.44-4.45.69-.83.11-1.63.25-2.43.41-.77.14-1.52.28-2.27.41-.08,0-.14.03-.19.03-1.24.25-2.43.47-3.65.75-.53.08-1.05.19-1.55.33-1.02.19-2.02.44-3.01.69-.33.06-.64.11-.94.22-.03-.03-.06-.03-.06,0-1.16.28-2.29.55-3.43.86-1.41.36-2.79.72-4.15,1.11-1.94.55-3.87,1.13-5.75,1.74-1.88.58-3.73,1.22-5.56,1.85-1.88.66-3.73,1.35-5.56,2.1-1.8.69-3.57,1.44-5.34,2.21-1.52.66-3.01,1.35-4.48,2.07-.47.22-.97.44-1.44.69-.14.06-.3.11-.44.22-1.3.61-2.57,1.27-3.84,1.94-.19.11-.39.22-.58.3,14.1-34.12,27.7-69.36,32.24-106.47Zm353.29,237.12c-.72.33-1.47.64-2.21.91-.03.03-.08.06-.14.06-1.35.55-2.76,1.08-4.17,1.58h-.03c-1.41-.5-2.82-1.02-4.17-1.58h-.03c-.06,0-.08-.03-.11-.06-.75-.28-1.47-.58-2.16-.88h-.03c-23.19-9.9-40.45-27.98-54.44-50.21l-.03-.03c-1.6-2.49-3.12-5.03-4.62-7.6-2.63-4.56-5.42-9.07-8.35-13.49,1.02-.83,2.05-1.66,3.1-2.46,20.18-15.56,45.4-24.61,70.83-24.74,25.43.14,50.62,9.18,70.8,24.74,1.05.77,2.1,1.6,3.12,2.46-2.93,4.42-5.72,8.93-8.35,13.49-1.49,2.57-3.01,5.11-4.62,7.6-13.96,22.23-31.24,40.28-54.38,50.21h-.03Zm46.2,145.53c16.84,12.05,34.7,21.9,52.8,29.14h.03s.06.03.08.03c-10.23,5.2-19.55,11.56-28.67,17.75-6.3,4.29-12.28,8.35-18.38,11.94-2.54,1.49-5.14,2.9-7.8,4.17-.88.44-1.77.86-2.65,1.27-1.19.55-2.38,1.08-3.57,1.6-1.58.69-3.18,1.33-4.81,1.94-1.05.44-2.1.83-3.15,1.16-.06.06-.11.08-.17.06-1.05.39-2.1.75-3.15,1.05-1.3.44-2.63.83-3.93,1.19-.99.28-1.99.55-2.99.8-2.99.77-6,1.41-9.04,1.91-.94.19-1.91.36-2.88.47-1.96.3-3.93.55-5.89.72-.94.11-1.88.19-2.85.25-1.88.17-3.76.25-5.67.3-1.91-.06-3.82-.14-5.72-.3-.94-.06-1.88-.14-2.85-.25-3.29-.3-6.58-.77-9.84-1.38-.58-.08-1.16-.19-1.71-.33-.8-.14-1.6-.3-2.41-.5-.8-.17-1.6-.36-2.38-.55-.72-.17-1.41-.33-2.13-.53-.08,0-.17-.03-.25-.06-1.91-.5-3.79-1.05-5.67-1.63-.03,0-.03-.03-.06-.03-.83-.25-1.69-.53-2.52-.83-.86-.28-1.74-.58-2.6-.91-1.3-.44-2.57-.94-3.84-1.47-.61-.22-1.19-.47-1.8-.75-1.24-.5-2.46-1.05-3.68-1.6-.88-.39-1.77-.8-2.63-1.24-1.49-.72-2.99-1.47-4.45-2.29-1.33-.69-2.65-1.44-3.98-2.21-.19-.11-.41-.25-.61-.39-3.07-1.8-6.08-3.73-9.12-5.75-2.82-1.88-5.67-3.82-8.6-5.81-2.82-1.91-5.64-3.84-8.52-5.72-.99-.66-1.99-1.33-2.99-1.96-.33-.22-.69-.44-1.02-.66-1.44-.94-2.9-1.85-4.4-2.76-1.8-1.11-3.62-2.21-5.5-3.26-1.11-.64-2.24-1.27-3.4-1.88-.97-.53-1.96-1.05-2.99-1.55,0-.03-.03-.03-.06-.06.03.03.06.03.08.03,18.11-7.24,35.97-17.09,52.78-29.11,20.54-14.71,36.83-32.24,48.35-52.09,1.55-2.68,3.01-5.39,4.4-8.13,1.35,2.74,2.82,5.45,4.37,8.13,11.56,19.85,27.84,37.38,48.38,52.09Zm-351.52,13.88c-1.33-.19-2.68-.41-4.06-.69-1.24-.19-2.52-.41-3.79-.69-1.3-.25-2.57-.53-3.87-.83-1-.22-2.02-.47-3.07-.69-1.08-.25-2.16-.53-3.23-.83-.94-.25-1.94-.5-2.87-.8-.77-.22-1.55-.44-2.32-.69-.77-.22-1.55-.47-2.32-.75-1.13-.36-2.24-.75-3.37-1.16-1.88-.66-3.73-1.41-5.56-2.18-.8-.33-1.63-.72-2.43-1.08-1.74-.8-3.48-1.63-5.17-2.54-.53-.3-1.05-.58-1.58-.88-.44-.25-.91-.5-1.35-.77-1.11-.64-2.21-1.33-3.29-2.02-.88-.58-1.77-1.19-2.63-1.8-.75-.53-1.52-1.08-2.24-1.66-1.02-.75-1.99-1.52-2.96-2.35-1.11-.94-2.18-1.88-3.26-2.85-.41-.33-.8-.69-1.19-1.05-.66-.58-1.33-1.19-1.96-1.8-.66-.61-1.33-1.22-1.96-1.85-.25-.22-.5-.47-.75-.72-.64-.61-1.27-1.22-1.88-1.85-.64-.61-1.24-1.22-1.82-1.85-1.35-1.38-2.68-2.79-3.98-4.23-.66-.72-1.3-1.44-1.94-2.16-1.8-2.02-3.54-4.09-5.23-6.19-2.05-2.52-4.01-5.09-5.92-7.74-1.85-2.63-3.68-5.31-5.42-8.02-1.74-2.74-3.43-5.53-5.03-8.35-1.58-2.79-3.1-5.64-4.51-8.52-.72-1.46-1.44-2.9-2.1-4.37-1.88-4.04-3.59-8.13-5.14-12.27-.58-1.52-1.13-3.04-1.66-4.56-.69-1.91-1.3-3.82-1.91-5.75-.5-1.55-.94-3.1-1.38-4.64-.41-1.55-.83-3.1-1.24-4.67-.42-1.58-.77-3.15-1.11-4.73-.39-1.58-.72-3.15-.99-4.76-.64-3.18-1.16-6.36-1.6-9.57-.25-1.6-.44-3.23-.61-4.84-.17-1.6-.33-3.23-.47-4.84-.17-1.63-.28-3.23-.33-4.87-.11-1.63-.17-3.26-.22-4.89-.03-.77-.06-1.58-.03-2.38-.11-4.12,0-8.27.22-12.39.03-.14.03-.3.06-.44,4.37-35.69,13.41-60.55,28.45-77.66.64-.69,1.22-1.38,1.85-2.05.47-.5.91-1,1.41-1.47.75-.75,1.49-1.49,2.27-2.18.58-.53,1.19-1.05,1.77-1.55.36-.33.75-.64,1.13-.94.47-.42.91-.8,1.41-1.16.47-.39.97-.77,1.46-1.13.19-.17.36-.3.55-.41.3-.25.61-.47.91-.66,1.3-.97,2.6-1.85,3.95-2.71,20.46-13.05,47.63-20.6,78.57-21.79.88-.03,1.77-.06,2.63-.08,1.3-.06,2.6-.06,3.87-.08,1.3-.03,2.6-.03,3.87-.03,1.47,0,2.93,0,4.4.03.5,0,1.02.03,1.52.03h.25c.25.03.5.03.75.03.44,0,.91.03,1.35.06.41,0,.83.03,1.24.03.88.03,1.77.06,2.63.08h.11c.06,0,.08,0,.14.03h.3c.06.03.11.03.17.03,1.82.06,3.68.19,5.69.33l.5.03c.25.03.5.06.75.08,1.63.11,3.29.25,4.92.41,2.46.22,4.92.47,7.35.77.06.03.14.03.19.03.72.08,1.44.17,2.16.28.72.11,1.44.19,2.13.28l.47.08,1.22.17c.94.14,1.91.28,2.85.44,1.82.28,3.62.58,5.42.91,2.27.39,4.53.83,6.77,1.3,1.35.28,2.71.55,4.04.86.97.19,1.94.41,2.9.66,1.71.39,3.43.8,5.14,1.24,1.44.36,2.85.75,4.26,1.16,21.07,5.94,40.67,15.51,61.32,25.6.11.06.19.11.3.17.06.06.14.08.19.11l1.71.83c14.4,7.08,28.5,14.74,42.27,22.97,6.58,3.93,12.14,9.34,16.15,15.9,1.08,1.74,2.1,3.46,3.07,5.11,5.39,9.37,11.09,17.86,17.09,25.55,16.81,21.51,36,36.41,58.08,45.17,0,3.26-.3,15.59-.86,18.44-.88,4.51-2.07,8.99-3.59,13.44-1.44,4.4-3.21,8.74-5.28,12.99-1.27,2.68-2.68,5.36-4.2,7.96-9.57,16.48-23.22,31.1-40.56,43.52-21.54,15.4-45.67,27.65-71.55,33.59-14.82,3.4-29.94,5.11-45.06,6.08-13.66.88-28.09,2.38-41.55,2.16-5.25-.08-10.56-.25-15.98-.47-5.11-.22-10.34-.5-15.65-.88-.88-.06-1.77-.11-2.65-.19-.88-.06-1.77-.11-2.65-.19-1.77-.14-3.54-.28-5.34-.44-5.39-.44-10.84-.97-16.42-1.58-4.17-.44-8.57-1-13.08-1.71Zm485.75,72.82c-28.72,11.39-57.78,21.23-86.39,29.22-65.72,18.3-135.22,18.3-200.93,0-28.39-7.91-57.45-17.75-86.39-29.22-29.47-11.72-61.96-25.77-93.08-42.71.11,0,.25.03.36.03,3.04.28,6.05.55,9.04.8,1.49.14,2.99.28,4.48.36,1.49.11,2.96.22,4.42.33,2.93.19,5.86.39,8.74.55,2.9.17,5.78.3,8.63.44,1.94.08,3.9.17,5.83.22,1.94.08,3.84.14,5.78.17h.03c1.74.06,3.46.08,5.17.11,2.24.03,4.48.06,6.66.06h.08c10.01.03,19.77-.22,29.33-.75,3.01-.17,6.05-.36,9.07-.55,4.45-.28,8.82-.55,13.1-.75,1.44-.06,2.88-.11,4.28-.17,1.94-.03,3.87-.08,5.78-.08,1.35,0,2.71.03,4.04.06h.17c1.69.06,3.35.11,4.98.25.11,0,.25.03.36.03.97.06,1.96.14,2.93.25,1.08.11,2.16.22,3.23.39.47.06.94.11,1.41.19,1.69.25,3.35.55,4.98.94.72.14,1.44.3,2.13.5.69.17,1.35.33,2.02.53,14.29,4.06,27.04,12.74,40.53,21.92,6.36,4.34,12.97,8.82,19.85,12.88,22.06,12.97,47.03,20.13,72.18,20.71h.66c1.49-.03,2.96-.08,4.45-.19.58-.03,1.16-.06,1.74-.11,2.6-.14,5.23-.39,7.8-.72,1.27-.17,2.54-.33,3.79-.5,1.22-.19,2.41-.39,3.59-.58.11,0,.22,0,.33-.06,1.22-.22,2.43-.44,3.65-.69,1.24-.25,2.49-.53,3.76-.8,1.88-.41,3.73-.88,5.58-1.38h.03c12.97-3.51,25.55-8.79,37.32-15.68,6.88-4.06,13.46-8.54,19.85-12.88,13.49-9.18,26.24-17.86,40.53-21.92,3.18-.88,6.39-1.58,9.68-2.05,1.6-.22,3.21-.39,4.84-.55,1.19-.14,2.43-.19,3.59-.28,1.66-.11,3.29-.17,4.95-.19,1.11-.03,2.21-.06,3.35-.06,7.49,0,15.23.53,23.17,1.02,2.96.17,5.92.36,8.87.53,9.57.53,19.32.77,29.36.75h.06c2.24,0,4.51-.03,6.77-.06,1.69-.03,3.35-.06,5.03-.11,3.87-.08,7.8-.22,11.78-.39,5.67-.25,11.45-.58,17.31-1,2.21-.14,4.42-.3,6.64-.5,2.24-.17,4.48-.36,6.75-.58,1.66-.11,3.37-.28,5.06-.44-31.1,16.95-63.59,30.99-93.06,42.71Zm167.95-95.24c-20.04,16.89-47.52,21.79-69.23,24.14-46.09,4.95-97.54,6.94-143.01-3.59-24.88-5.81-50.43-17.72-73.84-34.47-17.33-12.41-30.99-27.04-40.56-43.52-1.52-2.6-2.93-5.25-4.2-7.93-2.07-4.26-3.84-8.6-5.28-12.99-1.52-4.42-2.71-8.93-3.59-13.41-.58-2.9-.88-15.23-.88-18.5,22.23-8.79,41.52-23.83,58.36-45.51,5.92-7.6,11.5-15.98,16.84-25.21,1.08-1.85,2.21-3.76,3.46-5.78,3.79-6.14,9.01-11.2,15.21-14.9,13.91-8.38,28.23-16.15,42.82-23.31l1.44-.69c.66-.33,1.33-.66,1.99-.97.03-.03.06-.03.08-.06.08-.03.17-.08.25-.14,18.16-8.9,35.58-17.31,53.94-23.11.53-.17,1.02-.33,1.55-.5.97-.3,1.96-.58,2.96-.86,1.85-.55,3.7-1.08,5.58-1.55,6.05-1.52,12.14-2.85,18.25-3.93,1.11-.22,2.18-.39,3.29-.58,1.74-.3,3.48-.58,5.23-.83.91-.17,1.82-.3,2.79-.39,1.55-.25,3.12-.42,4.7-.61.86-.11,1.71-.22,2.6-.28,2.13-.25,4.26-.47,6.39-.64.91-.08,1.82-.17,2.74-.22.94-.08,1.91-.17,2.88-.19,1.16-.11,2.32-.17,3.48-.22,1.58-.08,3.15-.14,4.76-.17.72-.06,1.41-.06,2.13-.08.64-.03,1.27-.03,1.91-.03,1.41-.03,2.82-.03,4.23-.03.86,0,1.71,0,2.6.03.86-.03,1.71,0,2.6.03,1.71.03,3.43.08,5.17.14.41.03.83.03,1.22.06,1.24.06,2.49.11,3.73.19.44.03.88.06,1.33.08,1.33.08,2.74.19,4.23.3,2.18.19,4.34.41,6.47.69,1.49.19,2.99.39,4.48.58,2.76.39,5.5.86,8.21,1.35,1.19.22,2.35.47,3.51.69,17.25,3.68,32.65,9.7,45.4,17.83,25.57,16.31,39.53,44.79,45.23,92.31.19,3.26.28,6.55.28,9.81,0,52.33-23.36,102.9-63.67,136.93Z"/>
  <path class="cls-3" d="m336.87,100.64c-14.18,4.64-27.81,10.42-40.67,17.17-.14.06-.28.14-.41.22-.17.06-.33.17-.5.25-.03.03-.06.06-.08.06-2.43,1.3-4.89,2.65-7.41,4.01-1.77-.8-3.54-1.52-5.28-2.13l-1.3-.47c-.22-.08-.41-.14-.61-.19-.55-.19-1.11-.39-1.66-.53-.17-.08-.36-.14-.53-.17-.94-.28-1.85-.53-2.76-.75-.61-.17-1.22-.3-1.82-.41-.61-.14-1.22-.25-1.8-.36-.69-.14-1.38-.25-2.05-.33-.5-.08-1-.14-1.49-.19-1.13-.11-2.27-.19-3.37-.25-.97-.03-1.91,0-2.85.03-.53,0-1.02.03-1.52.06-1.19.06-2.32.19-3.4.39-1.94.33-3.73.83-5.36,1.52-10.75,4.48-21.32,18.63-30.6,41-.83,1.99-1.6,3.95-2.38,5.97-.66,1.69-1.3,3.37-1.91,5.06-.41,1.11-.8,2.18-1.19,3.29-.53,1.44-1,2.9-1.49,4.34-.19.53-.33,1.05-.5,1.58-.17.5-.3.97-.47,1.47-.08.25-.14.5-.22.72-.08.19-.25.33-.39.5-.14.14-.28.3-.41.44-.28.3-.53.58-.77.88-6.3,7.1-11.86,13.68-16.78,19.93-.11.14-.22.28-.33.41-.55.66-1.11,1.35-1.52,1.88-15.81,20.04-28.12,39.62-37.21,59.22.33-41.97,8.79-83.85,24.88-122.64,11.11-26.71,27.65-53.63,54.35-64.75,9.01-3.76,18.63-5.42,28.37-5.42,14.51,0,29.28,3.73,42.58,9.73,10.98,4.98,21.15,11.36,30.88,18.47Z"/>
  <path class="cls-2" d="m573.82,581.07c-2.93,4.42-5.72,8.93-8.35,13.49-1.49,2.57-3.01,5.11-4.62,7.6-13.96,22.23-31.24,40.28-54.38,50.21h-.03c-.72.33-1.47.64-2.21.91-.03.03-.08.06-.14.06-1.35.55-2.76,1.08-4.17,1.58h-.03c-1.41-.5-2.82-1.02-4.17-1.58h-.03c-.06,0-.08-.03-.11-.06-.75-.28-1.47-.58-2.16-.88h-.03c-23.19-9.9-40.45-27.98-54.44-50.21l-.03-.03c-1.6-2.49-3.12-5.03-4.62-7.6-2.63-4.56-5.42-9.07-8.35-13.49,1.02-.83,2.05-1.66,3.1-2.46,20.18-15.56,45.4-24.61,70.83-24.74,25.43.14,50.62,9.18,70.8,24.74,1.05.77,2.1,1.6,3.12,2.46Z"/>
  <path class="cls-2" d="m616.34,118.14c-.28.77-.53,1.58-.8,2.35l-1.27,3.76-.61,1.74c-13.99,40.83-29.83,87.14-55.24,125.51-11.28,17.06-29.89,39.23-56.09,51.62-1.46.69-3.23.69-4.73,0-26.15-12.39-44.76-34.56-56.04-51.62-25.41-38.37-41.25-84.68-55.24-125.54l-.58-1.66-1.22-3.57c-.3-.86-.58-1.74-.88-2.6,1.19-.14,2.41-.28,3.68-.42,6.19-.66,13.24-1.24,20.76-1.77,50.54-3.57,133.28-3.57,183.85,0,7.49.53,14.57,1.11,20.76,1.77,1.27.14,2.49.28,3.65.42Z"/>
  <path class="cls-1" d="m485.55,679.08c0,3.26-.3,15.59-.86,18.44-.88,4.51-2.07,8.99-3.59,13.44-1.44,4.4-3.21,8.74-5.28,12.99-1.27,2.68-2.68,5.36-4.2,7.96-9.57,16.48-23.22,31.1-40.56,43.52-21.54,15.4-45.67,27.65-71.55,33.59-14.82,3.4-29.94,5.11-45.06,6.08-13.66.88-28.09,2.38-41.55,2.16-5.25-.08-10.56-.25-15.98-.47-5.11-.22-10.34-.5-15.65-.88-.88-.06-1.77-.11-2.65-.19-.88-.06-1.77-.11-2.65-.19-1.77-.14-3.54-.28-5.34-.44-5.39-.44-10.84-.97-16.42-1.58-4.17-.44-8.57-1-13.08-1.71-1.33-.19-2.68-.41-4.06-.69-1.24-.19-2.52-.41-3.79-.69-1.3-.25-2.57-.53-3.87-.83-1-.22-2.02-.47-3.07-.69-1.08-.25-2.16-.53-3.23-.83-.94-.25-1.94-.5-2.87-.8-.77-.22-1.55-.44-2.32-.69-.77-.22-1.55-.47-2.32-.75-1.13-.36-2.24-.75-3.37-1.16-1.88-.66-3.73-1.41-5.56-2.18-.8-.33-1.63-.72-2.43-1.08-1.74-.8-3.48-1.63-5.17-2.54-.53-.3-1.05-.58-1.58-.88-.44-.25-.91-.5-1.35-.77-1.11-.64-2.21-1.33-3.29-2.02-.88-.58-1.77-1.19-2.63-1.8-.75-.53-1.52-1.08-2.24-1.66-1.02-.75-1.99-1.52-2.96-2.35-1.11-.94-2.18-1.88-3.26-2.85-.41-.33-.8-.69-1.19-1.05-.66-.58-1.33-1.19-1.96-1.8-.66-.61-1.33-1.22-1.96-1.85-.25-.22-.5-.47-.75-.72-.64-.61-1.27-1.22-1.88-1.85-.64-.61-1.24-1.22-1.82-1.85-1.35-1.38-2.68-2.79-3.98-4.23-.66-.72-1.3-1.44-1.94-2.16-1.8-2.02-3.54-4.09-5.23-6.19-2.05-2.52-4.01-5.09-5.92-7.74-1.85-2.63-3.68-5.31-5.42-8.02-1.74-2.74-3.43-5.53-5.03-8.35-1.58-2.79-3.1-5.64-4.51-8.52-.72-1.46-1.44-2.9-2.1-4.37-1.88-4.04-3.59-8.13-5.14-12.27-.58-1.52-1.13-3.04-1.66-4.56-.69-1.91-1.3-3.82-1.91-5.75-.5-1.55-.94-3.1-1.38-4.64-.41-1.55-.83-3.1-1.24-4.67-.42-1.58-.77-3.15-1.11-4.73-.39-1.58-.72-3.15-.99-4.76-.64-3.18-1.16-6.36-1.6-9.57-.25-1.6-.44-3.23-.61-4.84-.17-1.6-.33-3.23-.47-4.84-.17-1.63-.28-3.23-.33-4.87-.11-1.63-.17-3.26-.22-4.89-.03-.77-.06-1.58-.03-2.38-.11-4.12,0-8.27.22-12.39.03-.14.03-.3.06-.44,4.37-35.69,13.41-60.55,28.45-77.66.64-.69,1.22-1.38,1.85-2.05.47-.5.91-1,1.41-1.47.75-.75,1.49-1.49,2.27-2.18.58-.53,1.19-1.05,1.77-1.55.36-.33.75-.64,1.13-.94.47-.42.91-.8,1.41-1.16.47-.39.97-.77,1.46-1.13.19-.17.36-.3.55-.41.3-.25.61-.47.91-.66,1.3-.97,2.6-1.85,3.95-2.71,20.46-13.05,47.63-20.6,78.57-21.79.88-.03,1.77-.06,2.63-.08,1.3-.06,2.6-.06,3.87-.08,1.3-.03,2.6-.03,3.87-.03,1.47,0,2.93,0,4.4.03.5,0,1.02.03,1.52.03h.25c.25.03.5.03.75.03.44,0,.91.03,1.35.06.41,0,.83.03,1.24.03.88.03,1.77.06,2.63.08h.11c.06,0,.08,0,.14.03h.3c.06.03.11.03.17.03,1.82.06,3.68.19,5.69.33l.5.03c.25.03.5.06.75.08,1.63.11,3.29.25,4.92.41,2.46.22,4.92.47,7.35.77.06.03.14.03.19.03.72.08,1.44.17,2.16.28.72.11,1.44.19,2.13.28l.47.08,1.22.17c.94.14,1.91.28,2.85.44,1.82.28,3.62.58,5.42.91,2.27.39,4.53.83,6.77,1.3,1.35.28,2.71.55,4.04.86.97.19,1.94.41,2.9.66,1.71.39,3.43.8,5.14,1.24,1.44.36,2.85.75,4.26,1.16,21.07,5.94,40.67,15.51,61.32,25.6.11.06.19.11.3.17.06.06.14.08.19.11l1.71.83c14.4,7.08,28.5,14.74,42.27,22.97,6.58,3.93,12.14,9.34,16.15,15.9,1.08,1.74,2.1,3.46,3.07,5.11,5.39,9.37,11.09,17.86,17.09,25.55,16.81,21.51,36,36.41,58.08,45.17Z"/>
  <path class="cls-1" d="m918.49,652.43c0,52.33-23.36,102.9-63.67,136.93-20.04,16.89-47.52,21.79-69.23,24.14-46.09,4.95-97.54,6.94-143.01-3.59-24.88-5.81-50.43-17.72-73.84-34.47-17.33-12.41-30.99-27.04-40.56-43.52-1.52-2.6-2.93-5.25-4.2-7.93-2.07-4.26-3.84-8.6-5.28-12.99-1.52-4.42-2.71-8.93-3.59-13.41-.58-2.9-.88-15.23-.88-18.5,22.23-8.79,41.52-23.83,58.36-45.51,5.92-7.6,11.5-15.98,16.84-25.21,1.08-1.85,2.21-3.76,3.46-5.78,3.79-6.14,9.01-11.2,15.21-14.9,13.91-8.38,28.23-16.15,42.82-23.31l1.44-.69c.66-.33,1.33-.66,1.99-.97.03-.03.06-.03.08-.06.08-.03.17-.08.25-.14,18.16-8.9,35.58-17.31,53.94-23.11.53-.17,1.02-.33,1.55-.5.97-.3,1.96-.58,2.96-.86,1.85-.55,3.7-1.08,5.58-1.55,6.05-1.52,12.14-2.85,18.25-3.93,1.11-.22,2.18-.39,3.29-.58,1.74-.3,3.48-.58,5.23-.83.91-.17,1.82-.3,2.79-.39,1.55-.25,3.12-.42,4.7-.61.86-.11,1.71-.22,2.6-.28,2.13-.25,4.26-.47,6.39-.64.91-.08,1.82-.17,2.74-.22.94-.08,1.91-.17,2.88-.19,1.16-.11,2.32-.17,3.48-.22,1.58-.08,3.15-.14,4.76-.17.72-.06,1.41-.06,2.13-.08.64-.03,1.27-.03,1.91-.03,1.41-.03,2.82-.03,4.23-.03.86,0,1.71,0,2.6.03.86-.03,1.71,0,2.6.03,1.71.03,3.43.08,5.17.14.41.03.83.03,1.22.06,1.24.06,2.49.11,3.73.19.44.03.88.06,1.33.08,1.33.08,2.74.19,4.23.3,2.18.19,4.34.41,6.47.69,1.49.19,2.99.39,4.48.58,2.76.39,5.5.86,8.21,1.35,1.19.22,2.35.47,3.51.69,17.25,3.68,32.65,9.7,45.4,17.83,25.57,16.31,39.53,44.79,45.23,92.31.19,3.26.28,6.55.28,9.81Z"/>
  <path class="cls-3" d="m779.93,841.89c-31.1,16.95-63.59,30.99-93.06,42.71-28.72,11.39-57.78,21.23-86.39,29.22-65.72,18.3-135.22,18.3-200.93,0-28.39-7.91-57.45-17.75-86.39-29.22-29.47-11.72-61.96-25.77-93.08-42.71.11,0,.25.03.36.03,3.04.28,6.05.55,9.04.8,1.49.14,2.99.28,4.48.36,1.49.11,2.96.22,4.42.33,2.93.19,5.86.39,8.74.55,2.9.17,5.78.3,8.63.44,1.94.08,3.9.17,5.83.22,1.94.08,3.84.14,5.78.17h.03c1.74.06,3.46.08,5.17.11,2.24.03,4.48.06,6.66.06h.08c10.01.03,19.77-.22,29.33-.75,3.01-.17,6.05-.36,9.07-.55,4.45-.28,8.82-.55,13.1-.75,1.44-.06,2.88-.11,4.28-.17,1.94-.03,3.87-.08,5.78-.08,1.35,0,2.71.03,4.04.06h.17c1.69.06,3.35.11,4.98.25.11,0,.25.03.36.03.97.06,1.96.14,2.93.25,1.08.11,2.16.22,3.23.39.47.06.94.11,1.41.19,1.69.25,3.35.55,4.98.94.72.14,1.44.3,2.13.5.69.17,1.35.33,2.02.53,14.29,4.06,27.04,12.74,40.53,21.92,6.36,4.34,12.97,8.82,19.85,12.88,22.06,12.97,47.03,20.13,72.18,20.71h.66c1.49-.03,2.96-.08,4.45-.19.58-.03,1.16-.06,1.74-.11,2.6-.14,5.23-.39,7.8-.72,1.27-.17,2.54-.33,3.79-.5,1.22-.19,2.41-.39,3.59-.58.11,0,.22,0,.33-.06,1.22-.22,2.43-.44,3.65-.69,1.24-.25,2.49-.53,3.76-.8,1.88-.41,3.73-.88,5.58-1.38h.03c12.97-3.51,25.55-8.79,37.32-15.68,6.88-4.06,13.46-8.54,19.85-12.88,13.49-9.18,26.24-17.86,40.53-21.92,3.18-.88,6.39-1.58,9.68-2.05,1.6-.22,3.21-.39,4.84-.55,1.19-.14,2.43-.19,3.59-.28,1.66-.11,3.29-.17,4.95-.19,1.11-.03,2.21-.06,3.35-.06,7.49,0,15.23.53,23.17,1.02,2.96.17,5.92.36,8.87.53,9.57.53,19.32.77,29.36.75h.06c2.24,0,4.51-.03,6.77-.06,1.69-.03,3.35-.06,5.03-.11,3.87-.08,7.8-.22,11.78-.39,5.67-.25,11.45-.58,17.31-1,2.21-.14,4.42-.3,6.64-.5,2.24-.17,4.48-.36,6.75-.58,1.66-.11,3.37-.28,5.06-.44Z"/>
  <path class="cls-3" d="m844.15,265.19c-9.01-19.41-21.18-38.76-36.88-58.75-.11-.14-.22-.3-.33-.44-.42-.55-.83-1.11-1.3-1.63l-.03-.03c-.08-.14-.19-.25-.3-.39-5.14-6.5-10.7-13.08-17-20.18-.53-.58-1.02-1.13-1.55-1.71l-.03-.03c-.53-1.66-1.05-3.35-1.63-5-.3-.94-.61-1.88-.97-2.82-.39-1.19-.8-2.32-1.24-3.51-1.35-3.76-2.82-7.46-4.34-11.14-9.29-22.37-19.85-36.52-30.6-41-.41-.17-.83-.33-1.27-.47-.33-.11-.66-.22-1.02-.33-1.05-.33-2.13-.58-3.29-.75-.88-.14-1.8-.25-2.74-.36-.03,0-.08-.03-.11,0-.99-.08-1.99-.11-3.01-.11-.58,0-1.16,0-1.74.03s-1.19.06-1.8.11c-1.19.11-2.41.25-3.65.44-.64.08-1.24.19-1.88.3-1.91.36-3.84.83-5.78,1.38-2.07.61-4.2,1.35-6.33,2.18-1.05.41-2.13.88-3.18,1.35l-.03.03h-.03c-2.43-1.38-4.81-2.71-7.22-3.98-.11-.06-.19-.11-.3-.17-.17-.11-.36-.19-.55-.3h-.03c-.06-.03-.11-.06-.17-.08,0,0-.03,0-.03-.03-12.91-6.77-26.54-12.55-40.75-17.14,9.76-7.11,19.96-13.52,30.94-18.5,13.33-6,28.09-9.73,42.6-9.73,9.73,0,19.35,1.66,28.34,5.42,26.73,11.11,43.24,38.04,54.35,64.75,16.09,38.76,24.52,80.62,24.88,122.58Z"/>
  <path class="cls-3" d="m879.04,521.69c-7.41-3.98-15.32-7.35-23.69-10.15-1.82-.64-3.68-1.24-5.56-1.8-2.16-.69-4.37-1.3-6.58-1.91-1.16-.3-2.32-.61-3.51-.88-1.22-.3-2.46-.61-3.7-.88-1.3-.3-2.6-.58-3.93-.86-1.46-.3-2.9-.58-4.37-.86-1.88-.36-3.76-.66-5.64-.94-.58-.08-1.16-.17-1.77-.25-.3-.06-.61-.11-.94-.14-.72-.11-1.44-.22-2.16-.3-.28-.06-.58-.08-.86-.11-.58-.08-1.16-.17-1.71-.22-2.13-.25-4.28-.5-6.44-.69-.3-.03-.64-.06-.94-.08-1.08-.11-2.13-.19-3.21-.25-1.22-.11-2.43-.19-3.68-.25-1.58-.11-3.15-.19-4.76-.25h-.08c-3.81-.14-7.63-.22-11.45-.22-2.29,0-4.56.03-6.83.08-.61,0-1.22.03-1.8.06-.58,0-1.19.03-1.8.06-1.11.03-2.18.08-3.26.14-.8.03-1.6.06-2.38.14-.5,0-1,.03-1.47.08-.58.03-1.16.06-1.74.11-.58,0-1.16.06-1.74.11-3.37.25-6.66.58-9.59.88-1.69.19-3.37.36-5.06.55-.06.03-.11.03-.17.03-1.13.14-2.29.3-3.46.47-1.13.17-2.27.33-3.43.5-1.52.22-3.07.47-4.59.72-5.75.94-11.45,2.05-17.14,3.35-.3.08-.58.14-.88.19l-2.57.61c-.25.06-.53.14-.77.19-3.37.8-6.66,1.69-9.87,2.57-.44.11-.86.22-1.27.36-.8.22-1.58.47-2.35.69-9.79,2.88-19.41,6.28-28.64,10.09-11.09,4.59-21.81,9.87-31.85,15.59-.06.03-.11.06-.14.08-.39.19-.75.36-1.13.55l-1.41.69c-14.9,7.3-29.5,15.23-43.74,23.75-1.08-1.27-2.27-2.46-3.59-3.57-26.02-21.45-58.47-33.34-91.4-33.51h-.25c-32.9.17-65.36,12.05-91.37,33.51-1.33,1.11-2.54,2.29-3.62,3.59-14.21-8.51-28.81-16.45-43.71-23.78l-1.16-.55-.19-.11c-10.26-5.92-21.37-11.42-33.01-16.26-11.11-4.59-22.5-8.49-33.7-11.56,1.49.44,2.99.88,4.48,1.35-1.58-.5-3.15-.97-4.73-1.41-1.58-.44-3.18-.86-4.78-1.27-.06-.03-.11-.03-.17-.06-.55-.14-1.13-.28-1.69-.41-.47-.11-.94-.22-1.41-.33-1.33-.33-2.65-.64-3.95-.94-1.8-.42-3.59-.8-5.39-1.19-.83-.17-1.66-.33-2.49-.5-.19-.06-.39-.08-.61-.11-1.13-.22-2.27-.44-3.43-.66-1.05-.22-2.1-.41-3.18-.58-1.49-.28-2.99-.53-4.51-.75-1.66-.28-3.35-.53-5.03-.75-1.27-.17-2.54-.36-3.82-.5-3.32-.41-6.63-.8-9.95-1.11-.86-.08-1.71-.17-2.57-.22-.69-.06-1.41-.08-2.1-.14-.3-.03-.58-.06-.86-.08-.94-.08-1.88-.14-2.85-.19-1.33-.08-2.68-.17-4.04-.22-.28-.03-.58-.06-.91-.06-2.24-.11-4.51-.19-6.8-.22-2.16-.06-4.34-.08-6.5-.08-3.82,0-7.63.08-11.45.22-6.05.25-11.97.69-17.78,1.38-.83.08-1.66.17-2.49.28-1.33.17-2.68.36-3.98.55-1.49.22-2.99.44-4.45.69-.83.11-1.63.25-2.43.41-.77.14-1.52.28-2.27.41-.08,0-.14.03-.19.03-1.24.25-2.43.47-3.65.75-.53.08-1.05.19-1.55.33-1.02.19-2.02.44-3.01.69-.33.06-.64.11-.94.22-.03-.03-.06-.03-.06,0-1.16.28-2.29.55-3.43.86-1.41.36-2.79.72-4.15,1.11-1.94.55-3.87,1.13-5.75,1.74-1.88.58-3.73,1.22-5.56,1.85-1.88.66-3.73,1.35-5.56,2.1-1.8.69-3.57,1.44-5.34,2.21-1.52.66-3.01,1.35-4.48,2.07-.47.22-.97.44-1.44.69-.14.06-.3.11-.44.22-1.3.61-2.57,1.27-3.84,1.94-.19.11-.39.22-.58.3,14.1-34.12,27.7-69.36,32.24-106.47.3-2.29.55-4.56.8-6.72,0-.11.03-.19.03-.28.64-5.67,1.27-11.33,1.88-17.03,1.63-14.87,3.32-30.24,5.67-45.15,2.02-12.97,4.34-24.36,7.02-34.56-.06.08-.11.14-.19.22l1.38-4.53.08-.33v-.03c.25-.8.47-1.66.8-2.68l.28-.88c.17-.58.33-1.16.53-1.74.11-.36.22-.72.33-1.11.99-3.18,2.1-6.36,3.29-9.57,1.19-3.18,2.49-6.36,3.87-9.54.69-1.6,1.41-3.21,2.16-4.78,1.66-3.59,3.46-7.19,5.39-10.81,1.27-2.4,2.63-4.81,4.04-7.22,2.07-3.62,4.31-7.24,6.66-10.89,3.15-4.87,6.52-9.76,10.15-14.71,1.66-2.24,3.35-4.48,5.11-6.77v-.03c.8-1.02,1.6-2.07,2.43-3.12.17-.22.36-.47.58-.72.19-.28.41-.55.69-.86.61-.77,1.22-1.55,1.85-2.32.22-.61.39-1.24.53-1.88l-.33,1.63c4.26-5.31,8.9-10.81,14.24-16.78,1.02-1.19,2.07-2.35,3.23-3.57.72-.77,1.44-1.55,2.16-2.32,6.25-6.61,12.77-12.86,19.46-18.61.19-.17.39-.33.58-.53,7.69-6.61,15.98-12.94,24.58-18.8,1.96-1.35,3.95-2.65,5.97-3.95,2.35-1.49,4.73-2.93,7.1-4.37,3.37-2.05,6.75-3.98,10.12-5.83h.03c.94-.53,1.85-1,2.76-1.49.14-.06.25-.14.39-.19.5-.28,1-.53,1.52-.77.55-.3,1.08-.61,1.66-.83l.06-.06c1.44-.72,2.87-1.44,4.31-2.13,1.49-.72,2.96-1.41,4.45-2.07,1.77-.83,3.54-1.6,5.34-2.35,1.8-.77,3.62-1.52,5.45-2.24,5.47-2.18,11.06-4.17,16.75-5.94.53-.19,1.08-.36,1.63-.5.53-.19,1.05-.36,1.58-.5.03-.03.06-.03.08,0,.8-.28,1.6-.53,2.41-.75.11-.03.25-.06.36-.11.36-.08.75-.19,1.11-.3.28-.08.53-.14.8-.22.03.08.06.14.08.22.66,1.94,1.33,3.9,1.99,5.83l1.8,5.25c.19.55.39,1.13.58,1.71,13.71,40,30.8,89.35,57.75,130.1,20.54,31.07,46.53,53.44,75.14,64.75,1.63.64,3.35.97,5.09.97h2.52c1.74,0,3.46-.33,5.09-.97,28.59-11.28,54.57-33.67,75.14-64.75,26.96-40.75,44.04-90.07,57.75-130.05.19-.58.39-1.16.58-1.74l1.88-5.53c.64-1.85,1.27-3.7,1.91-5.58.03-.06.06-.11.08-.19.03-.06.03-.11.06-.17l.8.41h.03c.39.11.75.22,1.16.33.03,0,.06.03.08.03.06,0,.11.03.17.06.08.03.14.06.22.06.08.03.14.06.22.06.47.14.94.28,1.41.44.17.03.3.08.47.14h.19c.08.03.14.03.19.03h-.14c.77.22,1.58.47,2.35.75.61.19,1.22.39,1.82.58,1.35.41,2.71.86,4.06,1.33.47.14.94.3,1.41.47.22.08.41.14.64.22,1.55.55,3.12,1.11,4.67,1.69,3.54,1.3,7.02,2.71,10.48,4.17,1.11.47,2.21.94,3.32,1.46.94.39,1.85.8,2.76,1.22l.17.08c1.44.66,2.88,1.33,4.29,2.05.77.36,1.52.72,2.27,1.11.39.17.75.36,1.11.55,0,0,.03,0,.03.03l.03.03c.61.25,1.13.53,1.71.86.5.25.97.5,1.47.75.14.08.28.17.41.22.91.5,1.82.97,2.76,1.49h.03c3.37,1.85,6.77,3.82,10.2,5.89,2.32,1.38,4.67,2.82,7.02,4.31h.03c1.99,1.27,3.98,2.6,5.97,3.93,8.65,5.92,16.92,12.22,24.55,18.83.19.17.39.36.58.53,6.66,5.72,13.19,11.97,19.46,18.58.72.77,1.44,1.55,2.16,2.32,1.13,1.22,2.27,2.46,3.35,3.68,5.17,5.81,9.73,11.2,14.04,16.53l.03.03v.03c.08.08.14.17.22.28l.03.03c.44.55.88,1.13,1.33,1.69.06.08.14.17.19.25l.08.08c.06.06.08.11.14.17l.06.06.36.41c.06.08.14.17.19.25.08.11.17.19.22.3l.03.03s.03,0,.03.03c.08.08.14.14.19.22.03.03.03.06.06.08,0,0,0,.03.03.03.03.03.06.06.06.08v.03l.03.03c.03.06.08.06.08.11l.03.03s.03.03.06.06c.03.06.06.08.08.14l.33.41.06.06.08.08c.03.06.08.08.11.14l.08.08s.06.06.06.08c.08.11.17.19.25.3.11.17.25.33.36.5.36.41.66.83.97,1.24v.03c.91,1.16,1.8,2.35,2.65,3.51.88,1.16,1.74,2.32,2.6,3.48.86,1.13,1.69,2.27,2.46,3.4,1.05,1.49,2.1,2.99,3.12,4.45.72,1.08,1.44,2.13,2.16,3.21.8,1.22,1.6,2.43,2.38,3.65,1.05,1.63,2.07,3.23,3.07,4.87.94,1.49,1.82,2.96,2.68,4.45.5.86,1.02,1.74,1.52,2.63.14.22.25.44.39.66.17.28.3.55.47.83.06.11.11.19.17.3.28.5.55,1,.83,1.49.8,1.47,1.58,2.9,2.35,4.37,1.69,3.18,3.23,6.36,4.7,9.51.72,1.58,1.44,3.15,2.1,4.73.69,1.58,1.35,3.15,1.99,4.73.72,1.77,1.41,3.54,2.07,5.34.5,1.38,1,2.76,1.47,4.15.55,1.58,1.05,3.12,1.55,4.7.11.36.22.72.33,1.08v.03c.19.55.36,1.11.53,1.66l.06.25.44,1.49c.08.22.14.41.19.61l.36,1.24.08.3,1.41,4.59c-.11-.11-.19-.19-.25-.3,2.76,10.4,5.06,21.79,7.08,34.72,2.38,15.18,4.06,30.83,5.72,45.98.58,5.31,1.16,10.59,1.77,15.84,0,.14.03.33.06.47v.06l.83,6.77c4.51,37.05,18.11,72.29,32.21,106.41Z"/>
  <path d="m365.2,449.64c.25,7.6-1.66,15.12-5.53,21.81-7.38,12.41-21.56,20.43-36.16,20.43-28.61,0-46.39-28.31-46.39-54.57,0-12.14,3.73-24.33,10.42-34.28,6.41-9.73,15.95-17.72,26.84-22.48,10.26-4.51,22.06-6.11,33.26-4.53,2.68.39,4.84,2.46,5.42,5.11.53,2.68-.69,5.39-3.04,6.83-8.16,4.84-14.79,12.14-18.94,20.57,18.8,3.65,33.48,20.68,34.12,41.11Z"/>
  <path d="m722.81,449.64c.25,7.6-1.66,15.12-5.53,21.81-7.35,12.41-21.56,20.43-36.16,20.43-28.61,0-46.36-28.31-46.36-54.57,0-12.14,3.7-24.33,10.42-34.28,6.39-9.73,15.95-17.72,26.82-22.48,10.26-4.51,22.06-6.11,33.26-4.53,2.68.39,4.84,2.46,5.42,5.11.53,2.68-.69,5.39-3.04,6.83-8.16,4.84-14.76,12.14-18.94,20.57,18.8,3.65,33.51,20.68,34.12,41.11Z"/>
</svg>