<?xml version="1.0" encoding="UTF-8"?>
<svg id="Layer_3" data-name="Layer 3" xmlns="http://www.w3.org/2000/svg" viewBox="0 0 500 500">
  <defs>
    <style>
      .cls-1 {
        fill: #fcd146;
      }
    </style>
  </defs>
  <path class="cls-1" d="m250,105.7c-79.7,0-144.3,64.61-144.3,144.3s64.61,144.3,144.3,144.3,144.3-64.61,144.3-144.3-64.61-144.3-144.3-144.3Zm0,281.24c-75.63,0-136.93-61.3-136.93-136.93s61.3-136.93,136.93-136.93,136.93,61.3,136.93,136.93-61.32,136.93-136.93,136.93Z"/>
  <path class="cls-1" d="m253.25,229.8c.04,5.92,1.99,9.51,5.61,10.79.26.09,1.56.48,3.05.48.38,0,.78-.03,1.17-.09,1.92-.31,3.09-.99,4.4-2.32,1.22-1.24,2.25-3,2.93-5.37,2.47-8.63-2.61-22.41-16.4-23.72,5.06,7.58-.79,14.31-.75,20.23Z"/>
  <path class="cls-1" d="m283.24,248.07c-2.36,0-4.62.42-6.56,1.21-2.28.94-3.92,2.15-5.02,3.5-1.18,1.45-1.73,2.68-1.83,4.63-.1,1.94.7,3.83.85,4.15,1.43,2.97,4.41,4.52,8.94,4.52.76,0,1.55-.04,2.39-.13,4.48-.46,9.04-4.36,14.53-4.36,1.73,0,3.56.39,5.5,1.4-2.15-10.4-11.04-14.91-18.81-14.91Z"/>
  <path class="cls-1" d="m276.8,219.28c.2.07,1.21.37,2.36.37.3,0,.6-.02.91-.07,1.49-.24,2.39-.77,3.41-1.8.94-.96,1.74-2.32,2.27-4.16,1.91-6.69-2.02-17.37-12.71-18.38,3.92,5.88-.61,11.09-.58,15.68.03,4.59,1.54,7.37,4.34,8.36Z"/>
  <path class="cls-1" d="m289.63,197.5c.16.06.93.29,1.81.29.23,0,.46-.02.7-.05,1.14-.18,1.84-.59,2.62-1.38.73-.74,1.34-1.78,1.74-3.2,1.47-5.14-1.55-13.36-9.77-14.13,3.01,4.52-.47,8.53-.45,12.05.02,3.53,1.18,5.67,3.34,6.43Z"/>
  <path class="cls-1" d="m302.15,182.42c.12.04.72.22,1.4.22.18,0,.36-.01.54-.04.88-.14,1.42-.46,2.03-1.07.56-.57,1.03-1.38,1.35-2.47,1.14-3.97-1.2-10.32-7.55-10.92,2.33,3.49-.36,6.59-.34,9.32.02,2.73.91,4.38,2.58,4.97Z"/>
  <path class="cls-1" d="m201.9,181.95c2.09,3.33,4.41,4.95,6.85,4.95.41,0,.82-.05,1.24-.14.27-.06,1.8-.48,2.94-1.46,1.14-.99,1.63-1.91,1.95-3.33.3-1.31.26-2.89-.26-4.73-1.46-5.16-7.12-10.5-14.04-10.5-2.06,0-4.23.47-6.44,1.57,6.43,2.93,5.32,9.75,7.76,13.63Z"/>
  <path class="cls-1" d="m204.47,161.23c1.57,2.66,3.35,3.96,5.28,3.96.28,0,.55-.03.83-.08.21-.04,1.39-.33,2.29-1.06.9-.73,1.29-1.43,1.57-2.51.26-1,.26-2.22-.1-3.64-1.03-4.07-5.4-8.39-10.86-8.39-1.5,0-3.07.32-4.69,1.07,4.87,2.39,3.87,7.61,5.66,10.65Z"/>
  <path class="cls-1" d="m208.1,145.27c1.32,1.75,2.67,2.6,4.03,2.6.34,0,.67-.05,1-.16.15-.05,1.04-.37,1.67-1.01.62-.64.87-1.22.99-2.07.11-.79,0-1.72-.39-2.79-1.06-2.81-4.35-5.54-8.16-5.54-1.43,0-2.93.38-4.41,1.28,3.95,1.41,3.64,5.5,5.28,7.68Z"/>
  <path class="cls-1" d="m222.25,172.25c-.52,1.84-.56,3.42-.26,4.73.32,1.41.81,2.34,1.95,3.33,1.14.99,2.67,1.4,2.94,1.46.42.09.83.14,1.24.14,2.45,0,4.76-1.63,6.85-4.95,2.44-3.88,1.33-10.7,7.76-13.63-2.21-1.09-4.38-1.57-6.44-1.57-6.92,0-12.58,5.34-14.04,10.5Z"/>
  <path class="cls-1" d="m222.53,152.9c-.36,1.43-.35,2.64-.1,3.64.28,1.08.67,1.78,1.57,2.51.9.73,2.09,1.02,2.29,1.06.28.05.56.08.83.08,1.93,0,3.71-1.3,5.28-3.96,1.79-3.04.79-8.25,5.66-10.65-1.61-.74-3.19-1.07-4.69-1.07-5.46,0-9.83,4.32-10.86,8.39Z"/>
  <path class="cls-1" d="m223.73,142.72c.33.1.67.16,1,.16,1.36,0,2.72-.85,4.03-2.6,1.64-2.18,1.33-6.27,5.28-7.68-1.48-.9-2.99-1.28-4.41-1.28-3.81,0-7.1,2.72-8.16,5.54-.4,1.06-.5,2-.39,2.79.12.85.36,1.43.99,2.07.62.64,1.51.97,1.67,1.01Z"/>
  <path class="cls-1" d="m259.43,195.42c-2.89-5.6-8-7.8-12.84-7.8-3.41,0-6.68,1.09-8.95,2.86-1.51,1.17-2.48,2.42-3.01,3.65-.58,1.33-.73,2.36-.4,3.83.33,1.47,1.32,2.72,1.5,2.92,1.14,1.3,2.68,1.97,4.61,1.97,1.39,0,2.98-.35,4.76-1.05,3.83-1.51,6.75-6.6,12.29-6.6.64,0,1.32.07,2.04.22Z"/>
  <path class="cls-1" d="m249.08,183.28c1.11,0,2.39-.3,3.82-.92,2.95-1.26,5.11-5.35,9.5-5.35.43,0,.89.04,1.37.13-2.27-4.1-6.07-5.71-9.68-5.71-2.75,0-5.39.93-7.17,2.4-1.14.94-1.85,1.92-2.24,2.88-.42,1.03-.51,1.83-.22,2.96.29,1.12,1.08,2.06,1.22,2.21.87.93,2.01,1.41,3.41,1.41Z"/>
  <path class="cls-1" d="m250.79,165.67c.36.82,1.07,1.44,1.2,1.54.61.48,1.31.72,2.11.72,1.01,0,2.17-.4,3.47-1.21,2.28-1.43,3.45-5.3,7.53-5.3.05,0,.09,0,.14,0-1.85-2.37-4.29-3.31-6.65-3.31-2.64,0-5.17,1.17-6.62,2.81-.75.85-1.18,1.69-1.36,2.46-.19.84-.17,1.46.19,2.28Z"/>
  <path class="cls-1" d="m324,204.44c-1.49,2.28-1.66,4.15-.6,5.57.1.13.7.86,1.52,1.23.51.23.94.33,1.4.33.28,0,.56-.04.88-.1.78-.17,1.63-.58,2.49-1.31,3.15-2.68,4.72-9.26-.24-13.28,0,4.2-3.95,5.29-5.45,7.57Z"/>
  <path class="cls-1" d="m205.31,247.27c.33.01.65.02.97.02,5.35,0,8.7-1.78,10.06-5.14.13-.32.8-2.27.58-4.2-.22-1.93-.86-3.13-2.13-4.5-1.18-1.27-2.89-2.38-5.23-3.16-1.62-.54-3.43-.82-5.33-.82-8.07,0-17.54,5.04-19.09,16.15,2.15-1.3,4.21-1.78,6.17-1.78,5.15,0,9.72,3.26,14,3.42Z"/>
  <path class="cls-1" d="m188.03,229.76c.25,0,.49.01.73.01,4.16,0,6.76-1.38,7.81-3.99.1-.25.62-1.76.45-3.25-.17-1.5-.67-2.42-1.65-3.48-.92-.98-2.24-1.84-4.06-2.45-1.25-.42-2.65-.63-4.11-.63-6.26,0-13.6,3.91-14.8,12.53,1.67-1.01,3.26-1.38,4.79-1.38,3.99,0,7.53,2.52,10.84,2.64Z"/>
  <path class="cls-1" d="m177.13,213.19c.05,0,.1,0,.16,0,3.53-.1,5.64-1.31,6.35-3.48.07-.2.39-1.38.18-2.52-.21-1.14-.63-1.83-1.44-2.59-.75-.71-1.81-1.3-3.24-1.67-.76-.2-1.59-.3-2.45-.3-4.96,0-10.95,3.36-11.46,10.38,1.4-.98,2.77-1.32,4.1-1.32,2.81,0,5.43,1.5,7.81,1.5Z"/>
  <path class="cls-1" d="m172.23,198.01c.05-.15.27-1.07.09-1.95-.18-.88-.52-1.4-1.16-1.97-.6-.53-1.42-.97-2.53-1.23-.53-.13-1.1-.19-1.69-.19-3.87,0-8.6,2.71-8.86,8.24,1.12-.83,2.22-1.1,3.3-1.1,2.07,0,4.03,1.01,5.79,1.01.08,0,.15,0,.23,0,2.72-.15,4.33-1.12,4.84-2.81Z"/>
  <path class="cls-1" d="m201.27,209.46c1.03,1.61,2.19,2.69,3.37,3.33.99.54,1.82.81,2.85.81.29,0,.6-.02.93-.07,1.49-.2,2.82-1.07,3.04-1.23,2.4-1.76,3.05-4.85,1.76-9.26-1.29-4.4-7.13-8.09-5.06-14.85-9.94,4.04-10.64,15.4-6.89,21.25Z"/>
  <path class="cls-1" d="m186.83,198.3c.71,1.29,1.54,2.17,2.42,2.73.83.53,1.52.78,2.46.78.13,0,.26,0,.4-.01,1.16-.08,2.22-.68,2.4-.79,1.93-1.23,2.58-3.57,1.81-7.01-.77-3.44-5.06-6.57-3.14-11.65-7.83,2.6-8.94,11.28-6.35,15.96Z"/>
  <path class="cls-1" d="m174.93,189.57c.53,1.01,1.15,1.71,1.82,2.15.66.44,1.21.65,1.99.65.07,0,.14,0,.21,0,.89-.04,1.73-.48,1.87-.57,1.52-.91,2.06-2.71,1.54-5.38-.53-2.67-3.79-5.17-2.2-9.06-6.1,1.86-7.12,8.55-5.21,12.21Z"/>
  <path class="cls-1" d="m294.93,215.2c-.46,1.86-.44,3.43-.1,4.74.37,1.4.89,2.31,2.06,3.26,1.17.95,2.72,1.31,2.99,1.36.36.07.71.1,1.06.1,2.52,0,4.84-1.71,6.87-5.19,2.31-3.96.97-10.74,7.29-13.89-2.08-.94-4.11-1.36-6.03-1.36-7.13,0-12.82,5.66-14.13,10.98Z"/>
  <path class="cls-1" d="m320.84,189.81c-2.02-1.35-4.1-1.91-6.08-1.91-4.75,0-8.93,3.24-10.41,6.71-.58,1.35-.76,2.55-.67,3.58.11,1.11.39,1.86,1.16,2.73.77.86,1.9,1.33,2.1,1.4.49.17.98.26,1.47.26,1.7,0,3.44-1.03,5.18-3.14,2.24-2.72,2.07-8.03,7.26-9.63Z"/>
  <path class="cls-1" d="m314.96,182.86c.52.73,1.35,1.18,1.5,1.25.47.22.95.34,1.45.34,1.21,0,2.52-.66,3.89-2.02,1.94-1.91,2.23-6.01,6.35-6.83-1.71-1.42-3.58-2-5.36-2-3.33,0-6.39,2.02-7.7,4.37-.55.99-.79,1.9-.8,2.7,0,.86.15,1.46.67,2.19Z"/>
  <path class="cls-1" d="m305.7,250.42c3.24-.03,6.77-2.35,10.65-2.35,1.61,0,3.28.4,5.01,1.52-.98-8.84-8.51-12.94-14.86-12.94-1.32,0-2.58.18-3.72.52-1.83.56-3.18,1.37-4.12,2.33-1.02,1.03-1.53,1.94-1.75,3.43-.22,1.49.26,3.01.36,3.26,1.02,2.75,3.76,4.21,8.24,4.21.06,0,.12,0,.19,0Z"/>
  <path class="cls-1" d="m324.9,234.88c2.92-1,5.3-4.65,9.36-4.65.59,0,1.21.08,1.87.25-2.12-4.62-6.26-6.45-10.15-6.45-2.42,0-4.74.71-6.42,1.89-1.2.85-1.99,1.77-2.44,2.7-.49,1-.65,1.79-.44,2.93.2,1.14.92,2.13,1.05,2.29.89,1.11,2.15,1.68,3.78,1.68.99,0,2.13-.21,3.39-.65Z"/>
  <path class="cls-1" d="m344.46,219.06c.61,0,1.26.11,1.95.37-1.4-4.14-5-5.82-8.28-5.82-1.51,0-2.95.36-4.09.99-.99.56-1.67,1.2-2.09,1.88-.46.73-.64,1.32-.57,2.22.07.89.54,1.71.62,1.85.69,1.07,1.82,1.62,3.39,1.62.61,0,1.29-.08,2.04-.26,2.19-.5,4.2-2.85,7.03-2.85Z"/>
  <path class="cls-1" d="m219.11,206.23c.5,3.58,1.13,7.15,1.91,10.72.12.56.25,1.12.38,1.68.13.57.35,2.16-.44,2.76-.79.6-2.59.23-2.83.18-2.2-.4-4.4-1.01-6.56-1.8-2.63-.97-5.2-2.21-7.67-3.67-2.48-1.46-4.86-3.14-7.13-4.99-1.14-.92-2.25-1.89-3.34-2.89-.54-.5-1.08-1.01-1.61-1.53-.27-.26-.53-.52-.79-.78l-.39-.4-.02-.02s0,0,0,0c0,0,0,0,0,0h0s0,0,0,0c0,0-.03-.03-.07-.08h-.01s-.06-.06-.06-.06l-.11-.1-.22-.2c-1.15-1.04-2.31-2.05-3.49-3.04-1.18-.99-2.37-1.95-3.59-2.9-1.21-.94-2.44-1.86-3.7-2.74-1.26-.88-2.54-1.74-3.85-2.54-1.31-.8-2.66-1.55-4.05-2.2-.7-.32-1.41-.62-2.13-.87-.72-.25-1.46-.47-2.21-.6.72.23,1.42.54,2.09.88s1.32.72,1.95,1.13c1.27.81,2.47,1.71,3.64,2.66,1.17.95,2.29,1.94,3.4,2.96,1.1,1.02,2.17,2.07,3.23,3.15,1.05,1.07,2.08,2.17,3.09,3.28,1.01,1.11,2.01,2.24,2.96,3.38l.18.21.09.11.04.05h.01s-.04-.03-.05-.04l.02.03.35.47c.23.31.47.62.71.93.48.61.97,1.22,1.46,1.82,1,1.2,2.03,2.38,3.11,3.53,2.16,2.29,4.48,4.46,7,6.45,2.51,1.98,5.22,3.78,8.11,5.32,2.89,1.54,5.98,2.81,9.23,3.72,1.23.34,2.48.63,3.76.86.24.04,1.9.44,3.16,1.33.98.68,1.62,1.81,1.81,2.26.47,1.12.96,2.22,1.49,3.32.75,1.58,5.33,15.02,6.69,30.68.51-1.5,1.07-3,1.72-4.49.36-.96.75-1.91,1.22-2.83.65-1.27,1.43-2.48,2.29-3.62.52-.68,1.05-1.34,1.61-1.99,2.03-2.49,4.44-4.81,7.22-6.92-1.74-1.16-3.24-2.59-3.81-3.2-.32-.34-.64-.68-.96-1.02l-.48-.5-.42-.43c-.55-.58-1.09-1.18-1.62-1.79-2.11-2.45-4-5.15-5.7-8.01-1.7-2.86-3.21-5.89-4.55-9.02-1.34-3.13-2.52-6.36-3.57-9.64-1.04-3.29-1.95-6.64-2.75-10.03-.42-1.79-.81-3.58-1.17-5.38-.09-.47-.04-1.6.43-2.47.43-.81,1.26-1.37,1.42-1.46.71-.4,1.4-.82,2.08-1.27,1.96-1.29,3.78-2.76,5.44-4.37,1.66-1.61,3.16-3.37,4.48-5.23,1.32-1.86,2.47-3.83,3.44-5.86.49-1.02.93-2.05,1.33-3.1.2-.52.39-1.05.57-1.58.09-.26.18-.53.26-.8l.13-.4v-.05s.03-.04.03-.04h0s0,0,0,0h0s0-.01,0-.01v-.02s.03-.09.03-.09l.05-.19c.29-1.02.61-2.04.95-3.06.34-1.02.7-2.03,1.09-3.03.77-2,1.62-3.98,2.6-5.89.49-.96,1.02-1.9,1.59-2.81.57-.91,1.19-1.8,1.88-2.64-.78.75-1.51,1.56-2.2,2.41-.68.85-1.33,1.73-1.94,2.64-1.22,1.81-2.33,3.71-3.35,5.65-.51.97-1,1.95-1.47,2.94-.47.99-.92,1.99-1.35,3.02l-.08.19-.04.1v.03s-.01,0-.01,0c0,0,0-.01,0-.02l-.02.05-.16.36c-.11.24-.22.48-.34.72-.23.47-.46.94-.71,1.41-.49.93-1.01,1.83-1.57,2.71-1.12,1.76-2.37,3.41-3.75,4.94-1.38,1.52-2.89,2.9-4.5,4.13-1.61,1.23-3.33,2.3-5.11,3.19-.38.19-1.43.79-2,.61-.75-.24-1.01-1.36-1.07-1.81-.2-1.4-.38-2.8-.56-4.21-.86-6.99-1.42-14.04-1.77-21.1-.18-3.54-.3-7.08-.39-10.62-.09-3.54-.14-7.09-.2-10.64-.26,3.54-.54,7.08-.77,10.62-.24,3.54-.44,7.09-.59,10.65-.3,7.11-.39,14.24-.17,21.39.22,7.15.75,14.32,1.75,21.48Z"/>
  <path class="cls-1" d="m186.5,347.74c5.01,1.1,10.4,1.74,16.21,1.86,9.09-.23,18.11-2.54,25.9-6.89,14.58-8.13,23.59-22.14,26.76-38.32.84-4.28,1.78-8.87,1.56-13.2-.25-4.9-.51-9.8-.76-14.7-.22-4.18-.42-8.45.75-12.46.66-2.27,1.83-4.45,3.49-6.15,1.66-1.71,3.73-2.15,5.57-3.44,4.5-3.15,8.57-7.15,12.11-11.33.57-.67,1.69-1.65,2.75-2.48,1.13-.89,3.91-1.45,4.68-1.43,1.53.05,3.05.01,4.56-.11,3.02-.25,5.99-.83,8.85-1.75,2.86-.92,5.59-2.18,8.12-3.73,2.53-1.55,4.85-3.39,6.93-5.44,1.04-1.02,2.02-2.1,2.94-3.21.46-.56.9-1.12,1.33-1.7l.08-.11.02-.03h0s-.03.03-.04.04l.02-.03c.05-.06.1-.12.15-.18.11-.12.22-.24.33-.36.22-.24.46-.48.69-.72.95-.95,1.95-1.85,3-2.71,1.05-.86,2.14-1.67,3.27-2.43,2.26-1.52,4.67-2.84,7.21-3.9,2.54-1.06,5.2-1.86,7.95-2.34-2.78.17-5.55.67-8.25,1.46-2.7.79-5.34,1.87-7.85,3.18-1.26.66-2.49,1.38-3.69,2.15-1.2.78-2.36,1.61-3.49,2.51-.28.23-.56.46-.84.7-.14.12-.28.24-.42.37-.07.06-.14.13-.21.19,0,0-.06.06-.06.06,0,0,0,0,0,0,0,0,0,0,0,0-.01.01-.03.03-.07.08h-.01s-.02.03-.02.03l-.09.09c-.46.49-.93.97-1.41,1.43-.96.93-1.97,1.81-3.01,2.63-2.08,1.64-4.32,3.04-6.68,4.14-2.35,1.1-4.82,1.91-7.34,2.42-2.51.51-5.08.72-7.61.64-.58-.02-1.83-.37-2.32-1.09-.57-.85-.33-2.13-.02-2.76,2.54-5.12,4.44-10.51,5.75-15.99h0s.05-.17.05-.17l.11-.33.23-.66c.16-.44.32-.89.48-1.33.33-.89.67-1.77,1.02-2.66.7-1.77,1.45-3.52,2.23-5.26,1.56-3.48,3.25-6.92,5.07-10.29,1.82-3.37,3.78-6.67,5.87-9.89,2.1-3.22,4.33-6.36,6.72-9.38-2.65,2.81-5.16,5.75-7.54,8.79-2.39,3.05-4.64,6.2-6.78,9.44-2.14,3.24-4.16,6.56-6.05,9.97-.95,1.7-1.86,3.42-2.74,5.17-.44.87-.87,1.75-1.29,2.64-.21.44-.42.89-.62,1.34l-.3.68-.15.34-.07.17-.07.17-.05.16c-1.69,5.08-3.91,9.95-6.66,14.45-2.75,4.51-6.02,8.65-9.73,12.31-2.7,2.67-5.65,5.1-8.78,7.26-3.81,2.63-8.09,4.44-11.81,7.2-3.64,2.71-6.87,6.01-9.2,9.93-3.9,6.57-5.02,14.37-7.54,21.59-2.23,6.39-3.04,13.06-6.33,19.1-3.1,5.68-7.74,10.34-13.47,13.35-26.78,13.27-55.03,4.65-73.1-23.6-.06-.38-.24-.68-.56-.88-7.38-15.55-11.51-32.94-11.51-51.3,0-42.35,21.98-79.57,55.15-100.87-28.71,15.94-50.25,42.23-59.07,73.43l-.17-.05.17.06s0,0,0,0c-.3.86-7.24,21.22-4.48,47.32,0,0,5.68,73.97,64.21,86.78,0,0,0,0,0,0Z"/>
  <path class="cls-1" d="m291.41,341.78c.08-.09.16-.19.24-.29l-.04.03c-.06.04-.13.14-.2.27Z"/>
  <path class="cls-1" d="m377.12,229.81c-4.96-36.39-26.74-67.67-57.58-86.65.51.36,1.02.72,1.53,1.1,29.84,21.79,49.22,57.03,49.22,96.81,0,7.69-.72,15.19-2.1,22.47-.35,1.58-9.43,40.96-53.08,44.13-27.76,2.01-41.4-11.9-48.54-24.39.12,2.44.25,4.88.38,7.31v.09c.28,5.4-.73,10.57-1.63,15.14l-.1.51c-1.87,9.59-5.46,18.31-10.66,25.91-5.49,8.04-12.58,14.52-21.05,19.25-10.15,5.66-21.75,7.51-33.27,7.71-3.87.06-7.7-.53-11.46-1.39-1.95-.44-3.88-.96-5.81-1.49-1.13-.31-2.81-.5-4.14-.93l-.92-.38c-.11-.06-.22-.11-.32-.17,0,0,.02.01.07.05.02.01.04.03.07.05.83.64,5.49,4.05,12.76,7.74.02.01.05.03.07.04,3.59,1.82,7.82,3.7,12.55,5.36,10.58,3.7,21.16,6.98,32.22,7.7h.05c3.14.2,6.32.19,9.56-.06,4.93-.4,9.81-1.41,14.45-3.07,3.46-1.24,6.78-2.29,10.08-4.01,3.27-1.7,6.39-3.7,9.24-6.06,6.17-5.11,11.36-12.07,12.1-20.24,0-.02,0-.04,0-.06v-.06c.1-1.03.15-2.07.12-3.11-.02-.6-.08-1.19-.18-1.78-.05-.29-.09-.6-.18-.87-.07-.21-.15-.4-.19-.63-.02-.08-.03-.16-.07-.23-.03-.07-.09-.13-.16-.16-.13-.05-.29.03-.36.16-.1.15-.08.34-.13.51-.02.1-.06.2-.1.3-.07.2-.14.4-.22.59-.35.88-.79,1.72-1.3,2.51-.54.85-1.16,1.65-1.82,2.41-.71.81-1.46,1.57-2.26,2.29-.84.77-1.72,1.49-2.62,2.18-.95.72-1.92,1.4-2.91,2.05-1.02.67-2.07,1.31-3.13,1.92-1.08.62-2.17,1.22-3.27,1.79-1.1.57-2.22,1.12-3.34,1.65-1.1.52-2.21,1.02-3.33,1.51-1.08.47-2.16.92-3.25,1.36-1.03.41-2.06.81-3.09,1.2-.95.36-1.91.7-2.86,1.04-.85.3-1.7.59-2.56.88-.72.24-1.45.48-2.18.71-.57.18-1.15.36-1.72.53-.4.12-.79.24-1.19.35,6.53-2.02,12.35-7.35,17.18-13.52.04-.06.09-.12.14-.18,6.32-8.15,10.91-17.73,13.15-23.16.54-1.43,1.05-2.87,1.52-4.33,0,0,.59.23,1.53.67,7.76,3.26,16.38,5.03,25.75,5.25,5.22-.05,10.05-.45,14.54-1.16,3.12-.49,6.07-1.13,8.86-1.91,16.06-4.47,26.78-13.4,33.89-24.03,3.91-5.85,6.73-12.23,8.73-18.65,0,0,0-.02,0-.03,7.57-24.32,3.53-49.43,3.35-50.46Z"/>
  <path class="cls-1" d="m290.11,333.85c-.03.27,0,.59.04.93-.01-.6-.04-.93-.04-.93Z"/>
</svg>