<?xml version="1.0" encoding="UTF-8"?>
<svg id="Layer_3" data-name="Layer 3" xmlns="http://www.w3.org/2000/svg" viewBox="0 0 500 500">
  <defs>
    <style>
      .cls-1 {
        fill: #fcd146;
      }
    </style>
  </defs>
  <path class="cls-1" d="m235.91,316.5l8.21-28.32h0,0c-.24,0-.47,0-.7,0-2.71,0-5.39-.2-8.04-.48-12.66-1.36-24.53-5.87-34.63-13.08h0s0,0,0,0l23.65,81.56h0s0,0,0,0l11.51-39.69Z"/>
  <path class="cls-1" d="m315.19,201.87c-1.04-8.72-3.61-17.52-6.36-25.85-5.09-15.61-11.82-30.67-19.2-45.33-3.77-7.5-7.73-14.9-12-22.13,0-.02-.02-.05-.05-.07-1.52-3.57-6.54-3.66-8.2-.14l-14.34,30.34c-.64,1.36-.73,2.89-.35,4.35.09.34.13.69.13,1.05,1.2,11.8-4.01,23.64-15.57,35.44-.95.97.02,2.53,1.31,2.1,2.56-.86,5.26-1.38,8.06-1.51,17.36-.82,31.74,13.06,31.74,30.24,0,6.04-1.8,11.7-4.86,16.43-3.91,6.04-9.93,10.61-16.99,12.65-2.68.77-5.5,1.2-8.43,1.2s-5.75-.43-8.43-1.2c-13.13-3.82-22.6-16.29-21.79-30.78.25-4.62,1.55-8.97,3.68-12.82.66-1.2-.68-2.49-1.8-1.7-6.62,4.64-14.21,9.29-22.8,13.91-3.98,2.16-8.2,4.32-12.52,6.43-.64.32-1.32.45-2,.45.18,3.29.66,6.38,1.45,9.25l2.59,8.88c1.43,3.95,3.25,7.72,5.41,11.25,11.5,19.02,32.38,31.72,56.21,31.72,3.91,0,7.73-.34,11.43-.98l-30.44,104.96c2.77,9.52,10.88,14.29,19.01,14.29s16.25-4.77,19.02-14.29l39.37-135.79,3.25-11.16c2.27-7.82,3.84-15.93,3.86-24.06.02-2.39-.11-4.75-.39-7.13Zm-28.1-45.76c-7.22-4.93-15.47-8.47-24.38-10.2l6.27-13.31c1.66-3.5,6.68-3.41,8.23.14l10.18,23.58-.29-.2Z"/>
  <path class="cls-1" d="m250.32,144.7s-.02-.15-.04-.19c0-.08.01-.16,0-.23,0-.03-.02-.07-.05-.09-.05-.04-.16-.03-.22-.03-.08,0-.15-.01-.23-.02-.15-.02-.29-.05-.44-.08-.31-.08-.61-.2-.88-.36-.27-.16-.53-.36-.74-.59-.22-.23-.43-.5-.57-.79,0,0-16.36-34.04-16.36-34.04-1.67-3.48-6.67-3.38-8.2.17,0,0-.04.1-.04.09-.44.74-28.69,48.22-36.32,86.48-1.07,4.42-1.68,9.02-1.79,13.75-.02.54-.02,1.09-.02,1.66,4.33-2.11,8.45-4.23,12.37-6.34,36.61-19.74,55.55-39.66,53.53-59.36Zm-27.24-12.21c1.53-3.55,6.53-3.65,8.2-.16l6.5,13.52c-.07.01-.13.03-.2.04-.22.04-.44.09-.66.13-.34.06-.68.14-1.01.21-.55.12-1.11.25-1.65.38-.43.11-.86.22-1.28.34-.09.02-.18.04-.27.07-.11.03-.22.06-.34.09-.44.12-.88.25-1.32.38-.03,0-.05.02-.08.02-.52.16-1.04.33-1.56.5-.01,0-.02,0-.02,0-.53.18-1.06.36-1.58.55,0,0-.01,0-.02,0-.52.19-1.04.38-1.55.58-.02,0-.03.01-.05.02-.5.2-1,.4-1.5.61-.51.22-1.02.44-1.53.66-.5.23-1,.46-1.51.71-.5.24-.99.49-1.48.74-.49.25-.98.51-1.46.77-.97.53-1.92,1.08-2.86,1.66-.93.58-1.86,1.18-2.77,1.79-.1.06-.2.13-.3.2l10.3-23.82Zm-21.94,25.55l.03-.04-.03.05v-.02Z"/>
</svg>