<?xml version="1.0" encoding="UTF-8"?>
<svg id="Layer_3" data-name="Layer 3" xmlns="http://www.w3.org/2000/svg" viewBox="0 0 500 500">
  <defs>
    <style>
      .cls-1 {
        fill: #fcd146;
      }
    </style>
  </defs>
  <path class="cls-1" d="m340.31,285.21s-.05.01-.08.02c-.22-1.26-.55-2.68-.97-4.28-.96-3.6-1.62-5.95-2.01-7.06-5.69-16.52-15.17-30.33-28.42-41.45-10.3-8.63-22.49-14.84-35.49-18.31-2.46-.66-4.95-1.18-7.47-1.57-.8-.12-1.71-.46-2.62-.55-4.42-.44-7.56-.47-11.11-.85-1-.1-1.91-.14-2.72-.12-.91.02-2.92.21-2.94.24-.01.03-.04.04-.07.05-4.14.11-8.28.39-12.34,1.25-1.5.31-3.13.47-4.51.81-22.9,5.58-41.11,17.8-54.65,36.67-7.03,9.8-11.94,20.84-14.71,33.11-.13.6-.33,1.73-.6,3.43-.24,1.53-.68,3.14-.83,4.58-.79,7.62-.83,15.25-.11,22.88.09,1.04.31,2.39.64,4.04.35,1.8.58,3.71.98,5.38,4.32,18.24,13.21,33.75,26.67,46.55,12.27,11.66,27.46,19.53,44.04,23.14,1.48.32,2.96.5,4.46.8,5.32,1.06,10.87,1.13,16.52,1.04h.01c.45,0,.89-.01,1.33-.03.3,0,.59-.02.87-.05,21.21-.95,40.54-9.07,55.64-22.01,0,0,.01-.01.02-.02.99-.93,1.73-1.77,2.21-2.54,2.13-3.41,2.26-7.65.66-11.2-.62-1.38-1.49-2.65-2.61-3.73-3.71-3.57-8.97-3.15-13.22-.92-.72.38-2.14,1.4-4.27,3.07-3.18,2.5-6.53,4.68-10.01,6.55-1.91,1.03-2.61,3.42-1.5,5.28.01.02.03.04.04.07,1.04,1.75,3.28,2.38,5.07,1.41,4.54-2.47,8.92-5.43,13.12-8.91.98-.81,3.27-1.8,4.58-1.41,1.58.47,2.39,2.38,2.23,3.92-.08.71-.38,1.37-.8,1.97-.45.64-1.02,1.21-1.61,1.69-2.67,2.21-5.64,4.24-8.81,6.08-11.81,7.47-25.61,12.08-40.42,12.86-1.45.16-2.89.29-4.29.39-3.68.01-7.35-.18-11.02-.56-.61-.06-1.11-.34-1.69-.41-3.13-.39-6.33-1.04-9.57-1.94-28.52-7.91-50.57-29.67-58.95-57.99-.19-.66-.47-1.75-.83-3.27-.34-1.47-.81-2.88-1-4.38-.33-2.68-.99-5.43-1.16-7.95-.43-6.47-.55-13.38.57-19.78.36-2.06.64-4.22,1.07-6.13,7.07-31.64,31.31-56.26,62.7-63.95,1.16-.29,2.69-.59,4.59-.92,2.06-.35,4.12-.81,6.15-.96,5.69-.43,11.38-.44,17.07-.05,1.56.11,3.31.34,5.25.7,2.33.43,4.73.8,6.93,1.37,29.62,7.6,52.63,29.81,60.99,59.27.87,3.03,1.51,6.11,1.93,9.23.02.15.09.31.16.49.22,1.37.39,2.75.54,4.13.49,5.96.49,11.91-.02,17.87-.2,2.37-.77,5-1.21,7.52-.2,1.17-.41,2.17-.62,2.99-1.31,5.21-3.06,10.23-5.22,15,.04.03.08.05.12.07-.1.22-.19.44-.29.66-.61,1.33-1.54,2.74-2.92,3.27-1.44.56-3.5.27-4.36-1.14-.71-1.16-.35-3.63.18-4.78,6.01-13.14,8.31-26.54,6.93-40.19,0-.1-.01-.19-.02-.28-.05-.61-.13-1.23-.23-1.87-.21-1.6-.46-3.2-.77-4.8h-.07c-.01-.06-.02-.12-.03-.19-.16-1.1-.4-2.22-.72-3.35-.42-1.48-.74-3.07-1.18-4.44-7.85-25.16-27.31-44.02-52.48-51.47-2.26-.67-4.68-1.22-7.27-1.65-2.84-.47-4.28-.7-4.31-.71-5.7-.79-11.9-.59-17.2-.19-1.11.08-2.5.28-4.18.6-1.86.35-3.81.6-5.54,1.03-29.17,7.11-51.35,29.7-57.71,59.07-.16.77-.36,2.01-.59,3.72-.22,1.68-.62,3.4-.74,4.99-.32,4.19-.35,8.39-.11,12.58.07,1.29.27,2.89.6,4.82.36,2.16.59,4.37,1.08,6.4,4.49,18.79,15.24,35.14,31.09,46.21,8.83,6.17,18.52,10.32,29.06,12.42v.03c1.37.28,2.75.51,4.13.69.04.01.08.01.12.02,1.78.23,3.57.38,5.37.45,1.65.06,3.02-.08,4.09-.4,5.75-1.75,8.57-8.1,7.4-13.7-.1-.47-.22-.92-.37-1.36-.34-1.03-.81-1.97-1.4-2.81-2.18-3.07-5.57-4.02-9.06-4.57-.34-.05-.67-.1-1.01-.15-.93-.13-1.85-.24-2.76-.38-.05,0-.12-.02-.21-.03-.83-.35-1.47-1.05-1.75-1.94-1.06-3.42-2.11-6.83-3.17-10.25v-.46c-.16-.33-.28-.7-.39-1.07-.8-2.75-1.62-5.49-2.39-8.24-.64-2.3-1.42-4.27-2.45-6.21-.12-.23-.24-.45-.37-.67-.11-.2-.23-.4-.35-.6-.12-.21-.24-.42-.38-.62-.15-.25-.31-.5-.48-.74-.12-.18-.24-.37-.37-.56-.3-.45-.62-.9-.96-1.37-1.71-2.33-3.42-4.81-4.92-7.41-.26-.45-.51-.91-.76-1.37-.12-.23-.24-.46-.37-.69-.09-.19-.2-.39-.29-.58-.08-.15-.15-.31-.23-.46-.11-.24-.22-.47-.33-.71-.16-.35-.31-.71-.47-1.07-.05-.12-.1-.24-.15-.36-.09-.24-.19-.48-.28-.72-.05-.12-.09-.24-.14-.36-.21-.57-.39-1.14-.57-1.72-.02-.07-.04-.13-.06-.2-.23-.81-.43-1.64-.6-2.47,0-.04-.02-.08-.02-.12-.3-1.63-.44-3.28-.38-4.97.01-.25.03-.51.04-.77,0,.01,0,.03,0,.04.02-.21.04-.43.06-.64,2.19-21.19,23.99-34.01,43.52-25.8,11.81,4.97,19.06,16.55,19.05,29.31,0,5.73-3.91,12.98-7.11,17.6-3.08,4.44-5.87,7.81-7.52,13.37,0,0,0,0,0,.01-.84,2.83-4.64,19.79-4.64,19.79-.15.79-.05,1.6.26,2.33.22.53.55,1,.98,1.4,1.14,1.05,2.67,1.06,4.14,1.14,3.18.17,6.38-.2,9.44-1.04,2.76-.77,5.42-1.93,7.86-3.45.01,0,.02-.01.03-.02,16.03-11.1,26.53-29.63,26.53-50.6,0-29.94-21.39-54.88-49.72-60.39-3.82-.74-7.76-1.13-11.79-1.13-20.85,0-39.29,10.38-50.41,26.25-.06.08-.12.17-.18.26-.87,1.23-1.7,2.49-2.5,3.8-.2.32-.39.69-.56,1.07,0,0,0,.01,0,.02-3.95,7.01-6.56,14.88-7.48,23.26,0,.02,0,.05,0,.07-.25,2.22-.37,4.49-.37,6.78,0,18.32,8.01,34.76,20.71,46.04h0c1.41.72,3.16.49,4.35-.65,1.51-1.44,1.56-3.81.18-5.32,0,0,0,0-.01,0-.07-.08-.14-.15-.22-.22-6.91-6.39-12.06-14.51-15.06-23.66-.24-.72-.5-1.77-.81-3.15-.32-1.42-.78-2.84-.95-4.23-.6-4.89-.69-9.78-.29-14.68.05-.6.07-1.11.07-1.55h0c.91-6.62,3.02-12.86,6.11-18.5.35-.43.68-.93,1.01-1.48,7.61-12.47,19.08-21.27,33.26-24.83.37-.09.81-.26,1.23-.48,3.83-.86,7.82-1.32,11.92-1.32,1.53,0,3.05.06,4.54.19.4.18.85.3,1.32.34,3.3.28,6.54.91,9.73,1.88,16.56,5.03,29.59,17.39,35.41,33.82.69,1.97,1.25,4.39,1.84,6.62.24.89.4,1.79.49,2.69.22,2.35.45,4.71.7,7.05.01.15.03.3.04.45.06.62.04,1.63-.06,3.03,0,.04,0,.08-.01.12-.2,2.66-.57,6.51-1.23,9.57-.06.26-.12.51-.18.77-1.12,4.54-2.7,8.77-4.75,12.7-.01.02-.02.04-.03.06-.27.52-.56,1.03-.85,1.54-1.73,3.06-3.76,5.93-6.09,8.61-1.35,1.56-2.8,3.05-4.35,4.47-1.01.94-2.07,1.85-3.17,2.73-.02.02-.04.03-.06.05-1.31,1.08-2.71,2.12-4.28,2.95-.69.37-1.42.69-2.19.96-1.64.57-3.46.92-5.54.92-.08,0-.84,0-.93,0l3.28-13.67c.51-1.7,1.09-3.33,1.81-4.75,1.5-2.99,4.12-6.11,5.46-8.13,3.09-4.68,5.82-10.03,7.26-15.46.5-1.91.77-3.51.81-4.8.33-10.28-2.73-19.22-9.17-26.8-19.13-22.5-55-16.17-65.7,11.21-1.84,4.71-2.72,9.23-2.64,13.58.15,8.38,4.12,16.48,8.81,23.26,1.12,1.64,3.11,4.03,4.36,6.32.07.13.14.26.2.39,1.87,3.83,3.02,8.11,4.31,12.16,1.09,3.41,2.13,6.83,3.17,10.26.45,1.49.9,2.99,1.35,4.49.46,1.55.98,2.84,2.21,3.83.16.13.34.26.53.38.22.13.44.26.66.38.66.33,1.38.58,2.1.77.01,0,.03,0,.04.01,1.34.34,2.75.49,4.14.6,1.01.13,2.03.25,3.05.35.7.07,1.24.16,1.72.73.35.42.54.95.64,1.48.19,1.02.11,2.18-.26,3.16-.69,1.81-2.25,1.93-4.06,1.84-.2-.01-.4-.02-.61-.03-2.29-.13-4.22-.5-6.17-.93-.81-.13-1.52-.26-2.14-.38-.16-.03-.31-.07-.46-.1-6.76-1.53-12.9-3.84-18.39-6.94-16.19-9.13-27.14-22.64-32.86-40.53-.27-.83-.57-2-.9-3.51-.36-1.58-.84-3.11-1.02-4.71-.37-3.13-.97-6.37-1.06-9.37-.14-4.52.18-8.07.85-12.71.33-2.32.7-4.33,1.12-6.03,6.17-25.12,25.42-44.4,50.42-50.87,2.74-.71,5.83-1.13,8.82-1.58,4.01-.6,7.98-.56,12.21-.39,2.17.09,4.7.57,6.17.76,3.34.43,6.3,1.04,8.88,1.84,17.77,5.5,31.38,16.23,40.82,32.18.51.87,1,1.74,1.48,2.62,1.34,2.49,2.69,5.76,4.08,9.8.69,2.03,1.23,4.35,1.81,6.55.17.66.31,1.32.43,1.99,0,0,0,0-.01,0,.04.19.07.39.11.58.19,1.21.35,2.42.56,3.64.07.4.13.8.19,1.21.57,4.87.62,9.79.14,14.69-.08.72-.19,1.46-.31,2.26-.35,2.24-.67,4.54-1.18,6.66-.94,3.86-2.18,7.58-3.7,11.16.03.02.06.04.09.05-.06.14-.12.28-.18.43-1.07,2.49-1.69,4.13-1.86,4.92-1.05,4.68-.09,9.88,4.32,12.53,4.77,2.87,11.12,2.09,14.92-1.98.83-.89,1.67-2.26,2.54-4.12,7.91-16.88,10.39-36.17,7.23-54.24-.14-.79-.29-1.57-.45-2.36Z"/>
  <path class="cls-1" d="m181.44,158.47c9.87-3.89,25.11-9.74,33.48-11.64,4-.91,8.36-1.71,13.1-2.41,2.09-.31,3.72-.66,4.87-1.06.28-.09.55-.19.82-.3,2.21-.84,4.17-1.92,5.89-3.25,1.99-1.54,3.09-3.24,4.02-5.11.49-.98.93-2,1.44-3.08,1.23-2.6,3.65-3.64,6.35-3.82,17.54.13,34.67,2.83,50.96,7.91,3.72,1.16,6.67-3.23,4.15-6.21l-.07-.08c-.48-.57-1.1-.99-1.81-1.21-15.3-4.77-31.31-7.52-47.7-8.13-1.46-.11-2.89-.16-4.27-.11t0,0c-.89-.01-1.79-.02-2.68-.02-18.82,0-37.2,2.82-54.66,8.26-.71.22-1.33.64-1.81,1.21l-.07.08c-2.51,2.97.42,7.38,4.13,6.22,1.07-.33,2.14-.65,3.21-.97t0,0h0c.1-.02.2-.04.3-.07,2.78-.72,5.55-1.44,8.33-2.17,1.48-.39,3.18-.63,4.76-1.03.85-.22,1.72-.4,2.61-.57.3-.05.59-.11.89-.16.62-.11,1.34-.24,2.15-.39.03,0,.07-.01.1-.02.03,0,.05-.01.08-.01.43-.09.89-.18,1.38-.28,1.31-.27,3.1-.52,5.36-.74,0,0,.02,0,.03,0,.66-.07,1.36-.13,2.1-.19.29-.03.66-.09,1.04-.19h.01c2.77-.32,5.55-.57,8.35-.75-.84,1.54-1.38,3.44-2.47,4.75-.95,1.13-2.47,1.98-3.91,2.61,0,0,0,0,0,0-.32.14-.64.27-.94.39-.91.36-2.08.65-3.52.85-5.17.74-10.01,1.63-14.53,2.66-10.53,2.4-29.31,9.97-34.22,11.99-.78.32-1.43.9-1.84,1.64-.02.03-.04.06-.05.09-1.71,3.07,1.37,6.59,4.64,5.3Z"/>
  <path class="cls-1" d="m171.73,181.82c14.35-8.26,33.6-17.2,46.44-20.15,1.13-.26,2.61-.46,3.91-.79,2.69-.68,5.35-.91,8.03-1.41,2.07-.39,4.24-.44,6.2-.7.73-.09,1.35-.34,1.85-.69h0c2.83-1.96,2.06-7.1-2.53-6.8-3.39.22-13.71,1.74-16.36,2.36-1.77.41-3.69.79-5.3,1.19-16.57,4.12-31.99,10.78-46.26,19.97-.74.48-1.3,1.18-1.59,2.01-.01.03-.02.07-.04.1-1.23,3.44,2.46,6.74,5.63,4.92Z"/>
  <path class="cls-1" d="m248.32,276.54c-13.09,2.04-22.94,12.37-23.36,25.7-.04,1.2.14,2.11.53,2.72,1.1,1.72,4.26,1.63,5.18-.28.2-.41.33-1.25.38-2.5.49-11,9.1-18.88,19.74-19.73,1.31-.11,2.14-.24,2.48-.4,1.82-.84,2-3.85.45-5.04-1.29-.98-3.87-.73-5.4-.49Z"/>
  <path class="cls-1" d="m225.21,114.1c8.16-1.05,16.43-1.59,24.79-1.59s16.63.53,24.79,1.59c4.27.55,5.94-5.35,2-7.1-.06-.03-.12-.06-.19-.08-.33-.15-.69-.24-1.05-.29-8.41-1.08-16.94-1.62-25.56-1.62s-17.15.55-25.56,1.62c-.36.05-.71.14-1.05.29-.06.03-.12.06-.19.08-3.94,1.75-2.27,7.65,2,7.1Z"/>
  <path class="cls-1" d="m327.55,208.27c-.36-.3-.72-.59-1.09-.88-.34-.27-.68-.55-1.03-.81-12.48-9.75-26.62-16.86-42.41-21.34-.47-.14-.97-.12-1.49.05-1.7.56-2.64,1.61-2.82,3.15-.2,1.69.5,3.2,1.94,3.94.23.12.48.22.74.3,13.77,3.97,26.36,10.17,37.57,18.6.03.02.06.04.09.07.37.28.75.56,1.12.85.47.37.95.73,1.41,1.11,3.32,2.66,6.5,5.51,9.55,8.56,2.39,2.39,4.66,4.87,6.81,7.43,2.38,2.83,6.99.97,6.71-2.72,0-.04,0-.07,0-.1-.06-.79-.36-1.55-.87-2.15-.65-.78-1.32-1.55-1.99-2.31,0,0,0,0,0-.01-.1-.18-.22-.35-.35-.5-4.37-4.83-8.99-9.24-13.88-13.23Z"/>
  <path class="cls-1" d="m161.79,257.12c.88-1.68,1.8-3.34,2.77-4.96,0,0,0,0,0,0,.69-.66,1.3-1.58,1.92-2.54,14.32-22.21,35.96-37.6,61.8-43.57,1.5-.35,3.01-.62,4.54-.82.56-.07,1.12-.28,1.73-.43,0,0,0,0,0,0,.3-.08.62-.15.94-.19.34-.04.68-.07,1.02-.1,0,0,.01,0,.02,0,3.55-.35,6.91-.58,10.1-.68.02,0,.03,0,.03-.03v-.12s0-.01,0-.02h0s.03-.07.07-.07c.69-.05,1.38-.1,2.07-.14,4.38-.24,7.47-3.19,8.39-7.28.05-.22.1-.45.14-.67.36-2.16.28-5.15-.97-7.06,0,0-.01-.01-.01-.02-3.25-4.92-9.31-7.49-15.09-7.31-1.12.04-2.15.09-3.1.19-.89.09-1.91.25-3.06.48.82-.16,1.57-.39,2.26-.54-27.92,2.84-53.81,15.1-73.92,35.21-2.53,2.53-4.94,5.16-7.22,7.87-.51.61-.81,1.36-.87,2.15,0,.03,0,.07,0,.1-.28,3.69,4.33,5.55,6.72,2.72.43-.51.87-1.02,1.31-1.53h0c.57-.23,1.29-.82,2.16-1.76,17.44-18.96,38.85-30.88,64.25-35.77,2.17-.42,4.42-.65,6.66-.91,1.39-.16,3.99-.69,5.97-.6,2.36.11,5.05,1.17,6.82,2.89.86.84.78,1.59.58,2.7-.17.95-.69,1.45-1.56,1.5-1.26.07-2.52.15-3.79.22-.57.03-1.17.08-1.79.14,0,0-.01,0-.02,0-25.83,1.74-49.87,12.63-68.35,31.11-7.81,7.81-14.27,16.62-19.25,26.14-.3.57-.44,1.21-.42,1.85v.17c.11,3.93,5.37,5.14,7.19,1.66Z"/>
  <path class="cls-1" d="m238.17,181.1c-.26.03-.53.07-.81.14.58-.06,1.17-.12,1.76-.17-.33,0-.65,0-.95.03Z"/>
  <path class="cls-1" d="m283.73,170.28c-1.78.86-2.61,2.19-2.48,3.98.09,1.28.62,2.21,1.51,2.82h0c.41.28.91.5,1.47.65,17.52,4.7,34.52,13.43,48.5,25.12.16.13.37.31.62.53,3.11,2.7,7.88-.07,7.07-4.11h0c-.15-.13-.3-.27-.47-.42-15.7-13.39-33.51-22.87-53.45-28.42-.8-.22-2.17-.42-2.77-.14Z"/>
  <path class="cls-1" d="m165.22,205.07s.08-.07.11-.09c3.05-2.51,5.05-4.13,5.99-4.86,14.65-11.35,31.1-19.18,49.35-23.5,1.37-.32,3.1-.57,4.64-.94,1.2-.29,2.31-.5,3.33-.62,3.57-.44,6.57-1.14,10.64-1.37,1.04-.06,1.91-.24,2.75-.53h0c.68-.24,1.34-.55,2.04-.93,3.2-1.73,5.95-4.1,8-6.96h0c1.62-2.26,2.79-4.81,3.39-7.58.21-.95.35-1.93.41-2.93.08-1.19.29-2.92.72-4.7.73-3.05,2.12-6.2,4.61-6.76.45-.1,1.14-.09,2.08.03,2.94.39,5.88.72,8.82,1,2.19.21,4.37.7,6.56,1.08,10.32,1.77,28.16,8.48,39.26,12.79,3.45,1.34,6.69-2.35,4.92-5.6l-.05-.09c-.4-.74-1.03-1.33-1.79-1.69-10.26-4.81-21.1-8.52-32.09-11.13-1.31-.31-3.01-.61-4.51-.97-2.27-.55-4.53-.8-6.8-1.28-1.2-.25-2.34-.43-3.43-.53-2.71-.25-5.42-.6-8.1-1.05-1.09-.18-2.49-.24-4.21-.2-1.49.04-2.75.26-3.77.65-2.99,1.15-5.17,3.28-6.68,5.94-.47.84-.88,1.72-1.22,2.65-.6,1.64-1.06,3.32-1.37,5.02-.16.89-.28,1.8-.37,2.71-.16,1.71-.32,2.88-.49,3.52-.14.5-.29.99-.46,1.45-1.31,3.56-3.75,6.22-7.31,7.99h0c-.06.03-.12.07-.19.09-.54.26-1.15.41-1.83.46-3.13.24-5.24.3-7.12.8-.51.14-1,.23-1.49.28-3.11.32-5.59.88-8.27,1.44-22.41,4.68-43.37,15.4-60.72,30.25-.46.39-.89.82-1.24,1.26-.07.09-.15.22-.22.39-1.66,3.71,2.95,7.09,6.08,4.49Z"/>
  <path class="cls-1" d="m344.98,253.44c-.88-1.69-3.1-6.08-3.42-6.59-7.6-12.28-17.41-22.7-29.44-31.26-10.46-7.44-21.91-12.79-34.33-16.05-3.46-.91-5.49-5.91-5.94-9.21-.01-.11-.03-.21-.04-.31-.28-2.55-.34-5.06-.18-7.53.16-2.57.56-5.1,1.2-7.58.59-2.3,1.38-4.56,2.37-6.79.08-.18.16-.35.25-.54,1.43-2.94,4.2-6.63,7.84-5.78,15.87,3.69,30.76,9.98,44.66,18.87.02,0,.03.02.05.03,3.08,1.97,6.91-1.1,5.65-4.54-.03-.07-.05-.14-.07-.2-.29-.79-.83-1.46-1.54-1.9-14.37-9.06-29.85-15.57-46.44-19.56-5.84-1.4-10.35.84-13.68,4.72-1.26,1.47-2.36,3.18-3.28,5.02-.38.74-.72,1.45-1.02,2.13-.8,1.78-1.36,3.37-1.69,4.78-.22.91-.48,1.8-.7,2.66-.19.71-.36,1.41-.45,2.08-.25,1.77-.55,3.67-.77,5.5-.16,1.38-.28,2.73-.28,3.97,0,1.25.06,2.5.2,3.74.16,1.54.44,3.08.82,4.6.29,1.18.67,2.32,1.12,3.39,1.39,3.3,3.53,6.12,6.43,8.45.52.42,1.26.76,2.23,1.04.01,0,.02,0,.03,0,.22.06.45.12.68.18.01,0,.03,0,.04.01.04,0,.08.01.12.03,3.14.82,6.22,1.79,9.23,2.91.04.01.07.03.11.04.01,0,.03.01.04.01.8.31,1.62.64,2.46.98,4.97,2.04,9.68,4.39,14.14,7.05.01,0,.02.01.03.02,15.58,9.44,28.36,23.06,36.81,39.29,1.81,3.49,7.07,2.28,7.18-1.65v-.17c.02-.64-.12-1.28-.42-1.84Z"/>
</svg>