<?xml version="1.0" encoding="UTF-8"?>
<svg id="Layer_3" data-name="Layer 3" xmlns="http://www.w3.org/2000/svg" viewBox="0 0 500 500">
  <defs>
    <style>
      .cls-1 {
        fill: #fcd146;
      }
    </style>
  </defs>
  <polygon class="cls-1" points="214.56 296.88 195.08 296.89 195.08 296.89 188.36 288.5 208.66 288.5 194.02 270.65 190.63 266.53 171.13 266.53 178.37 258.15 208.06 258.16 214.9 258.16 215.07 258.16 233.09 236.18 185.82 236.17 185.82 236.17 174.26 236.17 174.26 236.17 174.17 236.17 172.6 238.09 172.55 238.14 148.18 266.32 148.36 266.54 148.36 266.54 157.15 277.53 165.95 288.51 172.66 296.89 172.66 296.89 181.46 307.88 190.26 318.87 190.26 318.87 201.47 318.87 201.47 318.87 234.82 318.86 238.82 318.86 220.8 296.88 214.56 296.88"/>
  <polygon class="cls-1" points="174.83 226.39 78.98 181.07 120.02 238.94 75 284.24 181.77 318.87 140.53 266.81 174.83 226.39"/>
  <polygon class="cls-1" points="357.55 258.15 328.91 205.55 261.01 294.93 317.85 277.52 350.61 318.87 425 243.32 357.55 258.15"/>
  <polygon class="cls-1" points="325.91 296.88 316.11 284.46 316.05 284.48 305.58 287.26 274.15 296.89 269.86 298.2 255.79 302.51 245.73 305.6 251.57 297.93 250.61 296.89 242.89 288.51 257.05 288.51 275.08 266.54 238.57 266.53 237.64 266.53 244.49 258.15 280.39 258.16 298.41 236.18 251.17 236.17 239.87 236.17 221.88 258.15 218.86 261.83 218.6 262.16 215.01 266.54 198.96 266.54 198.89 266.6 219.09 288.51 243.84 315.36 243.86 315.38 246.72 318.87 247.08 318.87 247.13 318.93 247.2 318.87 343.31 318.86 325.9 296.88 325.91 296.88"/>
</svg>