<?xml version="1.0" encoding="UTF-8"?>
<svg id="Layer_3" data-name="Layer 3" xmlns="http://www.w3.org/2000/svg" viewBox="0 0 500 500">
  <defs>
    <style>
      .cls-1 {
        fill: #fcd146;
      }
    </style>
  </defs>
  <path class="cls-1" d="m299.2,245.9c-2.31-5.45-5.46-10.42-9.41-14.82l-6.93,12.01c4.78,6.64,7.59,14.79,7.59,23.6,0,22.34-18.11,40.46-40.46,40.46s-40.46-18.11-40.46-40.46c0-19.99,14.5-36.59,33.55-39.87l4.4-13.48c-6.32.29-12.46,1.68-18.29,4.15-6.36,2.69-12.07,6.54-16.97,11.44-4.9,4.9-8.75,10.61-11.44,16.97-2.79,6.59-4.2,13.59-4.2,20.79s1.41,14.2,4.2,20.79c2.69,6.36,6.54,12.07,11.44,16.97,4.9,4.9,10.61,8.75,16.97,11.44,6.59,2.79,13.59,4.2,20.79,4.2s14.2-1.41,20.79-4.2c6.36-2.69,12.07-6.54,16.97-11.44,4.9-4.9,8.75-10.61,11.44-16.97,2.79-6.59,4.2-13.59,4.2-20.79s-1.41-14.2-4.2-20.79"/>
  <path class="cls-1" d="m324.55,235.19c-4.08-9.64-9.91-18.29-17.33-25.72-1.04-1.04-2.11-2.05-3.2-3.03l-6.64,11.51c12.7,12.34,20.6,29.62,20.6,48.73,0,37.54-30.43,67.97-67.97,67.97s-67.97-30.43-67.97-67.97,30.43-67.97,67.97-67.97c.76,0,1.51.01,2.26.04l4.16-12.73c-2.13-.17-4.27-.25-6.42-.25-10.92,0-21.52,2.14-31.5,6.36-9.64,4.08-18.29,9.91-25.72,17.33-7.42,7.43-13.26,16.08-17.34,25.72-4.22,9.98-6.36,20.58-6.36,31.5s2.14,21.52,6.36,31.5c4.08,9.64,9.91,18.29,17.34,25.72,7.43,7.43,16.08,13.26,25.72,17.33,9.98,4.22,20.58,6.36,31.5,6.36s21.52-2.14,31.5-6.36c9.64-4.08,18.29-9.91,25.72-17.33,7.42-7.43,13.26-16.08,17.33-25.72,4.22-9.98,6.36-20.58,6.36-31.5s-2.14-21.52-6.36-31.5"/>
  <path class="cls-1" d="m376.44,249.28c-.73-5.31-4.67-9.63-9.89-10.84l-9.76-2.27,7.06-7.05c3.8-3.8,4.86-9.54,2.67-14.45-4.18-9.34-9.48-18.17-15.74-26.24-2.5-3.22-6.3-5.02-10.23-5.02-1.25,0-2.52.18-3.76.56l-9.56,2.9,2.59-9.66c1.08-4.02.15-8.24-2.36-11.4l-14.94,25.88-.57,2.11c3.13,2.67,6.06,5.52,8.81,8.55l19.78-6.01c5.63,7.27,10.39,15.2,14.15,23.61l-14.62,14.6c1.38,3.83,2.5,7.77,3.37,11.8l20.16,4.69c1.24,8.96,1.4,18.2.41,27.51l-19.98,5.36c-.19,1.04-.37,2.07-.59,3.09-.65,3-1.46,5.93-2.36,8.79l15.08,14.11c-3.51,8.66-8.01,16.72-13.35,24.07l-19.95-5.35c-2.67,3.13-5.53,6.06-8.55,8.8l6.01,19.78c-7.27,5.64-15.2,10.39-23.6,14.15l-14.61-14.61c-3.83,1.38-7.78,2.49-11.79,3.37l-4.7,20.16c-5.06.7-10.19,1.05-15.38,1.05-4.01,0-8.06-.21-12.13-.64l-5.35-19.99c-1.03-.19-2.07-.36-3.09-.59-3-.65-5.93-1.45-8.8-2.37l-14.12,15.09c-8.66-3.52-16.71-8.02-24.06-13.35l5.35-19.96c-3.13-2.66-6.05-5.52-8.8-8.54l-19.78,6.01c-5.64-7.27-10.4-15.19-14.16-23.61l14.61-14.61c-1.37-3.84-2.5-7.78-3.37-11.79l-20.16-4.69c-1.24-8.97-1.39-18.2-.42-27.51l19.99-5.35c.19-1.03.37-2.07.6-3.1.65-3,1.45-5.92,2.36-8.79l-15.09-14.11c3.52-8.67,8.01-16.73,13.35-24.07l19.96,5.35c2.66-3.12,5.53-6.06,8.55-8.79l-6.02-19.79c7.27-5.64,15.2-10.39,23.61-14.15l14.61,14.61c3.84-1.38,7.78-2.5,11.79-3.37l4.7-20.18c5.06-.7,10.19-1.05,15.38-1.05,4.02,0,8.06.21,12.13.64l2.45,9.15,6.15-18.82c-1.98-1.76-4.49-2.91-7.24-3.2-4.48-.47-9.02-.71-13.48-.71-5.74,0-11.51.4-17.15,1.17-5.31.73-9.63,4.66-10.84,9.88l-2.28,9.78-7.06-7.06c-2.48-2.48-5.79-3.79-9.16-3.79-1.78,0-3.58.37-5.28,1.13-9.34,4.17-18.18,9.47-26.26,15.74-4.24,3.29-6.02,8.86-4.45,14l2.9,9.55-9.66-2.59c-1.11-.3-2.24-.44-3.35-.44-4.08,0-8,1.93-10.47,5.34-6,8.26-11,17.28-14.87,26.81-2.02,4.96-.76,10.66,3.15,14.32l7.28,6.81-9.64,2.58c-5.18,1.39-8.97,5.82-9.53,11.16-1.07,10.28-.92,20.59.47,30.62.73,5.31,4.67,9.63,9.89,10.84l9.76,2.27-7.06,7.06c-3.79,3.79-4.85,9.54-2.67,14.43,4.18,9.35,9.48,18.18,15.75,26.27,2.5,3.21,6.3,5.01,10.23,5.01,1.25,0,2.52-.18,3.76-.56l9.55-2.9-2.59,9.66c-1.39,5.18.56,10.68,4.9,13.83,8.26,5.99,17.28,11,26.79,14.86,1.58.64,3.23.95,4.87.95,3.51,0,6.96-1.43,9.46-4.1l6.82-7.29,2.59,9.65c1.39,5.18,5.82,8.97,11.15,9.53,4.48.47,9.02.71,13.48.71,5.74,0,11.52-.39,17.15-1.17,5.31-.74,9.62-4.66,10.84-9.89l2.27-9.77,7.06,7.06c2.48,2.48,5.79,3.79,9.16,3.79,1.79,0,3.59-.37,5.28-1.13,9.35-4.19,18.18-9.48,26.25-15.74,4.24-3.29,6.01-8.86,4.45-13.99l-2.9-9.56,9.65,2.59c1.11.3,2.24.44,3.35.44,4.08,0,8-1.93,10.48-5.34,5.99-8.25,11-17.27,14.87-26.81,2.02-4.97.77-10.66-3.15-14.32l-7.28-6.82,9.65-2.59c5.17-1.39,8.96-5.82,9.52-11.14,1.08-10.25.93-20.56-.47-30.64"/>
  <path class="cls-1" d="m291.6,120.02l-38,116.31c-2.98,9.11,9.7,14.76,14.49,6.46l61.16-105.98c9.21-15.95-5.42-35.09-23.23-30.39-6.8,1.79-12.23,6.92-14.41,13.6"/>
  <path class="cls-1" d="m266.18,266.69c0,8.94-7.25,16.18-16.18,16.18s-16.18-7.25-16.18-16.18,7.24-16.18,16.18-16.18,16.18,7.25,16.18,16.18"/>
</svg>