<?xml version="1.0" encoding="UTF-8"?>
<svg id="Layer_3" data-name="Layer 3" xmlns="http://www.w3.org/2000/svg" viewBox="0 0 500 500">
  <defs>
    <style>
      .cls-1 {
        fill: #fcd146;
      }
    </style>
  </defs>
  <g>
    <path class="cls-1" d="m63.43,161.09l-11.85,12.15v78.78l39.41,23.11v-34.04h34.67l11.85-11.85v-68.17H63.43Zm32.9,49.79h-5.34v-21.34h5.34v21.34Z"/>
    <path class="cls-1" d="m167.17,161.09l-11.87,12.44v28.45l40.6-16.3v-12.15h5.05v14.83l-45.65,18.66v34.07h73.5l12.44-12.15v-67.86h-74.08Zm33.79,67.86h-5.05v-22.23h5.05v22.23Z"/>
    <path class="cls-1" d="m326.62,161.09h-67.57v80.01h38.83v-56.9h5.03v16.89h35.87v-27.85l-12.15-12.15Z"/>
    <path class="cls-1" d="m368.42,161.09l-11.85,12.44v28.45l40.58-16.3v-12.15h5.05v14.83l-45.63,18.66v34.07h73.48l12.44-12.15v-67.86h-74.08Zm33.79,67.86h-5.05v-22.23h5.05v22.23Z"/>
  </g>
  <g>
    <path class="cls-1" d="m176.31,258.9h-67.55v80.01h37.33v-56.9h5.34v56.9h37.33v-67.57l-12.44-12.44Z"/>
    <path class="cls-1" d="m310.29,258.9v80.01h23.11l11.27-11.27v-68.74h-34.38Zm13.5-34.04c-5.26,5.28-8.22,8.22-13.5,13.5v14.62h34.38v-28.12h-20.88Z"/>
    <path class="cls-1" d="m374.34,258.9l-11.87,12.44v28.45l40.6-16.3v-12.15h5.03v14.83l-45.63,18.66v34.07h73.5l12.44-12.15v-67.86h-74.08Zm33.77,67.86h-5.03v-22.23h5.03v22.23Z"/>
    <g>
      <path class="cls-1" d="m218.41,258.9l-11.85,12.15v67.86h74.37l11.56-12.15v-67.86h-74.08Zm59.87,38.27c-2.56,6.99-6.32,13.29-12.62,19.82-11.27,9.63-25.35,15.45-41.95,13.27-5.62-.75-4.62.08-5.55-5.55-1.64-9.73.4-18.99,4.31-27.91,2.64-5.97,5.97-11.63,10.96-15.91,12.85-11.06,27.53-16.28,44.63-13.21,1.62.29,2.35,1.02,2.7,2.66,1.98,9.23.71,18.13-2.48,26.83Z"/>
      <path class="cls-1" d="m252.2,280.43c-1.68-.21-3.37-.21-5.05,0-3.85.5-7.59,2.23-10.54,5.16-7.22,7.15-7.24,19.13-.04,26.31,2.95,2.93,6.7,4.66,10.57,5.18,1.68.23,3.37.23,5.05,0,3.87-.52,7.63-2.27,10.57-5.22,7.18-7.18,7.2-18.99.04-26.18-2.99-2.99-6.72-4.74-10.61-5.26Z"/>
    </g>
  </g>
</svg>