<?xml version="1.0" encoding="UTF-8"?>
<svg id="Layer_3" data-name="Layer 3" xmlns="http://www.w3.org/2000/svg" viewBox="0 0 500 500">
  <defs>
    <style>
      .cls-1 {
        fill: #fcd146;
      }
    </style>
  </defs>
  <path class="cls-1" d="m162.36,230.83h19.54v71.46h-19.54v-71.46Zm175.29,71.46v-19.55h-97.41v19.55h97.41Zm-155.75-97.42h-19.54v19.54h19.54v-19.54Zm32.37,77.87v-6.41h-25.95v-45.5h45.5v25.96h6.41v-25.96h19.54v25.96h58.33v-6.42h-51.91v-45.5h45.5v19.54h-25.96v6.42h51.91v45.5h-103.83v25.96h-45.5v-19.55h25.95Zm0-25.95v-6.42h-6.41v6.42h6.41Zm45.5-51.92h-19.54v19.54h19.54v-19.54Zm-143.35,149.33c-3.31,0-5.99-2.68-5.99-5.99v-13.55h77.88v-6.42h-77.88v-45.5h45.5v19.55h-25.95v6.41h77.87v25.96h6.41v-25.96h19.55v25.96h6.41v-25.96h19.54v25.96h6.42v-25.96h19.54v25.96h6.41v-25.96h45.5v25.96h6.42v-136.2h-188.12v77.87h-19.54v-97.42h227.21v175.29H116.42Zm195.27-19.54h6.41v-6.42h-6.41v6.42Zm-88.99-222.51c-1.26-2.6-.3-4.99,3.18-4.99h48.25c3.48,0,4.44,2.39,3.18,4.99l-8.17,16.87c-.9,1.85-1.69,3.75-3.75,3.75h-30.77c-2.06,0-2.85-1.9-3.75-3.75l-8.17-16.87Zm35.78,18.02h4.62c2.06,0,2.39-1.9,3.3-3.75l5.78-11.67c1.28-2.59,1.2-4.99-2.28-4.99h-4.62c3.48,0,4.46,2.4,3.18,4.99l-5.78,11.67c-.91,1.85-2.14,3.75-4.2,3.75Zm-18.12,9.01c-.95,0-1.72.78-1.72,1.72v5.63h22.72v-5.63c0-.94-.77-1.72-1.72-1.72h-19.28Zm26.88-35.24c-3.07-5.16-9.64-8.73-17.24-8.73s-14.17,3.57-17.24,8.73h34.49Zm98.37,49.01h-231.23c-13.23,0-23.95,10.72-23.95,23.95v99.43h19.55v-103.83h240.04v181.71h13.55c3.31,0,5.99-2.68,5.99-5.99v-171.31c0-13.23-10.72-23.95-23.95-23.95Zm-244.4,218.36l-5.16,14.73v-14.73h-3.2v33.47h3.2v-14.73l5.16,14.73h3.2l-5.88-16.73,5.88-16.73h-3.2Zm23.99,22.71l-6.79-22.71h-3.2v33.47h3.2v-22.71l6.79,22.71h3.2v-33.47h-3.2v22.71Zm25.19-19.43c.29.65.43,1.35.43,2.08v22.71c0,.73-.14,1.43-.43,2.08-.29.65-.67,1.22-1.15,1.7-.48.48-1.04.86-1.7,1.15-.65.29-1.35.43-2.08.43h-.86c-.73,0-1.43-.14-2.08-.43-.65-.29-1.22-.67-1.7-1.15-.48-.48-.86-1.04-1.15-1.7-.29-.65-.43-1.35-.43-2.08v-22.71c0-.73.14-1.43.43-2.08.29-.65.67-1.22,1.15-1.7.48-.48,1.04-.86,1.7-1.15.65-.29,1.35-.43,2.08-.43h.86c.73,0,1.43.14,2.08.43.65.29,1.22.67,1.7,1.15.48.48.86,1.04,1.15,1.7Zm-2.77,2.08c0-.61-.21-1.11-.62-1.53-.42-.41-.92-.62-1.53-.62h-.86c-.61,0-1.12.21-1.53.62s-.62.92-.62,1.53v22.71c0,.61.21,1.12.62,1.53.41.41.92.62,1.53.62h.86c.61,0,1.11-.21,1.53-.62.41-.41.62-.92.62-1.53v-22.71Zm25.19-2.08c.29.65.43,1.35.43,2.08v22.71c0,.73-.14,1.43-.43,2.08-.29.65-.67,1.22-1.15,1.7-.48.48-1.04.86-1.7,1.15-.65.29-1.35.43-2.08.43h-.86c-.73,0-1.43-.14-2.08-.43-.65-.29-1.22-.67-1.7-1.15-.48-.48-.86-1.04-1.15-1.7-.29-.65-.43-1.35-.43-2.08v-22.71c0-.73.14-1.43.43-2.08.29-.65.67-1.22,1.15-1.7.48-.48,1.04-.86,1.7-1.15.65-.29,1.35-.43,2.08-.43h.86c.73,0,1.43.14,2.08.43.65.29,1.22.67,1.7,1.15.48.48.86,1.04,1.15,1.7Zm-2.77,2.08c0-.61-.21-1.11-.62-1.53-.42-.41-.92-.62-1.53-.62h-.86c-.61,0-1.12.21-1.53.62s-.62.92-.62,1.53v22.71c0,.61.21,1.12.62,1.53.41.41.92.62,1.53.62h.86c.61,0,1.11-.21,1.53-.62.41-.41.62-.92.62-1.53v-22.71Zm14.05-2.15h8.41l-8.41,27.01v3.2h11.62v-3.2h-8.41l8.41-27.01v-3.2h-11.62v3.2Zm41.2-3.2l5.83,33.47h-3.2l-1.15-6.65h-6.36l-1.15,6.65h-3.2l5.83-33.47h3.39Zm.91,23.62l-2.63-14.96-2.63,14.96h5.26Zm18.97-23.62h-3.2v33.47h11.23v-3.2h-8.03v-30.26Zm18.83,19.27h10.57v-3.2h-10.57v3.2Zm28.82-4.16l-4.21-15.11h-3.2v33.47h3.2v-21.99l2.63,9.32h3.2l2.63-9.32v21.99h3.2v-33.47h-3.2l-4.26,15.11Zm18.26,18.36h11.23v-3.2h-8.03v-11.9h6.5v-3.2h-6.5v-11.95h8.03v-3.16l-11.23-.05v33.47Zm31.36-16.21l-5.21-3.73c-.61-.41-.91-1-.91-1.77v-6.41c0-.61.21-1.11.62-1.53s.92-.62,1.53-.62h.86c.61,0,1.11.21,1.53.62.41.41.62.92.62,1.53v3.82h3.2v-3.82c0-.73-.14-1.43-.43-2.08-.29-.65-.67-1.22-1.15-1.7-.48-.48-1.04-.86-1.7-1.15-.65-.29-1.35-.43-2.08-.43h-.86c-.73,0-1.43.14-2.08.43-.65.29-1.22.67-1.7,1.15-.48.48-.86,1.04-1.15,1.7-.29.65-.43,1.35-.43,2.08v6.45c0,.86.2,1.67.6,2.44.4.76.96,1.4,1.7,1.91l5.21,3.73c.61.41.91,1,.91,1.77v6.41c0,.61-.21,1.12-.62,1.53s-.92.62-1.53.62h-.86c-.61,0-1.12-.21-1.53-.62-.41-.41-.62-.92-.62-1.53v-3.82h-3.2v3.82c0,.73.14,1.43.43,2.08.29.65.67,1.22,1.15,1.7.48.48,1.04.86,1.7,1.15.65.29,1.35.43,2.08.43h.86c.73,0,1.43-.14,2.08-.43.65-.29,1.22-.67,1.7-1.15.48-.48.86-1.04,1.15-1.7.29-.65.43-1.35.43-2.08v-6.45c0-.86-.2-1.67-.6-2.44-.4-.76-.96-1.4-1.7-1.91Zm21.51-17.26l-5.16,14.73v-14.73h-3.2v33.47h3.2v-14.73l5.16,14.73h3.2l-5.88-16.73,5.88-16.73h-3.2Z"/>
</svg>