<?xml version="1.0" encoding="UTF-8"?>
<svg id="Layer_3" data-name="Layer 3" xmlns="http://www.w3.org/2000/svg" viewBox="0 0 500 500">
  <defs>
    <style>
      .cls-1 {
        fill: #fcd146;
      }
    </style>
  </defs>
  <path class="cls-1" d="m319.32,194.71l-4.35-4.27c-7.17-7.04-18.88-7.04-26.08,0l-17.3,16.99,17.3,17.01-4.27,4.19-21.86-21.65-16.88-16.7,4.06-3.98,16.68,16.55c2.88-3.75,4.31-8.25,4.31-12.78,0-5.39-2.05-10.79-6.17-14.92-2.98-2.96-6.61-4.85-10.44-5.66,4.23-1.72,7.21-5.86,7.21-10.71s-3.15-9.2-7.58-10.83c1.1-1.04,1.82-2.51,1.82-4.18,0-1.55-.62-2.94-1.62-3.98,7.56-1.86,13.16-8.66,13.16-16.78,0-9.57-7.75-17.32-17.32-17.32s-17.3,7.75-17.3,17.32c0,8.12,5.61,14.92,13.14,16.78-.99,1.04-1.6,2.44-1.6,3.98,0,1.66.7,3.13,1.8,4.18-4.43,1.62-7.58,5.86-7.58,10.83s2.92,8.91,7.09,10.65c-3.9.81-7.6,2.71-10.63,5.72-8.24,8.25-8.22,21.61,0,29.85l14.92,14.9,34.77,34.31,30.35-29.79-17.3-16.99,4.25-4.19,17.32,16.99.08-.08c7.13-7,7.11-18.46,0-25.44Zm-80.86-75.43c0-6.36,5.16-11.54,11.54-11.54s11.54,5.18,11.54,11.54-5.16,11.54-11.54,11.54-11.54-5.16-11.54-11.54Zm-10.05,190.13l21.59-21.2,17.32,17,137.92-135.79c-3.6-3.54-8.31-5.3-13.04-5.3s-9.43,1.76-13.03,5.3l-111.86,110.19-4.28-4.2,17.31-16.99-30.35-29.8-30.33,29.79s0,0,0,0l17.31,17-21.59,21.19-124.9-122.99c-3.6,3.54-5.4,8.17-5.4,12.8s1.8,9.26,5.4,12.8l111.85,110.19c7.2,7.06,18.87,7.06,26.08,0Zm21.59-55.19l4.28,4.2-4.27,4.2-4.28-4.2,4.27-4.2Zm63.89,104.86c7.2,7.07,7.2,18.53,0,25.6l-4.28,4.2c-7.2,7.07-18.87,7.07-26.07,0l-33.54-32.67-33.67,32.8c-7.2,7.07-18.87,7.07-26.07,0l-4.34-4.26c-7.2-7.07-7.2-18.53,0-25.6l16.49-15.94c7.2-7.07,18.87-7.07,26.07,0l-29.53,28.73,4.34,4.26,33.67-32.8-23.37-22.94c6.82.49,13.81-1.82,19.02-6.93l17.39,17.07,17.39-17.07c5.2,5.11,12.19,7.41,19.01,6.93l-23.37,22.94,33.54,32.67,4.28-4.2-29.39-28.6h0c7.2-7.07,18.87-7.07,26.07,0l16.36,15.8Zm95.63-159.86l-111.85,110.19c-7.2,7.07-18.87,7.07-26.07,0l137.93-135.79c7.2,7.07,7.2,18.53,0,25.6Zm-194.14,89l-120.61-118.79c7.2-7.06,18.86-7.06,26.06,0l107.58,106-13.03,12.79Zm-34.7-68.06c-7.12-6.99-7.12-18.46,0-25.45l.07-.07,34.63,33.99,4.27-4.2-34.63-33.99c7.17-7.04,18.9-7.04,26.07,0l34.63,33.99-30.35,29.79-34.7-34.07Z"/>
</svg>