<?xml version="1.0" encoding="UTF-8"?>
<svg id="Layer_3" data-name="Layer 3" xmlns="http://www.w3.org/2000/svg" viewBox="0 0 500 500">
  <defs>
    <style>
      .cls-1 {
        fill: #fcd146;
      }
    </style>
  </defs>
  <path class="cls-1" d="m326.75,301.66c-23.18,31.94-61.11,77.53-73.37,92.16-.15.23-.32.42-.51.61-.69.69-1.64,1.12-2.69,1.12-.97,0-1.85-.36-2.53-.97-.25-.3-.51-.61-.82-.95-14.99-17.79-66.67-79.7-85.34-109.09-16.15-25.43-21.49-57.22-21.49-70.4-.06-58.71,45.98-106.69,103.95-109.7,2.76-.13,5.07,2.04,5.07,4.8v56.78c0,2.44-1.81,4.48-4.23,4.76-22.4,2.59-39.81,21.62-39.81,44.71,0,16.84,9.24,31.51,22.95,39.22,1.49.84,2.46,2.42,2.46,4.15v30.36c0,2.65,2.15,4.8,4.78,4.8l87.7.02c3.92,0,6.19,4.44,3.87,7.62Z"/>
  <path class="cls-1" d="m267.96,105.72c-2.91-.47-5.55,1.8-5.55,4.74v58.28c0,2.02,1.27,3.81,3.17,4.51,15.56,5.74,27.08,19.83,29.11,36.84.34,2.87-1.88,5.4-4.76,5.4h-42.31c-2.65,0-4.8,2.15-4.8,4.8v56.53c0,2.65,2.15,4.8,4.8,4.8h89.93c1.74,0,3.35-.95,4.2-2.47,13.69-24.45,18.26-52.98,18.26-65.27-.07-54.52-39.9-99.72-92.04-108.16Z"/>
</svg>