<?xml version="1.0" encoding="UTF-8"?>
<svg id="Layer_3" data-name="Layer 3" xmlns="http://www.w3.org/2000/svg" viewBox="0 0 500 500">
  <defs>
    <style>
      .cls-1 {
        fill: #fcd146;
      }
    </style>
  </defs>
  <path class="cls-1" d="m119.44,269.25c5.47-25.34,10.94-50.69,16.41-76.05h-23.95c-8.69,33.51-17.4,67.03-26.1,100.54h66.01c1.61-9.8,2.44-14.69,4.06-24.49h-36.43Zm42.54-76.05c-7.7,9.44-15.64,18.72-23.73,27.82-2.6,12.92-5.19,25.83-7.78,38.76h26.86c.87-5.55,1.3-8.31,2.18-13.85h9.94c-2.23,15.93-4.47,31.88-6.72,47.8h28.36c3.24-33.51,6.48-67.03,9.73-100.54h-38.84Zm.26,35.27c4.85-6.15,7.2-9.22,11.82-15.37-.85,6.15-1.29,9.22-2.15,15.37h-9.67Zm43.31-2.95l-.11,1.18-3.41,35.16-.12,1.44h17.26l.03-1.26,1.18-35.17.04-1.34h-14.87Zm12.35,36.47h-13.3l2.14-22.12h11.9l-.74,22.12Zm47.72-37.22c-7.6-12.62-11.18-18.94-17.98-31.57h-38.83c-.8,9.79-1.2,14.69-2,24.49h35.77c-.07,2.83-.08,4.24-.14,7.08h23.18Zm1.08,9.49h-38.76c-.24,6.77-.37,10.17-.61,16.95h39.75c-.16-6.78-.22-10.18-.38-16.95Zm.58,26.41h-25.55c-.08,4.18-.12,6.27-.2,10.44h-38.98c-.75,9.04-1.11,13.57-1.85,22.62h52.85c5.79-6.47,8.61-9.71,14.11-16.18-.15-6.76-.23-10.14-.38-16.88Zm47.42-26.41h-39.41c.26,6.77.38,10.17.62,16.95h40.55c-.7-6.78-1.06-10.18-1.76-16.95Zm19.39-16.57c-1.38-9.8-2.06-14.7-3.44-24.49h-56.86c.46,12.63.69,18.95,1.16,31.57h25.33c-.23-2.84-.34-4.25-.57-7.08h34.37Zm7.01,42.23l-5.19-33.29-.16-1.11h-14.09l.15,1.44,3.47,33.29.11,1.18h15.95l-.23-1.5Zm-14.54.2l-2.1-20.25h10.17l3.14,20.25h-11.21Zm14.8,9.12h-37.49c-.27-3.43-.41-5.13-.69-8.57h-26.91c.49,13.21.73,19.83,1.22,33.06h67.31c-1.38-9.8-2.06-14.69-3.44-24.49Zm66.99-26.49h-14.38c4.28-6.24,6.36-9.37,10.34-15.61-1.73-6.65-2.6-9.96-4.32-16.61-9.27-6.93-13.8-10.4-22.6-17.33h-38.75c5.2,33.51,10.41,67.03,15.62,100.54h45.87c6.67-8.48,9.86-12.71,15.95-21.2-3.1-11.91-4.64-17.87-7.74-29.78Zm-28.07-9.03h-9.61c-1.27-6.4-1.91-9.61-3.2-16.03h9.36c1.38,6.42,2.07,9.63,3.45,16.03Zm7.66,35.52h-10.18c-1.45-7.22-2.17-10.82-3.6-18.03h9.9c1.56,7.22,2.33,10.82,3.89,18.03Zm20.4-26.49h-14.38c4.28-6.24,6.36-9.37,10.34-15.61-1.73-6.65-2.6-9.96-4.32-16.61-9.27-6.93-13.8-10.4-22.6-17.33h-38.75c5.2,33.51,10.41,67.03,15.62,100.54h45.87c6.67-8.48,9.86-12.71,15.95-21.2-3.1-11.91-4.64-17.87-7.74-29.78Zm-28.07-9.03h-9.61c-1.27-6.4-1.91-9.61-3.2-16.03h9.36c1.38,6.42,2.07,9.63,3.45,16.03Zm7.66,35.52h-10.18c-1.45-7.22-2.17-10.82-3.6-18.03h9.9c1.56,7.22,2.33,10.82,3.89,18.03Zm-46.59,0h-37.49c-.27-3.43-.41-5.13-.69-8.57h-26.91c.49,13.21.73,19.83,1.22,33.06h67.31c-1.38-9.8-2.06-14.69-3.44-24.49Zm-.26-9.33l-5.19-33.29-.16-1.11h-14.09l.15,1.44,3.47,33.29.11,1.18h15.95l-.23-1.5Zm-14.54.2l-2.1-20.25h10.17l3.14,20.25h-11.21Zm7.53-42.43c-1.38-9.8-2.06-14.7-3.44-24.49h-56.86c.46,12.63.69,18.95,1.16,31.57h25.33c-.23-2.84-.34-4.25-.57-7.08h34.37Zm-19.39,16.57h-39.41c.26,6.77.38,10.17.62,16.95h40.55c-.7-6.78-1.06-10.18-1.76-16.95Zm-47.42,26.41h-25.55c-.08,4.18-.12,6.27-.2,10.44h-38.98c-.75,9.04-1.11,13.57-1.85,22.62h52.85c5.79-6.47,8.61-9.71,14.11-16.18-.15-6.76-.23-10.14-.38-16.88Zm-.58-26.41h-38.76c-.24,6.77-.37,10.17-.61,16.95h39.75c-.16-6.78-.22-10.18-.38-16.95Zm-1.08-9.49c-7.6-12.62-11.18-18.94-17.98-31.57h-38.83c-.8,9.79-1.2,14.69-2,24.49h35.77c-.07,2.83-.08,4.24-.14,7.08h23.18Zm-60.07.74l-.11,1.18-3.41,35.16-.12,1.44h17.26l.03-1.26,1.18-35.17.04-1.34h-14.87Zm12.35,36.47h-13.3l2.14-22.12h11.9l-.74,22.12Zm-55.91-68.79c-7.7,9.44-15.64,18.72-23.73,27.82-2.6,12.92-5.19,25.83-7.78,38.76h26.86c.87-5.55,1.3-8.31,2.18-13.85h9.94c-2.23,15.93-4.47,31.88-6.72,47.8h28.36c3.24-33.51,6.48-67.03,9.73-100.54h-38.84Zm.26,35.27c4.85-6.15,7.2-9.22,11.82-15.37-.85,6.15-1.29,9.22-2.15,15.37h-9.67Zm-42.79,40.78c5.47-25.34,10.94-50.69,16.41-76.05h-23.95c-8.69,33.51-17.4,67.03-26.1,100.54h66.01c1.61-9.8,2.44-14.69,4.06-24.49h-36.43Zm0,0c5.47-25.34,10.94-50.69,16.41-76.05h-23.95c-8.69,33.51-17.4,67.03-26.1,100.54h66.01c1.61-9.8,2.44-14.69,4.06-24.49h-36.43Zm42.54-76.05c-7.7,9.44-15.64,18.72-23.73,27.82-2.6,12.92-5.19,25.83-7.78,38.76h26.86c.87-5.55,1.3-8.31,2.18-13.85h9.94c-2.23,15.93-4.47,31.88-6.72,47.8h28.36c3.24-33.51,6.48-67.03,9.73-100.54h-38.84Zm.26,35.27c4.85-6.15,7.2-9.22,11.82-15.37-.85,6.15-1.29,9.22-2.15,15.37h-9.67Zm43.31-2.95l-.11,1.18-3.41,35.16-.12,1.44h17.26l.03-1.26,1.18-35.17.04-1.34h-14.87Zm12.35,36.47h-13.3l2.14-22.12h11.9l-.74,22.12Zm47.72-37.22c-7.6-12.62-11.18-18.94-17.98-31.57h-38.83c-.8,9.79-1.2,14.69-2,24.49h35.77c-.07,2.83-.08,4.24-.14,7.08h23.18Zm1.08,9.49h-38.76c-.24,6.77-.37,10.17-.61,16.95h39.75c-.16-6.78-.22-10.18-.38-16.95Zm.58,26.41h-25.55c-.08,4.18-.12,6.27-.2,10.44h-38.98c-.75,9.04-1.11,13.57-1.85,22.62h52.85c5.79-6.47,8.61-9.71,14.11-16.18-.15-6.76-.23-10.14-.38-16.88Zm47.42-26.41h-39.41c.26,6.77.38,10.17.62,16.95h40.55c-.7-6.78-1.06-10.18-1.76-16.95Zm19.39-16.57c-1.38-9.8-2.06-14.7-3.44-24.49h-56.86c.46,12.63.69,18.95,1.16,31.57h25.33c-.23-2.84-.34-4.25-.57-7.08h34.37Zm7.01,42.23l-5.19-33.29-.16-1.11h-14.09l.15,1.44,3.47,33.29.11,1.18h15.95l-.23-1.5Zm-14.54.2l-2.1-20.25h10.17l3.14,20.25h-11.21Zm14.8,9.12h-37.49c-.27-3.43-.41-5.13-.69-8.57h-26.91c.49,13.21.73,19.83,1.22,33.06h67.31c-1.38-9.8-2.06-14.69-3.44-24.49Zm66.99-26.49h-14.38c4.28-6.24,6.36-9.37,10.34-15.61-1.73-6.65-2.6-9.96-4.32-16.61-9.27-6.93-13.8-10.4-22.6-17.33h-38.75c5.2,33.51,10.41,67.03,15.62,100.54h45.87c6.67-8.48,9.86-12.71,15.95-21.2-3.1-11.91-4.64-17.87-7.74-29.78Zm-28.07-9.03h-9.61c-1.27-6.4-1.91-9.61-3.2-16.03h9.36c1.38,6.42,2.07,9.63,3.45,16.03Zm7.66,35.52h-10.18c-1.45-7.22-2.17-10.82-3.6-18.03h9.9c1.56,7.22,2.33,10.82,3.89,18.03Zm20.4-26.49h-14.38c4.28-6.24,6.36-9.37,10.34-15.61-1.73-6.65-2.6-9.96-4.32-16.61-9.27-6.93-13.8-10.4-22.6-17.33h-38.75c5.2,33.51,10.41,67.03,15.62,100.54h45.87c6.67-8.48,9.86-12.71,15.95-21.2-3.1-11.91-4.64-17.87-7.74-29.78Zm-28.07-9.03h-9.61c-1.27-6.4-1.91-9.61-3.2-16.03h9.36c1.38,6.42,2.07,9.63,3.45,16.03Zm7.66,35.52h-10.18c-1.45-7.22-2.17-10.82-3.6-18.03h9.9c1.56,7.22,2.33,10.82,3.89,18.03Zm-46.59,0h-37.49c-.27-3.43-.41-5.13-.69-8.57h-26.91c.49,13.21.73,19.83,1.22,33.06h67.31c-1.38-9.8-2.06-14.69-3.44-24.49Zm-.26-9.33l-5.19-33.29-.16-1.11h-14.09l.15,1.44,3.47,33.29.11,1.18h15.95l-.23-1.5Zm-14.54.2l-2.1-20.25h10.17l3.14,20.25h-11.21Zm7.53-42.43c-1.38-9.8-2.06-14.7-3.44-24.49h-56.86c.46,12.63.69,18.95,1.16,31.57h25.33c-.23-2.84-.34-4.25-.57-7.08h34.37Zm-19.39,16.57h-39.41c.26,6.77.38,10.17.62,16.95h40.55c-.7-6.78-1.06-10.18-1.76-16.95Zm-47.42,26.41h-25.55c-.08,4.18-.12,6.27-.2,10.44h-38.98c-.75,9.04-1.11,13.57-1.85,22.62h52.85c5.79-6.47,8.61-9.71,14.11-16.18-.15-6.76-.23-10.14-.38-16.88Zm-.58-26.41h-38.76c-.24,6.77-.37,10.17-.61,16.95h39.75c-.16-6.78-.22-10.18-.38-16.95Zm-1.08-9.49c-7.6-12.62-11.18-18.94-17.98-31.57h-38.83c-.8,9.79-1.2,14.69-2,24.49h35.77c-.07,2.83-.08,4.24-.14,7.08h23.18Zm-60.07.74l-.11,1.18-3.41,35.16-.12,1.44h17.26l.03-1.26,1.18-35.17.04-1.34h-14.87Zm12.35,36.47h-13.3l2.14-22.12h11.9l-.74,22.12Zm-55.91-68.79c-7.7,9.44-15.64,18.72-23.73,27.82-2.6,12.92-5.19,25.83-7.78,38.76h26.86c.87-5.55,1.3-8.31,2.18-13.85h9.94c-2.23,15.93-4.47,31.88-6.72,47.8h28.36c3.24-33.51,6.48-67.03,9.73-100.54h-38.84Zm.26,35.27c4.85-6.15,7.2-9.22,11.82-15.37-.85,6.15-1.29,9.22-2.15,15.37h-9.67Zm-42.79,40.78c5.47-25.34,10.94-50.69,16.41-76.05h-23.95c-8.69,33.51-17.4,67.03-26.1,100.54h66.01c1.61-9.8,2.44-14.69,4.06-24.49h-36.43Zm0,0c5.47-25.34,10.94-50.69,16.41-76.05h-23.95c-8.69,33.51-17.4,67.03-26.1,100.54h66.01c1.61-9.8,2.44-14.69,4.06-24.49h-36.43Zm42.54-76.05c-7.7,9.44-15.64,18.72-23.73,27.82-2.6,12.92-5.19,25.83-7.78,38.76h26.86c.87-5.55,1.3-8.31,2.18-13.85h9.94c-2.23,15.93-4.47,31.88-6.72,47.8h28.36c3.24-33.51,6.48-67.03,9.73-100.54h-38.84Zm.26,35.27c4.85-6.15,7.2-9.22,11.82-15.37-.85,6.15-1.29,9.22-2.15,15.37h-9.67Zm43.31-2.95l-.11,1.18-3.41,35.16-.12,1.44h17.26l.03-1.26,1.18-35.17.04-1.34h-14.87Zm12.35,36.47h-13.3l2.14-22.12h11.9l-.74,22.12Zm47.72-37.22c-7.6-12.62-11.18-18.94-17.98-31.57h-38.83c-.8,9.79-1.2,14.69-2,24.49h35.77c-.07,2.83-.08,4.24-.14,7.08h23.18Zm1.08,9.49h-38.76c-.24,6.77-.37,10.17-.61,16.95h39.75c-.16-6.78-.22-10.18-.38-16.95Zm.58,26.41h-25.55c-.08,4.18-.12,6.27-.2,10.44h-38.98c-.75,9.04-1.11,13.57-1.85,22.62h52.85c5.79-6.47,8.61-9.71,14.11-16.18-.15-6.76-.23-10.14-.38-16.88Zm47.42-26.41h-39.41c.26,6.77.38,10.17.62,16.95h40.55c-.7-6.78-1.06-10.18-1.76-16.95Zm19.39-16.57c-1.38-9.8-2.06-14.7-3.44-24.49h-56.86c.46,12.63.69,18.95,1.16,31.57h25.33c-.23-2.84-.34-4.25-.57-7.08h34.37Zm7.01,42.23l-5.19-33.29-.16-1.11h-14.09l.15,1.44,3.47,33.29.11,1.18h15.95l-.23-1.5Zm-14.54.2l-2.1-20.25h10.17l3.14,20.25h-11.21Zm14.8,9.12h-37.49c-.27-3.43-.41-5.13-.69-8.57h-26.91c.49,13.21.73,19.83,1.22,33.06h67.31c-1.38-9.8-2.06-14.69-3.44-24.49Zm66.99-26.49h-14.38c4.28-6.24,6.36-9.37,10.34-15.61-1.73-6.65-2.6-9.96-4.32-16.61-9.27-6.93-13.8-10.4-22.6-17.33h-38.75c5.2,33.51,10.41,67.03,15.62,100.54h45.87c6.67-8.48,9.86-12.71,15.95-21.2-3.1-11.91-4.64-17.87-7.74-29.78Zm-28.07-9.03h-9.61c-1.27-6.4-1.91-9.61-3.2-16.03h9.36c1.38,6.42,2.07,9.63,3.45,16.03Zm7.66,35.52h-10.18c-1.45-7.22-2.17-10.82-3.6-18.03h9.9c1.56,7.22,2.33,10.82,3.89,18.03Zm20.4-26.49h-14.38c4.28-6.24,6.36-9.37,10.34-15.61-1.73-6.65-2.6-9.96-4.32-16.61-9.27-6.93-13.8-10.4-22.6-17.33h-38.75c5.2,33.51,10.41,67.03,15.62,100.54h45.87c6.67-8.48,9.86-12.71,15.95-21.2-3.1-11.91-4.64-17.87-7.74-29.78Zm-28.07-9.03h-9.61c-1.27-6.4-1.91-9.61-3.2-16.03h9.36c1.38,6.42,2.07,9.63,3.45,16.03Zm7.66,35.52h-10.18c-1.45-7.22-2.17-10.82-3.6-18.03h9.9c1.56,7.22,2.33,10.82,3.89,18.03Zm-46.59,0h-37.49c-.27-3.43-.41-5.13-.69-8.57h-26.91c.49,13.21.73,19.83,1.22,33.06h67.31c-1.38-9.8-2.06-14.69-3.44-24.49Zm-.26-9.33l-5.19-33.29-.16-1.11h-14.09l.15,1.44,3.47,33.29.11,1.18h15.95l-.23-1.5Zm-14.54.2l-2.1-20.25h10.17l3.14,20.25h-11.21Zm7.53-42.43c-1.38-9.8-2.06-14.7-3.44-24.49h-56.86c.46,12.63.69,18.95,1.16,31.57h25.33c-.23-2.84-.34-4.25-.57-7.08h34.37Zm-19.39,16.57h-39.41c.26,6.77.38,10.17.62,16.95h40.55c-.7-6.78-1.06-10.18-1.76-16.95Zm-47.42,26.41h-25.55c-.08,4.18-.12,6.27-.2,10.44h-38.98c-.75,9.04-1.11,13.57-1.85,22.62h52.85c5.79-6.47,8.61-9.71,14.11-16.18-.15-6.76-.23-10.14-.38-16.88Zm-.58-26.41h-38.76c-.24,6.77-.37,10.17-.61,16.95h39.75c-.16-6.78-.22-10.18-.38-16.95Zm-1.08-9.49c-7.6-12.62-11.18-18.94-17.98-31.57h-38.83c-.8,9.79-1.2,14.69-2,24.49h35.77c-.07,2.83-.08,4.24-.14,7.08h23.18Zm-60.07.74l-.11,1.18-3.41,35.16-.12,1.44h17.26l.03-1.26,1.18-35.17.04-1.34h-14.87Zm12.35,36.47h-13.3l2.14-22.12h11.9l-.74,22.12Zm-55.91-68.79c-7.7,9.44-15.64,18.72-23.73,27.82-2.6,12.92-5.19,25.83-7.78,38.76h26.86c.87-5.55,1.3-8.31,2.18-13.85h9.94c-2.23,15.93-4.47,31.88-6.72,47.8h28.36c3.24-33.51,6.48-67.03,9.73-100.54h-38.84Zm.26,35.27c4.85-6.15,7.2-9.22,11.82-15.37-.85,6.15-1.29,9.22-2.15,15.37h-9.67Zm-42.79,40.78c5.47-25.34,10.94-50.69,16.41-76.05h-23.95c-8.69,33.51-17.4,67.03-26.1,100.54h66.01c1.61-9.8,2.44-14.69,4.06-24.49h-36.43Zm0,0c5.47-25.34,10.94-50.69,16.41-76.05h-23.95c-8.69,33.51-17.4,67.03-26.1,100.54h66.01c1.61-9.8,2.44-14.69,4.06-24.49h-36.43Zm42.54-76.05c-7.7,9.44-15.64,18.72-23.73,27.82-2.6,12.92-5.19,25.83-7.78,38.76h26.86c.87-5.55,1.3-8.31,2.18-13.85h9.94c-2.23,15.93-4.47,31.88-6.72,47.8h28.36c3.24-33.51,6.48-67.03,9.73-100.54h-38.84Zm.26,35.27c4.85-6.15,7.2-9.22,11.82-15.37-.85,6.15-1.29,9.22-2.15,15.37h-9.67Zm43.31-2.95l-.11,1.18-3.41,35.16-.12,1.44h17.26l.03-1.26,1.18-35.17.04-1.34h-14.87Zm12.35,36.47h-13.3l2.14-22.12h11.9l-.74,22.12Zm47.72-37.22c-7.6-12.62-11.18-18.94-17.98-31.57h-38.83c-.8,9.79-1.2,14.69-2,24.49h35.77c-.07,2.83-.08,4.24-.14,7.08h23.18Zm1.08,9.49h-38.76c-.24,6.77-.37,10.17-.61,16.95h39.75c-.16-6.78-.22-10.18-.38-16.95Zm.58,26.41h-25.55c-.08,4.18-.12,6.27-.2,10.44h-38.98c-.75,9.04-1.11,13.57-1.85,22.62h52.85c5.79-6.47,8.61-9.71,14.11-16.18-.15-6.76-.23-10.14-.38-16.88Zm47.42-26.41h-39.41c.26,6.77.38,10.17.62,16.95h40.55c-.7-6.78-1.06-10.18-1.76-16.95Zm19.39-16.57c-1.38-9.8-2.06-14.7-3.44-24.49h-56.86c.46,12.63.69,18.95,1.16,31.57h25.33c-.23-2.84-.34-4.25-.57-7.08h34.37Zm7.01,42.23l-5.19-33.29-.16-1.11h-14.09l.15,1.44,3.47,33.29.11,1.18h15.95l-.23-1.5Zm-14.54.2l-2.1-20.25h10.17l3.14,20.25h-11.21Zm14.8,9.12h-37.49c-.27-3.43-.41-5.13-.69-8.57h-26.91c.49,13.21.73,19.83,1.22,33.06h67.31c-1.38-9.8-2.06-14.69-3.44-24.49Zm66.99-26.49h-14.38c4.28-6.24,6.36-9.37,10.34-15.61-1.73-6.65-2.6-9.96-4.32-16.61-9.27-6.93-13.8-10.4-22.6-17.33h-38.75c5.2,33.51,10.41,67.03,15.62,100.54h45.87c6.67-8.48,9.86-12.71,15.95-21.2-3.1-11.91-4.64-17.87-7.74-29.78Zm-28.07-9.03h-9.61c-1.27-6.4-1.91-9.61-3.2-16.03h9.36c1.38,6.42,2.07,9.63,3.45,16.03Zm7.66,35.52h-10.18c-1.45-7.22-2.17-10.82-3.6-18.03h9.9c1.56,7.22,2.33,10.82,3.89,18.03Zm20.4-26.49h-14.38c4.28-6.24,6.36-9.37,10.34-15.61-1.73-6.65-2.6-9.96-4.32-16.61-9.27-6.93-13.8-10.4-22.6-17.33h-38.75c5.2,33.51,10.41,67.03,15.62,100.54h45.87c6.67-8.48,9.86-12.71,15.95-21.2-3.1-11.91-4.64-17.87-7.74-29.78Zm-28.07-9.03h-9.61c-1.27-6.4-1.91-9.61-3.2-16.03h9.36c1.38,6.42,2.07,9.63,3.45,16.03Zm7.66,35.52h-10.18c-1.45-7.22-2.17-10.82-3.6-18.03h9.9c1.56,7.22,2.33,10.82,3.89,18.03Zm-84.07,0c-.27-3.43-.41-5.13-.69-8.57h-26.91c.49,13.21.73,19.83,1.22,33.06h67.31c-1.38-9.8-2.06-14.69-3.44-24.49h-37.49Zm17.94-42.29l3.47,33.29.11,1.18h15.95l-.23-1.5-5.19-33.29-.16-1.11h-14.09l.15,1.44Zm4.75,33.17l-2.1-20.25h10.17l3.14,20.25h-11.21Zm-26.85-42.43h34.37c-1.38-9.8-2.06-14.7-3.44-24.49h-56.86c.46,12.63.69,18.95,1.16,31.57h25.33c-.23-2.84-.34-4.25-.57-7.08Zm14.99,16.57h-39.41c.26,6.77.38,10.17.62,16.95h40.55c-.7-6.78-1.06-10.18-1.76-16.95Zm-72.97,26.41c-.08,4.18-.12,6.27-.2,10.44h-38.98c-.75,9.04-1.11,13.57-1.85,22.62h52.85c5.79-6.47,8.61-9.71,14.11-16.18-.15-6.76-.23-10.14-.38-16.88h-25.55Zm-14.41-9.46h39.75c-.16-6.78-.22-10.18-.38-16.95h-38.76c-.24,6.77-.37,10.17-.61,16.95Zm15.11-26.44h23.18c-7.6-12.62-11.18-18.94-17.98-31.57h-38.83c-.8,9.79-1.2,14.69-2,24.49h35.77c-.07,2.83-.08,4.24-.14,7.08Zm-23.25,37.26l1.18-35.17.04-1.34h-14.87l-.11,1.18-3.41,35.16-.12,1.44h17.26l.03-1.26Zm-1.3-.04h-13.3l2.14-22.12h11.9l-.74,22.12Zm-55.91-68.79c-7.7,9.44-15.64,18.72-23.73,27.82-2.6,12.92-5.19,25.83-7.78,38.76h26.86c.87-5.55,1.3-8.31,2.18-13.85h9.94c-2.23,15.93-4.47,31.88-6.72,47.8h28.36c3.24-33.51,6.48-67.03,9.73-100.54h-38.84Zm.26,35.27c4.85-6.15,7.2-9.22,11.82-15.37-.85,6.15-1.29,9.22-2.15,15.37h-9.67Zm-26.39-35.27h-23.95c-8.69,33.51-17.4,67.03-26.1,100.54h66.01c1.61-9.8,2.44-14.69,4.06-24.49h-36.43c5.47-25.34,10.94-50.69,16.41-76.05Zm290.13,81.23l.03-.04-10.57-40.76h-1.29s-.03-.11-.03-.11c.01-.01.03-.04.03-.04l-.03-.08s.03-.04.03-.04l-.03-.09s.03-.04.03-.04l-.03-3.83s.03-.04.03-.04l-.03-.09s.03-.03.03-.03l-.03-.09s.03-.04.03-.04l-.03-.09s.03-.04.03-.04l-.03-.08s.03-.04.03-.04l-.03-.08s.03-.05.03-.05l-6.12-23.57-2.57-1.92c-9.25-6.9-13.65-10.29-22.41-17.18l-2.49-1.95h-116.24v13.04l.28,7.95c-.7-1.22-1.38-2.44-2.07-3.67-2.07-3.71-4.21-7.62-6.84-12.52l-2.59-4.79h-95.46l-2.73,3.34c-1.27,1.56-2.56,3.11-3.86,4.67-1.27,1.54-2.56,3.09-3.86,4.63,0,.01-.01.03-.04.05v-.04h-.03l.03-.14h-.03l.03-.12h-.03l.03-.14h-.03l.03-.12h-.03l.03-.14h-.03l.03-.12h-.03l.03-.14h-.03l.03-.14h-.03l.03-.12h-.03l.03-.14h-.03l.03-.12h-.03l.03-.14h-.03l.03-.12h-.03l.03-.14h-.03l.03-.12h-.03l.03-.14h-.03l.03-.12h-.03l.03-.14h-.03l.03-.14h-.03l.03-.12h-.03l.03-.14h-.03l.03-.12h-.03l.03-.14h-.03l.03-.12h-.03l.03-.14h-.03l.03-.12h-.03l.03-.14h-.03l.03-.12h-.03l.03-.14h-.03l.03-.12h-.03l.03-.14h-.03l.03-.14h-.03l.03-.12h-.03l.03-.14h-.03l.03-.12h-.03l.03-.14h-.03l.03-.12h-.03l.03-.14h-.03l.03-.12h-.03l.03-.14h-.03l.03-.12h-.03l.03-.14h-.03l.03-.12h-.03l.03-.14h-.03l.03-.14h-.03l.03-.12h-.03l.03-.14h-.03l.03-.12h-.03l.03-.14h-.03l.03-.12h-.03l.03-.14h-.03l.03-.12h-.03l.03-.14h-.03l.03-.12h-.03l.03-.14h-.03l.03-.14h-.03l.03-.12h-.03l.03-.14h-.03l.03-.12h-.03l.03-.14h-.03l.03-.12h-.03l.03-.14h-.03l.03-.12h-.03l.03-.14h-.03l.03-.12h-.03l.03-.14h-.03l.03-.12h-.03l.03-.14h-.03l.03-.14h-.03l.03-.12h-.03l.03-.14h-.03l.03-.12h-.03l.03-.14h-.03l.03-.12h-.03l.03-.14h-.03l.03-.12h-.03l.03-.14h-.03l.03-.12h-.03l.03-.14h-.03l.03-.14h-.03l.03-.12h-.03l.03-.14h-.03l.03-.12h-.03l.03-.14h-.03l.03-.12h-.03l.03-.14h-.03l.03-.12h-.03l.03-.14h-.03l.03-.12h-.03l.03-.14h-.03l.03-.12h-.03l.03-.14h-.03l.03-.14h-.03l.03-.12h-.03l.03-.14h-.03l.03-.12h-.03l.03-.14h-.03l.03-.12h-42.32l-30.83,118.8h.04l-.04,13.04h183.62l2.73-3.05c3.2-3.56,5.51-6.2,7.89-8.92l.43,11.97h135.91l2.73-3.49c6.7-8.54,10.03-12.97,16.16-21.5l2.5-3.48-.03-.09.03-.04-.03-12.88ZM105.83,185.38h39.71l-3.33,15.46-1.08,5.06,3.36-3.94c3.94-4.63,7.78-9.25,11.43-13.71l2.34-2.87h94.07l2.22,4.12c3.37,6.27,6.27,11.58,9.45,17.13l2.63,4.58-.19-5.28-.76-20.54h114.43l2.14,1.68c9,7.08,13.42,10.44,22.45,17.21l2.19,1.64,5.86,22.58c-.73,1.16-2.57,4.03-2.83,4.44l-1.29,2h5.79l10.17,39.21-2.14,2.98c-6.11,8.49-9.42,12.9-16.14,21.46l-2.34,2.99h-134.03l-.38-10.72-.12-3.3-2.17,2.49c-2.64,3.05-5,5.71-7.89,8.92l-2.33,2.61H75.68l30.15-116.19Zm294.31,108.36c6.67-8.48,9.86-12.71,15.95-21.2-3.1-11.91-4.64-17.87-7.74-29.78h-14.38c4.28-6.24,6.36-9.37,10.34-15.61-1.73-6.65-2.6-9.96-4.32-16.61-9.27-6.93-13.8-10.4-22.6-17.33h-38.75c5.2,33.51,10.41,67.03,15.62,100.54h45.87Zm-25.98-42.52h9.9c1.56,7.22,2.33,10.82,3.89,18.03h-10.18c-1.45-7.22-2.17-10.82-3.6-18.03Zm6.12-17.49h-9.61c-1.27-6.4-1.91-9.61-3.2-16.03h9.36c1.38,6.42,2.07,9.63,3.45,16.03Zm-76.41,35.52c-.27-3.43-.41-5.13-.69-8.57h-26.91c.49,13.21.73,19.83,1.22,33.06h67.31c-1.38-9.8-2.06-14.69-3.44-24.49h-37.49Zm17.94-42.29l3.47,33.29.11,1.18h15.95l-.23-1.5-5.19-33.29-.16-1.11h-14.09l.15,1.44Zm4.75,33.17l-2.1-20.25h10.17l3.14,20.25h-11.21Zm-26.28-35.35c-.23-2.84-.34-4.25-.57-7.08h34.37c-1.38-9.8-2.06-14.7-3.44-24.49h-56.86c.46,12.63.69,18.95,1.16,31.57h25.33Zm14.42,9.49h-39.41c.26,6.77.38,10.17.62,16.95h40.55c-.7-6.78-1.06-10.18-1.76-16.95Zm-47.42,26.41h-25.55c-.08,4.18-.12,6.27-.2,10.44h-38.98c-.75,9.04-1.11,13.57-1.85,22.62h52.85c5.79-6.47,8.61-9.71,14.11-16.18-.15-6.76-.23-10.14-.38-16.88Zm-39.95-9.46h39.75c-.16-6.78-.22-10.18-.38-16.95h-38.76c-.24,6.77-.37,10.17-.61,16.95Zm15.11-26.44h23.18c-7.6-12.62-11.18-18.94-17.98-31.57h-38.83c-.8,9.79-1.2,14.69-2,24.49h35.77c-.07,2.83-.08,4.24-.14,7.08Zm-23.25,37.26l1.18-35.17.04-1.34h-14.87l-.11,1.18-3.41,35.16-.12,1.44h17.26l.03-1.26Zm-1.3-.04h-13.3l2.14-22.12h11.9l-.74,22.12Zm-55.91-68.79c-7.7,9.44-15.64,18.72-23.73,27.82-2.6,12.92-5.19,25.83-7.78,38.76h26.86c.87-5.55,1.3-8.31,2.18-13.85h9.94c-2.23,15.93-4.47,31.88-6.72,47.8h28.36c3.24-33.51,6.48-67.03,9.73-100.54h-38.84Zm.26,35.27c4.85-6.15,7.2-9.22,11.82-15.37-.85,6.15-1.29,9.22-2.15,15.37h-9.67Zm-26.39-35.27h-23.95c-8.69,33.51-17.4,67.03-26.1,100.54h66.01c1.61-9.8,2.44-14.69,4.06-24.49h-36.43c5.47-25.34,10.94-50.69,16.41-76.05Zm-16.41,76.05c5.47-25.34,10.94-50.69,16.41-76.05h-23.95c-8.69,33.51-17.4,67.03-26.1,100.54h66.01c1.61-9.8,2.44-14.69,4.06-24.49h-36.43Zm42.54-76.05c-7.7,9.44-15.64,18.72-23.73,27.82-2.6,12.92-5.19,25.83-7.78,38.76h26.86c.87-5.55,1.3-8.31,2.18-13.85h9.94c-2.23,15.93-4.47,31.88-6.72,47.8h28.36c3.24-33.51,6.48-67.03,9.73-100.54h-38.84Zm.26,35.27c4.85-6.15,7.2-9.22,11.82-15.37-.85,6.15-1.29,9.22-2.15,15.37h-9.67Zm43.31-2.95l-.11,1.18-3.41,35.16-.12,1.44h17.26l.03-1.26,1.18-35.17.04-1.34h-14.87Zm12.35,36.47h-13.3l2.14-22.12h11.9l-.74,22.12Zm47.72-37.22c-7.6-12.62-11.18-18.94-17.98-31.57h-38.83c-.8,9.79-1.2,14.69-2,24.49h35.77c-.07,2.83-.08,4.24-.14,7.08h23.18Zm1.08,9.49h-38.76c-.24,6.77-.37,10.17-.61,16.95h39.75c-.16-6.78-.22-10.18-.38-16.95Zm.58,26.41h-25.55c-.08,4.18-.12,6.27-.2,10.44h-38.98c-.75,9.04-1.11,13.57-1.85,22.62h52.85c5.79-6.47,8.61-9.71,14.11-16.18-.15-6.76-.23-10.14-.38-16.88Zm47.42-26.41h-39.41c.26,6.77.38,10.17.62,16.95h40.55c-.7-6.78-1.06-10.18-1.76-16.95Zm19.39-16.57c-1.38-9.8-2.06-14.7-3.44-24.49h-56.86c.46,12.63.69,18.95,1.16,31.57h25.33c-.23-2.84-.34-4.25-.57-7.08h34.37Zm7.01,42.23l-5.19-33.29-.16-1.11h-14.09l.15,1.44,3.47,33.29.11,1.18h15.95l-.23-1.5Zm-14.54.2l-2.1-20.25h10.17l3.14,20.25h-11.21Zm14.8,9.12h-37.49c-.27-3.43-.41-5.13-.69-8.57h-26.91c.49,13.21.73,19.83,1.22,33.06h67.31c-1.38-9.8-2.06-14.69-3.44-24.49Zm66.99-26.49h-14.38c4.28-6.24,6.36-9.37,10.34-15.61-1.73-6.65-2.6-9.96-4.32-16.61-9.27-6.93-13.8-10.4-22.6-17.33h-38.75c5.2,33.51,10.41,67.03,15.62,100.54h45.87c6.67-8.48,9.86-12.71,15.95-21.2-3.1-11.91-4.64-17.87-7.74-29.78Zm-28.07-9.03h-9.61c-1.27-6.4-1.91-9.61-3.2-16.03h9.36c1.38,6.42,2.07,9.63,3.45,16.03Zm7.66,35.52h-10.18c-1.45-7.22-2.17-10.82-3.6-18.03h9.9c1.56,7.22,2.33,10.82,3.89,18.03Zm20.4-26.49h-14.38c4.28-6.24,6.36-9.37,10.34-15.61-1.73-6.65-2.6-9.96-4.32-16.61-9.27-6.93-13.8-10.4-22.6-17.33h-38.75c5.2,33.51,10.41,67.03,15.62,100.54h45.87c6.67-8.48,9.86-12.71,15.95-21.2-3.1-11.91-4.64-17.87-7.74-29.78Zm-28.07-9.03h-9.61c-1.27-6.4-1.91-9.61-3.2-16.03h9.36c1.38,6.42,2.07,9.63,3.45,16.03Zm7.66,35.52h-10.18c-1.45-7.22-2.17-10.82-3.6-18.03h9.9c1.56,7.22,2.33,10.82,3.89,18.03Zm-46.59,0h-37.49c-.27-3.43-.41-5.13-.69-8.57h-26.91c.49,13.21.73,19.83,1.22,33.06h67.31c-1.38-9.8-2.06-14.69-3.44-24.49Zm-.26-9.33l-5.19-33.29-.16-1.11h-14.09l.15,1.44,3.47,33.29.11,1.18h15.95l-.23-1.5Zm-14.54.2l-2.1-20.25h10.17l3.14,20.25h-11.21Zm7.53-42.43c-1.38-9.8-2.06-14.7-3.44-24.49h-56.86c.46,12.63.69,18.95,1.16,31.57h25.33c-.23-2.84-.34-4.25-.57-7.08h34.37Zm-19.39,16.57h-39.41c.26,6.77.38,10.17.62,16.95h40.55c-.7-6.78-1.06-10.18-1.76-16.95Zm-47.42,26.41h-25.55c-.08,4.18-.12,6.27-.2,10.44h-38.98c-.75,9.04-1.11,13.57-1.85,22.62h52.85c5.79-6.47,8.61-9.71,14.11-16.18-.15-6.76-.23-10.14-.38-16.88Zm-.58-26.41h-38.76c-.24,6.77-.37,10.17-.61,16.95h39.75c-.16-6.78-.22-10.18-.38-16.95Zm-1.08-9.49c-7.6-12.62-11.18-18.94-17.98-31.57h-38.83c-.8,9.79-1.2,14.69-2,24.49h35.77c-.07,2.83-.08,4.24-.14,7.08h23.18Zm-60.07.74l-.11,1.18-3.41,35.16-.12,1.44h17.26l.03-1.26,1.18-35.17.04-1.34h-14.87Zm12.35,36.47h-13.3l2.14-22.12h11.9l-.74,22.12Zm-55.91-68.79c-7.7,9.44-15.64,18.72-23.73,27.82-2.6,12.92-5.19,25.83-7.78,38.76h26.86c.87-5.55,1.3-8.31,2.18-13.85h9.94c-2.23,15.93-4.47,31.88-6.72,47.8h28.36c3.24-33.51,6.48-67.03,9.73-100.54h-38.84Zm.26,35.27c4.85-6.15,7.2-9.22,11.82-15.37-.85,6.15-1.29,9.22-2.15,15.37h-9.67Zm-42.79,40.78c5.47-25.34,10.94-50.69,16.41-76.05h-23.95c-8.69,33.51-17.4,67.03-26.1,100.54h66.01c1.61-9.8,2.44-14.69,4.06-24.49h-36.43Zm0,0c5.47-25.34,10.94-50.69,16.41-76.05h-23.95c-8.69,33.51-17.4,67.03-26.1,100.54h66.01c1.61-9.8,2.44-14.69,4.06-24.49h-36.43Zm42.54-76.05c-7.7,9.44-15.64,18.72-23.73,27.82-2.6,12.92-5.19,25.83-7.78,38.76h26.86c.87-5.55,1.3-8.31,2.18-13.85h9.94c-2.23,15.93-4.47,31.88-6.72,47.8h28.36c3.24-33.51,6.48-67.03,9.73-100.54h-38.84Zm.26,35.27c4.85-6.15,7.2-9.22,11.82-15.37-.85,6.15-1.29,9.22-2.15,15.37h-9.67Zm43.31-2.95l-.11,1.18-3.41,35.16-.12,1.44h17.26l.03-1.26,1.18-35.17.04-1.34h-14.87Zm12.35,36.47h-13.3l2.14-22.12h11.9l-.74,22.12Zm47.72-37.22c-7.6-12.62-11.18-18.94-17.98-31.57h-38.83c-.8,9.79-1.2,14.69-2,24.49h35.77c-.07,2.83-.08,4.24-.14,7.08h23.18Zm1.08,9.49h-38.76c-.24,6.77-.37,10.17-.61,16.95h39.75c-.16-6.78-.22-10.18-.38-16.95Zm.58,26.41h-25.55c-.08,4.18-.12,6.27-.2,10.44h-38.98c-.75,9.04-1.11,13.57-1.85,22.62h52.85c5.79-6.47,8.61-9.71,14.11-16.18-.15-6.76-.23-10.14-.38-16.88Zm47.42-26.41h-39.41c.26,6.77.38,10.17.62,16.95h40.55c-.7-6.78-1.06-10.18-1.76-16.95Zm19.39-16.57c-1.38-9.8-2.06-14.7-3.44-24.49h-56.86c.46,12.63.69,18.95,1.16,31.57h25.33c-.23-2.84-.34-4.25-.57-7.08h34.37Zm7.01,42.23l-5.19-33.29-.16-1.11h-14.09l.15,1.44,3.47,33.29.11,1.18h15.95l-.23-1.5Zm-14.54.2l-2.1-20.25h10.17l3.14,20.25h-11.21Zm14.8,9.12h-37.49c-.27-3.43-.41-5.13-.69-8.57h-26.91c.49,13.21.73,19.83,1.22,33.06h67.31c-1.38-9.8-2.06-14.69-3.44-24.49Zm66.99-26.49h-14.38c4.28-6.24,6.36-9.37,10.34-15.61-1.73-6.65-2.6-9.96-4.32-16.61-9.27-6.93-13.8-10.4-22.6-17.33h-38.75c5.2,33.51,10.41,67.03,15.62,100.54h45.87c6.67-8.48,9.86-12.71,15.95-21.2-3.1-11.91-4.64-17.87-7.74-29.78Zm-28.07-9.03h-9.61c-1.27-6.4-1.91-9.61-3.2-16.03h9.36c1.38,6.42,2.07,9.63,3.45,16.03Zm7.66,35.52h-10.18c-1.45-7.22-2.17-10.82-3.6-18.03h9.9c1.56,7.22,2.33,10.82,3.89,18.03Zm20.4-26.49h-14.38c4.28-6.24,6.36-9.37,10.34-15.61-1.73-6.65-2.6-9.96-4.32-16.61-9.27-6.93-13.8-10.4-22.6-17.33h-38.75c5.2,33.51,10.41,67.03,15.62,100.54h45.87c6.67-8.48,9.86-12.71,15.95-21.2-3.1-11.91-4.64-17.87-7.74-29.78Zm-28.07-9.03h-9.61c-1.27-6.4-1.91-9.61-3.2-16.03h9.36c1.38,6.42,2.07,9.63,3.45,16.03Zm7.66,35.52h-10.18c-1.45-7.22-2.17-10.82-3.6-18.03h9.9c1.56,7.22,2.33,10.82,3.89,18.03Zm-46.59,0h-37.49c-.27-3.43-.41-5.13-.69-8.57h-26.91c.49,13.21.73,19.83,1.22,33.06h67.31c-1.38-9.8-2.06-14.69-3.44-24.49Zm-.26-9.33l-5.19-33.29-.16-1.11h-14.09l.15,1.44,3.47,33.29.11,1.18h15.95l-.23-1.5Zm-14.54.2l-2.1-20.25h10.17l3.14,20.25h-11.21Zm7.53-42.43c-1.38-9.8-2.06-14.7-3.44-24.49h-56.86c.46,12.63.69,18.95,1.16,31.57h25.33c-.23-2.84-.34-4.25-.57-7.08h34.37Zm-19.39,16.57h-39.41c.26,6.77.38,10.17.62,16.95h40.55c-.7-6.78-1.06-10.18-1.76-16.95Zm-47.42,26.41h-25.55c-.08,4.18-.12,6.27-.2,10.44h-38.98c-.75,9.04-1.11,13.57-1.85,22.62h52.85c5.79-6.47,8.61-9.71,14.11-16.18-.15-6.76-.23-10.14-.38-16.88Zm-.58-26.41h-38.76c-.24,6.77-.37,10.17-.61,16.95h39.75c-.16-6.78-.22-10.18-.38-16.95Zm-1.08-9.49c-7.6-12.62-11.18-18.94-17.98-31.57h-38.83c-.8,9.79-1.2,14.69-2,24.49h35.77c-.07,2.83-.08,4.24-.14,7.08h23.18Zm-60.07.74l-.11,1.18-3.41,35.16-.12,1.44h17.26l.03-1.26,1.18-35.17.04-1.34h-14.87Zm12.35,36.47h-13.3l2.14-22.12h11.9l-.74,22.12Zm-55.91-68.79c-7.7,9.44-15.64,18.72-23.73,27.82-2.6,12.92-5.19,25.83-7.78,38.76h26.86c.87-5.55,1.3-8.31,2.18-13.85h9.94c-2.23,15.93-4.47,31.88-6.72,47.8h28.36c3.24-33.51,6.48-67.03,9.73-100.54h-38.84Zm.26,35.27c4.85-6.15,7.2-9.22,11.82-15.37-.85,6.15-1.29,9.22-2.15,15.37h-9.67Zm-42.79,40.78c5.47-25.34,10.94-50.69,16.41-76.05h-23.95c-8.69,33.51-17.4,67.03-26.1,100.54h66.01c1.61-9.8,2.44-14.69,4.06-24.49h-36.43Zm0,0c5.47-25.34,10.94-50.69,16.41-76.05h-23.95c-8.69,33.51-17.4,67.03-26.1,100.54h66.01c1.61-9.8,2.44-14.69,4.06-24.49h-36.43Zm42.54-76.05c-7.7,9.44-15.64,18.72-23.73,27.82-2.6,12.92-5.19,25.83-7.78,38.76h26.86c.87-5.55,1.3-8.31,2.18-13.85h9.94c-2.23,15.93-4.47,31.88-6.72,47.8h28.36c3.24-33.51,6.48-67.03,9.73-100.54h-38.84Zm.26,35.27c4.85-6.15,7.2-9.22,11.82-15.37-.85,6.15-1.29,9.22-2.15,15.37h-9.67Zm43.31-2.95l-.11,1.18-3.41,35.16-.12,1.44h17.26l.03-1.26,1.18-35.17.04-1.34h-14.87Zm12.35,36.47h-13.3l2.14-22.12h11.9l-.74,22.12Zm47.72-37.22c-7.6-12.62-11.18-18.94-17.98-31.57h-38.83c-.8,9.79-1.2,14.69-2,24.49h35.77c-.07,2.83-.08,4.24-.14,7.08h23.18Zm1.08,9.49h-38.76c-.24,6.77-.37,10.17-.61,16.95h39.75c-.16-6.78-.22-10.18-.38-16.95Zm.58,26.41h-25.55c-.08,4.18-.12,6.27-.2,10.44h-38.98c-.75,9.04-1.11,13.57-1.85,22.62h52.85c5.79-6.47,8.61-9.71,14.11-16.18-.15-6.76-.23-10.14-.38-16.88Zm47.42-26.41h-39.41c.26,6.77.38,10.17.62,16.95h40.55c-.7-6.78-1.06-10.18-1.76-16.95Zm19.39-16.57c-1.38-9.8-2.06-14.7-3.44-24.49h-56.86c.46,12.63.69,18.95,1.16,31.57h25.33c-.23-2.84-.34-4.25-.57-7.08h34.37Zm7.01,42.23l-5.19-33.29-.16-1.11h-14.09l.15,1.44,3.47,33.29.11,1.18h15.95l-.23-1.5Zm-14.54.2l-2.1-20.25h10.17l3.14,20.25h-11.21Zm14.8,9.12h-37.49c-.27-3.43-.41-5.13-.69-8.57h-26.91c.49,13.21.73,19.83,1.22,33.06h67.31c-1.38-9.8-2.06-14.69-3.44-24.49Zm66.99-26.49h-14.38c4.28-6.24,6.36-9.37,10.34-15.61-1.73-6.65-2.6-9.96-4.32-16.61-9.27-6.93-13.8-10.4-22.6-17.33h-38.75c5.2,33.51,10.41,67.03,15.62,100.54h45.87c6.67-8.48,9.86-12.71,15.95-21.2-3.1-11.91-4.64-17.87-7.74-29.78Zm-28.07-9.03h-9.61c-1.27-6.4-1.91-9.61-3.2-16.03h9.36c1.38,6.42,2.07,9.63,3.45,16.03Zm7.66,35.52h-10.18c-1.45-7.22-2.17-10.82-3.6-18.03h9.9c1.56,7.22,2.33,10.82,3.89,18.03Zm20.4-26.49h-14.38c4.28-6.24,6.36-9.37,10.34-15.61-1.73-6.65-2.6-9.96-4.32-16.61-9.27-6.93-13.8-10.4-22.6-17.33h-38.75c5.2,33.51,10.41,67.03,15.62,100.54h45.87c6.67-8.48,9.86-12.71,15.95-21.2-3.1-11.91-4.64-17.87-7.74-29.78Zm-28.07-9.03h-9.61c-1.27-6.4-1.91-9.61-3.2-16.03h9.36c1.38,6.42,2.07,9.63,3.45,16.03Zm7.66,35.52h-10.18c-1.45-7.22-2.17-10.82-3.6-18.03h9.9c1.56,7.22,2.33,10.82,3.89,18.03Zm-46.59,0h-37.49c-.27-3.43-.41-5.13-.69-8.57h-26.91c.49,13.21.73,19.83,1.22,33.06h67.31c-1.38-9.8-2.06-14.69-3.44-24.49Zm-.26-9.33l-5.19-33.29-.16-1.11h-14.09l.15,1.44,3.47,33.29.11,1.18h15.95l-.23-1.5Zm-14.54.2l-2.1-20.25h10.17l3.14,20.25h-11.21Zm7.53-42.43c-1.38-9.8-2.06-14.7-3.44-24.49h-56.86c.46,12.63.69,18.95,1.16,31.57h25.33c-.23-2.84-.34-4.25-.57-7.08h34.37Zm-19.39,16.57h-39.41c.26,6.77.38,10.17.62,16.95h40.55c-.7-6.78-1.06-10.18-1.76-16.95Zm-47.42,26.41h-25.55c-.08,4.18-.12,6.27-.2,10.44h-38.98c-.75,9.04-1.11,13.57-1.85,22.62h52.85c5.79-6.47,8.61-9.71,14.11-16.18-.15-6.76-.23-10.14-.38-16.88Zm-.58-26.41h-38.76c-.24,6.77-.37,10.17-.61,16.95h39.75c-.16-6.78-.22-10.18-.38-16.95Zm-1.08-9.49c-7.6-12.62-11.18-18.94-17.98-31.57h-38.83c-.8,9.79-1.2,14.69-2,24.49h35.77c-.07,2.83-.08,4.24-.14,7.08h23.18Zm-60.07.74l-.11,1.18-3.41,35.16-.12,1.44h17.26l.03-1.26,1.18-35.17.04-1.34h-14.87Zm12.35,36.47h-13.3l2.14-22.12h11.9l-.74,22.12Zm-55.91-68.79c-7.7,9.44-15.64,18.72-23.73,27.82-2.6,12.92-5.19,25.83-7.78,38.76h26.86c.87-5.55,1.3-8.31,2.18-13.85h9.94c-2.23,15.93-4.47,31.88-6.72,47.8h28.36c3.24-33.51,6.48-67.03,9.73-100.54h-38.84Zm.26,35.27c4.85-6.15,7.2-9.22,11.82-15.37-.85,6.15-1.29,9.22-2.15,15.37h-9.67Zm-42.79,40.78c5.47-25.34,10.94-50.69,16.41-76.05h-23.95c-8.69,33.51-17.4,67.03-26.1,100.54h66.01c1.61-9.8,2.44-14.69,4.06-24.49h-36.43Z"/>
  <g>
    <path class="cls-1" d="m415.43,233.63h-4.43c.3-.49,2.8-4.39,3.11-4.87.01-.04.03-.05.03-.05l-6.12-23.57-2.57-1.92c-9.25-6.9-13.65-10.29-22.41-17.18l-2.49-1.95h-116.24v.12l.8,21.77c-.18-.3-.35-.61-.51-.91-.7-1.22-1.38-2.44-2.07-3.67-2.07-3.71-4.21-7.62-6.84-12.52l-2.59-4.79h-95.46l-2.73,3.34c-1.27,1.56-2.55,3.11-3.86,4.67-1.26,1.54-2.55,3.09-3.86,4.63,0,.01-.01.03-.04.05-1.21,1.45-2.44,2.88-3.67,4.33l3.64-16.91.03-.12h-42.32l-30.83,118.8h183.62l2.73-3.06c3.2-3.56,5.51-6.2,7.89-8.92l.43,11.98h135.91l2.73-3.51c6.7-8.54,10.03-12.96,16.16-21.5l2.48-3.44.03-.04-10.57-40.76Zm7.01,43.49c-6.11,8.49-9.42,12.9-16.14,21.46l-2.34,2.99h-134.03l-.38-10.72-.12-3.3-2.17,2.49c-2.64,3.05-5,5.71-7.89,8.92l-2.33,2.61H75.68l30.15-116.19h39.71l-3.33,15.46-1.08,5.06,3.36-3.94c3.94-4.63,7.78-9.25,11.43-13.71l2.34-2.87h94.07l2.22,4.12c3.37,6.27,6.27,11.58,9.45,17.13l2.63,4.58-.19-5.28-.76-20.54h114.43l2.14,1.68c9,7.08,13.42,10.44,22.45,17.21l2.19,1.64,5.86,22.58c-.73,1.16-2.57,4.03-2.83,4.44l-1.29,2h5.79l10.17,39.21-2.14,2.98Z"/>
    <path class="cls-1" d="m205.54,225.52l-.11,1.18-3.41,35.16-.12,1.44h17.26l.03-1.26,1.18-35.17.04-1.34h-14.87Zm13.09,14.35l-.74,22.12h-14.55l3.4-35.16h12.33l-.43,13.04Z"/>
    <path class="cls-1" d="m341.1,259.92l-5.19-33.29-.16-1.11h-14.09l.15,1.44,3.47,33.29.11,1.18h15.95l-.23-1.5Zm-14.54.2l-2.1-20.25-1.35-13.04h11.52l5.17,33.29h-13.24Z"/>
  </g>
  <g>
    <path class="cls-1" d="m118.49,269.25c5.47-25.34,10.94-50.69,16.41-76.05h-23.95c-8.69,33.51-17.4,67.03-26.1,100.54h66.01c1.61-9.8,2.44-14.69,4.06-24.49h-36.43Zm32.34,16.71l-1.08,6.48h-63.21l24.75-95.35.68-2.57h21.31l-12.55,58.17-3.51,16.29-.34,1.58h36.5l-2.55,15.39Z"/>
    <path class="cls-1" d="m161.03,193.21c-7.7,9.44-15.64,18.72-23.73,27.82-2.6,12.92-5.19,25.83-7.78,38.76h26.86c.87-5.55,1.3-8.31,2.18-13.85h9.94c-2.23,15.93-4.47,31.88-6.72,47.8h28.36c3.24-33.51,6.48-67.03,9.73-100.54h-38.84Zm27.92,99.24h-25.67l6.51-46.32.2-1.49h-12.56l-.18,1.11-1.99,12.73h-24.17l7.42-36.85c7.93-8.92,15.72-18.05,23.14-27.1h36.78l-6.04,62.14-3.45,35.78Z"/>
    <path class="cls-1" d="m172.07,212.32c-4.63,6.17-6.95,9.18-11.79,15.34l-1.65,2.11h13.47l.16-1.11,2.15-15.38.7-5-3.05,4.03Zm-1.11,16.15h-9.67c4.85-6.15,7.2-9.22,11.82-15.37-.85,6.15-1.29,9.22-2.15,15.37Z"/>
    <path class="cls-1" d="m266.33,260.68h-25.55c-.08,4.18-.12,6.27-.2,10.44h-38.98c-.75,9.04-1.11,13.57-1.85,22.62h52.85c5.79-6.47,8.61-9.71,14.11-16.18-.15-6.76-.23-10.14-.38-16.88Zm-14.32,31.76h-50.85l1.64-20.01h39.07l.03-1.29.16-9.15h23l.03.88.31,14.23c-5.18,6.09-7.95,9.26-13.39,15.34Z"/>
    <path class="cls-1" d="m265.75,234.27h-38.76c-.24,6.77-.37,10.17-.61,16.95h39.75c-.16-6.78-.22-10.18-.38-16.95Zm-38.02,15.64c.19-5.5.31-8.8.51-14.34h36.23l.16,7.19.16,7.15h-37.07Z"/>
    <path class="cls-1" d="m264.67,224.78c-7.6-12.62-11.18-18.94-17.98-31.57h-38.83c-.8,9.79-1.2,14.69-2,24.49h35.77c-.07,2.83-.08,4.24-.14,7.08h23.18Zm-57.4-8.38l1-12.17.8-9.71h36.85c6.24,11.58,9.73,17.76,16.45,28.96h-19.55l.04-2.36.08-3.4.03-1.33h-35.7Z"/>
    <path class="cls-1" d="m313.76,234.27h-39.41c.26,6.77.38,10.17.62,16.95h40.55c-.7-6.78-1.06-10.18-1.76-16.95Zm-38.06,1.3h36.89l.49,4.87.99,9.46h-37.83l-.54-14.34Z"/>
    <path class="cls-1" d="m333.15,217.7c-1.38-9.8-2.06-14.7-3.44-24.49h-56.86c.46,12.63.69,18.95,1.16,31.57h25.33c-.23-2.84-.34-4.25-.57-7.08h34.37Zm-57.88,5.78l-.7-18.98-.37-9.98h54.37l1.26,9.02,1.81,12.86h-34.28l.12,1.41.18,2.27.27,3.4h-22.66Z"/>
    <path class="cls-1" d="m340.42,269.25h-37.49c-.27-3.43-.41-5.13-.69-8.57h-26.91c.49,13.21.73,19.83,1.22,33.06h67.31c-1.38-9.8-2.06-14.69-3.44-24.49Zm-63.14,8.87l-.58-16.12h24.36l.11,1.52.47,5.85.11,1.2h37.54l1.22,8.66,1.87,13.21h-64.56l-.53-14.32Z"/>
    <path class="cls-1" d="m388.29,268.98l-1.53-7.05-2.37-10.99-.22-1.03h-12.55l.31,1.56,2.38,12.01,1.22,6.04.22,1.06h12.88l-.34-1.58Zm-11.47.27c-1.45-7.22-2.17-10.82-3.6-18.03h9.9c1.56,7.22,2.33,10.82,3.89,18.03h-10.18Z"/>
    <path class="cls-1" d="m407.4,242.76h-14.38c4.28-6.24,6.36-9.37,10.34-15.61-1.73-6.65-2.6-9.96-4.32-16.61-9.27-6.93-13.8-10.4-22.6-17.33h-38.75c5.2,33.51,10.41,67.03,15.62,100.54h45.87c6.67-8.48,9.86-12.71,15.95-21.2-3.1-11.91-4.64-17.87-7.74-29.78Zm-8.83,49.69h-44.12l-7.65-49.17-7.58-48.75h36.77c8.52,6.69,12.96,10.1,21.9,16.79l1.88,7.2,2.17,8.41c-3.79,5.96-5.81,9-9.99,15.1l-1.41,2.06h15.85l7.32,28.21c-5.75,8.01-8.88,12.16-15.15,20.16Z"/>
    <path class="cls-1" d="m380.63,233.46l-1.16-5.35-2.29-10.68-.23-1.03h-11.99l.31,1.54,2.19,11.02,1,5.04.2,1.04h12.31l-.34-1.58Zm-10.9.27c-1.27-6.4-1.91-9.61-3.2-16.03h9.36c1.38,6.42,2.07,9.63,3.45,16.03h-9.61Z"/>
  </g>
</svg>