<?xml version="1.0" encoding="UTF-8"?>
<svg id="Layer_3" data-name="Layer 3" xmlns="http://www.w3.org/2000/svg" viewBox="0 0 500 500">
  <defs>
    <style>
      .cls-1 {
        fill: #fcd146;
      }
    </style>
  </defs>
  <path class="cls-1" d="m192.69,272.62c-.96-1.03-1.98-1.6-3.35-1.79-1.38-.21-2.56.5-3.75,1.12-.21.11-.4.25-.57.38-.46.37-.86.78-1.23,1.23-.18.22-.37.44-.51.65-.17.22-.36.57-.47.79-.12.21-.18.34-.21.55-.04.18-.06.42.13.51.21.08.24.07.47-.09.22-.15.41-.49.66-.74.25-.25.55-.58.88-.83.84-.59,1.73-1.23,2.8-1.33,1.08-.09,1.99.17,2.93.71.49.29.86.73,1.14,1.23.29.51.33,1.12.33,1.69s-.24,1.12-.03,1.68c.21.54.82.98,1.4.77,1.24-.44,1.19-1.73.99-2.81-.24-1.41-.67-2.67-1.61-3.71Z"/>
  <path class="cls-1" d="m130.79,238.72c.23-1.87.9-3.34,2.67-4.12,1.77-.79,3.35-.2,4.8.87.52.36.91.94,1.52.83.61-.11.69-.59.65-1.07-.05-.47-.3-.87-.69-1.16-2.26-1.68-4.66-2.32-7.27-1.1-2.16,1-2.81,2.85-3.44,4.96-.21.71-.38,1.85.34,2.23,1.15.62,1.32-.59,1.42-1.45Z"/>
  <path class="cls-1" d="m146.81,238.73c.23-1.87.9-3.34,2.67-4.12,1.78-.8,3.37-.21,4.82.86.5.37.91.94,1.5.83.61-.11.69-.58.65-1.06-.05-.47-.3-.88-.69-1.17-2.26-1.68-4.66-2.31-7.27-1.1-2.15,1-2.8,2.85-3.44,4.96-.21.7-.38,1.85.34,2.23,1.15.62,1.32-.58,1.42-1.44Z"/>
  <path class="cls-1" d="m203.38,250.83c1.86.54,2.69,2.02,3.11,3.76.15.61.08,1.31.62,1.61.51.3.91,0,1.17-.4.28-.4.33-.87.22-1.33-.65-2.74-2.07-4.76-4.86-5.52-2.28-.62-3.99.37-5.82,1.58-.63.41-1.49,1.16-1.17,1.93.47,1.21,1.37.41,2.02-.18,1.37-1.28,2.84-1.98,4.7-1.45Z"/>
  <path class="cls-1" d="m366.28,253.87c-1.81-.88-3.38-1.99-5.45-2.22-3.21-.36-5.85.7-8.27,2.77-1.14.98-1.69,2.28-2.36,3.52-.22.42-.38.98-.53,1.32-.13.34-.16.58-.21.8-.07.22-.03.28-.05.44-.04.15-.09.22-.03.34.08.12.16.15.29.13.15-.01.21-.03.3-.17.1-.13.13-.4.18-.59.07-.21.13-.46.25-.66.36-.66.63-1.36,1.12-1.94,1.41-1.66,2.87-3.07,5-3.75,2.15-.67,4.1-.33,6.11.58.9.41,1.5,1.16,2.44,1.5.94.34,1.79.3,2.63-.33-.16-.83-.67-1.39-1.43-1.76Z"/>
  <path class="cls-1" d="m154.37,174.22c-.23-.33-.52-1.08-.8-.62-.29.42.25,1.25.41,1.6.32.75.58,1.5.71,2.3.23,1.32-.03,2.77-.95,3.73-.99,1.02-2.53,1.32-3.51,2.34-1.03,1.07-1.15,2.9-.25,4.1.17.21.34.4.54.54,1.31,1.07,3.26.71,4.74.01,1.77-.83,2.72-2.51,2.93-4.41.33-2.81-1.15-5.55-2.63-7.85-.38-.61-.77-1.17-1.19-1.74Z"/>
  <path class="cls-1" d="m209.92,271.23c.49-.26.92-.58,1.41-.86,2.77-1.64,5.16-3.72,8.22-4.88,2.31-.87,4.63-.95,7.05-.16,2.4.79,4.1,2.51,5.61,4.53.38.51.65,1.16,1.12,1.61.47.44,1.11.7,1.69.45.59-.24.75-.73.77-1.28.03-.55-.11-1.1-.4-1.57-2.11-3.4-4.67-6-8.69-6.76-4.01-.75-7.2.69-10.69,2.43-.87.44-1.54,1.08-2.32,1.62-1.07.75-2,1.69-2.93,2.57-.28.26-.58.61-.78.82-.2.22-.24.3-.38.45-.15.15-.28.21-.38.37-.11.17-.15.32-.11.5s.18.29.36.32c.17.03.32-.08.46-.16Z"/>
  <path class="cls-1" d="m149.65,262.73c-1.03-1.12-2.06-1.9-3.53-2.16-1.09-.2-1.95.25-2.93.78-.98.53-1.73,1.28-2.45,2.22-.7.95-1.31,2.06-1.7,3.27-.4,1.2-.63,2.6-.69,3.91-.04,1.32.15,2.77.49,4,.34,1.23.91,2.34,1.58,3.3.67.96,1.48,1.66,2.39,2.26.91.58,1.94.86,2.92.84,1.65-.03,3.02-.4,4.24-1.41,1.21-1.02,1.86-2.1,2.39-3.56.51-1.48.66-3.06.61-4.66-.05-1.6-.4-3.3-.96-4.79-.54-1.48-1.32-2.85-2.34-3.98Z"/>
  <path class="cls-1" d="m353.89,234.09c1.38-1.29,2.84-1.97,4.71-1.44,1.85.53,2.71,2.01,3.13,3.75.15.62.08,1.31.61,1.61.53.3.9.01,1.19-.38.26-.41.33-.88.23-1.35-.66-2.73-2.07-4.78-4.87-5.52-2.3-.61-3.98.38-5.83,1.6-.61.41-1.48,1.17-1.17,1.94.49,1.2,1.4.38,2.02-.21Z"/>
  <path class="cls-1" d="m224.03,275.15c-1.31-.32-2.26-.46-3.76.16-1.49.61-2.69,1.16-4.08,2.73-1.38,1.57-2.69,3.4-3.77,5.85-1.09,2.45-2.37,6.37-2.94,9.28,1.13-.01,2.36-.17,3.5-.33,1.13-.17,2.28-.42,3.34-.67,1.07-.26,2.15-.63,3.1-1.02.94-.37,1.98-1,2.69-1.52,1.7-1.23,3.39-3,4.37-4.55.98-1.57,1.35-2.88,1.47-4.39.09-1.52-.34-2.43-1.09-3.52-.77-1.08-1.49-1.68-2.81-2.01Z"/>
  <path class="cls-1" d="m296.26,252.28c1.37-1.29,2.84-1.97,4.7-1.43,1.88.53,2.72,1.99,3.14,3.75.15.61.08,1.29.61,1.61.54.3.91,0,1.19-.41.26-.4.34-.86.22-1.33-.66-2.73-2.09-4.76-4.87-5.52-2.31-.61-4,.37-5.84,1.58-.61.41-1.48,1.17-1.17,1.93.49,1.21,1.4.41,2.03-.18Z"/>
  <path class="cls-1" d="m140.65,254.78c.45-.63.53-1.45.16-2.1-.36-.65-.9-.86-1.56-.96-.66-.11-1.25.04-1.86.26-1.16.42-2.18,1.03-3.19,1.72-.56.38-1.08.73-1.6,1.19-4.67,4.18-7.85,8.58-9.59,14.65-.26.98-.26,1.86-.34,2.85-.11.98-.03,1.99.08,2.98.08.99.16,1.98.34,2.96.07.33.16.66.34.98.2.29.37.54.79.62.41.08.9-.08,1.2-.44.29-.36.45-.82.52-1.27.13-.75-.03-1.6-.2-2.28-.18-.69-.24-1.28-.22-1.91.01-1.41-.07-2.76.24-4.12.58-2.49,1.29-4.76,2.8-6.87,2.11-2.96,4.82-4.8,8.15-6.19.71-.29,1.48-.37,2.18-.69.71-.33,1.33-.73,1.77-1.37Z"/>
  <path class="cls-1" d="m231.6,319.83c-9.21-5.61-17.27-12.55-28.13-14.5-4.58-.83-5.94,3-5.58,6.87,0,.18.38.13.38-.12.05-1.35.4-3.26,1.81-3.71,4.89-1.53,9.18-1.02,13.62,1.28,4.43,2.31,7.93,5.69,11.91,8.46,1.93,1.35,3.64,1.93,5.9,2.24.32.05.34-.37.09-.53Z"/>
  <path class="cls-1" d="m406.17,264.73c-1.09-1.45-2.67-3.27-5.3-4.55-1.83-.87-3.79-1.31-5.82-1.31-.65,0-1.29.05-1.94.13-2.59.34-4.95,1.49-7.19,3.47-.32.28-.65.59-.99.96-.75-.74-1.56-1.62-2.49-2.77-.88-1.08-1.77-2.31-2.69-3.63l-.65-.91c-1.41-1.94-2.69-3.68-4.28-5.38-1.9-2.05-3.67-3.6-5.56-4.92-.21-.14-.42-.28-.63-.4.92-1.17,1.65-2.47,2.16-3.88.67-1.81.95-3.69.83-5.69-.11-1.85-.54-3.55-1.3-5.2-.78-1.68-1.82-3.13-3.17-4.37-1.4-1.33-3.03-2.34-4.83-3-1.53-.57-3.17-.86-4.83-.86-.26,0-.53,0-.86.03-1.85.11-3.55.55-5.16,1.29-1.7.78-3.17,1.82-4.46,3.21s-2.3,3.01-2.94,4.82c-.69,1.86-.96,3.76-.84,5.69.12,1.82.57,3.59,1.32,5.19.72,1.54,1.66,2.89,2.85,4.06-.51.45-1.03.91-1.5,1.43-1.61,1.69-2.85,3.56-3.88,5.86-.7,1.53-1.25,3.17-1.66,4.96-.67-.88-1.37-1.68-2.14-2.41-2.78-2.68-5.57-4.47-8.8-5.62-2.39-.84-4.88-1.27-7.4-1.27-1.28,0-2.57.11-3.89.32-1.61.28-3.19.71-4.75,1.33-.22-.84-.51-1.65-.87-2.41-.8-1.69-1.85-3.1-3.19-4.34-1.38-1.28-2.98-2.26-4.75-2.9-1.57-.57-3.18-.86-4.8-.86-.25,0-.51.01-.75.03-1.81.11-3.51.53-5.17,1.32-1.65.77-3.07,1.82-4.35,3.21-1.29,1.4-2.27,2.98-2.9,4.72-.65,1.79-.92,3.66-.82,5.62.13,1.85.54,3.51,1.29,5.09.05.15.13.28.21.41-.66-.09-1.31-.16-1.95-.16-1.85,0-3.67.4-5.55,1.2-1.72.73-4.24,2.03-6.37,4.99-1.66,2.31-2.65,4.68-3.17,7.51-.36,2.07-.36,4.53,0,6.89l-.09-.09c-1.35-1.7-2-3.75-2.27-7.15-.05-.57-.09-1.15-.12-1.66-.04-.92-.07-1.86-.08-2.8-.03-1-.05-2.02-.09-3.02-.05-1.27-.09-2.53-.13-3.8-.2-5.85-.41-11.88-1.56-17.91-.95-5.09-2.31-10.19-4.05-15.13-.75-2.18-1.6-4.35-2.49-6.49-3.77-9.01-8.8-17.93-15.36-27.27-1.12-1.6-2.3-3.23-3.51-4.88-.99-1.33-1.95-2.61-2.86-3.81,0,0-.71-.94-.91-1.2l-.26-.41-.08-.08s-.41-.53-.47-.57c-2.69-3.48-4.95-6.24-6.44-8.04-.73-.91-1.4-1.72-2.05-2.43l-.26-.3c-14.5-15.64-34.94-26.46-53.39-28.22-.98-.11-2.02-.15-3.17-.15-6.71,0-12.14,2.07-15.73,6.03-.92,1.03-1.9,2.4-2.67,4.14-5.86-3.63-12.44-5.58-19.2-5.58-7.39,0-14.49,2.24-21.11,6.68-26.56,17.73-29.16,52.01-20.33,76.81-1.24,3.03-2.15,6.07-2.9,8.92-2.03,7.71-3.15,15.37-3.32,22.79-.08,3.46.05,6.86.41,10.13,2.11,18.92,11.36,32.68,26.77,39.81,6.1,2.84,12.6,3.91,18.71,4.66,2.8.36,5.54.53,8.17.53,1.5,0,2.98-.05,4.42-.16,3.84-.29,7.69-.84,11.49-1.64,2.16-.46,4.28-.98,6.27-1.54,2.01-.57,5.05-1.45,7.65-3.84,1.83-1.69,3.06-3.85,3.54-6.12.74.07,1.49.11,2.27.11,1.78,0,3.63-.17,5.58-.53,2.19-.38,4.1-1.1,5.9-1.83.67.45,1.46.95,2.32,1.41-.53,1.66-.65,3.3-.46,4.79.85,6.52,7.1,11.59,15.57,12.61,1.13.13,2.33.25,3.59.37,1.48.15,2.88.29,4.18.46-2.86,1.12-7.17,3.55-8.5,8.19-.94,3.34,0,6.85,2.59,9.62,3.29,3.54,7.55,5.41,12.31,5.41,5.88,0,11.48-2.86,15.95-5.49,1.41,2.35,3.85,4.8,8.33,5.52.51.07,1.03.12,1.56.12,4.27,0,7.27-2.64,9.05-4.21l.49-.44c2.16-1.86,4.21-3.62,5.5-3.62.09,0,.2,0,.34.07.99,1.45,2.63,3.89,5.85,5.23,2.28.94,4.53,1.41,6.65,1.41,3.05,0,5.87-.99,8.2-2.86,3.92-3.19,4.34-6.8,4.25-8.66-.01-.28-.04-.57-.08-.86,4.03.84,8.19,1.73,12.64,1.73,4.11,0,7.81-.77,11.31-2.3,4.01-1.75,6.26-5.55,5.7-9.67-.55-4.12-3.91-7.77-8.13-9.08,1.07-.2,2.05-.45,2.97-.79,1.28-.48,5.17-1.94,7.24-6.08.16-.32.3-.65.42-.96,1.62-.29,3.32-.63,4.97-1.13,2.82-.86,5.48-1.95,8.13-3.36.92.4,1.81.77,2.62,1.07,4.49,1.68,9.37,2.53,14.15,2.92,3.73.31,7.41.17,11.12-.29,3.65-.46,6.66-1.11,9.74-2.07,3-.91,5.73-2.01,9.11-3.64,3-1.44,5.95-3.19,8.79-4.88l.2-.13c.56-.32,1.14-.69,1.72-1.04.74-.45,1.48-.91,2.16-1.31,1.08-.65,2.23-1.29,3.3-1.79.79-.38,1.7-.73,2.95-1.13.19-.07.75-.13,1.17-.18.56-.05,1.11-.13,1.61-.21,2.48-.41,4.6-1.44,6.49-3.13,2.06-1.85,3.05-3.85,3.63-5.24.71-1.73,1.15-3.64,1.27-5.69.13-2.1-.11-4.12-.65-5.95-.63-2.19-1.46-3.93-2.62-5.54Zm-55.52-30.55c.33-.91.83-1.73,1.49-2.43.65-.7,1.37-1.23,2.24-1.62.87-.41,1.74-.62,2.71-.69.95-.05,1.91.08,2.82.41.91.34,1.73.84,2.43,1.52.7.65,1.24,1.37,1.64,2.24.41.87.61,1.74.67,2.69.05.96-.09,1.91-.42,2.82-.33.91-.83,1.74-1.49,2.44-.66.7-1.4,1.23-2.26,1.64-.86.4-1.73.61-2.68.66-.96.07-1.93-.08-2.82-.41-.91-.33-1.76-.83-2.46-1.49-.7-.67-1.21-1.4-1.62-2.26-.4-.86-.62-1.74-.69-2.71-.05-.96.11-1.91.44-2.82Zm-57.49,18.27c.32-.88.83-1.68,1.47-2.36.63-.7,1.33-1.23,2.18-1.62.83-.4,1.66-.61,2.6-.66.92-.05,1.87.11,2.77.42.9.33,1.7.82,2.39,1.45.69.65,1.21,1.36,1.61,2.2.41.84.61,1.7.66,2.64.04.95-.09,1.86-.41,2.76-.33.88-.82,1.73-1.46,2.4-.63.69-1.35,1.17-2.18,1.57-.85.38-1.7.58-2.64.62-.94.05-1.87-.11-2.77-.42-.88-.33-1.72-.82-2.4-1.45-.67-.65-1.19-1.33-1.57-2.18-.4-.83-.59-1.66-.65-2.6-.05-.94.08-1.87.41-2.77Zm-103.91,46.47c-.87-.65-1.38-1.25-2-2.08-.95.82-1.85,1.57-3.03,2.07-1.56.65-3.14,1.28-4.83,1.58-4.1.73-7.9.59-11.69-1.17-2.19-1.02-3.69-2.43-5.32-4.18-1.62-1.75-2.81-3.81-3.93-6-1.13-2.16-1.86-4.68-2.53-7.05-.3,2.4-.87,4.99-1.99,7.09-1.15,2.1-2.48,3.84-4.16,5.34-1.69,1.5-3.44,2.55-5.49,3.3-2.03.75-3.96,1.15-6.14,1.07-2.16-.08-4.05-.32-6.11-1.33-2.06-1-3.81-1.86-5.37-3.93-4.37-5.75-6.39-11.93-6.64-19.33-.08-2.81.67-6.02,1.55-8.72.86-2.71,2.19-5.3,3.73-7.6,1.53-2.28,3.34-4.21,5.44-5.85,2.09-1.64,4.18-2.8,6.68-3.52,2.49-.74,4.71-1.02,7.35-.59,2.65.42,5.17,1.17,7.45,2.93,2.67,2.05,4.76,4.74,6.41,7.82,1.65,3.07,2.68,6.99,3.39,10.36.62,2.89,1.36,6.2,2.2,8.67.84,2.47,1.86,4.49,2.96,6.31,1.11,1.83,2.23,2.94,3.58,4.04,1.35,1.11,2.33,1.45,3.81,1.9.71.22,1.31-.12,1.95-.21,1.09-.17,2.01-.45,2.9-1.1.88-.65,1.35-1.23,1.66-2.35.33-1.12-.01-2.44-.28-3.64-.41-1.94-.49-4.41-.09-6.25.4-1.85,1.07-3.33,2.05-4.66.96-1.35,2-2.11,3.36-2.72,1.36-.62,2.48-.84,3.95-.59,1.44.25,2.47.55,3.64,1.7,1.19,1.17,1.99,2.23,2.52,4.21.5,1.98.86,4.2.58,6.72-.28,2.52-1.25,5.99-2.26,8.52.41.57,1.11,1.13,1.64,1.45.53.32.81.38,1.29.62.44-2.36.9-4.62,1.68-6.91.75-2.3,1.79-4.55,2.86-6.76,1.07-2.19,2.32-4.38,3.71-6.37,1.38-1.99,2.92-4,4.51-5.74,1.61-1.73,3.35-3.25,5.22-4.5,1.86-1.25,3.87-2.14,5.95-2.59,2.65-.57,5.09-.48,7.59.28,2.48.75,4.45,2.05,6.33,3.71,1.9,1.66,3.31,3.76,4.46,5.92,1.15,2.16,2.06,4.78,2.27,7.06.4,4.12-.29,7.67-1.81,11.28-1.06,2.55-2.72,4.1-4.34,6.19-.48-.49-.9-1.06-1.47-1.44-1.43-.95-2.97-1.74-4.71-1.56-3.25.3-5.32,2.07-6.34,5.04-.62,1.85-.16,3.33-.05,5.15-.08,0-.13.03-.21.05-2.72.74-5.45,1.28-8.23,1.66-3.27-1.31-6.48-2.3-10.02-2.39-2.04-.05-4.02.46-5.92,1.08-1.16.37-2.02.99-3.03,1.57-.21-.08-.38-.11-.59-.2-1.06-.42-2.14-.88-3.14-1.43s-2.09-1.27-2.96-1.93Zm-61.3-60.85c.04-.96.25-1.83.65-2.69.42-.86.95-1.6,1.64-2.26.71-.66,1.53-1.16,2.44-1.49.91-.33,1.88-.46,2.84-.41.95.05,1.83.25,2.69.66.87.41,1.6.94,2.26,1.64.67.7,1.16,1.52,1.5,2.43.33.91.47,1.86.42,2.82-.07.96-.28,1.83-.68,2.69-.38.87-.91,1.58-1.61,2.24-.7.66-1.54,1.16-2.45,1.49-.91.33-1.86.49-2.82.44-.96-.07-1.82-.28-2.69-.67-.87-.41-1.6-.94-2.26-1.64-.66-.69-1.16-1.53-1.5-2.44-.33-.91-.46-1.86-.41-2.81Zm16.08.2c.05-.95.26-1.82.67-2.69.4-.86.92-1.6,1.62-2.24.7-.66,1.53-1.15,2.44-1.49.91-.33,1.87-.47,2.84-.42.95.05,1.82.28,2.69.67.86.41,1.6.94,2.24,1.62.67.7,1.17,1.52,1.5,2.43.34.91.47,1.87.42,2.82-.05.96-.26,1.83-.66,2.69-.41.87-.94,1.6-1.64,2.26-.7.66-1.53,1.17-2.44,1.5-.91.33-1.87.47-2.82.41-.96-.07-1.84-.28-2.71-.67-.87-.4-1.59-.94-2.26-1.64-.66-.69-1.16-1.52-1.49-2.41-.33-.91-.49-1.87-.42-2.84Zm51.47,16.92c-.07-.9.08-1.78.38-2.64.32-.83.78-1.61,1.38-2.26.62-.63,1.29-1.15,2.1-1.52.8-.37,1.61-.57,2.49-.62.9-.05,1.81.07,2.65.38.85.3,1.61.79,2.26,1.4.65.61,1.15,1.28,1.5,2.08.38.79.58,1.62.63,2.51.05.88-.08,1.78-.38,2.64-.3.84-.79,1.61-1.4,2.26-.61.65-1.28,1.13-2.09,1.52-.8.37-1.61.57-2.49.62-.9.05-1.79-.08-2.64-.4-.86-.3-1.62-.78-2.27-1.4-.65-.62-1.13-1.28-1.52-2.08-.37-.79-.55-1.6-.62-2.49Zm206.21,24.04c-.45,1.07-.98,1.93-1.85,2.72-.87.78-1.74,1.21-2.96,1.43-1.23.21-2.53.22-3.8.63-1.27.41-2.56.87-3.82,1.48-1.27.59-2.57,1.35-3.83,2.07-1.25.74-2.71,1.66-3.93,2.39-2.74,1.64-5.65,3.38-8.43,4.71-2.77,1.35-5.21,2.37-8.1,3.26-2.88.9-5.49,1.41-8.59,1.82-1.39.18-2.8.3-4.2.38-2.44.14-4.99.32-7.43.11-2.43-.21-4.75-.94-7.06-1.63-1.06-.32-2.23-.73-3.23-1.11-1-.37-2.01-.8-2.92-1.21-.91-.42-1.58-.79-2.41-1.25-3.17,2.01-6.27,3.52-9.91,4.62-1.98.59-4.26.96-6.33,1.31-.25-.41-.29-.8-.63-1.17-2.88-3.22-6.11-4.47-10.38-4.87h-.26c-3.4.37-6.32,1.33-9.45,2.88-1,.49-2.19,1.27-3.18,1.87-.9-.47-1.81-1.03-2.61-1.61-.8-.58-1.4-1.2-2.02-1.95-4.26,3.5-9.17,4.82-14.5,4.64-3.21-.09-5.38-1.2-8.19-2.15-.63-.22-1.16-.57-1.66-.82-.49-.24-.83-.41-1.19-.67-2.06-1.6-4.12-3.21-5.28-5.54-1.07-2.15-1.68-4.55-1.98-7.03.04-.77.09-1.52.15-2.28.42-6.23.96-12.47,1.08-17.88.32-13.34-2.72-23.01-7.82-33.51-1.23-2.55-2.59-5.15-4.05-7.85-.08-.16-.18-.11-.32-.08-.12.03-.16.18-.1.32,1.04,2.47,2.03,4.92,2.94,7.43,2.31,6.43,3.84,13.09,4.68,19.87.07.49.12,1,.19,1.5.58,5.99.7,13.04-.15,20.94-.01.05-.01.11-.03.16-1.56,13.71-3.4,27.47-3.68,41.35-.04,1.79.01,3.71.59,5.49.37,1.21.49,2.37,1.89,3.19,3.62,2.07,7.47-1.2,5.13-5.08-.04-.05-.07-.11-.08-.17-.74-3.23-.86-6.61-.96-9.88-.12-4.08.05-8.6.08-12.55,0-.57.01-1.13.03-1.72,1.98,2.82,4.38,5.01,7.36,6.87-.17,4.82-.18,9.79.03,14.59.13,3.09.22,6.9,4.14,6.47,3.94-.44,7.27-2.11,10.58-4.35,2.97-2.01,5.34-5.03,8.05-7.49,2.48-2.28,5.17-4.57,7.96-6.52.23-.17.45-.34.67-.5.87-.57,1.71-1.12,2.62-1.62.4-.22.73-.47,1.16-.66,2.76-1.12,5.01-2.36,8.15-2.39,2.78-.03,5.63.91,7.52,3.19.96,1.17.9,2.63.21,3.97-.67,1.37-2.02,2.11-3.42,2.64-.71.26-1.47.42-2.19.53-2.39.32-4.78.25-7.19.4-.69.05-1.36.16-2.03.29-.4.08-.69.13-1.03.24-5.5,1.91-9.66,4.88-13.29,9.38-.82,1-1.52,2.02-.57,2.98.95.95,2.43,1.17,3.63,1.4,2.41.45,5.22.07,7.4-.45,4.13-.96,8.09-1.46,12.01-.88,3.02.45,5.8,4.3,2.36,5.81-7.82,3.43-15.6.83-23.5-.65-5.01-.94-9.09-1.02-14,.04-.83.17-.94,1.08-.17,1.72,1.98,1.64,5.46,2.9,7.48,4.22,2.76,1.82,2.78,3.85.46,5.74-2.32,1.87-5.3,1.41-7.77.4-2.49-1.03-2.9-4.31-5.26-5.16-5.88-2.1-9.55,1.12-13.74,4.74-1.65,1.44-3.35,3.14-5.37,2.82-3.85-.61-3.85-3.58-5.11-6.51-.28-.66-.49-1.12-1.28-.94-1.66.38-2.12.16-3.93,1.24-6.48,3.93-15.79,9.82-22.22,2.92-3.21-3.43,1.61-6.14,4.72-6.99,3.11-.84,7.26-.34,10.41-.9,1.71-.3,3.91-1.03,2.99-2.97-4.37-9.24-16.35-9-24.25-9.96-9.5-1.16-13.54-9.04-4.29-12.73,10.5-4.18,19,4.31,26.67,10.12,1.87,1.43,6.24,3.76,6.32.32.19-7.35-7.35-11.64-6.69-19.17.22-2.45,3.63-3.48,5.53-1.54,1.44,1.45,2.44,3.26,3.25,5.13.65,1.5,1.02,3.54,3.17,3.32,3.71-.38,3.56-5.98,4.25-8.58.77-2.92,1.46-5.85,1.9-8.84,1.35-9.43,2.75-19,2.17-28.54-.44-7.03-.59-10.85-3.72-20.9-2.02-6.49-4.16-11.99-6.95-18.13-1.29-2.8-2.57-5.59-3.85-8.41-1.38-3.05-2.8-6.12-4.83-8.77-1.95-2.53-4.18-3.92-6.93-5.38-2.43-1.31-4.68-2.81-7.26-3.95-5.83-2.56-11.89-4.58-17.46-7.68-2.53-1.41-5.07-2.85-7.5-4.43-1.41-.9-3-1.81-4.25-2.93-.98-.88-2.06-1.62-2.67-2.86-.17-.34-.32-.73-.33-1.11-.04-.4.08-.82.36-1.1.34-.37.91-.47,1.4-.38.51.09.96.36,1.38.61,1.64.98,3.19,2.05,4.84,2.98,1.68.95,3.36,1.83,5.11,2.64,1.56.74,3.11,1.44,4.71,2.1,6.44,2.67,11.18,4.01,14.08,4.01.61,0,1.09-.05,1.5-.17-.34-.66-.78-1.27-1.35-1.79-11.72-11.19-25.69-18.57-38.36-20.19-.5-.08-1.02-.11-1.53-.11-1.82.01-2.84,1.81-2.51,3.6,1.33,7.06,10.78,14.82,19.88,20.12,4.1,2.4,8.52,4.28,12.84,6.23,2.81,1.28,5.63,2.52,8.46,3.77,3.02,1.35,6.12,3.44,5.38,7.88-.18,1.08-.58,2.11-1.16,3.03-1.08,1.66-2.68,3-4.6,3.5-2.15.57-3.72,2.28-5.19,3.87-1.79,1.95-3.23,4.64-4.63,7.24l-.56,1.02c-.73,1.33-1.82,2.28-3.1,2.68-.28.09-.57.14-.86.14-.86,0-1.7-.41-2.22-1.1-.54-.69-.72-1.57-.51-2.41,2.3-9.33,8-16.56,15.66-20.16-6.19-.51-11.9-2.37-17.08-5.52-7.1-4.34-12.63-7.61-16.96-10.09-1.89-1.07-3.44-1.62-4.67-1.62-2.86,0-4.1,3.43-5.86,9.08-4.29,13.84-13.12,23.61-26.28,29.09l-.82.34c-14.21,5.91-25.44,10.58-30.59,25.4-3.73,10.73-4.61,22.08-2.63,33.75.86,5,2.84,9.79,6.2,13.63,2.97,3.39,6.82,5.87,10.98,7.55,4.21,1.69,8.71,2.61,13.22,3.06,2.19.22,4.42.36,6.64.34h.87c1.44,0,2.93-.05,4.41-.15,1.61-.13,3.19-.41,4.8-.99.09-.04.2-.08.3-.12,1.64-.62,3.19-1.46,4.87-2.02,1.66-.55,3.51-.8,5.17-.24,1.66.57,3.06,2.12,3.02,3.88-.01,1.15-.63,2.23-1.48,3.01-1.36,1.25-3.11,1.78-4.86,2.28-1.91.54-3.85,1.02-5.79,1.43-3.5.73-7.02,1.23-10.57,1.49-3.73.29-7.48.15-11.19-.32-5.57-.69-11.41-1.65-16.64-4.06-13.08-6.06-20.94-17.89-22.75-34.24-.33-3.05-.45-6.14-.38-9.2.17-7.14,1.28-14.26,3.1-21.15,1.75-6.65,4.04-12.94,8.83-18.04,4.64-4.95,10.11-9.24,16.19-12.3,1.56-.79,3.14-1.56,4.7-2.32,9.41-4.59,18.27-8.91,22.79-17.03.38-.7.17-1.56-.53-1.97-5.38-3.31-7.65-7.71-6.36-12.42.06-1.23.42-2.31.77-3.26.26-.82.51-1.52.49-2.08-.15-2.65-5.23-4.47-8.8-4.62-.41-.01-.83-.01-1.23-.01-8.91,0-15.25,4-21.23,13.41-3.25,5.08-5.53,10.77-6.76,16.67-.7,3.33-1.07,6.72-1.09,10.11-.03,3.48.5,6.86-.71,10.23-.48,1.28-1.23,2.59-2.49,3.09-1.25.49-2.74,0-3.65-.98-.69-.73-1.08-1.69-1.29-2.68-.26-1.31-.29-2.67-.46-3.98-.13-1.11-.25-2.23-.33-3.35-.18-2.23-.25-4.47-.21-6.73.1-5.58.88-11.16,2.45-16.52,1.56-5.32,3.91-10.4,7.09-14.95,3.29-4.7,7.44-8.76,12.2-11.94,5.48-3.67,11.27-5.52,17.23-5.52,9.74,0,18.84,4.96,25.39,13.72.24-1.43.03-2.89-.22-4.57-.11-.71-.22-1.44-.28-2.19-.33-3.22.41-5.85,2.2-7.85,2.77-3.06,7.23-3.69,10.5-3.69.83,0,1.68.03,2.53.11,16.77,1.62,35.51,11.6,48.89,26.02,0,0,.07.08.17.2.66.71,1.27,1.45,1.9,2.27,1.64,1.97,4.1,5,7.02,8.76.3.42.62.83.94,1.25.91,1.19,1.85,2.44,2.81,3.73,1.11,1.53,2.26,3.13,3.41,4.76,5.77,8.21,10.81,16.82,14.65,25.95.85,2.01,1.62,4.04,2.32,6.08,1.61,4.58,2.89,9.28,3.8,14.13,1.28,6.77,1.28,13.8,1.57,20.7.08,1.95.09,3.91.17,5.82.04.67.07,1.35.13,2.02.3,3.88,1.16,7.59,3.79,10.87,1.5,1.87,3.11,3.3,5.53,3.83,1.64.36,3.18-.09,4.71-.66.78-.28,1.53-.75,2.1-1.29.58-.55.71-1.07.88-1.83.29-1.21-.09-2.44-.41-3.65-.5-1.98-.69-4.45-.36-6.32.33-1.89.98-3.29,1.94-4.63.98-1.35,2.05-2.06,3.43-2.64,1.37-.59,2.56-.78,4.03-.54,1.46.25,2.59.58,3.8,1.69,1.21,1.11,2.1,2.07,2.63,3.98.54,1.93.83,3.89.62,6.35-.21,2.45-1.14,6.02-2.07,8.54.41.54,1.11,1.06,1.64,1.37.51.3.8.37,1.28.59.41-2.4.82-4.59,1.54-6.97.75-2.39,1.66-4.86,2.78-7.16,1.11-2.31,2.44-4.74,3.87-6.86,1.41-2.12,3.05-4.18,4.79-5.94,1.73-1.75,3.62-3.26,5.61-4.46,2.01-1.2,4.13-2.03,6.28-2.39,2.77-.46,5.32-.24,7.82.65,2.51.88,4.43,2.28,6.25,4.05,1.84,1.77,3.11,3.93,4.13,6.18,1.02,2.23,1.42,4.74,1.53,7.03.11,2.28-.21,4.29-.62,6.36-.42,2.06-1.2,3.64-1.95,5.53.73.33,1.36.65,2.11.95.77.32,1.61.62,2.41.88.82.26,1.78.51,2.6.67.8.17,1.45.18,2.26.24h.42c.16,0,.46-.01.65-.01.7-.03,1.56.04,2.23.03,1.98-.03,3.8-.17,5.73-.49,1.94-.32,3.99-.78,5.87-1.29,1.89-.51,3.88-1.2,5.61-1.87,1.72-.67,3.48-1.5,4.96-2.26,1.48-.75,2.74-1.57,3.91-2.38,1.17-.8,1.68-1.4,2.57-2.34-1.28-.95-2.44-1.93-3.55-3.05-1.12-1.12-2.19-2.34-3.21-3.55-1.02-1.23-1.99-2.51-2.94-3.77-.94-1.27-1.85-2.48-2.78-3.73.49.94,1,1.82,1.44,2.78.41.98.8,1.99,1.04,3.03.22,1.04.44,2.08.39,3.15-.03,1.08-.06,2.19-.55,3.17-.65,1.35-1.64,2.45-2.81,3.34-1.19.88-2.41,1.46-3.83,1.79-1.42.34-2.8.41-4.26.17-1.48-.24-2.79-.67-4.11-1.53-1.32-.86-2.39-1.89-3.32-3.29-.94-1.43-1.58-3.27-1.95-5.01-.36-1.74-.65-3.59-.71-5.36-.06-1.78.04-3.59.34-5.28.3-1.69.75-3.3,1.44-4.8.67-1.52,1.46-2.76,2.57-3.93,1.12-1.19,2.3-1.98,3.82-2.69,1.5-.71,3.3-.92,4.99-1.07,1.95.55,3.84,1.21,5.5,2.37,1.66,1.16,3.06,2.47,4.42,3.93,1.37,1.48,2.56,3.11,3.73,4.74,1.17,1.62,2.34,3.33,3.59,4.84,1.24,1.53,2.51,2.94,3.97,4.22,1.45,1.28,3.06,2.08,4.82,2.88.5-.21,1-.44,1.42-.79.44-.34.81-.73,1.15-1.15.36-.41.7-.87,1.03-1.29.34-.42.71-.84,1.11-1.19,1.04-.92,2.18-1.64,3.54-1.82,1.36-.18,2.64,0,3.81.57,1.19.57,1.94,1.4,2.69,2.4.74,1,1.17,2.12,1.52,3.31.36,1.17.46,2.39.38,3.59-.07,1.19-.29,2.34-.74,3.42Z"/>
  <path class="cls-1" d="m321.02,273.51c-1.32-.36-2.27-.53-3.81.08-1.53.61-2.8,1.15-4.21,2.78-1.4,1.62-2.79,3.51-3.89,6.03s-2.35,6.54-2.9,9.51c1.14-.04,2.38-.24,3.48-.4,1.12-.16,2.26-.4,3.3-.65,1.07-.26,2.14-.63,3.06-1.02.94-.38,1.99-1.03,2.69-1.53,1.71-1.27,3.43-3.05,4.42-4.62,1-1.58,1.37-2.94,1.5-4.47.15-1.53-.21-2.49-.92-3.63-.71-1.13-1.38-1.74-2.72-2.1Z"/>
  <path class="cls-1" d="m289.45,272.15c-.99-.99-2.1-1.57-3.5-1.77-1.4-.2-2.63.46-3.85,1.07-.2.11-.38.25-.57.38-.45.34-.86.75-1.23,1.19-.18.21-.36.44-.51.65-.17.22-.34.55-.46.78-.11.21-.17.34-.2.54-.04.18-.05.45.16.53.21.08.24.07.48-.09.22-.15.41-.5.66-.75.24-.25.54-.57.88-.8.86-.61,1.76-1.21,2.85-1.31,1.1-.09,2.07.2,3.02.7.51.28.88.69,1.17,1.16.32.5.34,1.03.34,1.58s-.21,1.1.01,1.64c.22.53.86.92,1.41.7,1.16-.46,1.17-1.66.99-2.72-.26-1.37-.69-2.48-1.66-3.47Z"/>
  <path class="cls-1" d="m324.92,259.92c-4.08-.92-7.48.42-11.11,2.06-.92.41-1.68,1.04-2.49,1.57-1.15.75-2.16,1.69-3.15,2.59-.3.26-.59.62-.8.84-.21.22-.26.32-.42.47-.14.16-.28.21-.38.38-.12.17-.16.32-.1.5.03.2.17.33.36.37.19.03.33-.08.48-.16.5-.29.94-.62,1.42-.9,2.89-1.69,5.47-3.69,8.68-4.79,2.41-.83,4.82-.83,7.24.08s4.04,2.71,5.45,4.82c.36.54.56,1.19,1,1.65.45.47,1.1.74,1.69.53.61-.22.8-.7.86-1.25.06-.57,0-1.1-.28-1.58-1.95-3.56-4.37-6.25-8.43-7.18Z"/>
  <path class="cls-1" d="m268.27,332.6c2.23,1.31,4.01,2.53,5.6,4.55.22.29.72.62,1.06.33.8-.7,1.32-1.49.29-2.3-2.6-2.02-5.86-3.09-8.83-4.51-.09-.05-.21-.04-.29.04-.08.07-.05.21.01.28.65.54,1.49,1.21,2.16,1.61Z"/>
  <path class="cls-1" d="m420.66,270.18c-.95-3.25-2.26-5.96-4.18-8.63-.93-1.23-3.74-4.97-8.88-7.46-3.13-1.48-6.47-2.23-9.93-2.23-.96,0-1.97.06-3.25.22-1.63.22-3.23.63-4.78,1.22l-.14-.19c-1.45-2.02-3.04-4.16-5.02-6.3-.46-.5-.92-.97-1.37-1.43.65-2.42.89-4.94.74-7.5-.19-3.07-.9-5.91-2.19-8.68-1.29-2.78-3.07-5.24-5.26-7.29-2.36-2.24-5.11-3.94-8.12-5.03-2.62-.97-5.37-1.46-8.17-1.46-.44,0-.88.02-1.44.05-2.99.18-5.87.91-8.55,2.14-2.87,1.31-5.33,3.07-7.53,5.42-2.19,2.36-3.85,5.08-4.93,8.06-1.14,3.11-1.61,6.34-1.4,9.58.09,1.53.32,3.02.69,4.47-.55-.23-1.11-.45-1.68-.65-3.43-1.22-7-1.83-10.62-1.83-1.2,0-2.41.07-3.62.2-.77-.98-1.62-1.89-2.55-2.75-2.31-2.14-4.99-3.78-8.02-4.89-2.62-.94-5.33-1.42-8.07-1.42-.45,0-.89.02-1.28.04-3.08.17-5.94.89-8.74,2.2-2.78,1.31-5.18,3.07-7.35,5.41-2.16,2.35-3.79,5.02-4.86,7.95-.52,1.42-.89,2.88-1.13,4.38-.24-2.53-.57-5.12-1.07-7.73-1.02-5.52-2.51-11.08-4.42-16.5-.8-2.34-1.71-4.72-2.71-7.09-4.06-9.67-9.41-19.18-16.36-29.08-1.19-1.68-2.4-3.38-3.66-5.09l-.59-.79c-.81-1.09-1.59-2.14-2.34-3.11-.04-.05-.62-.8-.62-.8l-.27-.42c-.21-.3-.42-.58-.65-.84l-.29-.38c-.11-.13-.22-.27-.34-.4-2.03-2.6-4.07-5.14-6.21-7.74,0,0-.03-.04-.05-.06-.79-.99-1.53-1.87-2.15-2.54,0,0-.47-.56-.48-.56-16.04-17.29-38.84-29.27-59.47-31.26-1.28-.13-2.65-.2-4.16-.2-8.64,0-15.97,2.63-21.33,7.65-5.24-2.01-10.79-3.06-16.26-3.06-9.33,0-18.24,2.8-26.47,8.31-29.51,19.7-33.9,56.33-25.19,84.6-.7,2.02-1.34,4.18-1.98,6.64-2.23,8.39-3.46,16.82-3.66,25.05-.08,3.94.08,7.77.48,11.39,2.49,22.45,13.65,38.87,32.28,47.48,7.27,3.38,14.67,4.63,21.57,5.48,3.23.4,6.38.61,9.36.61,1.8,0,3.54-.07,5.13-.2,4.18-.3,8.48-.92,12.76-1.81,2.32-.48,4.64-1.05,6.9-1.7,2.35-.66,7.22-2.03,11.57-6.02,1.19-1.09,2.25-2.33,3.17-3.66.3-.03.61-.06.92-.1,2.16,6.22,7.17,11.33,13.92,14.26-1.56,6.44.24,12.99,4.99,18.06,5.15,5.55,11.85,8.48,19.36,8.48,4.59,0,9.18-1.07,14.23-3.34,2.52,1.64,5.43,2.75,8.56,3.23.98.16,2,.24,3.06.24,6.69,0,11.46-3.28,14.13-5.5,1.09.72,2.24,1.33,3.45,1.83,3.44,1.41,6.91,2.12,10.3,2.12,5.31,0,10.24-1.74,14.26-5.01,2.17-1.76,3.91-3.76,5.19-5.97,1.94.22,3.76.33,5.55.33,5.46,0,10.42-1.01,15.16-3.09,7.93-3.47,12.5-11.41,11.38-19.76-.27-2.05-.89-4.06-1.82-5.95.33-.38.65-.77.95-1.17.53-.14,1.07-.29,1.61-.45,1.98-.6,3.86-1.29,5.7-2.08.89.31,1.92.67,2.89.97,1.49,1.16,3.29,1.85,5.18,1.98l5.84.44h.25c.55.04,1.43.06,2.12.06h.64c3.3-.05,7.62-.16,11.83-.69,4.21-.55,7.71-1.29,11.3-2.41,3.51-1.07,6.65-2.32,10.46-4.17,3.19-1.53,6.13-3.27,8.98-4.96l.39-.23s1.78-1.07,2.14-1.31l2.09-1.25c.83-.5,1.72-1.01,2.54-1.4.3-.14.66-.28,1.11-.44.71-.08,1.42-.17,2.09-.29,4.26-.72,8.06-2.55,11.32-5.45,3.51-3.15,5.15-6.47,6.09-8.72,1.14-2.74,1.81-5.71,1.98-8.8.2-3.17-.14-6.27-1.01-9.24Zm-5.82,16.02c-.75,1.79-2.04,4.39-4.75,6.82-2.48,2.22-5.4,3.63-8.68,4.18-.61.11-1.23.18-1.85.25,0,0-.42.05-.54.07-.95.32-1.64.58-2.19.84-.95.45-1.99,1.04-2.97,1.62-.46.28-.99.59-1.52.91l-.59.36c-.56.36-1.17.73-1.74,1.07l-.4.24c-2.88,1.7-5.83,3.47-8.95,4.96-3.58,1.74-6.49,2.9-9.71,3.88-3.35,1.04-6.58,1.73-10.45,2.23-.4.05-.79.1-1.19.14-4.69.5-9.5.75-14.18-.04-2.25-.38-4.48-.85-6.7-1.4-1.09-.27-2.18-.57-3.27-.89-.55-.16-1.11-.33-1.66-.5-.23-.07-1.1-.62-1.29-.53-2.28,1.1-4.6,1.99-7.03,2.73-1.12.34-2.23.61-3.29.83-1.15,1.95-2.68,3.59-4.56,4.91,1.83,2.18,3.06,4.79,3.43,7.55.8,6.02-2.52,11.74-8.29,14.26-4.06,1.78-8.34,2.65-13.06,2.65-3.06,0-5.99-.37-8.73-.86-.71,2.4-2.23,5.16-5.32,7.67-3.09,2.52-6.89,3.84-10.95,3.84-2.71,0-5.5-.58-8.31-1.73-2.43-1-4.2-2.45-5.49-3.84-.57.47-1.17,1-1.68,1.43l-.46.41c-1.94,1.72-6,5.29-11.94,5.29-.73,0-1.48-.05-2.22-.17-3.46-.54-6.42-1.98-8.75-4.21-4.39,2.31-9.41,4.25-14.87,4.25-6,0-11.38-2.35-15.52-6.81-3.65-3.91-4.96-8.95-3.59-13.8.4-1.39,1-2.71,1.79-3.92-9.14-1.98-15.75-8.15-16.76-15.95-.05-.41-.09-.8-.1-1.21-.82.22-1.66.44-2.56.59-1.9.34-3.73.54-5.57.58-.87,1.81-2.11,3.48-3.62,4.87-3.39,3.11-7.32,4.24-9.44,4.83-1.99.57-4.2,1.12-6.54,1.61-4.04.84-8.09,1.43-12.07,1.72-1.49.12-3.09.18-4.75.18-2.82,0-5.75-.2-8.71-.57-6.48-.79-13.41-1.95-20-5.03-16.88-7.8-27.01-22.77-29.28-43.31-.38-3.44-.53-7.05-.45-10.7.18-7.77,1.35-15.78,3.48-23.82.78-2.98,1.57-5.53,2.45-7.89-8.63-26.05-5.28-61.75,22.56-80.34,7.36-4.93,15.28-7.43,23.55-7.43,6.03,0,12.05,1.41,17.61,4.1.32-.41.65-.82,1-1.21,4.43-4.9,10.99-7.48,18.97-7.48,1.31,0,2.49.05,3.6.17,19.44,1.87,40.97,13.22,56.17,29.61.04.04.32.37.32.37.7.77,1.39,1.58,2.16,2.56,2.17,2.63,4.22,5.19,6.27,7.81.13.13.24.26.34.4l.25.33c.13.15.25.3.37.47l.21.32c.24.32.82,1.1.83,1.1.91,1.19,1.89,2.51,2.89,3.85,1.21,1.65,2.41,3.33,3.58,4.97,6.73,9.59,11.9,18.79,15.81,28.09.95,2.26,1.82,4.53,2.59,6.76,1.79,5.11,3.23,10.41,4.22,15.75,1.17,6.18,1.4,12.18,1.61,17.98,2.6-2.61,5.25-3.73,6.26-4.16,1.16-.5,2.31-.87,3.46-1.12-.04-.37-.08-.74-.11-1.11-.15-2.56.21-5.04,1.07-7.4.85-2.31,2.12-4.38,3.8-6.2,1.68-1.81,3.55-3.19,5.71-4.21,2.16-1.02,4.39-1.58,6.79-1.72.28-.01.63-.03.99-.03,2.12,0,4.24.37,6.29,1.11,2.34.86,4.43,2.14,6.23,3.8,1.48,1.36,2.66,2.88,3.63,4.62.5-.11.99-.21,1.49-.29,1.53-.25,3.09-.38,4.62-.38,3.02,0,6,.51,8.87,1.53,2.78.99,5.28,2.36,7.69,4.25.86-1.73,1.85-3.25,3.02-4.67-.37-.61-.71-1.24-1.02-1.9-.99-2.1-1.57-4.38-1.71-6.76-.16-2.52.21-5.04,1.09-7.46.85-2.34,2.15-4.46,3.85-6.29,1.7-1.81,3.6-3.18,5.86-4.21,2.1-.96,4.35-1.53,6.7-1.68.44-.03.78-.04,1.12-.04,2.19,0,4.32.38,6.35,1.13,2.36.86,4.5,2.18,6.33,3.92,1.7,1.6,3.1,3.52,4.12,5.7,1,2.16,1.56,4.38,1.7,6.78.16,2.59-.21,5.09-1.1,7.47-.15.41-.3.8-.49,1.21,1.2,1.03,2.39,2.18,3.62,3.5,1.71,1.85,3.1,3.71,4.6,5.79l.67.94c.73,1.02,1.42,2.01,2.1,2.86,2.24-1.45,4.62-2.36,7.11-2.71.96-.12,1.77-.17,2.53-.17,2.68,0,5.26.58,7.69,1.73,3.53,1.72,5.65,4.17,6.93,5.87,1.49,2.07,2.55,4.26,3.34,6.95.69,2.34.96,4.84.8,7.43-.15,2.53-.68,4.92-1.6,7.11Z"/>
  <path class="cls-1" d="m395.61,267.8c-1.17-.21-2.23.37-3.22.91-.42.24-.84.69-1.12.92-.28.24-.38.42-.54.58-.16.17-.17.22-.26.34-.11.11-.15.16-.13.26,0,.11.07.12.13.15.08.03.16,0,.23-.04.65-.34,1.46-.9,2.1-1.15,1.16-.47,2.09-.65,3.25-.32,1.16.34,1.86,1.12,2.59,2.03.18.22.23.54.47.73.25.2.38.44.79.33.41-.12.74-.65.58-1.12-.15-.49-.45-.86-.83-1.2-1.21-1.08-2.35-2.15-4.02-2.43Z"/>
  <path class="cls-1" d="m232.39,326.2c-.09.05-.12.15-.17.24-1.85,4.39-4.46,5.78-9.12,6.31-2.19.24-4.51-.46-6.69.26-2.93.98-4.1,2.64-3.75,5.74.01.17.24.09.4,0,6.41-3.85,13.85-4.47,19.7-9.47.63-.54.11-2.16-.11-2.92-.03-.08-.16-.21-.26-.16Z"/>
  <path class="cls-1" d="m288.46,308.35c1.21-.87,2.52-1.82,3.84-2.52,1.02-.53,1.9-1.03,3-1.36,3.94-1.19,7.74-1.31,11.85-.88.08.03.23.04.29.05.65.11,1.28-.26,1-.91-.28-.63-.83-1.06-1.4-1.28-1.79-.71-4.13-.14-5.7.25-2.35.59-4.16,1.11-6.2,1.89-1.19.45-1.95.86-3,1.46-1.43.83-2.68,1.86-3.95,2.96-.03.03-.03.15.03.22.07.08.04.25.24.12Z"/>
  <path class="cls-1" d="m229.6,296.02c-1.98.73-1.81,2.44-1.52,4.18.04.18.21.13.34-.03,1.53-2.01,2.89-2.28,5.2-1.2.13.05.28-.04.16-.24-.91-1.5-2.22-3.42-4.18-2.72Z"/>
  <path class="cls-1" d="m301.24,325.03c1-.16,1.88-.24,2.89-.29.26-.01.17-.4-.11-.44-5.26-.8-10.41-.08-15.64.55-1.41.16-2.56-.22-3.93-.24-.08,0-.09.03-.09.09.01.08.09.16.17.17,5.65.95,11.05,1.03,16.7.15Z"/>
</svg>