<?xml version="1.0" encoding="UTF-8"?>
<svg id="Layer_3" data-name="Layer 3" xmlns="http://www.w3.org/2000/svg" viewBox="0 0 500 500">
  <defs>
    <style>
      .cls-1 {
        fill: #fcd146;
      }
    </style>
  </defs>
  <g>
    <path class="cls-1" d="m188.44,233.66c-.23.19-.47.37-.7.56"/>
    <path class="cls-1" d="m187.74,234.22c-.36.17-.73.33-1.1.48"/>
    <path class="cls-1" d="m207.69,278.72c-.02-.15-.03-.29-.03-.43"/>
    <path class="cls-1" d="m207.95,277.59c-.1.23-.19.46-.29.69"/>
    <path class="cls-1" d="m255.11,221.48s-.03.04-.04.05"/>
    <g>
      <path class="cls-1" d="m217.29,275.61c2.37-.56,4.13-2.86,4.34-5.28s-1-4.86-2.88-6.4c-1.88-1.54-4.36-2.25-6.8-2.26-2.41,0-4.82.66-6.9,1.89-3.6,2.14-6.01,5.85-7.6,9.72-1.59,3.87-2.48,7.99-3.8,11.96-1.35,4.05-3.16,7.94-5.39,11.59-3.47,4.51-7.44,8.64-11.8,12.3-2.57,2.16-5.52,4.24-8.88,4.32-2.99.07-6-1.47-8.88-.65-2.92.83-4.31,3.9-3.94,6.73.4,3.07,5.19,4.19,7.75,4.61,5.28.87,10.79.23,15.73-1.83.83-.35,1.63-.73,2.39-1.14-.24-.97-.36-1.99-.32-3.03.17-3.93,2.69-7.08,6.9-8.65,1.52-.57,3.15-.84,4.98-.84.33,0,.66,0,1,.03,2.81-4.59,4.94-9.71,6.87-14.72,1.67-4.32,3.47-8.66,6.08-12.51,1.21-1.79,2.84-4.32,4.75-5.44,2.11-1.25,3.98.17,6.38-.39Z"/>
      <path class="cls-1" d="m189.14,280.72c1.02-2.4,1.79-5.04,1.28-7.6-.52-2.63-2.48-4.93-4.99-5.86-2.51-.94-5.5-.48-7.61,1.17-2.84,2.21-3.82,5.98-5.33,9.24-2.39,5.13-6.64,9.52-11.98,11.4-5.34,1.88-11.74.99-15.94-2.8-6.89-6.22-4.57-14.83.84-21.15,2.79-3.26,6.25-6.06,9.42-8.95,2.37-2.17,4.86-4.2,7.45-6.11,2.42-1.78,5.03-2.91,7.57-4.51,5.86-3.7,11.69-7.45,17.5-11.23,1.16-.76,2.33-1.52,3.29-2.53.6-.63,1.17-1.44,1.68-2.28.62-1.02,1.15-1.89,1.18-3.09.03-1.03-.13-2.06-.46-3.05-.67-2.03-2.01-3.83-3.7-5.12-1.86-1.42-4.09-2.27-6.38-2.7-1.11-.21-2.26-.19-3.36-.39-1.24-.23-2.5-.48-3.76-.67-5.41-.82-10.85-1.39-16.31-1.71-1.35-.08-2.69-.14-4.04-.19-4.36-.15-8.73-.14-13.06.42-3.92.51-7.86,1.49-11.18,3.63-3.32,2.14-5.97,5.57-6.46,9.49-.49,3.92,1.56,8.22,5.22,9.71,3.09,1.26,6.68.4,9.64-1.16,2.95-1.56,5.51-3.78,8.4-5.47,6.25-3.66,14.01-4.65,20.98-2.68,4.75,1.35,2.39,6.8-.46,8.91-2.14,1.59-4.77,2.33-7.29,3.19-5.21,1.79-10.18,4.29-14.75,7.36-12.67,8.51-30.27,27.12-21.48,43.68,2.03,3.83,5.44,6.77,9.16,8.99,9.37,5.6,21.19,6.91,31.57,3.52,10.38-3.39,19.13-11.44,23.38-21.5Z"/>
      <path class="cls-1" d="m167.9,262.71c-4.21-2.98-12.33.97-13.82,5.41-.78,2.32.03,5.24,2.2,6.39,1.59.85,3.53.64,5.28.16,4.09-1.11,12.2-7.82,6.35-11.97Z"/>
      <path class="cls-1" d="m271.28,203.14l-.1-.02c-1.08-.23-2.1-.44-3.08-.55h-.11c-.44-.05-.91-.08-1.39-.08-.03,0-.06,0-.1,0-1.49,3.14-3.27,6.13-5.32,8.93.13.14.26.27.39.41l6.45,6.7c.74-1.23,1.49-2.45,2.23-3.68.53-.87,1.23-1.69,1.46-2.67,1.54-2.72,2.95-5.51,4.22-8.36-.33-.01-.67-.04-1-.07-1.29-.14-2.49-.39-3.66-.63Z"/>
      <path class="cls-1" d="m281.19,183.47c-.28-5-2.5-10.11-6.7-12.83-4.2-2.72-10.48-2.36-13.63,1.54-1.98,2.45-2.27,6.51.16,8.5,2.39,1.95,6.31,1.25,8.46,3.46.06.06.11.12.17.18.09-.02.18-.04.27-.05.92-.18,1.86-.3,2.8-.36.27-.02.51-.03.69-.03h.04c.16,0,.33,0,.49,0,1.1,0,2.18.1,3.21.31,1.46.28,2.82.77,4.05,1.43.03-.71.02-1.42-.02-2.13Z"/>
      <path class="cls-1" d="m255.62,281.58c0-.18,0-.35-.02-.53,0-.02,0-.03,0-.05,0-.18-.02-.35-.03-.53h0s0-.02,0-.03c-.01-.18-.02-.35-.04-.53,0-.1-.02-.2-.03-.31-.01-.12-.02-.24-.04-.36,0,0,0,0,0-.01-.02-.18-.04-.36-.07-.54,0-.04-.01-.08-.02-.12-.02-.15-.04-.3-.07-.44-.03-.19-.06-.38-.1-.57,0,0,0,0,0-.01-.02-.12-.05-.24-.07-.37,0-.04-.02-.08-.03-.12-.02-.09-.04-.18-.06-.26-.01-.06-.03-.13-.04-.19-.02-.08-.04-.16-.06-.24-.01-.05-.02-.1-.04-.15-.02-.09-.04-.17-.07-.26-.02-.08-.04-.15-.06-.22,0-.04-.02-.08-.03-.11-.03-.12-.07-.24-.11-.37-.02-.08-.05-.15-.07-.23-.06-.2-.13-.39-.2-.59-.05-.16-.11-.31-.17-.47-.03-.08-.06-.15-.09-.23,0-.03-.02-.06-.03-.08-2.08-5.12-6.47-9.42-11.89-10.39,2.02-3.76,4.04-7.52,6.06-11.28.7-1.3,1.4-2.64,2.05-4.01.21-.33.41-.65.6-.98.63-1.04,1.26-2.07,1.89-3.11l-.98-1c-1.01-1.03-2.01-2.07-3.02-3.1l-3.2-3.28c-2.98,6.57-6.02,12.91-11.78,17.77-.35.29-1.23,1.3-1.68,1.34-.53.05-1.08-.63-1.47-1.01-1.93-1.86-3.35-4.18-5.45-5.87-2.37-1.9-5.12-3.27-7.42-5.27-6.88-5.98-6.51-15.27-6.06-23.54.18-3.43-.38-7.29-3.08-9.41-1.75-1.37-4.23-1.74-6.32-.97-2.09.77-3.73,2.63-4.28,4.79-.52,2.04-.11,4.18.31,6.24.84,4.2,1.68,8.41,2.53,12.61.71,3.55,1.43,7.12,2.72,10.5,1.28,3.37,3.01,6.32,5.82,8.62,2.72,2.22,5.97,3.67,9.02,5.35,2.65,1.47,5.28,3.25,7.13,5.69,1.67,2.19,3.41,5.46,2.83,8.26-.44,2.14-1.77,4.01-3.38,5.48-4.27,3.88-10.49,5.26-13.46,10.6-1.38,2.48-1.72,5.53-.92,8.26.8,2.73,2.74,5.11,5.24,6.45,2.57,1.37,5.53,1.64,8.47,1.71.1,0,.19,0,.28,0,.11,0,.22,0,.32,0,.2,0,.4,0,.6,0,.12,0,.25,0,.37,0l10.23.12h.28s.02,0,.02,0c.19,0,.37,0,.56,0,.19,0,.39,0,.58,0,.29,0,.57,0,.84,0,.12,0,.23,0,.34,0,.66-.01,1.24-.04,1.8-.08l.24-.02h.09c1.6-.14,3.17-.43,4.64-.99.62-.24,1.22-.53,1.8-.89,2.54-1.56,4.23-4.09,5.44-6.86.39-.89.73-1.81,1.03-2.73.55-1.66.99-3.38,1.3-5.11.33-1.8.51-3.62.51-5.43,0-.18,0-.37,0-.55h0Zm-9.39,1.1c0,.08,0,.15,0,.23,0,.01,0,.02,0,.03-.02.31-.04.62-.08.92v.03s0,.01,0,.02c-.01.08-.02.16-.04.24-.02.1-.03.19-.05.29,0,0,0,0,0,0-.02.09-.04.18-.06.28,0,0,0,0,0,.01,0,0,0,.01,0,.02-.02.08-.04.16-.06.24,0,.03-.02.07-.02.1,0,.04-.02.07-.03.11-.02.09-.05.17-.07.26-.03.08-.05.17-.08.26-.05.17-.11.34-.17.51-.02.05-.04.11-.06.16-.03.07-.06.14-.09.21,0,0,0,0,0,0-.04.1-.09.21-.13.31-.05.11-.1.21-.15.31-.04.08-.08.16-.12.24-.04.07-.07.14-.11.21,0,.02-.02.03-.03.05-.04.07-.08.14-.12.21-.04.07-.08.14-.13.21-.05.08-.1.16-.15.23,0,0,0,0,0,0-.05.07-.1.15-.15.22-.08.11-.16.22-.24.32-.07.09-.14.18-.21.27-.01.01-.02.03-.04.04,0,0,0,0,0,0-.08.09-.15.18-.23.27,0,0-.01.02-.02.03,0,0-.01.01-.02.02-.08.09-.16.18-.25.27,0,0-.01.01-.02.02h0s0,0,0,0c0,0,0,0,0,0-.04.05-.09.09-.13.13-.04.04-.09.09-.13.13-.08.08-.17.16-.25.24-.02.02-.04.04-.07.06-.08.07-.16.14-.24.21-.02.02-.05.04-.07.06-.08.07-.16.14-.25.2-.02.01-.04.03-.05.04,0,0-.01.01-.02.02-.09.07-.18.13-.26.2-.11.08-.21.16-.32.23-.06.04-.11.08-.17.11,0,0-.01,0-.02.01,0,0-.02.01-.03.02,0,0-.02.01-.03.02-.07.05-.13.09-.2.13-.05.03-.1.07-.16.1-.04.03-.09.05-.13.08-.08.05-.15.09-.23.14-.05.03-.1.05-.14.08-.07.04-.13.07-.2.11-.01,0-.03.01-.04.02-.08.04-.16.08-.24.13-.07.04-.15.07-.22.11-.07.04-.15.07-.23.11-.07.03-.15.07-.22.1-.15.07-.31.13-.46.2,0,0-.01,0-.02,0,0,0-.01,0-.02,0-.06.03-.12.05-.18.07-.08.03-.15.06-.23.09-.08.03-.15.06-.23.08-.2.07-.4.14-.6.2-.1.03-.2.06-.3.09-.08.03-.17.05-.25.07-.03,0-.05.02-.08.02-.09.03-.19.05-.28.07-.1.03-.21.05-.31.07-.21.05-.41.09-.62.13-.04,0-.08.01-.11.02-.04,0-.08.01-.11.02-.08.01-.15.03-.23.04-.02,0-.04,0-.07.01-.02,0-.03,0-.05,0,0,0-.01,0-.02,0-.1.02-.2.03-.31.05-.12.02-.24.03-.35.05-.04,0-.07,0-.11.01-.11.01-.23.03-.35.04-.11.01-.21.02-.32.03-.06,0-.12,0-.18.01-.1,0-.2.01-.3.02-.2.01-.39.02-.59.02-1.69.05-3.48-.09-5.07-.65,0,0-.01,0-.02,0h0s-.01,0-.02,0c-1.25-.45-2.38-1.15-3.26-2.24-.58-.72-.97-1.66-.85-2.58.38-2.74,3.5-3.79,5.51-5.05,2.4-1.5,4.69-3.27,6.36-5.59,0,0,0,0,0,0,.29-.3.57-.61.83-.94.46-.59.85-1.24,1.12-1.94.26-.66.19-1.48.46-2.09,0-.02.02-.03.02-.05.67-1.02,1.76-.53,2.82.03,2.29,1.19,4.16,3.21,5.1,5.62.04.09.07.19.1.28.02.05.03.09.05.14.03.09.06.18.09.27.03.08.05.16.07.24.02.05.03.11.05.16.01.04.02.09.03.13.01.06.03.12.04.18.04.16.07.32.1.48.03.16.05.32.08.48.01.09.02.18.03.27,0,.05.01.11.02.16,0,.1.02.19.02.29,0,.08.01.16.01.24,0,.03,0,.05,0,.08,0,.03,0,.06,0,.1,0,.11,0,.21,0,.31,0,.1,0,.2,0,.3Z"/>
    </g>
    <path class="cls-1" d="m217.45,314.78l.1-.04s0-.01.03-.03l.02-.03s.04-.05.08-.08h0s-.24.18-.24.18Zm38.17-33.19h0c0-.18,0-.36-.02-.54.08,1.93-.06,3.95-.41,6.05l-.08.47c.33-1.8.51-3.62.51-5.43,0-.18,0-.37,0-.55Z"/>
    <g>
      <path class="cls-1" d="m266.03,315.76c-2.04-.27-3.81,1.13-5.74,1.53-.89.18-1.64.3-2.52.58-.89.29-1.79.52-2.7.7-3.55.69-7.76.83-11.02-1.07-2.01-1.17-3.39-3.47-3.53-5.88-.06-1.04.1-1.95.41-2.78-1.11.08-2.22.1-3.32.1h0c-.5,0-1.01,0-1.5-.01-3.37-.04-6.73-.08-10.1-.12h-.13c-.86-.01-1.76-.02-2.71-.06-.98,1.04-1.94,2.09-2.87,3.17-1.99,2.32-4.49,3.93-7.48,4.33-5.96.81-11.91-1.76-17.73-2.66-1.79-.28-3.65-.41-5.39.04-.28.07-.55.16-.82.26-2.64.98-3.74,2.58-3.84,4.38-.24,4.11,4.64,9.32,8.06,10.95,4.23,2.02,9.06,2.21,13.67,1.61,4.61-.6,9.1-1.94,13.65-2.89,3.1-.64,6.22-1.17,9.36-1.47,1.57-.15,3.15-.24,4.74-.26,1.13-.01,2.28-.3,3.4-.25,3.05.13,6.23,1.22,9.27,1.61,3.24.42,6.51.67,9.78.74,2.74.07,5.58,0,8.07-1.22,2.34-1.13,3.87-3.19,4.36-5.81.45-2.42-.78-5.18-3.37-5.52Zm-48.35-1.16s-.05.06-.08.08l-.02.03s-.03.03-.03.03l-.1.04.24-.18h0Z"/>
      <path class="cls-1" d="m361.82,327.72c-5.17-.48-10.17-2.12-15.26-3.17-4.98-1.03-10.08-1.95-15.18-1.66-4.98.28-9.21,2.19-13.79,4.12-3.26,1.37-6.69,2.28-10.18,2.69-2.42.29-4.92.33-7.24-.45-2.32-.78-4.46-2.48-5.34-4.87-.69-1.87-.54-5.22,1.3-6.42,1.72-1.12,4.54.2,6.34.46,2.15.31,4.32.56,6.5.46,1.91-.09,4.27-.24,5.97-1.23,1.64-.96,2.87-3.12,3.37-4.95.78-2.86.07-5.78-1.46-8.21-1.13-1.78-2.52-3.42-3.98-4.99l-12.25-12.71c-2.02-2.09-4.22-4.1-6.1-6.33,0,0,0,0,0-.01l-1.75-1.82c-1.92-1.77-4.14-3.28-6.16-4.87-1.83-1.45-3.72-2.93-5.94-3.5-2.56-.66-4.41.3-6.05,1.8l-4.34,4.64c-3.02,3.23-6.04,6.46-9.06,9.69-.46.49-.92.99-1.39,1.48.84-5.11.59-9.95-.78-14.25-.21-.66-.45-1.3-.71-1.93.07-.07.14-.15.21-.22,1.48-1.56,2.96-3.13,4.44-4.69.87-.92,1.61-1.6,2.12-2.8.49-1.14.82-2.36.98-3.6.8-6.43-2.65-12.07-6.74-16.49-.21-.23-.43-.46-.65-.68-.25-.26-.51-.51-.76-.77-.88-.9-1.76-1.81-2.64-2.71-1.05-1.07-2.09-2.15-3.14-3.22-1.49-1.53-2.98-3.06-4.48-4.6-1.17-1.2-2.33-2.4-3.5-3.59-.14-.14-.28-.29-.42-.43,0-.42-1.72-1.76-2.04-2.09-.68-.7-1.36-1.39-2.04-2.09-1.36-1.39-2.71-2.79-4.07-4.18-2.65-2.72-5.28-5.49-7.96-8.21-2.23-2.26-4.2-4.72-6.4-7.02-1.51-1.57-2.93-2.72-5-3.31-2.12-.6-4.39-.58-6.49.08-1.07.34-2.1.83-3.21.99-3.39.5-8.85-1.98-9.31-5.98h0c-.28-1.15-.28-2.35.09-3.45,1.15-3.41,6.06-3.52,8.99-3.92,8.32-1.13,16.75.07,24.98,1.45,6.68,1.12,13.4,2.35,20.17,2.54.26,0,.53.01.81.02.45,0,.9,0,1.35,0,1.12,0,2.37,0,3.64-.03.39-.05.76-.1,1.11-.18,2.12-.45,4.16-1.15,6.14-1.82l.75-.26c.18-.06.35-.12.53-.18,1.48-.5,2.94-.95,4.4-1.27.19-.04.38-.08.58-.12.72-.14,1.46-.24,2.21-.29.18-.01.36-.02.55-.03.12,0,.25,0,.37,0,.79,0,1.57.07,2.3.22,1.7.33,3.17,1.04,4.27,2.05.05.05.1.09.15.14.59.58,1.02,1.2,1.29,1.85.69,1.66.19,3.88-1.13,5.04-.84.74-1.91,1.08-2.9,1.22-.45.06-.89.08-1.27.08s-.81-.02-1.22-.07c-1.07-.11-2.13-.34-3.25-.57-1.2-.25-2.44-.51-3.72-.64h0c-.6-.06-1.22-.09-1.85-.09-1.1,0-2.2.09-3.27.25-2.38.34-4.61.99-6.44,1.58-1.12.36-2.29.77-3.35,1.52-1.36.96-2.28,2.37-2.5,3.85-.42,2.69,1.7,4.66,3.24,6.1.22.21.44.41.62.59,0,0,0,0,.01.01.06.06.11.11.16.16,1.04,1.08,2.08,2.17,3.13,3.25,2.44,2.54,4.88,5.07,7.32,7.61,1.13,1.17,2.25,2.34,3.38,3.51.56.58,1.11,1.16,1.67,1.74,2.11,2.19,4.21,4.38,6.32,6.57,1.4,1.45,2.88,2.79,4.18,4.33.69.82,1.4,1.65,2.25,2.28,1.9,1.4,4.29,1.18,6.28.1,1.3-.71,2.48-1.72,3.46-2.84,1.92-2.19,4-4.24,6-6.34,1.52-2.11,3.72-3.93,5.45-5.76l7.19-7.6c.51-.54,1.02-1.11,1.5-1.66.93-1.06,1.9-2.15,2.9-3,.18-.15.35-.29.53-.43.74-.58,1.58-1.24,2.17-2.66.67-1.6.82-3.44.44-5.17-.04-.16-.08-.32-.12-.48-.02-.06-.03-.12-.05-.18-.02-.06-.04-.12-.06-.18-1.02-3.17-3.58-5.36-6.54-6.52-.09-.03-.18-.07-.27-.1-.04-.01-.08-.03-.12-.04-.1-.04-.2-.07-.31-.1-1.6-.52-3.18-.64-4.82-.9-.32-.02-.63-.02-.94-.02-.99,0-1.95.08-2.87.22-.46.08-.91.17-1.34.25-.61.12-1.19.24-1.75.3-.08.02-.16.03-.24.05-1.59.31-3.22.62-4.82.38-1.6-.24-3.2-1.14-3.9-2.67-.6-1.32-.74-2.79.05-4.05,1.48-2.36,4.92-3.32,7.38-3.98,4.89-1.31,9.82-2.98,14.94-2.58,4.75.37,9.21,2.43,13.96,2.74,1.54.1,3.09.12,4.63.09,2.76-.05,5.52-.28,8.28-.52,2.52-.22,5.02-.61,7.55-.84,5.36-.47,10.75-.21,16.08.44,1.86.23,3.77.52,5.37,1.53,2.74,1.72,3.49,5.74,2.11,8.67-1.24,2.64-4.17,4.27-6.96,3.92-1.3-.16-2.53-.7-3.78-1.1-3.72-1.19-7.8-1.12-11.49.19-3.16,1.13-6.02,3.16-8.2,5.81-2.49,3.03-5.55,5.78-8.26,8.64l-15.25,16.14c-2.88,3.05-5.76,6.09-8.63,9.14,0,0-2.09,2.22-2.09,2.22-2.98,3.23-5.59,6.7-5.11,11.66.44,4.48,3.26,8.65,5.8,12.11.01.02.03.03.04.05l10.88,11.23c4.12,4.25,8.23,8.51,12.35,12.76,3.82,3.95,7.65,7.9,11.47,11.84,2.83,2.92,5.91,5.72,8.54,8.83,2.2,2.59,4.58,4.64,7.81,5.65,1.75.55,3.6.76,5.42.63,1.66-.12,3.22-.83,4.84-.92,2.85-.16,5.82.44,7.6,3.02,5.21,7.57-10.82,9-14.58,8.65Z"/>
    </g>
  </g>
  <g>
    <path class="cls-1" d="m223.88,224.63c-.1-.1-.2-.21-.3-.31-.13,4.75.2,8.42,2.11,10.08.62.54,1.62,1.19,2.68,1.88.93.61,1.95,1.27,3.01,2.04.67-1.21,1.33-2.54,1.99-3.94-.05-.05-.13-.13-.17-.17l-9.31-9.59Z"/>
    <path class="cls-1" d="m396.19,305.46c-5.88-8.55-15.55-13.46-26.54-13.46-.73,0-1.47.02-2.23.06-.36.02-.72.05-1.06.08-1.53-1.63-3.03-3.12-4.41-4.48-.84-.84-1.69-1.67-2.51-2.51l-30.48-31.48,21.24-22.48c.8-.85,1.64-1.68,2.49-2.52,1.38-1.38,2.89-2.88,4.42-4.55,1.26.34,2.75.66,4.41.87,1.22.15,2.47.23,3.71.23,11.89,0,22.85-6.97,27.93-17.76,6.68-14.2,1.92-31.06-11.06-39.21-6.28-3.95-12.57-4.71-15.25-5.04-4.72-.57-9.08-.85-13.33-.85-2.64,0-5.25.11-7.78.33-1.53.14-3.06.32-4.58.5-1,.12-1.99.25-2.96.33-2.33.21-4.6.39-6.67.43h-.81c-.58,0-1.15,0-1.55-.03-.47-.07-1.81-.42-2.79-.67-2.79-.73-6.61-1.73-11.07-2.07-1.15-.09-2.29-.13-3.43-.13-4.75,0-9.01.77-12.68,1.65-2.96-4.92-6.88-9.14-11.64-12.22-5.68-3.68-12.31-5.63-19.19-5.63-10.36,0-19.9,4.45-26.16,12.2-2.41,2.98-4.15,6.27-5.31,9.69l-1.59-.27c-6.44-1.08-13.99-2.23-21.98-2.23-3.51,0-6.94.22-10.19.67l-.64.08c-18.18,2.09-25.19,12.01-27.88,19.99-.55,1.63-.9,3.32-1.15,5.01-4.19-.51-8.38-.94-12.54-1.18-1.54-.09-3.08-.16-4.61-.21-1.72-.06-3.45-.1-5.18-.1-4.29,0-8.15.23-11.78.7-8.27,1.06-15.17,3.44-21.13,7.27-9.64,6.21-15.94,15.95-17.28,26.73-1.22,9.84,1.9,19.4,8.03,26.37-10.55,15.4-14.53,33.72-5.16,51.39,3.9,7.35,9.98,13.53,18.06,18.35,2.96,1.76,6.06,3.24,9.27,4.48,1.08,5.95,5.93,20.45,27.45,24.02,2.82.47,5.7.7,8.57.7,3.4,0,6.76-.34,10.05-.97,1.91,1.39,3.8,2.51,5.54,3.34,5.91,2.82,12.51,4.24,19.63,4.24,2.41,0,4.91-.17,7.47-.5,4.28-.56,8.09-1.47,11.45-2.27,1.34-.32,2.67-.64,4.01-.92,2.58-.54,4.8-.89,6.73-1.08.91-.09,1.82-.14,2.78-.16.92-.01,1.74-.06,2.47-.13l.81.18c1.63.36,3.67.81,6.01,1.11,4.05.52,8.17.84,12.27.94.6.01,1.2.02,1.8.02,4.21,0,10.58-.38,17.29-3.63,1.98-.96,3.79-2.13,5.49-3.42,3.29,2.93,7.19,5.25,11.57,6.72,3.73,1.25,7.75,1.88,11.95,1.88,1.84,0,3.72-.12,5.74-.36,5.72-.68,11.32-2.16,16.66-4.4l.91-.38c1.78-.75,4.21-1.78,4.93-1.89.19-.01.39-.02.58-.02,2.3,0,5.52.63,8.36,1.22,1.41.29,2.82.64,4.22.99,3.97.98,8.47,2.09,13.68,2.58.92.09,2.11.16,3.51.16,7.86,0,27.02-1.69,35.23-17.31,4.83-9.19,4.03-20.03-2.14-29.01Zm-8.49,23.42c-5.17,9.83-18.93,10.89-24.61,10.89-.95,0-1.76-.04-2.39-.1-4.32-.4-8.36-1.4-11.92-2.28-1.55-.38-3.1-.77-4.66-1.09-3.58-.74-7.37-1.46-10.8-1.46-.42,0-.84,0-1.26.03-2.59.15-5.39,1.33-8.93,2.82l-.89.38c-4.3,1.81-8.81,3-13.42,3.55-1.55.18-2.97.27-4.33.27-2.94,0-5.6-.41-8.14-1.26-6.04-2.03-10.7-6.43-12.79-12.09-2.41-6.54-1.12-15.99,6.01-20.64,2.4-1.56,5.26-2.39,8.27-2.39,1.81,0,3.41.29,4.69.59l-10.58-10.97c-.6-.63-1.23-1.25-1.86-1.87-1.41-1.4-3-2.98-4.53-4.76l-1.2-1.24c-.81-.72-1.86-1.51-2.97-2.34-.47-.35-.94-.71-1.4-1.06l-11.43,12.23c-1.24,1.32-2.74,2.29-4.35,2.93-.16.4-.28.81-.46,1.2-.62,1.42-1.32,2.74-2.07,3.98,1.12-.26,2.36-.47,3.78-.47.7,0,1.41.05,2.12.14,4.32.58,8.11,2.86,10.68,6.4,2.71,3.75,3.77,8.57,2.9,13.22-1.19,6.38-5.18,11.63-10.94,14.41-4.5,2.18-9.04,2.44-12.06,2.44,0,0-1.02,0-1.52-.02-3.67-.09-7.38-.37-11.02-.84-1.81-.23-3.48-.6-4.95-.93-1.06-.23-2.25-.5-3.01-.58l-.24.03c-.93.11-1.87.2-2.8.21-1.27.01-2.51.09-3.76.21-2.39.23-5.03.65-8.05,1.28-1.46.3-2.91.65-4.36,1-3.22.77-6.55,1.57-10.2,2.04-2.04.26-4.03.4-5.92.4-5.31,0-10.18-1.03-14.46-3.08-2.44-1.16-5.21-3.15-7.7-5.72-4.19,1.41-8.64,2.18-13.06,2.18-2.21,0-4.44-.18-6.61-.54-14-2.32-17.1-10.33-17.7-14.9-.28-2.13-.17-4.2.22-6.18-5.31-1.15-10.4-3.12-15.05-5.89-6.17-3.68-10.75-8.28-13.61-13.67-8.75-16.49-1.42-34.3,11.89-48.03-.29-.1-.57-.21-.85-.33-8.47-3.44-13.77-12.82-12.6-22.3.9-7.23,5.23-13.83,11.87-18.11,4.41-2.84,9.69-4.62,16.15-5.45,3.13-.4,6.49-.6,10.25-.6,1.59,0,3.17.04,4.76.09,1.44.05,2.89.11,4.33.2,5.77.34,11.62.95,17.41,1.83,1.04.16,2.08.35,3.11.54l.99.18.49.04c.98.08,1.97.18,2.94.37.89.16,1.74.39,2.59.63-1.11-1.84-1.92-3.9-2.29-6.18-.65-3.18-.47-6.41.54-9.4,3.45-10.23,13.92-11.43,17.87-11.89l.89-.11c2.72-.37,5.61-.56,8.58-.56,7.08,0,14.03,1.06,20,2.06l1.73.29c4.38.74,8.58,1.45,12.66,1.83-1.15-5.29.03-11.16,3.82-15.83,3.98-4.92,10.12-7.75,16.83-7.75,4.55,0,8.93,1.28,12.65,3.7,5.59,3.62,9.56,9.57,11.26,16.5,1.18-.4,2.28-.72,3.12-.94l2-.55c4.22-1.17,9.01-2.5,14.48-2.5.83,0,1.66.03,2.5.09,3.4.26,6.36,1.04,8.97,1.72,1.84.48,3.57.93,4.85,1.02.85.06,1.69.08,2.53.08h1.06c2.43-.06,4.92-.26,7.47-.49,1.11-.1,2.23-.24,3.35-.38,1.39-.17,2.79-.34,4.19-.46,2.17-.19,4.43-.29,6.72-.29,3.75,0,7.64.25,11.88.77,3.28.4,6.79,1.07,10.31,3.29,7.72,4.85,10.62,15.36,6.58,23.94-3.11,6.6-9.81,10.86-17.07,10.86-.74,0-1.49-.05-2.23-.14-2.25-.28-4.07-.92-5.28-1.35l-.69-.24c-.57-.18-1.18-.28-1.8-.28-.69,0-1.37.12-2,.34-1.1.39-2.15,1.15-2.95,2.13-1.98,2.41-4.06,4.48-6.07,6.48-.93.93-1.86,1.85-2.74,2.78l-25.98,27.5c-1.51,1.64-1.86,2.29-1.93,2.48.13.75,1.18,2.61,3.13,5.33l34.12,35.24c.88.91,1.78,1.8,2.68,2.7,2.11,2.08,4.28,4.24,6.38,6.71,1.46,1.72,2.05,1.9,2.24,1.96.24.08.51.11.78.12.17-.04.34-.09.5-.13,1.09-.28,2.73-.69,4.7-.81.52-.03,1.03-.04,1.54-.04,7.08,0,12.99,2.93,16.65,8.25,3.65,5.31,4.17,11.37,1.41,16.61Z"/>
    <path class="cls-1" d="m191.67,245.81c-4.78,3.1-9.57,6.18-14.38,9.23.14.15.28.3.42.45,1.63-.42,3.3-.71,5.01-.71,2.38,0,4.7.41,6.9,1.23,1.27.47,2.45,1.11,3.58,1.82.91-.96,1.89-1.82,2.91-2.62-1.44-2.16-2.68-4.55-3.72-7.27-.27-.71-.49-1.42-.72-2.12Z"/>
    <path class="cls-1" d="m296.19,210.51c-1.02,0-2.04-.08-3.01-.22-2.19-.33-4.24-1.05-6.08-2.08-.07.18-.12.36-.2.54-1.26,2.83-2.67,5.65-4.19,8.4-.68,1.7-1.52,2.96-2.04,3.73l-.11.17,4.97,5.16c.4.42,1.26,1.26,1.27,1.27.55-.57,2.61-2.7,3.08-3.2,1.5-1.93,3.12-3.51,4.46-4.8.5-.49,1-.96,1.46-1.45l7.19-7.6c.28-.3.55-.6.82-.9-.63.13-1.25.24-1.84.32-1.56.3-3.51.66-5.77.66Z"/>
  </g>
</svg>