<?xml version="1.0" encoding="UTF-8"?>
<svg id="Layer_3" data-name="Layer 3" xmlns="http://www.w3.org/2000/svg" viewBox="0 0 500 500">
  <defs>
    <style>
      .cls-1 {
        fill: #fcd146;
      }
    </style>
  </defs>
  <path class="cls-1" d="m310,212.18c0,.3.03.6.03.87v-.87h-.03Zm51.86,165.52h-223.72c-5.66,0-10.24,4.6-10.24,10.26v6.34h244.19v-6.34c0-5.66-4.6-10.26-10.24-10.26Zm-215.33-20.69v16.6h206.9v-16.6h-206.9Zm43.44-144.83v.87c0-.27,0-.57.03-.87h-.03Zm120.03,0c-.05-1.33-.27-2.71-.62-4.09-2.44-9.7-11.83-20.53-28.6-32.96-7.1-5.25-14.14-9.78-19.23-12.92-4.39-2.71-7.34-4.33-7.58-4.47l-3.98-2.22-3.98,2.22c-.24.14-3.2,1.76-7.58,4.47-5.09,3.14-12.13,7.66-19.23,12.92-16.74,12.43-26.16,23.26-28.6,32.96h17.74c2.49-3.98,8.04-10.43,20.5-19.69,7.5-5.58,15.08-10.37,19.93-13.27.43-.27.84-.51,1.22-.73.38.24.81.49,1.25.73,4.85,2.9,12.43,7.69,19.91,13.27,12.46,9.26,18.01,15.71,20.5,19.69,1.19,1.92,1.68,3.28,1.87,4.09h-.08v99.36h16.6v-98.5c0-.27-.03-.57-.03-.87Zm-140.72,20.69v16.6h16.57v-16.6h-16.57Zm20.69,0v41.38h-4.12v-20.69h-16.57v57.98h16.57v-20.69h20.72v-57.98h-16.6Zm82.76-20.69v82.76h-4.09v-62.07h-41.38v-4.09h41.38v-16.6h-57.98v37.29h41.38v24.78h-4.09v-20.69h-37.29v37.29h20.69v4.09h-41.38v16.6h57.98v-20.69h4.09v20.69h37.29v-99.36h-16.6Zm-41.38,62.07h-4.09v-4.09h4.09v4.09Zm-41.35-62.07c-.03.3-.03.6-.03.87v15.73h16.6v-16.6h-16.57Zm-20.72,0v16.6h16.57v-16.6h-16.57Zm182.72,136.52h-17.79c-.81,0-1.46,1.03-1.46,2.3s.65,2.3,1.46,2.3h17.79c.81,0,1.44-1.03,1.44-2.3s-.62-2.3-1.44-2.3Zm-186.43,0h-17.79c-.81,0-1.44,1.03-1.44,2.3s.62,2.3,1.44,2.3h17.79c.81,0,1.46-1.03,1.46-2.3s-.65-2.3-1.46-2.3Zm162.38-187.57c-3.82-3.82-8.12-7.69-12.92-11.7-4.28-3.57-8.96-7.26-14.06-11.02-18.23-13.51-36.18-24.24-43.55-28.52-2.03-1.16-3.25-1.87-3.47-1.98l-3.98-2.22-3.98,2.22c-.19.11-1.41.81-3.44,1.98-7.37,4.28-25.35,15-43.55,28.52-33.26,24.67-49.4,45.06-49.4,62.31h16.38c0-3.82,2.22-13.03,18.52-28.9,3.03-2.98,6.58-6.17,10.7-9.61,3.93-3.3,8.4-6.82,13.43-10.56,16.79-12.48,33.82-22.75,41.33-27.14,7.5,4.39,24.43,14.6,41.22,27.05,5.09,3.76,9.59,7.31,13.54,10.64,11.83,9.91,18.93,17.79,23.21,23.91,5.12,7.37,6.04,12.13,6.04,14.6h16.38c0-11.65-7.37-24.75-22.42-39.59Zm-158.67,154.5v16.6h16.57v-16.6h-16.57Zm0,20.69v16.6h16.57v-16.6h-16.57Zm161-133.27c-.19-1.11-.46-2.25-.84-3.39-.11-.43-.27-.89-.43-1.33-.16-.46-.32-.92-.51-1.38-.16-.41-.32-.81-.54-1.22-.08-.19-.16-.41-.27-.62-.19-.41-.38-.79-.57-1.16-2.6-5.15-6.61-10.56-12.08-16.28-.79-.84-1.62-1.71-2.49-2.55-4.17-4.17-9.1-8.45-14.73-12.92-2.14-1.68-4.36-3.39-6.69-5.12-18.33-13.62-36.4-23.7-37.16-24.13l-3.98-2.19-3.98,2.19c-.76.43-18.79,10.51-37.16,24.13-2.33,1.73-4.55,3.44-6.69,5.12-5.63,4.47-10.56,8.77-14.73,12.92-6.74,6.69-11.62,12.97-14.6,18.88-.19.38-.35.76-.54,1.11-.24.57-.49,1.11-.73,1.65-.24.65-.51,1.3-.73,1.95-.11.38-.24.76-.35,1.11-.32,1.06-.57,2.11-.76,3.14-.3,1.54-.43,3.06-.43,4.55h16.38c0-2.79,2.03-12.89,26.57-32.39,1.95-1.54,4.04-3.14,6.26-4.79,3.87-2.87,7.77-5.63,11.51-8.12,8.29-5.61,15.68-10.07,19.99-12.62,4.31,2.55,11.7,7.01,19.99,12.62,3.68,2.46,7.56,5.17,11.4,8.04,2.27,1.68,4.39,3.3,6.36,4.87,24.56,19.47,26.59,29.6,26.59,32.39l-.11,4.66-.11,103.45h-20.69v20.69h-4.09v-20.69h-16.6v20.69h-4.09v-20.69h-16.6v20.69h-4.09v-20.69h-16.6v20.69h-4.09v-20.69h-37.29v37.29h140.74v-145.65c-.03-1.38-.16-2.79-.43-4.22Zm-119.62,133.27h-4.09v-4.09h4.09v4.09Zm103.45,0h-4.09v-4.09h4.09v4.09Zm-167.31-131.1c-1.03,0-1.84.81-1.84,1.81s.81,1.81,1.84,1.81h18.42v-3.63h-18.42Zm206.01-.19h-18.42v3.63h18.42c1,0,1.81-.81,1.81-1.81s-.81-1.81-1.81-1.81Zm.54,138.89v1.68h-20.5v-1.68h1.68v-130.74h17.12v130.74h1.71Zm-186.43-.98v1.68h-20.5v-1.68h1.71v-129.76h17.09v129.76h1.71Z"/>
</svg>