<?xml version="1.0" encoding="UTF-8"?>
<svg id="Layer_3" data-name="Layer 3" xmlns="http://www.w3.org/2000/svg" viewBox="0 0 500 500">
  <defs>
    <style>
      .cls-1 {
        fill: #fcd146;
      }
    </style>
  </defs>
  <path class="cls-1" d="m136.24,155.34c.61-2.82,1.33-5.59,2.2-8.27.43-1.34.9-2.65,1.41-3.92.25-.64.52-1.26.8-1.86.28-.6.57-1.18.85-1.68.04-.07.07-.12.1-.18l.05-.09.03-.04.04-.06.28-.44c.19-.29.38-.59.57-.88.19-.29.39-.58.58-.87l.29-.43.29-.43c.2-.28.39-.57.59-.85.2-.28.4-.56.6-.84.4-.56.81-1.11,1.21-1.66,1.64-2.18,3.36-4.25,5.16-6.19,1.79-1.94,3.69-3.72,5.66-5.3.49-.41,1-.77,1.5-1.15.25-.19.51-.37.77-.55.26-.18.52-.36.78-.54.26-.17.53-.34.79-.51l.4-.26.2-.13.2-.12c.27-.16.54-.32.8-.49l.4-.24.41-.23c2.17-1.24,4.39-2.31,6.64-3.21,2.25-.9,4.53-1.62,6.8-2.15,2.27-.53,4.54-.85,6.76-.95.28,0,.55-.02.82-.03.27,0,.55,0,.82,0h.21s.21,0,.21,0l.41.02h.41s.41.04.41.04c.27.02.54.03.82.06.27.03.54.06.81.08.27.03.54.07.81.11.13.02.27.03.4.06l.4.07c.53.08,1.07.19,1.59.29.26.06.53.12.79.18.26.06.52.12.78.19.26.07.52.13.78.2.26.07.52.14.77.21.26.07.51.15.77.23l.38.12.38.12c4.04,1.31,7.8,3.09,11.31,4.97,3.51,1.89,6.78,3.89,9.85,5.84,1.54.98,3.05,1.94,4.53,2.86,1.48.92,2.93,1.79,4.35,2.61,2.85,1.63,5.59,3.03,8.23,4.11,2.64,1.08,5.17,1.84,7.53,2.22,1.18.18,2.31.28,3.38.27,1.07-.01,2.07-.12,2.99-.3.92-.19,1.74-.45,2.46-.77.72-.31,1.34-.67,1.87-1.02,1.04-.71,1.71-1.41,2.1-1.9.2-.24.33-.45.4-.6.07-.15.09-.24.06-.27s-.13-.02-.27.06c-.15.07-.34.2-.6.36-.51.33-1.25.83-2.29,1.31-.52.24-1.11.47-1.78.66-.67.19-1.41.34-2.23.42-.82.08-1.7.08-2.65,0-.95-.08-1.95-.25-3.01-.5-2.11-.51-4.4-1.37-6.82-2.54-2.42-1.17-4.98-2.64-7.66-4.36-1.34-.86-2.72-1.78-4.13-2.74-1.41-.97-2.87-1.99-4.38-3.03-3.04-2.1-6.3-4.27-9.89-6.36-3.59-2.08-7.51-4.08-11.89-5.64-.14-.05-.27-.1-.41-.15-.14-.05-.28-.09-.41-.14-.28-.09-.55-.19-.83-.28-.28-.09-.56-.17-.85-.26-.28-.09-.57-.16-.86-.24-.29-.08-.57-.16-.87-.23-.29-.07-.58-.15-.88-.22-.59-.13-1.18-.27-1.79-.38-.15-.03-.3-.06-.45-.09-.15-.03-.3-.05-.46-.08-.31-.05-.61-.1-.92-.14-.31-.04-.62-.08-.93-.12-.31-.04-.62-.06-.94-.09-.16-.01-.31-.03-.47-.04-.16,0-.32-.02-.47-.03-.16,0-.32-.02-.48-.03h-.24s-.24-.02-.24-.02c-.32,0-.64-.02-.96-.02-.32,0-.64,0-.97,0-2.57.06-5.14.37-7.7.91-2.56.54-5.1,1.3-7.6,2.24-2.5.95-4.97,2.08-7.37,3.41l-.45.25-.45.26c-.3.17-.6.35-.9.52l-.22.13-.22.14-.44.28c-.29.18-.59.37-.88.56-.29.19-.58.39-.87.58-.29.2-.58.39-.87.6-.57.42-1.16.83-1.71,1.28-2.25,1.75-4.36,3.69-6.33,5.77-1.98,2.08-3.85,4.28-5.62,6.58-.44.58-.88,1.16-1.31,1.75-.21.29-.43.59-.64.88-.21.3-.42.6-.63.9l-.32.45-.31.45c-.21.3-.41.61-.62.91-.2.31-.4.61-.61.92l-.3.46-.04.06-.04.07-.09.14c-.06.1-.12.19-.17.28-.43.74-.79,1.45-1.12,2.16-.33.71-.64,1.41-.93,2.12-.58,1.42-1.1,2.85-1.58,4.29-1.9,5.77-3.19,11.79-3.98,17.96-.77,6.17-1.01,12.51-.65,18.89.19,3.19.51,6.36.98,9.48.23,1.56.51,3.11.81,4.65.32,1.54.64,3.06,1.03,4.57,1.49,6.05,3.54,11.86,6.03,17.35.3.69.63,1.37.95,2.04.32.68.66,1.34.99,2.01.33.67.69,1.32,1.03,1.98.34.63.67,1.27,1,1.9,1.31,2.49,2.56,4.99,3.7,7.51.14.31.29.63.43.94.14.32.28.63.42.94.27.63.56,1.25.82,1.89.26.63.53,1.26.79,1.89.25.63.5,1.26.76,1.89.99,2.52,1.91,5.03,2.76,7.54,3.39,10.03,5.62,19.89,7.16,29.22,1.54,9.34,2.39,18.15,2.96,26.22.56,8.07.85,15.41,1.16,21.88.3,6.46.63,12.05,1.1,16.61.23,2.28.5,4.3.79,6.05.29,1.75.6,3.22.89,4.39.6,2.35,1.13,3.53,1.32,3.48.21-.05.08-1.31-.14-3.68-.1-1.19-.22-2.65-.32-4.39-.1-1.74-.18-3.74-.23-6-.11-4.52-.1-10.07-.08-16.54.01-6.46.01-13.85-.29-22.03-.3-8.18-.92-17.16-2.28-26.74-.35-2.39-.73-4.83-1.17-7.29-.45-2.46-.94-4.96-1.5-7.49-.56-2.52-1.18-5.07-1.87-7.65-.7-2.57-1.46-5.16-2.29-7.77-.84-2.6-1.76-5.22-2.75-7.84-.25-.65-.51-1.31-.76-1.97-.27-.65-.53-1.31-.8-1.97-.26-.66-.55-1.31-.83-1.97-.14-.33-.28-.66-.42-.99-.14-.33-.29-.65-.44-.98-1.16-2.62-2.42-5.24-3.77-7.84-.33-.64-.67-1.29-1-1.93-.32-.62-.65-1.24-.96-1.88-.31-.63-.63-1.26-.92-1.91-.3-.64-.6-1.28-.88-1.93-2.31-5.19-4.21-10.68-5.6-16.38-.36-1.42-.66-2.86-.95-4.31-.28-1.45-.54-2.91-.75-4.38-.44-2.94-.74-5.92-.92-8.93-.34-6.02-.13-11.99.58-17.82.36-2.91.84-5.79,1.44-8.61Z"/>
  <path class="cls-1" d="m370.02,156.33c-.58-2.99-1.29-5.95-2.15-8.85-.43-1.45-.9-2.89-1.42-4.32-.52-1.43-1.08-2.84-1.73-4.26-.33-.71-.68-1.41-1.11-2.16-.1-.18-.23-.38-.35-.57l-.3-.47c-.2-.31-.4-.62-.6-.92-.82-1.22-1.65-2.43-2.51-3.61-.86-1.19-1.75-2.34-2.65-3.48-.92-1.13-1.85-2.25-2.82-3.33-.24-.27-.48-.54-.73-.81-.25-.26-.5-.53-.75-.79l-.37-.4-.38-.39c-.26-.26-.51-.51-.76-.77-.26-.26-.52-.5-.78-.75l-.39-.37-.2-.19-.2-.18c-.54-.48-1.07-.98-1.63-1.44-.28-.23-.55-.47-.83-.7-.29-.22-.57-.45-.85-.67l-.43-.34c-.14-.11-.29-.22-.44-.32-.29-.21-.59-.43-.88-.64-.15-.11-.29-.21-.44-.31l-.44-.3c-.3-.2-.59-.4-.89-.59-.3-.19-.6-.38-.9-.57l-.45-.28c-.15-.09-.3-.18-.46-.27-2.43-1.45-4.93-2.7-7.48-3.76-2.55-1.06-5.15-1.93-7.79-2.57-2.64-.64-5.32-1.06-8-1.2l-.5-.03c-.17,0-.33-.02-.5-.02-.34,0-.68,0-1.01-.01-.67.01-1.34.02-2.01.07l-.5.03-.49.05-.49.05-.25.02-.24.03c-.33.04-.65.08-.98.12-.32.05-.64.1-.97.15-1.28.22-2.54.49-3.76.81-1.23.33-2.42.69-3.59,1.09-1.17.4-2.31.85-3.43,1.31-1.11.47-2.2.96-3.26,1.47-4.25,2.05-8.1,4.39-11.7,6.73-.9.59-1.78,1.18-2.65,1.76-.92.62-1.77,1.26-2.6,1.89-1.65,1.27-3.19,2.53-4.7,3.76-3.01,2.47-5.84,4.81-8.56,6.99-2.71,2.17-5.29,4.17-7.76,5.97-2.46,1.8-4.8,3.39-7,4.75-1.1.68-2.17,1.3-3.21,1.86-1.03.56-2.03,1.05-2.99,1.47-.96.42-1.88.78-2.75,1.06-.87.28-1.7.49-2.48.62-.77.13-1.49.2-2.15.18-.65-.01-1.24-.07-1.75-.2-1.03-.23-1.77-.61-2.26-.89-.06-.03-.12-.06-.18-.09-.05-.03-.1-.06-.15-.09-.09-.06-.18-.1-.25-.13-.14-.06-.23-.08-.27-.05s-.02.12.05.26c.04.07.09.15.15.25.03.05.07.1.11.16.04.05.09.1.14.16.05.06.11.12.17.18.03.03.06.06.09.1.03.03.07.07.1.1.15.12.31.26.49.41.1.06.2.13.3.2.05.03.11.07.16.11.03.02.06.04.08.05.03.02.06.03.09.05.12.06.25.13.37.19.13.07.27.13.41.18.57.25,1.24.42,1.99.54.75.12,1.58.15,2.47.09.89-.05,1.83-.18,2.81-.4.98-.22,2.01-.51,3.07-.88,1.06-.37,2.16-.81,3.29-1.31,1.13-.51,2.29-1.08,3.48-1.71,2.38-1.26,4.88-2.77,7.49-4.47,2.61-1.71,5.33-3.62,8.17-5.7,2.84-2.08,5.78-4.34,8.86-6.69,1.54-1.17,3.11-2.37,4.72-3.53.8-.58,1.62-1.15,2.43-1.66.87-.55,1.75-1.1,2.64-1.65,3.56-2.18,7.32-4.32,11.34-6.14,1-.45,2.02-.89,3.06-1.29,1.04-.4,2.09-.78,3.15-1.13,1.07-.34,2.15-.65,3.24-.92,1.1-.26,2.2-.48,3.32-.65.28-.04.56-.08.84-.12.28-.03.56-.06.84-.09l.21-.02.21-.02.42-.03.42-.03.42-.02c.57-.03,1.13-.03,1.7-.03.28,0,.57.02.85.03.14,0,.29.02.43.03l.43.03c2.31.16,4.65.56,6.99,1.17,2.34.6,4.67,1.41,6.95,2.4,2.29.99,4.54,2.15,6.71,3.48.14.08.27.16.41.25l.4.26c.27.17.54.35.81.52.27.18.53.36.79.54l.4.27c.13.09.26.18.39.28.25.19.51.38.76.57.13.1.26.19.38.29l.37.3c.25.2.5.4.75.6.24.21.49.42.73.63.5.41.97.86,1.45,1.3l.18.17.18.17.35.34c.23.23.47.45.71.69.23.24.46.47.69.71l.35.36.34.37c.23.24.45.49.68.73.23.25.44.5.67.75.89,1,1.75,2.05,2.6,3.11.84,1.07,1.67,2.16,2.47,3.28.81,1.11,1.58,2.26,2.36,3.42.19.29.38.58.57.88l.28.43c.07.11.14.22.21.35.29.5.58,1.09.85,1.69.55,1.2,1.06,2.48,1.53,3.79.47,1.3.9,2.64,1.3,3.99.8,2.7,1.46,5.48,2.01,8.3,1.09,5.64,1.67,11.31,1.78,16.91.03,1.4.02,2.79,0,4.18-.02.69-.03,1.39-.07,2.08-.02.35-.03.69-.05,1.04-.02.34-.04.69-.06,1.03-.17,2.75-.46,5.47-.86,8.15-.79,5.36-2.02,10.56-3.62,15.52-1.6,4.97-3.57,9.7-5.81,14.16-.58,1.13-1.16,2.26-1.73,3.38-.29.57-.58,1.14-.87,1.71-.14.28-.29.57-.43.85-.14.28-.29.56-.42.85-.55,1.14-1.09,2.27-1.63,3.4-.14.28-.27.56-.4.84-.14.28-.26.57-.39.85-.25.57-.51,1.13-.76,1.69-.5,1.12-1.02,2.23-1.47,3.36-.47,1.12-.94,2.23-1.39,3.34-.43,1.12-.86,2.22-1.28,3.32-.11.27-.21.55-.32.82-.1.28-.2.55-.29.83-.2.55-.39,1.1-.58,1.65-1.53,4.38-2.83,8.67-3.85,12.86-1.02,4.19-1.78,8.27-2.31,12.18-.54,3.91-.84,7.66-1,11.2-.16,3.54-.16,6.87-.11,9.97.05,3.1.14,5.97.2,8.6.02.66.03,1.3.04,1.93.01.63.02,1.24.03,1.84.01.6,0,1.18.01,1.75,0,.28,0,.56,0,.84,0,.28,0,.55,0,.82,0,.54-.01,1.06-.02,1.57-.02.51-.03,1-.05,1.47-.02.95-.08,1.84-.12,2.66-.1,1.65-.22,3.05-.33,4.17-.09,1.13-.2,1.99-.23,2.59-.03.59,0,.91.11.93.1.02.26-.24.49-.8.22-.55.53-1.39.81-2.51.31-1.12.62-2.52.91-4.18.13-.83.29-1.74.4-2.7.06-.48.12-.98.19-1.5.05-.52.1-1.05.15-1.59.03-.27.05-.55.08-.83.02-.28.04-.57.06-.85.04-.58.09-1.17.12-1.77.03-.61.07-1.23.1-1.86.03-.63.06-1.28.08-1.95.11-2.65.18-5.52.29-8.58.11-3.07.27-6.33.56-9.76.3-3.44.73-7.05,1.38-10.8.65-3.76,1.5-7.66,2.6-11.67,1.1-4.01,2.46-8.13,4.04-12.33.2-.52.4-1.05.6-1.58.1-.26.2-.53.3-.8.11-.26.22-.53.33-.79.43-1.06.87-2.12,1.31-3.2.47-1.06.94-2.13,1.42-3.21.46-1.08.99-2.16,1.5-3.24.26-.54.51-1.09.77-1.63.13-.27.25-.55.39-.82.14-.27.27-.54.41-.81.55-1.09,1.1-2.18,1.65-3.29.14-.28.28-.55.43-.82.15-.27.29-.55.44-.82.29-.55.58-1.1.88-1.65.6-1.13,1.2-2.26,1.81-3.4,2.44-4.67,4.59-9.65,6.34-14.89,1.75-5.24,3.11-10.74,3.98-16.42,1.76-11.36,1.64-23.42-.66-35.4Z"/>
  <path class="cls-1" d="m335.88,342.48v-.14s-.03-.14-.03-.14c-.01-.09-.03-.19-.04-.28-.06-.37-.11-.74-.18-1.11-.15-.74-.34-1.44-.56-2.11-.22-.67-.48-1.3-.76-1.9-.28-.6-.59-1.16-.91-1.68-1.29-2.1-2.86-3.61-4.33-4.53-.73-.47-1.43-.79-2.05-1.01-.62-.22-1.17-.34-1.61-.39-.22-.03-.42-.03-.59-.03-.09,0-.16,0-.24,0-.07,0-.14.02-.2.03-.24.05-.36.12-.38.22-.02.1.06.22.24.37.04.04.09.07.15.11.05.04.11.08.18.13.13.08.28.18.45.29.67.43,1.62,1.06,2.62,2.08,1,1.01,2.03,2.43,2.82,4.27.2.46.38.94.54,1.45.16.51.3,1.04.41,1.59.11.55.2,1.12.25,1.7.03.29.04.59.05.9,0,.08,0,.15.01.23v.12s0,.12,0,.12c0,.16,0,.31,0,.47,0,1.27-.13,2.6-.37,4-.24,1.4-.6,2.85-1.03,4.37-.43,1.51-.96,3.08-1.52,4.73-.57,1.65-1.15,3.35-1.75,5.09-2.41,6.97-5.12,14.61-8.07,22.59-.18.5-.37,1-.55,1.49-.09.25-.18.49-.27.74-.09.23-.17.45-.25.65-.16.4-.33.74-.48.98-.15.24-.28.39-.35.44-.03.03-.06.04-.08.06,0,0,0,.01-.02,0,0,0,0,0-.01,0,0,0-.01,0-.02,0-.05.02-.17.02-.34,0-.17-.03-.38-.1-.57-.21-.1-.05-.19-.12-.29-.18-.05-.03-.08-.07-.13-.11-.05-.05-.1-.09-.15-.14-.21-.2-.41-.45-.62-.74-.2-.3-.41-.63-.61-1-.2-.37-.41-.78-.62-1.21-.22-.44-.43-.88-.64-1.31-.86-1.74-1.7-3.44-2.53-5.1-.83-1.66-1.64-3.27-2.43-4.84-.79-1.57-1.57-3.08-2.28-4.52-.71-1.45-1.37-2.84-1.94-4.18-.57-1.35-1.05-2.65-1.44-3.9-.05-.16-.1-.31-.14-.47-.05-.16-.09-.31-.13-.46-.04-.15-.08-.31-.13-.46-.04-.15-.07-.3-.11-.45-.04-.15-.07-.3-.11-.45-.04-.15-.06-.3-.09-.45-.06-.29-.13-.6-.16-.84-.16-1-.11-1.87.15-2.68.25-.81.72-1.55,1.24-2.23.52-.68,1.1-1.29,1.62-1.85.53-.56,1.02-1.06,1.43-1.51.41-.45.75-.85,1.01-1.19.52-.69.71-1.13.57-1.28-.14-.15-.59-.01-1.34.36,0,0,0,0-.01,0-.34.1-.74.2-1.22.3-.21.04-.42.09-.66.13-.23.04-.48.07-.73.12-.26.04-.53.06-.8.1-.14.01-.28.02-.43.04-.15.01-.29.03-.45.03-.15,0-.31.01-.46.02-.16,0-.32,0-.48,0-.32,0-.66,0-1.01-.02-.69-.04-1.42-.11-2.19-.25-1.53-.26-3.18-.77-4.84-1.61-1.65-.85-3.3-2.03-4.75-3.61-.72-.79-1.39-1.67-1.97-2.64-.15-.26-.3-.52-.45-.78-.17-.29-.33-.59-.52-.87-.18-.29-.36-.58-.55-.87-.19-.29-.38-.58-.59-.87-.81-1.16-1.71-2.3-2.72-3.41-1-1.11-2.12-2.17-3.33-3.19-1.21-1.02-2.52-1.96-3.92-2.83-.7-.43-1.42-.85-2.17-1.24-.74-.4-1.51-.77-2.29-1.12-3.14-1.4-6.58-2.42-10.19-3.05-3.61-.63-7.4-.86-11.28-.71-3.87.15-7.83.67-11.81,1.57-.99.22-1.99.47-2.98.74-.5.13-.99.28-1.49.42-.25.08-.5.15-.75.23-.25.07-.5.16-.75.24-2.01.65-4,1.42-5.97,2.31-1.96.89-3.9,1.91-5.78,3.05-.48.28-.94.58-1.41.87-.24.15-.46.3-.69.46-.23.15-.46.31-.69.46-.91.64-1.82,1.29-2.7,1.98-1.77,1.38-3.48,2.87-5.1,4.48-.2.2-.4.4-.61.61-.2.2-.4.41-.59.62-.4.41-.78.84-1.17,1.27-.2.21-.38.43-.57.65-.19.22-.38.44-.57.66-.18.22-.37.45-.55.67-.18.22-.37.45-.54.68-.18.23-.36.46-.54.69-.18.23-.35.47-.52.7-.17.24-.35.47-.52.71-.17.24-.34.48-.5.72-.17.24-.33.48-.49.73-.16.24-.32.49-.49.73-.16.25-.31.5-.47.74-.16.25-.31.5-.46.75-.15.25-.3.51-.45.76-.15.25-.29.51-.44.77-.14.26-.29.51-.43.77-.14.26-.28.52-.42.78-.28.52-.54,1.06-.81,1.6-.26.55-.51,1.11-.76,1.7-.27.67-.53,1.36-.74,2.2-.03.11-.05.21-.08.33l-.04.18-.04.23c-.05.31-.08.62-.09.94-.01.53.06,1.07.22,1.57-.25.24-.48.49-.71.73-.87.97-1.57,1.98-2.16,2.99-.6,1.01-1.1,2.01-1.56,3-.46.99-.88,1.96-1.28,2.91-.1.24-.2.48-.3.71l-.15.35-.07.18-.08.2c-.1.27-.2.53-.31.8-.1.27-.18.53-.27.8l-.13.4c-.04.13-.08.26-.12.39-.08.26-.15.52-.23.79-.13.52-.28,1.04-.39,1.54-.49,2.04-.85,3.96-1.28,5.76-.06.22-.11.44-.17.66l-.09.33-.09.32c-.06.21-.12.42-.18.64-.07.2-.14.41-.2.61-.03.1-.07.21-.1.31l-.11.29c-.08.19-.15.39-.23.59-.17.37-.32.76-.51,1.1l-.14.27-.07.13-.03.07-.03.05c-.08.15-.17.29-.26.43-.18.27-.38.51-.56.7-.19.19-.36.32-.49.4-.02,0-.03.02-.05.03-.01,0-.03,0-.04.02-.01,0-.03.02-.03.02,0,0-.02,0-.03,0-.01.01-.02,0-.03.01-.01.01-.02,0-.04,0,0,0,0,0,0,0,0,0,0,0,0,0,0,0-.01,0-.02,0,0,0-.01,0-.02,0,0,0-.01,0-.02,0-.01,0-.03,0-.04,0,0,0-.03,0-.05-.02-.09-.03-.25-.12-.44-.28-.19-.17-.41-.4-.63-.67-.11-.14-.23-.29-.34-.44l-.18-.24-.18-.26c-.98-1.4-1.87-2.81-2.61-4.24-.74-1.42-1.33-2.86-1.73-4.28-.39-1.42-.57-2.83-.51-4.17.06-1.35.37-2.6.91-3.86.53-1.25,1.25-2.48,2.03-3.69.39-.61.8-1.21,1.21-1.82.41-.61.82-1.21,1.22-1.8,3.22-4.76,6.11-9.07,8.62-12.87.63-.95,1.23-1.87,1.81-2.75.58-.88,1.15-1.75,1.67-2.61.52-.86,1-1.71,1.41-2.55.41-.84.76-1.68,1.02-2.49.27-.81.46-1.62.56-2.38.11-.76.14-1.48.12-2.15-.03-.67-.11-1.28-.23-1.82-.13-.55-.28-1.03-.46-1.45-.35-.84-.76-1.4-1.07-1.74-.07-.09-.15-.15-.22-.21-.07-.06-.13-.1-.18-.13-.1-.06-.17-.08-.22-.05s-.05.11-.03.22c0,.06.03.13.05.21.02.08.06.17.08.27.13.41.32.99.45,1.77.07.39.11.83.14,1.31.02.48,0,1.01-.06,1.58-.06.57-.18,1.17-.35,1.8-.17.63-.41,1.28-.72,1.96-.31.68-.68,1.38-1.12,2.1-.44.72-.95,1.45-1.51,2.22-.56.76-1.17,1.56-1.82,2.4-.64.84-1.31,1.71-2.01,2.62-2.77,3.62-5.89,7.76-9.33,12.36-.43.58-.86,1.16-1.3,1.75-.44.59-.89,1.2-1.34,1.84-.9,1.27-1.82,2.67-2.58,4.28-.38.8-.71,1.66-.96,2.58-.25.91-.43,1.86-.5,2.81-.16,1.91.04,3.85.48,5.7.45,1.85,1.13,3.63,1.95,5.33.82,1.7,1.78,3.33,2.83,4.9l.2.3.21.31c.15.21.3.43.47.65.34.44.73.89,1.21,1.34.48.45,1.09.89,1.85,1.23.18.09.38.15.6.23.21.07.42.12.63.16.11.02.22.03.32.05.11.02.22.03.33.03.11,0,.22.01.33.01h.16c.05,0,.11,0,.16,0,.22-.02.44-.03.65-.07.22-.04.43-.08.64-.14.11-.03.21-.06.31-.09.1-.03.19-.07.29-.11l.28-.12c.09-.04.18-.09.26-.13.7-.37,1.27-.81,1.75-1.28.48-.47.89-.96,1.25-1.47.18-.25.34-.51.5-.77l.06-.1.05-.09.1-.18.2-.36c.28-.48.49-.98.72-1.48.11-.25.2-.5.31-.75l.15-.38c.05-.13.09-.25.14-.38.09-.25.18-.5.27-.76.08-.25.16-.5.23-.75l.12-.38.1-.37c.07-.25.14-.5.21-.75.52-1.99.92-3.94,1.39-5.77.11-.47.24-.91.37-1.36.07-.22.14-.44.2-.66.03-.11.07-.22.1-.33l.11-.32c.08-.21.14-.43.23-.63.08-.2.16-.41.25-.61l.06-.15.07-.17.15-.35c.1-.23.2-.46.3-.69.8-1.83,1.6-3.63,2.54-5.17.47-.77.97-1.47,1.51-2.06.04-.04.08-.09.13-.13.08.03.16.05.24.08.5.15,1.03.2,1.57.19.53-.02,1.07-.11,1.61-.22.54-.13,1.08-.25,1.63-.38.24-.05.48-.1.72-.15.12-.02.24-.04.35-.07l.4-.07.45-.08.13-.03.07-.02.08-.02c.12-.03.26-.06.39-.1.13-.04.26-.08.37-.13l.24-.09.34-.13.34-.13.06-.02.14-.06c.09-.03.22-.09.33-.15.05-.03.14-.08.21-.12.07-.04.14-.08.24-.15.1-.07.17-.12.28-.22.12-.1.21-.2.33-.33.13-.16.24-.3.36-.5.13-.23.22-.43.31-.72.08-.28.12-.57.12-.87,0-.31-.04-.55-.11-.81-.07-.25-.14-.42-.24-.62-.08-.15-.17-.3-.26-.43-.08-.1-.16-.21-.24-.3-.07-.07-.14-.15-.21-.21-.26-.24-.47-.37-.65-.49-.08-.05-.18-.1-.25-.14l-.12-.06-.11-.05c-.29-.13-.54-.22-.79-.29-.25-.07-.49-.12-.74-.16-.12-.02-.25-.04-.38-.05-.06,0-.13-.01-.2-.02h-.09s-.06,0-.06,0h-.47c-.16-.02-.31-.03-.47-.02h-.47c-.31,0-.64.04-.96.05-.16,0-.32.03-.48.05l-.49.06c-.16.02-.33.05-.49.08-.15.03-.3.05-.45.08.37-.89.81-1.82,1.3-2.73.12-.23.25-.47.37-.7.12-.23.26-.46.38-.69.13-.23.25-.46.39-.69.13-.23.27-.45.4-.68.13-.23.27-.45.41-.67.14-.22.28-.45.42-.67.14-.22.29-.44.43-.66.14-.22.29-.44.44-.65.15-.21.3-.43.45-.64.15-.22.31-.42.46-.63.16-.21.31-.42.47-.63.16-.21.32-.41.48-.62.16-.21.32-.41.48-.61.16-.2.33-.4.49-.6.17-.2.34-.39.5-.59.17-.2.33-.39.51-.59.34-.38.68-.77,1.04-1.14.18-.19.35-.38.53-.56.18-.18.36-.37.54-.55,1.44-1.46,2.97-2.8,4.55-4.06.79-.63,1.6-1.22,2.41-1.8.21-.14.41-.28.62-.42.21-.14.41-.28.62-.42.42-.27.83-.55,1.26-.8,1.68-1.04,3.41-1.98,5.17-2.81,1.76-.83,3.54-1.54,5.34-2.16.23-.08.45-.16.68-.23.23-.07.46-.15.68-.22.46-.14.91-.28,1.37-.41.91-.27,1.82-.51,2.74-.74,7.29-1.79,14.53-2.25,21.06-1.33,3.26.46,6.35,1.27,9.16,2.4.7.28,1.39.58,2.06.91.67.32,1.32.66,1.95,1.02,1.26.72,2.45,1.49,3.55,2.33,1.1.84,2.12,1.73,3.06,2.66.94.93,1.79,1.9,2.57,2.89.2.24.38.5.57.75.19.25.36.5.54.75.18.25.34.51.51.76.19.28.37.56.55.83.78,1.14,1.66,2.15,2.59,3.04,1.86,1.78,3.93,3.03,5.94,3.86,2.02.82,3.98,1.22,5.74,1.33.88.06,1.71.05,2.49,0,.39-.04.76-.07,1.12-.13.18-.03.36-.05.53-.08.17-.03.34-.06.5-.1-.42.31-.86.65-1.3,1.05-.39.36-.79.76-1.17,1.23-.38.47-.75,1.02-1.06,1.64-.31.62-.55,1.32-.69,2.05-.15.73-.2,1.5-.17,2.26.01.4.05.72.08,1.07.02.17.03.35.05.52.02.17.05.35.07.53.02.18.04.36.07.53.03.18.06.36.09.54.03.18.06.36.09.54.04.18.07.36.11.54.3,1.46.71,2.96,1.22,4.48.5,1.52,1.1,3.06,1.74,4.61.65,1.56,1.34,3.12,2.05,4.73.71,1.61,1.45,3.26,2.2,4.95.76,1.69,1.54,3.42,2.35,5.19.2.44.4.89.61,1.33.21.45.43.93.69,1.44.26.5.55,1.03.9,1.56.35.53.77,1.08,1.27,1.59.12.13.26.25.39.38.14.13.3.26.45.38.31.24.63.47.98.66.68.4,1.43.71,2.27.89.83.18,1.76.23,2.73.04.12-.02.24-.05.36-.08.12-.03.24-.07.36-.11.24-.07.47-.18.7-.28.45-.22.87-.48,1.24-.77.19-.15.36-.3.52-.46.08-.08.15-.16.23-.24.07-.08.15-.16.22-.24l.2-.25c.07-.08.12-.16.18-.25.12-.17.22-.33.33-.49.4-.65.69-1.27.93-1.84.12-.29.23-.57.33-.83.09-.25.19-.5.28-.75.19-.5.37-1,.56-1.51,2.97-8.06,5.55-15.84,7.7-22.96.54-1.78,1.05-3.52,1.53-5.22.49-1.71.94-3.4,1.31-5.08.37-1.68.65-3.35.8-4.99.15-1.64.16-3.24.02-4.78-.02-.19-.04-.38-.06-.57Zm-130.04,20.09s0,.01,0,0h0Z"/>
  <path class="cls-1" d="m171.82,352.68c.05-.04.11-.08.17-.13.06-.05.12-.09.18-.15.12-.1.25-.22.38-.35.14-.13.28-.26.42-.41.29-.3.62-.63.97-1,.72-.74,1.57-1.63,2.52-2.62.96-1.01,2.05-2.14,3.15-3.46,1.1-1.31,2.11-2.7,2.87-4.12.77-1.42,1.26-2.89,1.42-4.18.02-.16.03-.32.04-.48,0-.08.01-.15.02-.23,0-.07,0-.15,0-.22,0-.15,0-.29-.01-.43,0-.07,0-.14-.01-.2,0-.07,0-.13-.02-.2-.04-.26-.08-.5-.12-.71-.06-.22-.13-.41-.19-.58-.03-.09-.07-.17-.1-.24-.04-.07-.08-.14-.12-.21-.08-.13-.17-.23-.25-.31-.17-.16-.34-.23-.51-.22s-.33.11-.49.28c-.08.08-.15.18-.22.29-.04.06-.07.11-.11.17-.04.06-.08.13-.12.19-.08.13-.16.28-.23.44-.09.16-.18.32-.26.49-.02.04-.04.09-.07.13-.02.04-.05.09-.08.13-.05.09-.1.18-.15.28-.02.05-.05.09-.08.14-.03.05-.06.1-.09.15-.06.1-.11.2-.17.3-.06.1-.13.2-.19.31-.07.1-.12.21-.2.32-.07.11-.14.22-.22.33-.03.06-.07.11-.11.17-.04.06-.08.11-.12.17-.15.23-.33.46-.51.71-.09.12-.19.24-.28.37-.05.06-.09.13-.14.19-.05.06-.1.13-.15.19-.8,1.02-1.77,2.15-2.82,3.4-1.05,1.25-2.06,2.52-2.91,3.78-.85,1.26-1.53,2.51-1.95,3.66-.21.57-.36,1.11-.46,1.59-.04.24-.08.47-.1.68-.01.22-.02.42,0,.6,0,.09,0,.18.02.26.01.08.03.16.04.23.03.14.07.27.12.37.1.21.23.34.39.39.16.05.35.02.55-.08.1-.05.21-.11.32-.19Z"/>
  <path class="cls-1" d="m281.94,350.68c-.14-.45-.34-.92-.61-1.4-.27-.48-.62-.95-1.01-1.39-.39-.44-.83-.83-1.25-1.16-.86-.67-1.59-1.08-2.25-1.43-.67-.34-1.29-.62-1.88-.83-1.17-.41-2.22-.54-2.86-.02-.32.26-.49.66-.52,1.18-.01.26.01.54.08.84.07.3.17.63.32.97.3.68.78,1.42,1.4,2.12.62.7,1.38,1.34,2.04,1.85.66.51,1.12.85,1.59,1.21.23.18.46.37.7.55.23.19.47.38.7.56.12.09.24.18.35.26.12.08.23.16.35.24.23.15.46.27.68.37.44.19.88.25,1.27.12.39-.13.7-.44.91-.91.1-.24.18-.51.22-.83.02-.16.03-.32.04-.5,0-.18,0-.36-.02-.55-.03-.39-.12-.81-.25-1.26Z"/>
</svg>