<?xml version="1.0" encoding="UTF-8"?>
<svg id="Layer_3" data-name="Layer 3" xmlns="http://www.w3.org/2000/svg" viewBox="0 0 500 500">
  <defs>
    <style>
      .cls-1 {
        fill: #fcd146;
      }
    </style>
  </defs>
  <path class="cls-1" d="m185.42,210.22v13.45h13.46v-13.45h-13.46Zm25.76,0v13.45h13.45v-13.45h-13.45Zm128.8,0v13.45h13.45v-13.45h-13.45Zm-154.56,25.76v13.46h13.46v-13.46h-13.46Zm-77.28,25.76v13.45h13.45v-13.45h-13.45Zm128.8-77.28v74.31c0,1.64-1.33,2.97-2.97,2.97h-6.37c-1.64,0-2.97-1.33-2.97-2.97v-22.79h-13.45v22.79c0,1.64-1.33,2.97-2.97,2.97h-32.12c-1.64,0-2.97-1.33-2.97-2.97v-74.31h-13.45v74.31c0,1.64-1.33,2.97-2.97,2.97h-6.37c-1.64,0-2.97-1.33-2.97-2.97v-74.31h-13.45v90.73h116.49v-90.73h-13.45Zm25.76,0v90.73h13.46v-90.73h-13.46Zm51.52,0v90.73h13.45v-90.73h-13.45Zm77.28,51.52v22.79c0,1.64-1.33,2.97-2.97,2.97h-6.36c-1.65,0-2.97-1.33-2.97-2.97v-74.31h-13.46v90.73h39.21v-39.21h-13.45Zm-292.68,51.52c-1.64,0-2.97-1.33-2.97-2.97v-32.13c0-1.64,1.33-2.97,2.97-2.97h22.78v-39.21h-39.21v13.45h22.79c1.64,0,2.97,1.33,2.97,2.97v6.37c0,1.64-1.33,2.97-2.97,2.97h-22.79v64.97h168.01v-13.45H98.81Zm189.64-77.28v74.31c0,1.64-1.33,2.97-2.97,2.97h-22.79v13.45h39.21v-90.73h-13.45Zm51.52,25.76v48.55c0,1.64-1.33,2.97-2.97,2.97h-22.79v13.45h39.21v-64.97h-13.45Zm51.52,51.52v13.45h13.45v-13.45h-13.45Z"/>
  <rect class="cls-1" x="105.18" y="258.76" width="19.39" height="19.39"/>
  <rect class="cls-1" x="182.45" y="207.25" width="19.4" height="19.39"/>
  <rect class="cls-1" x="182.45" y="233" width="19.4" height="19.39"/>
  <rect class="cls-1" x="208.21" y="207.25" width="19.39" height="19.39"/>
  <polygon class="cls-1" points="253.37 278.15 130.94 278.15 130.94 181.49 150.33 181.49 150.33 258.76 156.7 258.76 156.7 181.49 176.09 181.49 176.09 258.76 208.21 258.76 208.21 233 227.61 233 227.61 258.76 233.97 258.76 233.97 181.49 253.37 181.49 253.37 278.15"/>
  <polygon class="cls-1" points="253.37 303.91 79.42 303.91 79.42 233 105.18 233 105.18 226.64 79.42 226.64 79.42 207.25 124.57 207.25 124.57 252.4 98.81 252.4 98.81 284.52 253.37 284.52 253.37 303.91"/>
  <rect class="cls-1" x="259.73" y="181.49" width="19.4" height="96.66"/>
  <polygon class="cls-1" points="304.88 303.91 259.73 303.91 259.73 284.52 285.49 284.52 285.49 207.25 304.88 207.25 304.88 303.91"/>
  <rect class="cls-1" x="311.25" y="181.49" width="19.39" height="96.66"/>
  <rect class="cls-1" x="337.01" y="207.25" width="19.39" height="19.39"/>
  <polygon class="cls-1" points="356.4 303.91 311.25 303.91 311.25 284.52 337.01 284.52 337.01 233 356.4 233 356.4 303.91"/>
  <polygon class="cls-1" points="407.91 278.15 362.76 278.15 362.76 181.49 382.16 181.49 382.16 258.76 388.53 258.76 388.53 233 407.91 233 407.91 278.15"/>
  <rect class="cls-1" x="388.53" y="284.52" width="19.39" height="19.39"/>
  <path class="cls-1" d="m426.94,289.78c0,1.09-.19,2.17-.56,3.18.37,1.02.56,2.1.56,3.18v19.39c0,5.15-4.18,9.33-9.33,9.33h-19.39c-2.83,0-5.47-1.26-7.24-3.46-.02-.02-6.36-8.23-6.36-8.23-.37-.4-.7-.84-1-1.3-.02-.03-.04-.05-.05-.08-.92-1.48-1.41-3.18-1.41-4.91v-7.78h-6.73v16.43c0,5.15-4.18,9.33-9.33,9.33h-45.15c-1.09,0-2.17-.19-3.18-.56-1.02.37-2.1.56-3.18.56h-45.15c-1.09,0-2.16-.19-3.18-.56-1.02.37-2.09.56-3.18.56H89.12c-2.65,0-5.17-1.13-6.94-3.1-.05-.06-.1-.11-.15-.18-.23-.26-.41-.5-.58-.74,0,0-6.36-8.17-6.42-8.24l2.32-1.86c.06.07.11.14.17.21l6.32,8.13c.15.22.31.41.47.61v.02h.02c1.16,1.33,2.87,2.18,4.79,2.18h173.94c1.16,0,2.25-.31,3.18-.86.94.54,2.02.86,3.18.86h45.15c1.16,0,2.25-.31,3.18-.86.94.55,2.02.86,3.18.86h45.15c3.51,0,6.36-2.84,6.36-6.36v-19.4h12.68v10.75c0,1.23.36,2.37.96,3.35h0c.23.37.49.72.79,1.02l6.39,8.28c1.17,1.44,2.95,2.36,4.94,2.36h19.39c3.51,0,6.36-2.84,6.36-6.36v-19.39c0-1.16-.32-2.25-.86-3.18.54-.94.86-2.03.86-3.19v-45.15c0-1.6-.59-3.05-1.57-4.17h0l-6.13-7.82c-.25-.41-.55-.8-.89-1.15-1.15-1.16-2.75-1.87-4.51-1.87h-12.67v-36.5c0-1.45-.48-2.77-1.3-3.84h0s-6.52-8.38-6.52-8.38c-.14-.21-.3-.41-.47-.6l-.05-.08h0c-1.17-1.3-2.86-2.12-4.74-2.12h-19.4c-3.51,0-6.36,2.84-6.36,6.36v19.4h-12.68v-10.75c0-1.55-.56-2.97-1.48-4.08l-6.67-8.59c-.58-.71-1.32-1.3-2.16-1.7-.84-.4-1.78-.63-2.77-.63h-19.39c-3.51,0-6.36,2.84-6.36,6.36v19.4h-12.68v-10.75c0-1.63-.62-3.12-1.63-4.24l-6.07-7.79c-.24-.38-.51-.72-.81-1.04l-.02-.02c-.58-.59-1.27-1.07-2.04-1.4-.77-.33-1.62-.52-2.51-.52h-19.4c-1.16,0-2.24.32-3.18.86-.94-.54-2.02-.86-3.18-.86h-19.39c-3.51,0-6.36,2.84-6.36,6.36v19.4h-19.4c-1.16,0-2.24.32-3.18.86-.94-.54-2.02-.86-3.18-.86h-12.68v-10.75c0-1.41-.46-2.71-1.23-3.75-.09-.12-.18-.24-.27-.35l-6.61-8.51s-.05-.07-.08-.1h0c-.59-.7-1.31-1.28-2.15-1.68-.83-.4-1.76-.62-2.74-.62h-19.39c-1.16,0-2.25.31-3.18.86-.94-.54-2.02-.86-3.18-.86h-19.39c-3.51,0-6.36,2.84-6.36,6.36v19.4h-45.16c-3.51,0-6.36,2.84-6.36,6.36v19.39c0,1.16.31,2.24.86,3.18-.54.94-.86,2.02-.86,3.18v70.91c0,1.45.49,2.78,1.31,3.85l.02.03-2.36,1.8c-1.27-1.67-1.93-3.62-1.93-5.67v-70.91c0-1.09.19-2.17.56-3.18-.37-1.02-.56-2.1-.56-3.18v-19.39c0-5.15,4.19-9.33,9.33-9.33h42.2v-16.44c0-5.15,4.19-9.33,9.33-9.33h19.39c1.09,0,2.17.19,3.18.56,1.02-.37,2.1-.56,3.18-.56h19.39c2.76,0,5.36,1.21,7.14,3.32.02.02.12.16.17.21l6.58,8.48c.12.15.24.31.36.46,1.18,1.62,1.81,3.53,1.81,5.52v7.78h9.7c1.09,0,2.16.19,3.18.56,1.02-.38,2.09-.56,3.18-.56h16.43v-16.44c0-5.15,4.18-9.33,9.33-9.33h19.39c1.09,0,2.16.19,3.18.56,1.02-.38,2.09-.56,3.18-.56h19.4c2.5,0,4.83.97,6.59,2.73.07.07.14.14.2.22.37.39.72.82,1.01,1.29l5.97,7.65c1.47,1.7,2.29,3.86,2.29,6.1v7.78h6.73v-16.44c0-5.15,4.19-9.33,9.33-9.33h19.39c2.81,0,5.45,1.25,7.23,3.43.01.02,6.72,8.65,6.73,8.65,1.35,1.66,2.1,3.75,2.1,5.9v7.78h6.73v-16.44c0-5.15,4.19-9.33,9.33-9.33h19.4c2.57,0,5.02,1.07,6.79,2.94.1.09.2.2.3.32l.02.02c.21.25.4.49.56.72l6.47,8.31c.05.06.1.13.15.2,1.17,1.61,1.78,3.49,1.78,5.47v33.53h9.69c2.5,0,4.86.97,6.61,2.75.45.45.86.96,1.23,1.53,0,0,6.04,7.73,6.06,7.74,1.4,1.68,2.16,3.79,2.16,5.96v45.15Z"/>
</svg>