<?xml version="1.0" encoding="UTF-8"?>
<svg id="Layer_3" data-name="Layer 3" xmlns="http://www.w3.org/2000/svg" viewBox="0 0 500 500">
  <defs>
    <style>
      .cls-1 {
        fill: #fcd146;
      }
    </style>
  </defs>
  <path class="cls-1" d="m417.18,192.26v-.22c-.01-.2-.03-.39-.05-.59l-.25-1.71-.04-.34c-.03-.18-.05-.35-.1-.53-.72-3.08-2.25-5.77-4.34-7.95-.01,0-.03-.01-.04-.03,0-.01-.01-.03-.03-.03-.01-.01-.03-.03-.03-.04-.01-.01-.03-.01-.04-.03,0-.01-.01-.03-.03-.03-.01-.01-.03-.03-.03-.04-.01-.01-.03-.01-.04-.03s-.01-.03-.03-.04c-.01,0-.03-.01-.04-.03,0-.01-.01-.03-.03-.03-.01-.01-.03-.03-.03-.04-.01-.01-.03-.01-.04-.03,0-.01-.01-.03-.03-.03-.01-.01-.03-.03-.03-.04-.01-.01-.03-.01-.04-.03-.01-.01-.01-.03-.03-.04-.01,0-.03-.01-.04-.03,0-.01-.01-.03-.03-.03-.01-.01-.03-.03-.03-.04-.01-.01-.03-.01-.04-.03s-.01-.03-.03-.04c-.01,0-.03-.01-.03-.03-.01-.01-.03-.01-.04-.03-.01-.01-.01-.03-.03-.04-.01,0-.03-.01-.04-.03,0-.01-.01-.03-.03-.03-.01-.01-.03-.03-.03-.04-.01-.01-.03-.01-.04-.03s-.01-.03-.03-.04c-.01,0-.03-.01-.04-.03,0-.01-.01-.01-.03-.03-.01-.01-.01-.03-.03-.04-.01,0-.03-.01-.04-.03,0-.01-.01-.03-.03-.03-.01-.01-.03-.03-.03-.04-.01-.01-.03-.01-.04-.03-.01-.01-.01-.03-.03-.04-.01,0-.03-.01-.04-.03,0-.01-.01-.03-.03-.03-.01-.01-.03-.03-.03-.04-.01-.01-.03-.01-.04-.03,0-.01-.01-.03-.03-.03-.01-.01-.03-.03-.03-.04-.01-.01-.03-.01-.04-.03-.01-.01-.01-.03-.03-.04-.01,0-.03-.01-.04-.03,0-.01-.01-.03-.03-.03-.01-.01-.03-.03-.03-.04-.01-.01-.03-.01-.04-.03,0-.01-.01-.03-.03-.03-.01-.01-.03-.03-.03-.04-.01-.01-.03-.01-.04-.03-.01-.01-.01-.03-.03-.04-.01,0-.03-.01-.04-.03,0-.01-.01-.03-.03-.03-.01-.01-.03-.03-.03-.04-.01-.01-.03-.01-.04-.03-.01-.01-.01-.03-.03-.04-.01,0-.03-.01-.03-.03-.01-.01-.03-.01-.04-.03-.01-.01-.01-.03-.03-.04-.01,0-.03-.01-.04-.03,0-.01-.01-.03-.03-.03-.01-.01-.03-.03-.03-.04-.01-.01-.03-.01-.04-.03-.01-.01-.01-.03-.03-.04-.01,0-.03-.01-.03-.03-.01-.01-.03-.03-.04-.03-.01-.01-.01-.03-.03-.04-.01,0-.03-.01-.04-.03,0-.01-.01-.03-.03-.03-.01-.01-.03-.03-.03-.04-.01-.01-.03-.01-.04-.03-.01-.01-.01-.03-.03-.04-.01,0-.03-.01-.04-.03,0-.01-.01-.03-.03-.03-.01-.01-.03-.03-.03-.04-.01-.01-.03-.01-.04-.03,0-.01-.01-.03-.03-.03-.01-.01-.03-.03-.03-.04-.01-.01-.03-.01-.04-.03-.01-.01-.01-.03-.03-.04-.01,0-.03-.01-.04-.03,0-.01-.01-.03-.03-.03-.01-.01-.03-.03-.03-.04-.01-.01-.03-.01-.04-.03,0-.01-.01-.03-.03-.03-.01-.01-.03-.03-.03-.04-.01-.01-.03-.01-.04-.03-.01-.01-.01-.03-.03-.04-3.5-3.61-8.62-5.76-14.43-5.76-.82,0-1.63.04-2.44.14-1.51.16-2.98.46-4.41.87.74-1.44,1.33-2.97,1.8-4.55,1.84-6.34.87-13.95-3.8-19.07-.01-.01-.03-.03-.03-.04-.01,0-.03-.01-.04-.03-.01-.01-.01-.03-.03-.03l-.04-.04s-.01-.01-.03-.03c-.01-.01-.03-.03-.03-.03l-.04-.04s-.01-.01-.03-.03l-.04-.04s-.01-.01-.03-.03-.03-.03-.03-.03c-.01-.01-.03-.03-.04-.04,0-.01-.01-.01-.03-.03-.01-.01-.03-.03-.03-.03l-.04-.04s-.01-.01-.03-.03l-.04-.04s-.01-.01-.03-.03-.03-.03-.03-.03c-.01-.01-.03-.03-.04-.04,0-.01-.01-.01-.03-.03-.01-.01-.03-.03-.03-.04-.01,0-.03-.01-.04-.03t-.03-.03l-.04-.04s-.01-.01-.03-.03c-.01-.01-.03-.03-.03-.03l-.04-.04s-.01-.01-.03-.03c-.01-.01-.03-.03-.03-.04-.01,0-.03-.01-.04-.03s-.01-.01-.03-.03c-.01-.01-.03-.03-.04-.04,0-.01-.01-.01-.03-.03-.01-.01-.03-.03-.03-.03l-.04-.04s-.01-.01-.03-.03c-.01-.01-.03-.03-.03-.04-.01,0-.03-.01-.04-.03s-.01-.03-.03-.03c-.01-.01-.03-.03-.04-.04,0-.01-.01-.01-.03-.03-.01-.01-.03-.03-.03-.03-.01-.01-.03-.03-.04-.04,0-.01-.01-.01-.03-.03l-.04-.04s-.01-.01-.03-.03c-.01-.01-.03-.03-.03-.03l-.04-.04s-.01-.01-.03-.03c-.01-.01-.03-.03-.03-.04-.01,0-.03-.01-.04-.03s-.01-.01-.03-.03c-.01-.01-.03-.03-.04-.04,0,0-.01-.01-.03-.03-.01-.01-.03-.03-.03-.03l-.04-.04s-.01-.01-.03-.03c-.01-.01-.03-.03-.03-.04-.01,0-.03-.01-.04-.03s-.01-.01-.03-.03-.03-.03-.04-.04l-.03-.03s-.03-.03-.03-.03c-.01-.01-.03-.03-.04-.04,0-.01-.01-.01-.03-.03-.01-.01-.03-.03-.03-.04-.01,0-.03-.01-.04-.03t-.03-.03l-.04-.04s-.01-.01-.03-.03l-.03-.03s-.03-.03-.04-.04c0-.01-.01-.01-.03-.03-.01-.01-.03-.03-.03-.04-.01,0-.03-.01-.04-.03-.01-.01-.01-.03-.03-.03l-.04-.04s-.01-.01-.03-.03c-.01-.01-.03-.03-.03-.03l-.04-.04s-.01-.01-.03-.03-.03-.03-.04-.04l-.03-.03s-.03-.03-.03-.03c-.01-.01-.03-.03-.04-.04,0-.01-.01-.01-.03-.03-.01-.01-.03-.03-.03-.03l-.04-.04s-.01-.01-.03-.03c-1.55-1.71-3.5-3.14-5.89-4.18-.16-.07-.33-.12-.5-.18l-.33-.1-1.65-.56c-.19-.05-.38-.11-.57-.15l-.22-.04c-.61-.18-1.21-.27-1.81-.31-.2-.03-.41-.05-.61-.07-.44-.03-.86-.04-1.28-.04-8.22,0-15.91,4.53-20.51,11.68-.72-1.32-1.58-2.55-2.6-3.63-.01-.01-.03-.03-.03-.03h-.01s-.01-.03-.03-.04t-.03-.03h0s-.03-.03-.03-.03h-.01s-.01-.03-.03-.04l-.03-.03s0-.01-.01-.01c0,0-.01-.01-.03-.03t-.03-.03s-.03-.03-.03-.03c0-.01-.01-.01-.01-.01,0-.01-.01-.01-.03-.03t-.03-.03h-.01s-.01-.03-.01-.03h-.01s-.01-.03-.03-.04c-.01-.01-.03-.03-.03-.03,0,0,0-.01-.01-.01,0,0-.01-.01-.03-.03t-.03-.03s-.03-.03-.03-.03c0-.01-.01-.01-.01-.01,0-.01-.01-.01-.03-.03t-.03-.03h-.01s-.01-.03-.01-.03h-.01s-.01-.03-.03-.04c-.01-.01-.03-.03-.03-.03h-.01s-.01-.03-.03-.04t-.03-.03h0s-.03-.03-.03-.03h-.01s-.01-.03-.03-.04l-.03-.03h-.01s-.01-.03-.01-.04h-.01s-.01-.01-.03-.03c-.01-.01-.03-.03-.03-.03h-.01s-.01-.03-.03-.04t-.03-.03h0s-.03-.03-.03-.03h-.01s-.01-.03-.03-.04c-.01-.01-.03-.03-.03-.03,0,0,0-.01-.01-.01,0,0-.01-.01-.03-.03t-.03-.03s-.03-.03-.03-.03h-.01s-.01-.03-.03-.04t-.03-.03h0s-.03-.03-.03-.03h-.01s-.01-.03-.03-.04c-.01-.01-.03-.03-.03-.03,0,0,0-.01-.01-.01,0,0-.01-.01-.03-.03t-.03-.03s-.03-.03-.03-.03h-.01s-.01-.03-.03-.04l-.03-.03h0l-.03-.03h-.01s-.01-.03-.03-.04c-.01-.01-.03-.03-.03-.03,0,0,0-.01-.01-.01,0,0-.01-.01-.03-.03t-.03-.03s-.03-.03-.03-.03c0-.01-.01-.01-.01-.01,0-.01-.01-.01-.03-.03t-.03-.03h-.01s-.01-.03-.01-.03h-.01s-.01-.03-.03-.04-.03-.03-.03-.03h-.01s-.01-.03-.03-.04t-.03-.03h0s-.03-.03-.03-.03h-.01s-.01-.03-.03-.04t-.03-.03h-.01s-.01-.03-.01-.04h-.01s-.01-.01-.03-.03c-.01-.01-.03-.03-.03-.03h-.01s-.01-.03-.03-.04l-.03-.03h0l-.03-.03h-.01s-.01-.03-.03-.04c-.01-.01-.03-.03-.03-.03,0,0,0-.01-.01-.01,0,0-.01-.01-.03-.03t-.03-.03s-.03-.03-.03-.03h-.01s-.01-.03-.03-.04t-.03-.03h0l-.03-.03h-.01s-.01-.03-.03-.04-.03-.03-.03-.03c0,0,0-.01-.01-.01,0,0-.01-.01-.03-.03t-.03-.03s-.03-.03-.03-.03h-.01s-.01-.03-.03-.04t-.03-.03h0s-.03-.03-.03-.03h-.01s-.01-.03-.03-.04c-.01-.01-.03-.03-.03-.03,0,0,0-.01-.01-.01,0,0-.01-.01-.03-.03l-.03-.03-.03-.03s-.01-.01-.01-.01c-2.95-3.16-6.98-4.91-11.32-4.91-.74,0-1.48.05-2.23.15-4.82.63-9.51,3.29-12.9,7.35-3.77,4.51-5.7,9.81-5.72,15.75,0,.19,0,.37.03.56l.26,2.38c.03.2.05.39.1.59l.46,1.96c.05.22.12.45.2.67l.79,2c.14.35.31.68.53.99.07.15.15.29.23.42l.75,1.21c.15.24.31.48.5.68l1.05,1.18c.12.14.25.27.38.39.01.01.03.01.03.03h.01s.01.03.03.04c.01,0,.01.01.03.03.01.01.03.03.04.03.01.01.01.03.03.04.01.01.03.01.03.03h.01s.01.03.03.03h0s.01.03.03.04c.01.01.03.01.03.03h.01s.01.03.03.04c.01,0,.01.01.03.03.01.01.03.03.04.03h0s.01.03.03.04c.01.01.03.01.03.03h.01s.01.03.03.03h0s.01.03.03.04c.01.01.03.03.03.03h.01s.01.03.03.04c.01,0,.01.01.03.03.01.01.03.03.04.03h0s.01.03.03.04c.01.01.03.01.03.03h.01s.01.03.03.03h0s.01.03.03.04c.01.01.03.03.04.03.01.01.01.03.03.04.01.01.03.01.03.03h.01s.01.03.03.03h0s.01.03.03.04c.01.01.03.01.03.03h.01s.01.03.03.03h0s.01.03.03.04c.01.01.03.03.04.03.01.01.01.03.03.04.01.01.03.01.03.03h.01s.01.03.03.03h0s.01.03.03.04c.01.01.03.01.03.03h.01s.01.03.03.04c.01,0,.01.01.03.03.01.01.03.03.04.03.01.01.01.03.03.04.01.01.03.01.03.03h.01s.01.03.03.03h0s.01.03.03.04c.01.01.03.01.03.03h.01s.01.03.03.04c.01,0,.01.01.03.03.01.01.03.03.04.03h0s.01.03.03.04c.01.01.03.01.03.03h.01s.01.03.03.03h0s.01.03.03.04c.01.01.03.01.03.03h.01s.01.03.03.04c.01,0,.01.01.03.03.01.01.03.03.04.03h0s.01.03.03.04c.01.01.03.01.03.03h.01s.01.03.03.03h0s.01.03.03.04c.01.01.03.03.04.03.01.01.01.03.03.04.01.01.03.01.03.03h.01s.01.03.03.03h0s.01.03.03.04c.01.01.03.01.03.03h.01s.01.03.03.03h0s.01.03.03.04c.01.01.03.03.04.03.01.01.01.03.03.04.01.01.03.01.03.03h.01s.01.03.03.03h0s.01.03.03.04c.01.01.03.01.03.03h.01s.01.03.03.04c.01,0,.01.01.03.03.01.01.03.03.04.03.01.01.01.03.03.04.01.01.03.01.03.03h.01s.01.03.03.03h0s.01.03.03.04c.01.01.03.01.03.03h.01s.01.03.03.04c-1.31.44-2.55.86-3.74,1.27-2.85.97-5.27,2.08-7.17,3.32-2.57,1.65-4.64,3.72-6.15,6.08-1.59-10.48-4.38-21.12-12.32-28.61-6.32-5.95-15.76-9.16-23.6-4.3-3.54,2.19-6.6,5.35-8.4,9.13-1.06,2.22-1.51,4.67-1.72,7.1-.18,2.44-.24,4.93-.12,7.36.16,3.25.69,6.51,1.55,9.65.01.07.04.33.11.38-.61-.57-1.29-1.08-2.01-1.47-.71-.42-1.48-.73-2.27-.98-.8-.23-1.62-.38-2.45-.45-.41-.01-.82-.01-1.24,0-.11,0-.2,0-.31.01-.1.01-.18.04-.26.04-.12,0-.25,0-.37.01-.05.01-.33.01-.34.05,0,0,.07-.12.19-.35,2.14-1.59,3.67-3.89,4.7-6.34.52-1.23.93-2.48,1.21-3.78.03-.11.05-.2.07-.3,0-.03.01-.05.01-.07.39-1.96.52-3.96.35-5.95-.2-2.71-.94-5.39-2.18-7.85-4.89-9.75-14.77-18.25-26.41-16.13-1.05.19-2.07.49-3.06.9-4.31,1.78-7.99,5.63-10.83,9.24-2.53,3.25-4.48,6.9-6.1,10.68-1.35-1.95-2.82-3.84-4.4-5.68-1.1-1.31-2.26-2.55-3.46-3.76-11.73-11.95-28.01-13-40.74-2.11-2.35,2.01-4.59,4.29-6.63,6.71-5.81-5.96-13.04-10.48-21.18-12.78-8.07-2.29-16.75-2.37-24.88-.3-2.83.72-5.62,1.71-8.17,3.14-7.09,4-13.53,11.28-14.85,19.48-.86,5.32.44,10.64,2.18,15.64,1.7,4.89,3.24,9.66,4.21,14.78,1.52,8,1.92,16.22,1.18,24.34-.68,7.24-4.38,15.82-1.47,22.87,1.72,4.23,5.4,7.27,8.98,9.9,5.39,4,11.79,5.14,18.25,3.88,6.22-1.23,12.55-3.32,17.19-7.83,2.59-2.52,4.36-5.55,5.39-8.83.68,1.31,1.44,2.59,2.27,3.85,1.35,2.04,2.87,3.87,4.52,5.43-1.91,2.86-3.27,6.02-3.8,9.32-.86,5.31.44,10.64,2.18,15.64,1.7,4.89,3.25,9.65,4.22,14.77,1.51,8.02,1.92,16.22,1.17,24.35-.67,7.23-4.37,15.82-1.47,22.87,1.73,4.22,5.42,7.25,8.98,9.89,5.39,3.99,11.8,5.14,18.27,3.87,6.21-1.23,12.55-3.32,17.18-7.83,2.6-2.52,4.36-5.55,5.39-8.83.68,1.31,1.44,2.59,2.29,3.85,9.04,13.71,25.47,16.99,39.09,7.88.6-.41,2.22-2.04,2.91-2.06.64-.01,2.03,1.46,2.63,1.84,1.93,1.28,4.02,2.3,6.21,3.08,4.31,1.51,9,1.99,13.52,1.29.87-.12,1.74-.3,2.59-.57,2.65-.84,4.97-2.27,6.79-4.33,1.62-1.85,2.9-4,3.92-6.23.07-.16.14-.31.2-.48,2.27,2.08,4.68,4.02,7.15,5.78,5.55,4,11.81,3.39,16.65-1.44,2.27-2.27,3.95-5.13,5.89-7.72.68-.93,1.35-2.04,2.26-2.75.57-.42,1.29-.69,1.99-.59.79.14,1.42.75,1.8,1.44.6,1.14.83,2.6,1.22,3.82.44,1.32.88,2.65,1.35,3.96,2.31,6.52,7.2,9.77,14.07,9.38,4.16-.24,8.17-1.55,11.71-3.76,7.84-4.91,12.62-12.78,16.2-21.11.41-.99.82-1.99,1.17-2.99,1.54-4.37,2.6-8.92,3.25-13.49,1.32-9.09,1.18-18.36,0-27.49-1.51-11.94-3.82-24.74-12.98-33.36-.23-.22-.48-.44-.72-.65,2.71,0,5.31-.56,7.7-1.65,2.38-1.08,4.59-2.69,6.52-4.79,1.55-1.67,3.08-3.85,4.51-6.48.5-.9,1.01-1.84,1.52-2.79l.95,1.2c.18.23.37.44.59.63t.03.03l.04.04s.01.01.03.03h.01s.01.03.01.03l.04.04.03.03h.01s.01.03.01.03h.01s.01.03.03.04t.03.03l.04.04s.01.01.03.03h.01s.01.03.01.03l.04.04s.01.01.03.03l.04.04s.01.01.03.03.01.01.03.03h.01s.01.03.01.03h.01s.01.03.03.04h.01s.01.03.01.03h.01s.01.03.03.03h0s.01.03.03.04l.04.04s.01.01.03.03t.03.03l.04.04.03.03h.01s.01.03.01.03h.01s.01.03.03.04t.03.03l.04.04s.01.01.03.03c.01.01.01.03.03.03l.04.04s.01.01.03.03l.04.04s.01.01.03.03.01.01.03.03h.01s.01.03.01.03h.01s.01.03.03.04h.01s.01.03.01.03l.04.04s.01.01.03.03l.04.04s.01.01.03.03t.03.03l.04.04.03.03h.01s.01.03.01.03h.01s.03.04.03.04t.03.03l.04.04s.01.01.03.03t.03.03l.04.04s.01.01.03.03h.01s.01.03.01.03h.01s.01.03.01.03h.01s.01.03.03.04h.01s.01.03.01.03h.01s.01.03.03.04t.03.03l.04.04s.01.01.03.03h.01s.01.03.01.03h.01s.01.03.03.03h0s.01.03.03.04l.04.04s.01.01.03.03c.01.01.01.03.03.03h.01s.03.04.03.04t.03.03l.04.04s.01.01.03.03t.03.03l.04.04s.01.01.03.03h.01s.01.03.01.03l.04.04s.01.01.03.03h.01s.01.03.01.03h.01s.01.03.03.04t.03.03l.04.04s.01.01.03.03h.01s.01.03.01.03l.04.04s.01.01.03.03l.04.04s.01.01.03.03t.03.03l1.06.95c.12.11.25.2.38.3.27.27.57.5.89.69l1.84,1.12c.2.12.41.23.63.33l1.85.79c.18.07.37.14.54.19l2.31.68c.18.04.35.1.54.12,1.47.26,2.95.38,4.4.38,4.25,0,8.32-1.1,12.1-3.28,4.57-2.63,8.03-6.81,9.47-11.43,1.46-4.65.84-9.39-1.73-13.32-.72-1.1-1.58-2.12-2.56-3.04-.01,0-.01-.01-.03-.03-.01-.01-.03-.03-.04-.03,0-.01-.01-.03-.03-.04-.01,0-.03-.01-.03-.03-.01-.01-.03-.03-.04-.03-.01-.01-.01-.03-.03-.04-.01-.01-.03-.01-.03-.03l-.04-.04s-.01-.01-.03-.03c-.01-.01-.03-.03-.04-.03,0-.01-.01-.03-.03-.04-.01,0-.03-.01-.03-.03-.01-.01-.03-.03-.04-.03-.01-.01-.01-.03-.03-.04-.01-.01-.03-.01-.04-.03,0-.01-.01-.03-.03-.04-.01,0-.01-.01-.03-.03-.01-.01-.03-.03-.04-.03-.01-.01-.01-.03-.03-.04-.01-.01-.03-.01-.03-.03-.01-.01-.03-.03-.04-.03-.01-.01-.01-.03-.03-.04-.01-.01-.03-.01-.04-.03,0-.01-.01-.03-.03-.04-.01,0-.03-.01-.03-.03-.01-.01-.03-.03-.04-.03-.01-.01-.01-.03-.03-.04-.01-.01-.03-.01-.03-.03l-.04-.04s-.01-.01-.03-.03c-.01-.01-.03-.03-.04-.03,0-.01-.01-.03-.03-.04-.01,0-.03-.01-.03-.03-.01-.01-.03-.03-.04-.03-.01-.01-.01-.03-.03-.04-.01-.01-.03-.01-.03-.03l-.04-.04s-.01-.01-.03-.03c-.01-.01-.03-.03-.04-.03,0-.01-.01-.03-.03-.04-.01,0-.03-.01-.03-.03-.01-.01-.03-.03-.04-.03-.01-.01-.01-.03-.03-.04-.01-.01-.03-.01-.04-.03,0-.01-.01-.03-.03-.04-.01,0-.01-.01-.03-.03s-.03-.03-.04-.03c0-.01-.01-.03-.03-.04-.01,0-.03-.01-.03-.03-.01-.01-.03-.03-.04-.03-.01-.01-.01-.03-.03-.04-.01-.01-.03-.01-.04-.03,0-.01-.01-.03-.03-.04-.01,0-.03-.01-.03-.03-.01-.01-.03-.03-.04-.03-.01-.01-.01-.03-.03-.04-.01-.01-.03-.01-.03-.03-.01-.01-.03-.03-.04-.03-.01-.01-.01-.03-.03-.04-.01-.01-.03-.01-.04-.03,0-.01-.01-.03-.03-.04-.01,0-.03-.01-.03-.03-.01-.01-.03-.03-.04-.03-.01-.01-.01-.03-.03-.04-.01-.01-.03-.01-.03-.03-.01-.01-.03-.03-.04-.04-.01,0-.01-.01-.03-.03s-.03-.03-.04-.03c0-.01-.01-.03-.03-.04-.01,0-.03-.01-.03-.03-.01-.01-.03-.03-.04-.03-.01-.01-.01-.03-.03-.04-.01-.01-.03-.01-.03-.03-.01-.01-.03-.03-.04-.04-.01,0-.01-.01-.03-.03-.01-.01-.03-.03-.04-.03,0-.01-.01-.03-.03-.04-.01,0-.03-.01-.03-.03-.01-.01-.03-.03-.04-.03-.01-.01-.01-.03-.03-.04-.01-.01-.03-.01-.04-.03,0-.01-.01-.03-.03-.04-.01,0-.01-.01-.03-.03-.01-.01-.03-.03-.04-.03,0-.01-.01-.03-.03-.04-.01,0-.03-.01-.03-.03-.01-.01-.03-.03-.04-.03-.01-.01-.01-.03-.03-.04s-.03-.01-.04-.03c0-.01-.01-.03-.03-.04-.45-.42-.94-.82-1.44-1.21,8.64-3.33,14.99-10.9,16.03-19.74.03-.2.03-.41.03-.61.08-.6.08-1.22.01-1.85Zm-97.45-19.52l-.75-1.21c-.04-.1-.08-.2-.14-.3l-.23-.34-.79-1.99-.45-1.96-.27-2.4c.03-4.78,1.55-8.98,4.59-12.62,2.45-2.93,5.92-5.13,9.76-5.62,8.36-1.08,13.39,6.36,12.9,13.92-.26,3.81-1.52,7.25-3.78,10.33-3.62,4.91-9.94,8.11-16.01,5.92l-1.36-.68-1.13-.71-1.29-1.17-1.05-1.18Zm-20.36,66.96c.42-.99.83-1.99,1.18-3.01,1.54-4.37,2.59-8.92,3.25-13.49.39-2.68.64-5.38.79-8.07.71,1.01,1.51,1.93,2.38,2.76.01,0,.03.01.04.03,0,.01.01.03.03.03.01.01.03.03.03.04.01,0,.03.01.04.03.01.01.01.03.03.03.01.01.03.03.04.04,0,.01.01.01.03.03.01.01.01.03.03.04.01,0,.03.01.04.03,0,.01.01.03.03.03.01.01.03.03.03.04.01.01.03.01.04.03s.01.03.03.03c.01.01.03.03.04.04,0,.01.01.01.03.03.01.01.01.03.03.04.01,0,.03.01.04.03,0,.01.01.03.03.03.01.01.03.03.03.04.01.01.03.01.04.03s.01.03.03.04c.01,0,.03.01.04.03,0,.01.01.01.03.03.01.01.03.03.03.04.01,0,.03.01.04.03.01.01.01.03.03.03.01.01.03.03.03.04.01.01.03.01.04.03.01.01.01.03.03.04.01,0,.03.01.04.03,0,.01.01.03.03.03.01.01.03.03.03.04.01,0,.03.01.04.03s.01.03.03.03c.01.01.03.03.03.04.01.01.03.01.04.03.01.01.01.03.03.04.01,0,.03.01.04.03,0,.01.01.03.03.03.01.01.03.03.03.04.01,0,.03.01.04.03s.01.03.03.03c.01.01.03.03.04.04,0,.01.01.01.03.03.01.01.01.03.03.04.01,0,.03.01.04.03,0,.01.01.03.03.03.01.01.03.03.03.04.01,0,.03.01.04.03.01.01.01.03.03.03.01.01.03.03.04.04,0,.01.01.01.03.03.01.01.01.03.03.04.01,0,.03.01.04.03,0,.01.01.03.03.03.01.01.03.03.03.04.01.01.03.01.04.03.01.01.01.03.03.04.01,0,.03.01.04.03,0,.01.01.01.03.03.01.01.03.03.03.04.01,0,.03.01.04.03s.01.03.03.03c.01.01.03.03.03.04.01.01.03.01.04.03.01.01.01.03.03.04.01,0,.03.01.04.03,0,.01.01.03.03.03.01.01.03.03.03.04.01,0,.03.01.04.03.01.01.01.03.03.03.01.01.03.03.03.04.01.01.03.01.04.03.01.01.01.03.03.04.01,0,.03.01.04.03,0,.01.01.03.03.03.01.01.03.03.03.04.01,0,.03.01.04.03.01.01.01.03.03.03.01.01.03.03.04.04,0,.01.01.01.03.03.01.01.01.03.03.04.01,0,.03.01.04.03,0,.01.01.03.03.03.01.01.03.03.03.04.01,0,.03.01.04.03.01.01.01.03.03.03.01.01.03.03.04.04,0,.01.01.01.03.03.01.01.01.03.03.04.98.93,2.05,1.76,3.2,2.44,2.12,1.28,4.38,2.52,6.71,3.67.86.44,1.74.78,2.57,1.08.18,1.06.37,2.25.72,3.43.75,2.48,1.57,4.93,2.45,7.23.95,2.49,2.48,4.76,4.45,6.71.01.01.03.03.03.03l.04.04s.01.01.03.03c.01.01.03.03.04.04l.03.03s.03.01.03.03c.01.01.03.03.04.04.01,0,.01.01.03.03.01.01.03.03.04.03,0,.01.01.03.03.04t.03.03s.03.03.04.04c0,0,.01.01.03.03.01.01.03.03.03.03l.04.04s.01.01.03.03c.01.01.03.03.04.03,0,.01.01.03.03.04t.03.03s.03.03.04.04c0,0,.01.01.03.03.01.01.03.03.03.03l.04.04s.01.01.03.03c.01.01.03.03.04.03,0,.01.01.03.03.04.01.01.03.01.03.03.01.01.03.03.04.04.01,0,.01.01.03.03.01.01.03.03.03.03l.04.04s.01.01.03.03c.01.01.03.03.04.03,0,.01.01.03.03.04.01.01.03.01.03.03l.04.04s.01.01.03.03c.01.01.03.03.03.03l.04.04s.01.01.03.03c.01.01.03.03.04.04,0,0,.01.01.03.03.01.01.03.01.03.03l.04.04s.01.01.03.03c.01.01.03.03.04.03,0,.01.01.03.03.04t.03.03s.03.03.04.04c0,0,.01.01.03.03.01.01.03.03.03.03l.04.04s.01.01.03.03c.01.01.03.03.04.03,0,.01.01.03.03.04t.03.03l.04.04s.01.01.03.03c.01.01.03.03.03.03l.04.04s.01.01.03.03c.01.01.03.03.04.03,0,.01.01.03.03.04.01.01.03.01.03.03l.04.04s.01.01.03.03c.01.01.03.03.03.03l.04.04s.01.01.03.03c.01.01.03.03.04.03,0,.01.01.03.03.04.01.01.03.01.03.03l.04.04s.01.01.03.03c.01.01.03.03.04.03,0,.01.01.03.03.04t.03.03l.04.04s.01.01.03.03c.01.01.03.01.03.03l.04.04s.01.01.03.03c.01.01.03.03.03.03l.04.04s.01.01.03.03l.04.04s.01.01.03.03c.01.01.03.03.03.03l.04.04s.01.01.03.03c.26.26.53.52.82.76-2.6.11-5.16.84-7.58,2.34-3.54,2.19-6.6,5.35-8.4,9.13-1.08,2.23-1.52,4.68-1.72,7.12-.19,2.44-.24,4.93-.12,7.36.15,3.25.68,6.49,1.54,9.64.03.08.05.34.11.38-.61-.56-1.28-1.06-2-1.47-.72-.41-1.48-.74-2.29-.98-.79-.23-1.62-.38-2.45-.44-.39-.03-.82-.03-1.24-.01-.11.01-.2.01-.31.03-.08.01-.18.04-.26.04h-.37s-.31.01-.34.05c0,0,.07-.12.19-.34,2.14-1.59,3.68-3.89,4.71-6.34.52-1.23.91-2.49,1.21-3.8.03-.1.04-.19.05-.3,0-.01.01-.04.01-.07.39-1.96.52-3.95.35-5.93-.2-2.71-.94-5.39-2.18-7.87-3.13-6.26-8.33-11.99-14.71-14.74.5-1.03.98-2.08,1.43-3.14Zm-87.94-67.01c.29-.76.57-1.52.88-2.29,3.57-8.98,14.39-21.25,25.26-15.84,8.66,4.3,12.59,15.09,10.1,24.2-.39,1.43-1.03,2.71-1.59,4.06-.72,1.71-1.92,3.08-3.05,4.56-1.92,2.5-3.88,5.06-4.97,8.03-1.59,4.33-1.16,9.38,1.17,13.35.33-2.42.65-4.87,1.48-7.17,1.47-4.12,4.83-7.36,9.41-7.47,4.26-.1,7.53,3.08,9.17,6.75,4.16,9.24,7.17,20.81,2.72,29.33.53-.41,1.09-.97,1.59-1.46.56-.56,1.02-1.21,1.42-1.89,1.67-2.89,2.55-6.23,2.79-9.55.01-.14.03-.3.03-.46.27-4.53-.54-9.08-1.61-13.52-1.09-4.6-2.65-9.02-3.95-13.56-1.29-4.46-1.67-9.19-1.74-13.81-.12-7.42,5-13.32,11.94-15.43,3.18-.98,6.72-.93,9.72.48,3.59,1.66,5.81,4.89,7.51,8.32,1.97,3.99,3.73,8.03,4.64,12.41,3.84,18.4,2.38,36.54-4.63,54.08-.76,1.91-1.61,3.76-2.55,5.53h-.01c-.33.61-.67,1.21-1.02,1.81-.64,1.09-1.35,2.14-2.1,3.14-.26.35-.53.69-.82,1.03-.3.38-.61.75-.94,1.12-.01.01-.04.04-.04.05-.31.34-.64.68-.97,1.02-.34.34-.69.68-1.06,1.02-.35.34-.74.67-1.12.98-.44.37-.88.71-1.35,1.03-.34.26-.69.5-1.05.74-.03.03-.07.05-.1.07-.42.29-.84.54-1.28.8-.56.33-1.12.63-1.66.88-.16.08-.31.15-.46.22-.25.11-.48.2-.71.3-.22.1-.45.18-.67.24-.16.07-.34.12-.5.16-.24.08-.49.15-.74.2-.49.12-.97.2-1.43.24-1.05.11-2.03.03-2.94-.24-.65-.18-1.27-.46-1.85-.84-.38-.24-.76-.54-1.1-.88-1.43-1.35-2.59-3.36-3.48-6.04-.83-2.5-1.43-5.14-2.65-7.45-3.25-6.14-8.72-6.87-13.35-1.73-1.18,1.32-2.23,2.76-3.24,4.23-.93,1.33-1.82,2.68-2.79,3.99-.26.35-.53.71-.8,1.06-2.3,2.89-4.45,4.33-6.82,4.33-.22,0-.44-.01-.65-.04-.27-.03-.54-.07-.82-.15-.18-.04-.37-.08-.54-.15-.2-.05-.41-.14-.61-.23-.39-.14-.79-.33-1.18-.56-.19-.11-.39-.22-.6-.34-.25-.15-.49-.31-.74-.49-.19-.12-.39-.27-.6-.42-.59-.44-1.16-.88-1.7-1.35-.45-.37-.87-.75-1.29-1.13-.16-.12-.33-.27-.48-.42,2.14-7.46,2.25-15.34,2.14-23.12-.27-17.64-3.51-35.03-12.25-50.05.2-.56.41-1.12.61-1.67Zm-82.66,39.2c-4.84.68-9.73.67-14.54,1.4-.79.12-1.55.27-2.31.48-1.97.53-3.89,1.44-5.32,2.91-1.43,1.47-2.31,3.54-2.04,5.58.53-2.19,1.97-4.14,3.91-5.28,2.22-1.31,4.83-1.52,7.35-1.43,1.12.03,2.23.01,3.25.49,1.21.54,2.38,1.1,3.47,1.89,6.78,4.97,10.88,17.99,7.96,26.54-4.97,14.56-29.37,17.82-35.69,2.55-.2-.5-.39-1.02-.53-1.55-1.44-5.14.38-9.89,1.33-14.9.9-4.85.72-9.98.22-14.85-1.06-10.22-4.23-20.05-7.13-29.86-1.29-4.4-2.1-9.15-.88-13.57,2.44-8.74,12.66-15.39,20.97-17.59,14.75-3.88,30.28,3.28,38.86,15.38.93,1.29,1.76,2.64,2.5,4.03.19.34.35.68.53,1.02,1.29,2.61,2.33,5.38,3.1,8.19,2.94,10.56-1.27,19.46-11.04,24.43-1.37.69-2.78,1.29-4.22,1.8-1.58.59-3.2,1.05-4.83,1.42-1.62.39-3.27.69-4.93.93Zm11.3,27.48c-.14-3.09-.76-6.17-1.84-9.05-.48-3.61-.64-7.21-.54-10.82,4.45-1.44,8.18-3.16,11.28-5.05,4.68-2.89,7.96-6.18,10.21-9.61,4.63-7.09,4.83-14.75,4.03-20.35-.72-4.91-2.22-8.25-2.22-8.25-1.73-3.24-3.78-6.29-6.15-9.09,2.93-3.67,6.38-6.87,10.68-9.32,9.26-5.24,18.82-5.25,26.8,1.71,4.94,4.31,9.42,9.73,12.63,15.5.39.68.76,1.37,1.1,2.07.83,1.66,1.61,3.32,2.34,5.01h0c7.35,17.14,9.15,35.33,5.92,53.95-.16.93-.37,1.85-.6,2.78-.53,1.96-1.22,3.91-2.07,5.78-.83,1.91-1.82,3.74-2.9,5.46-.71,1.14-1.61,2.12-2.61,2.95-1.82,1.51-4.06,2.5-6.38,2.98-1.14.24-2.31.35-3.48.34-2.65-.03-4.87-.82-7.28-1.85-2.65-1.14-3.55-2.63-3.33-5.77.01-.11.01-.22.03-.33.15-1.54.56-3.05.84-4.56.05-.29.11-.57.15-.86.26-1.66.3-3.33.3-5.01,0-2.16-.07-4.34-.72-6.38-.67-2.06-2.03-3.96-3.97-4.85,1.43,1.88,1.7,4.4,1.61,6.75-.15,3.5-.99,6.74-2.38,9.6-.69,1.44-1.52,2.78-2.49,4.02-4.91,6.37-13.04,9.89-21.86,8.77-1.13-.15-2.19-.37-3.2-.67-1.67-.48-3.18-1.17-4.55-2.01-4.79-2.99-7.68-8.06-9.34-13.84Zm51.99,75.39c-.14-.18-.27-.35-.42-.53.15-.04.29-.07.42-.11v.64Zm-4.38-9.54c-4.83.69-9.72.68-14.54,1.42-.78.12-1.55.27-2.31.48-1.97.53-3.89,1.44-5.31,2.91-1.43,1.47-2.31,3.54-2.04,5.57.52-2.19,1.96-4.14,3.91-5.27,2.21-1.32,4.83-1.54,7.34-1.44,1.12.04,2.25.01,3.27.49,1.21.56,2.38,1.1,3.46,1.91,6.78,4.97,10.89,17.99,7.98,26.54-4.98,14.55-29.37,17.82-35.69,2.53-.22-.5-.39-1.02-.54-1.54-1.43-5.16.39-9.9,1.33-14.9.91-4.85.72-9.98.22-14.85-1.05-10.22-4.23-20.06-7.12-29.86-1.31-4.41-2.11-9.15-.88-13.58.5-1.81,1.33-3.53,2.44-5.14,9.08,6.34,20.91,6.49,31.16-.35.61-.41,2.22-2.03,2.93-2.04.63-.01,2.03,1.46,2.63,1.84,1.92,1.27,4.02,2.3,6.21,3.08,4.32,1.5,8.98,1.97,13.5,1.29.15-.03.3-.04.45-.07.31-.05.63-.12.94-.19.76,1.1,1.46,2.25,2.08,3.42.19.34.35.68.53,1.02,1.29,2.63,2.33,5.39,3.12,8.21,2.93,10.55-1.28,19.45-11.05,24.42-1.36.69-2.78,1.29-4.21,1.81-1.58.57-3.2,1.03-4.83,1.42-1.63.38-3.28.68-4.94.91Zm85.54,24.2c-.16.93-.37,1.85-.6,2.76-.53,1.96-1.23,3.91-2.06,5.78-.84,1.92-1.82,3.76-2.9,5.47-2.64,4.19-7.65,6.33-12.49,6.26-2.65-.01-4.87-.82-7.27-1.84-2.65-1.14-3.57-2.64-3.35-5.77.14-1.95.74-3.84,1.03-5.76.26-1.65.29-3.33.29-5.01,0-2.15-.05-4.33-.72-6.38-.65-2.06-2.01-3.96-3.97-4.85,1.43,1.89,1.71,4.4,1.62,6.76-.6,14.29-12.78,24.16-26.75,22.36-9.68-1.23-14.66-8.13-17.08-16.56-.14-3.05-.76-6.1-1.82-8.96-.48-3.62-.64-7.25-.54-10.89,4.45-1.43,8.18-3.14,11.27-5.04,4.7-2.87,7.98-6.18,10.21-9.61,4.63-7.09,4.85-14.75,4.03-20.35-.72-4.9-2.22-8.23-2.22-8.23-1.73-3.23-3.77-6.26-6.1-9.05.41-.35.8-.75,1.17-1.17.6-.68,1.14-1.39,1.65-2.14,1.18-1.21,2.45-2.34,3.81-3.39,1.86,1.65,3.82,3.17,5.81,4.61,5.57,3.99,11.83,3.39,16.66-1.44,1.92-1.95,3.42-4.3,5.04-6.56,1.13.69,2.22,1.5,3.29,2.44,4.94,4.3,9.42,9.7,12.63,15.49.39.68.76,1.39,1.12,2.08.83,1.66,1.61,3.33,2.33,5.01,7.36,17.12,9.16,35.32,5.92,53.95Zm80.06-54.36c3.82,18.4,2.37,36.53-4.64,54.06-2.99,7.47-7.13,14.1-14.39,18.36-7.49,4.4-12.77,2.53-15.53-5.76-.84-2.52-1.44-5.16-2.67-7.46-3.25-6.14-8.71-6.87-13.34-1.73-2.56,2.84-4.45,6.27-6.83,9.28-4.02,5.04-7.55,5.69-12.58,1.96-.39-.3-.8-.6-1.18-.93-.23-.18-.46-.37-.68-.57-.27-.22-.54-.45-.8-.68-.27-.23-.53-.46-.79-.71,2.14-7.47,2.23-15.37,2.12-23.14-.27-17.64-3.51-35.03-12.25-50.06.2-.56.41-1.1.61-1.66.18-.49.37-.98.56-1.46.19,0,.38,0,.57-.01,4.16-.24,8.17-1.57,11.71-3.77,5.34-3.33,9.26-8.04,12.33-13.32.16.05.31.12.48.2.16.07.34.15.5.23,8.66,4.3,12.6,15.09,10.1,24.19-.39,1.43-1.02,2.71-1.59,4.07-.72,1.71-1.91,3.08-3.05,4.56-1.92,2.5-3.88,5.06-4.97,8.03-1.59,4.33-1.16,9.38,1.17,13.35.34-2.42.67-4.87,1.48-7.17,1.47-4.12,4.83-7.38,9.41-7.49,4.26-.1,7.53,3.09,9.19,6.76,4.15,9.24,7.17,20.8,2.71,29.32.54-.41,1.09-.95,1.59-1.44.57-.56,1.03-1.21,1.43-1.89,1.67-2.9,2.54-6.23,2.79-9.55.01-.15.03-.31.03-.46.26-4.55-.56-9.09-1.61-13.52-1.09-4.61-2.67-9.02-3.96-13.56-1.28-4.46-1.66-9.2-1.74-13.83-.12-7.42,5-13.31,11.94-15.43,3.18-.97,6.72-.91,9.73.48,3.58,1.66,5.8,4.9,7.5,8.33,1.99,3.97,3.73,8.03,4.65,12.41Zm14.6-53.86c-.86,3.16-2.14,5.8-3.74,8.83-1.2,2.27-2.4,4.52-3.65,6.76-1.27,2.3-2.54,4.15-3.81,5.53-4.78,5.19-11.17,6.1-17.53,3.32-3.92-1.71-7.47-4.7-9.02-8.74-.86-2.27-1.63-4.56-2.33-6.89-.5-1.69-.64-3.65-.99-5.23-.2-.84-.49-1.55-.84-2.12-.5-.46-1.16-.86-1.95-1.2-1.48-.63-3.4-1.1-4.97-1.89-2.18-1.09-4.3-2.25-6.38-3.5-3.72-2.22-6.04-6.23-7.05-10.4-1.62-6.74.38-12.88,6.33-16.69,1.58-1.01,3.61-1.95,6.1-2.79,2.42-.84,4.86-1.63,7.31-2.42,3.25-1.05,6.07-1.85,9.34-2.15,11.09-.99,21.48,1.91,28.08,10.15,6.98,7.94,8.03,18.66,5.12,29.41Zm-.27-42.17c-3.59.98-7.7.6-10.9-1.35-6.17-3.74-7.19-11.6-4.83-17.93,2.97-8.02,10.71-14.21,19.57-13.72l.33.08c.35-.03.74.03,1.14.16l.46.1,1.7.56.39.12c6.83,2.93,8.81,10.7,6.87,17.31-2.04,7.04-7.69,12.74-14.74,14.66Zm34.52,51.49c-1.16,3.69-3.93,6.74-7.24,8.64-4.1,2.35-8.51,3.13-13.22,2.31l-2.31-.68-1.85-.79-1.82-1.1-.29-.3c-.1-.07-.19-.14-.27-.18l-1.08-.95-.98-1.24-.93-1.48-.5-1.24-.44-1.44c-1.09-6.37,3.14-12.02,8.62-14.74,3.42-1.7,7.02-2.34,10.82-1.93,7.54.83,13.99,7.09,11.49,15.12Zm7.19-39.34c-1.05,8.79-8.49,15.35-16.9,16.89-6.64,1.21-14.2-1.16-16.81-7.88-1.37-3.48-1.02-7.61.56-10.97,3.13-6.6,9.72-11.19,17-11.98,6.86-.75,14.17,2.55,15.86,9.79l.05.39.26,1.78v.48c.08.42.07.8-.03,1.14v.35Z"/>
  <path class="cls-1" d="m246.92,295.12c-.27-.08-.54-.14-.82-.16-1.28-.12-2.52.52-3.52,1.32-2.29,1.84-3.78,4.6-4.08,7.51-.54,5.36,5.17,14.17,10.21,7.47,1.67-2.22,3.18-4.75,3.46-7.57.29-2.9-.94-4.48-2.71-6.64-.68-.83-1.54-1.58-2.53-1.93Z"/>
  <path class="cls-1" d="m179.83,287.41c.05-.08.1-.15.15-.23,1.54.73,3.46-1.43,4.25-2.69,1.28-2,2.19-4.26,2.36-6.63.16-2.37-.5-4.83-2.08-6.59-1.58-1.76-4.14-2.71-6.42-2.1-2.4.64-4.17,2.89-4.66,5.31-.49,2.44.16,5,1.39,7.15,1.23,2.15,3.09,4.26,5.02,5.78Z"/>
  <path class="cls-1" d="m189.8,217.92c1.66-2.2,3.18-4.75,3.44-7.57.3-2.9-.93-4.48-2.69-6.63-.69-.83-1.55-1.59-2.55-1.93-.26-.08-.53-.15-.8-.18-1.28-.12-2.52.53-3.52,1.32-2.29,1.84-3.8,4.61-4.08,7.53-.56,5.36,5.17,14.16,10.21,7.46Z"/>
  <path class="cls-1" d="m120.92,194.07c.04-.07.1-.15.15-.22,1.54.74,3.44-1.43,4.25-2.71,1.27-1.99,2.19-4.26,2.34-6.63.16-2.35-.49-4.83-2.07-6.57-1.59-1.77-4.15-2.71-6.44-2.1-2.38.63-4.16,2.87-4.66,5.29-.49,2.44.18,5,1.4,7.16,1.22,2.15,3.09,4.26,5.02,5.77Z"/>
</svg>