<?xml version="1.0" encoding="UTF-8"?>
<svg id="Layer_3" data-name="Layer 3" xmlns="http://www.w3.org/2000/svg" viewBox="0 0 500 500">
  <defs>
    <style>
      .cls-1 {
        fill: #fcd146;
      }
    </style>
  </defs>
  <path class="cls-1" d="m280.77,166.53c7.97-8.15,16.8-15.09,26.31-20.69h-56.88v66.94c2.38-5.45,5.01-10.72,7.87-15.78,6.47-11.42,14.11-21.67,22.71-30.47Z"/>
  <path class="cls-1" d="m374.42,333.47c-7.97,8.15-16.8,15.09-26.31,20.69h56.88v-66.94c-2.38,5.45-5.01,10.72-7.87,15.78-6.47,11.42-14.11,21.67-22.71,30.47Z"/>
  <path class="cls-1" d="m102.87,303c-2.86-5.05-5.49-10.33-7.87-15.78v66.94h56.88c-9.51-5.6-18.34-12.54-26.31-20.69-8.6-8.8-16.24-19.05-22.71-30.47Z"/>
  <path class="cls-1" d="m405,147.18v65.45c-15.02,1.22-29.46,4.94-43.4,11.13-48.08,21.56-83.02,68.33-104.96,115.82-2.09,4.65-4.1,9.38-5.87,14.18-.06.15-.41.23-.78.23v-3.72c9.44-74.37,46.39-151.15,115.1-187.52,5.23-2.82,10.95-5.49,16.44-7.79,2.99-1.28,7.61-3.02,10.69-4.12,1.68-.58,4.88-1.6,6.54-2.15,2.06-.73,4.15-1.22,6.25-1.51Z"/>
  <path class="cls-1" d="m249.99,350.27v3.72c-.35,0-.73-.09-.76-.23-1.77-4.79-3.78-9.53-5.9-14.18-21.9-47.5-56.88-94.27-104.93-115.82-13.97-6.19-28.41-9.91-43.4-11.13v-65.45c2.09.29,4.18.78,6.25,1.51,1.66.55,4.85,1.57,6.54,2.15,3.05,1.1,7.67,2.85,10.66,4.12,5.52,2.3,11.24,4.97,16.47,7.79,68.67,36.37,105.65,113.15,115.07,187.52Z"/>
</svg>