<?xml version="1.0" encoding="UTF-8"?>
<svg id="Layer_3" data-name="Layer 3" xmlns="http://www.w3.org/2000/svg" viewBox="0 0 500 500">
  <defs>
    <style>
      .cls-1 {
        fill: #fcd146;
      }
    </style>
  </defs>
  <path class="cls-1" d="m209.22,260.87c4.76,0,9.5.52,14.1,1.55l-1.7,7.57c-4.04-.91-8.22-1.37-12.41-1.37h-29.95c-2.14,0-3.88-1.74-3.88-3.88h0c0-2.14,1.74-3.88,3.88-3.88h29.95Zm53.83,46.37c1.98,5.87,2.98,11.99,2.98,18.2,0,15.97-6.79,31.3-18.63,42.06h0c-10.47,9.51-24.03,14.74-38.18,14.74-6.85,0-13.42-1.22-19.51-3.45-18.79-6.89-32.94-23.45-36.44-43.61-.55-3.17-.85-6.42-.85-9.74v-115.73c0-41.74,25.98-78.27,65.03-92.03,1.96-.69,3.02-2.81,2.41-4.8h0c-.65-2.11-2.93-3.25-5-2.51-42.15,14.86-70.19,54.28-70.19,99.34v115.73c0,6.66,1.02,13.09,2.9,19.14,0,.01,0,.02,0,.03,1.54,4.94,3.67,9.63,6.28,13.98.06.1.11.2.17.29,1.96,3.22,4.21,6.25,6.69,9.07.25.29.49.58.75.86.26.29.54.56.81.85.44.47.88.94,1.33,1.4.25.25.51.48.77.73.49.47.97.95,1.48,1.41.14.13.29.25.43.38.63.56,1.26,1.12,1.91,1.66.43.35.88.69,1.31,1.03.38.29.74.6,1.13.88,1.36,1.02,2.78,1.97,4.22,2.88.31.2.62.41.93.6.74.45,1.5.88,2.26,1.3.15.08.29.17.44.25,9.15,4.98,19.63,7.81,30.75,7.81,16.09,0,31.5-5.95,43.39-16.76,13.45-12.23,21.17-29.65,21.17-47.8,0-7.05-1.14-14.01-3.38-20.67l-7.35,2.48Zm92.3-97.53c0-23.01-7.28-44.87-21.07-63.21-12.52-16.66-30-29.43-49.57-36.27-2.08-.73-4.35.43-4.99,2.53h0c-.61,1.99.46,4.1,2.43,4.78,39.3,13.65,65.44,50.23,65.44,92.17h0v115.73c0,31.32-25.48,56.81-56.8,56.81-.99,0-1.98-.03-2.97-.08h-.1c-.09-.01-.18-.02-.27-.02-.95-.06-1.9-.13-2.84-.23-.05,0-.09,0-.13-.02-.03,0-.05,0-.08-.01-.91-.1-1.82-.23-2.72-.38-.23-.04-.45-.08-.68-.12-.87-.15-1.74-.32-2.61-.51l-.85,3.79-.92,3.77s.05.01.07.02h0s.01,0,.02,0c.59.14,1.18.27,1.67.35.42.08.85.15,1.28.23.25.04.5.09.76.13,1.03.17,2.08.32,3.12.43.02,0,.05,0,.07,0,.05,0,.1.01.15.02.48.06.96.1,1.37.13.61.06,1.23.1,1.89.14.12,0,.25.02.37.02h.09c.51.03,1.01.05,1.52.07h.14c.55.02,1.1.03,1.66.03,35.6,0,64.56-28.96,64.56-64.56v-115.73h0Zm-102.73,73.67c7.28-6.61,16.19-11.24,25.77-13.37,4.04-.91,8.22-1.37,12.41-1.37h29.95c2.14,0,3.88-1.74,3.88-3.88h0c0-2.14-1.74-3.88-3.88-3.88h-29.95c-4.76,0-9.5.52-14.1,1.55-10.89,2.43-21.02,7.68-29.3,15.2-8.13,7.4-14.28,16.77-17.77,27.11-2.26,6.66-3.4,13.62-3.4,20.69s1.14,14.04,3.4,20.69l7.35-2.49c-1.98-5.85-2.99-11.97-2.99-18.2s1.01-12.35,2.99-18.21c3.07-9.1,8.48-17.35,15.64-23.86Zm72.17-73.67c0-41.62-34.18-75.41-75.95-74.78-41.03.63-73.62,34.87-73.62,75.91v23.64c0,2.14,1.74,3.88,3.88,3.88s3.88-1.74,3.88-3.88v-24.77c0-37.39,30.77-67.73,68.32-67.01,36.69.7,65.73,31.44,65.73,68.14v24.2c0,2.14,1.74,3.88,3.88,3.88s3.88-1.74,3.88-3.88v-25.33Zm-76.53,38.49c-11.79-5.96-25.02-9.17-38.26-9.29-2.13-.02-3.85-1.75-3.85-3.88v-26.39c0-24.54,20.08-45.14,44.61-44.72,23.83.41,43.1,19.92,43.1,43.85v27.26c0,2.13-1.72,3.86-3.85,3.88-13.25.12-26.48,3.33-38.26,9.28h0c-1.1.56-2.4.56-3.5,0h0Zm-34.35-16.93c12.48.63,24.85,3.76,36.1,9.14,11.24-5.39,23.61-8.52,36.1-9.14v-23.5c0-19.9-16.19-36.1-36.1-36.1s-36.1,16.19-36.1,36.1v23.5Z"/>
</svg>