<?xml version="1.0" encoding="UTF-8"?>
<svg id="Layer_3" data-name="Layer 3" xmlns="http://www.w3.org/2000/svg" viewBox="0 0 500 500">
  <defs>
    <style>
      .cls-1 {
        fill: #fcd146;
      }
    </style>
  </defs>
  <path class="cls-1" d="m323.6,201.76h35.81c26.6,0,48.24,21.64,48.24,48.24,0,12.89-5.02,25-14.13,34.11-9.11,9.11-21.22,14.13-34.1,14.13h-53.43l-36.96-36.96c-2.14-2.14-5.6-2.14-7.74,0-2.14,2.14-2.14,5.6,0,7.74l38.57,38.57c1.03,1.03,2.42,1.6,3.87,1.6h55.7c15.8,0,30.66-6.16,41.84-17.33,11.18-11.17,17.34-26.03,17.34-41.84,0-32.63-26.55-59.18-59.18-59.18h-35.81c-3.02,0-5.47,2.45-5.47,5.47s2.45,5.47,5.47,5.47Z"/>
  <path class="cls-1" d="m140.6,298.24c-26.6,0-48.24-21.64-48.24-48.24,0-12.89,5.02-25,14.13-34.11,9.11-9.11,21.22-14.12,34.11-14.12h53.43l37.19,37.19c2.14,2.14,5.6,2.14,7.74,0,2.14-2.14,2.14-5.6,0-7.73l-38.79-38.79c-1.03-1.03-2.42-1.6-3.87-1.6h-55.7c-15.81,0-30.67,6.15-41.84,17.33-11.18,11.18-17.34,26.04-17.34,41.85,0,32.63,26.55,59.18,59.18,59.18h55.7c1.45,0,2.84-.58,3.87-1.6l105.99-105.99c1.03-1.03,1.6-2.42,1.6-3.87v-31.26c0-3.02-2.45-5.47-5.47-5.47s-5.47,2.45-5.47,5.47v28.99l-102.79,102.79h-53.43Z"/>
  <path class="cls-1" d="m335.53,339.01c3.02,0,5.47-2.45,5.47-5.47s-2.45-5.47-5.47-5.47h-7.1c-3.02,0-5.47,2.45-5.47,5.47s2.45,5.47,5.47,5.47h7.1Z"/>
  <path class="cls-1" d="m323.6,171.93h35.81c43.05,0,78.07,35.02,78.07,78.07s-35.02,78.07-78.07,78.07h-2.48c-3.02,0-5.47,2.45-5.47,5.47s2.45,5.47,5.47,5.47h2.48c49.08,0,89.01-39.93,89.01-89.01s-39.93-89.01-89.01-89.01h-35.81c-3.02,0-5.47,2.45-5.47,5.47s2.45,5.47,5.47,5.47Z"/>
  <path class="cls-1" d="m140.6,171.93h140.38c3.02,0,5.47-2.45,5.47-5.47s-2.45-5.47-5.47-5.47h-140.38c-3.02,0-5.47,2.45-5.47,5.47s2.45,5.47,5.47,5.47Z"/>
  <path class="cls-1" d="m65.11,291.26c.79,0,1.59-.17,2.35-.53,2.73-1.3,3.89-4.56,2.59-7.29-5-10.49-7.53-21.74-7.53-33.44,0-3.46.23-6.94.68-10.34.4-2.99-1.71-5.75-4.7-6.14-3-.4-5.75,1.71-6.14,4.7-.52,3.88-.78,7.84-.78,11.79,0,13.33,2.89,26.17,8.59,38.14.94,1.97,2.9,3.12,4.94,3.12Z"/>
  <path class="cls-1" d="m72.6,201.7c2.35,1.9,5.79,1.53,7.69-.82,7.31-9.04,16.36-16.18,26.9-21.24,3.12-1.5,6.36-2.79,9.62-3.85,2.87-.94,4.44-4.02,3.51-6.89-.94-2.88-4.02-4.44-6.89-3.51-3.72,1.21-7.41,2.69-10.96,4.39-12.02,5.76-22.35,13.91-30.68,24.23-1.37,1.7-1.56,3.96-.68,5.81.34.71.84,1.36,1.49,1.89Z"/>
  <path class="cls-1" d="m307.12,328.07h-166.52c-22.13,0-43.32-9.48-58.14-26.02-2.02-2.25-5.48-2.44-7.72-.42-2.25,2.02-2.44,5.48-.42,7.72,16.89,18.85,41.05,29.66,66.28,29.66h166.52c3.02,0,5.47-2.45,5.47-5.47s-2.45-5.47-5.47-5.47Z"/>
</svg>