<?xml version="1.0" encoding="UTF-8"?>
<svg id="Layer_3" data-name="Layer 3" xmlns="http://www.w3.org/2000/svg" viewBox="0 0 500 500">
  <defs>
    <style>
      .cls-1 {
        fill: #fcd146;
      }
    </style>
  </defs>
  <path class="cls-1" d="m358.07,105.7c-7.48,4.06-14.96,8.06-22.39,12.18-4.08,2.26-8.22,4.49-12.05,7.13-7.61,5.24-13.21,12.12-15.14,21.38-.98,4.67-1.16,9.47-.67,14.21.32,3.08.9,6.12,1.68,9.12.39,1.52.83,3.02,1.3,4.52.43,1.35.77,2.71.26,4.11-.32.88-.98,1.75-1.46,2.57-.6,1.03-1.19,2.05-1.79,3.08-1.55,2.67-3.1,5.33-4.64,8-1.82,3.13-3.64,6.26-5.45,9.4-1.84,3.17-3.68,6.35-5.53,9.52-1.62,2.79-3.24,5.58-4.86,8.38-.17.29-.33.57-.5.86-.83,1.43-1.59,2.92-2.5,4.3-.61.93-1.06,1.9-1.92,2.66-1.67,1.45-3.96,2.08-6.11,2.36-6.6.84-10.54-3.12-13.49-8.48-17.48-31.75-34.99-63.49-52.47-95.24-.87-1.59-1.78-3.21-2.32-4.92-1.75-5.47.77-9.05,6.52-9.22,2.76-.08,21.7-.09,21.7-.09.25,0,.45-.2.45-.45v-4.88c0-.25-.2-.45-.45-.45h-51.07l3.14,5.79,78.08,143.85-6.85,11.81-84.49-155.66-3.14-5.79h-32.29c-.25,0-.45.2-.45.45v4.88c0,.25.2.45.45.45h12.87c1.11,0,2.23.11,3.3.42,3.01.88,5.44,2.91,7.44,5.73,1.7,2.41,3.24,4.96,4.66,7.56,5.03,9.2,9.96,18.45,14.93,27.68,20.22,37.54,40.45,75.06,60.65,112.6,3.43,6.37,6.75,14.89,3.98,22.08-.93,2.41-2.45,4.66-3.75,6.9-1.28,2.21-2.57,4.42-3.85,6.63-2.69,4.64-5.39,9.29-8.08,13.93-1.74,3.01-3.66,5.86-5.27,8.93-3.74,7.15-7.37,14.5-8.94,22.49-4.37,20.77,9.06,41.46,26.61,46.41,14.16,4.28,29.79-1.1,40.25-12.7,8.01-8.81,13.39-21.08,13.18-33.96.07-7.36-1.88-16.83-2.77-24.09l-5.28,10.44c-2.18,4.31-5.16,8.02-8.66,10.49-2.21,1.49-4.5,2.53-6.99,2.82-2.88.37-5.69-.22-8.74-.21-4.35-.13-8.93,1.64-12.36,4.5-5.28,4.23-8.5,10.36-10.6,16.88,1.64,2.27,3.43,4.49,5.62,6.11,4.95,3.97,11.75,4.4,17.22,2.44,6.96-2.58,13.51-7.71,16.79-15.31-4.37,6.11-11.03,9.85-17.64,11.17-5.66,1.15-11.36-.6-15.04-5.41.81-1.64,1.74-3.16,2.77-4.56,2.62-3.59,6.22-6.51,10.17-7.23,1.82-.34,3.92-.13,6.38.13,5.55.89,11.66-.33,16.41-3.77,1.97-1.39,3.76-3.01,5.35-4.83.18,5.49-.49,10.79-2.46,15.95-6.96,18.47-25.15,30.07-42.5,25.88-16-3.68-28.76-21.59-25.66-40.68,1.13-7.56,4.1-14.64,7.44-21.26.34-.72.7-1.42,1.07-2.1.29-.47.58-.94.87-1.41.83-1.33,1.65-2.66,2.48-3.98,1.29-2.07,2.58-4.15,3.87-6.22,1.68-2.71,3.36-5.41,5.05-8.12,2.01-3.23,4.01-6.45,6.02-9.68,2.26-3.63,4.52-7.27,6.77-10.9,2.44-3.93,4.88-7.85,7.32-11.78,2.55-4.11,5.1-8.21,7.65-12.32,2.59-4.17,5.18-8.34,7.78-12.52,2.56-4.12,5.13-8.25,7.69-12.37,2.46-3.96,4.93-7.93,7.39-11.89,2.29-3.69,4.59-7.38,6.88-11.07,2.05-3.3,4.1-6.6,6.16-9.91,1.74-2.8,3.48-5.6,5.22-8.41,1.36-2.19,2.72-4.38,4.08-6.56,1.27-2.05,2.14-4.54,4.29-5.78,1.57-.92,3.42-1.43,5.15-1.95,1.5-.45,2.98-.95,4.45-1.49,2.84-1.05,5.62-2.28,8.28-3.72,5.16-2.79,9.86-6.43,13.66-10.91,3.77-4.45,6.57-9.64,8.46-15.15,4.78-13.97,3.56-28.12.44-41.71Z"/>
  <path class="cls-1" d="m281.25,179.57c1.26,1.15,2.76,2.04,4.32,2.73,3.2,1.41,6.79,2.05,10.29,1.88,1.66-.08,3.42-.3,4.98-.91.62-.24,1.26-.51,1.85-.83.18-.1.36-.21.54-.33.27-.18,2.12-1.51,1.98-1.87-1.28-3.16-2.88-6.18-4.78-9.01-1.89-2.78-4.33-5.33-6.88-7.5-3.57-3.04-7.78-4.61-12.2-5.3h0s-.12-.02-.12-.02c-.22-.03-.43-.06-.65-.09l-14.44-2.01,3.57,7.37c2.84,6.04,6.58,11.36,11.55,15.89Z"/>
</svg>