<?xml version="1.0" encoding="UTF-8"?>
<svg id="Layer_3" data-name="Layer 3" xmlns="http://www.w3.org/2000/svg" viewBox="0 0 500 500">
  <defs>
    <style>
      .cls-1 {
        fill: #fcd146;
      }
    </style>
  </defs>
  <path class="cls-1" d="m317.48,224.58c.04.15-.82,7.33-.88,7.73-1.2,6.47-3.35,12.79-6.25,18.7-10.09,20.5-29.17,34.06-50.54,41.11-9.77,3.24-19.91,5.25-30.16,6.17-3.59.32-7.22.36-10.83.36h-3.99c-3.01,0-5.99.02-8.98.24h-.04c-2.08.15-4.19.36-6.25.73-3.67.62-7.35,1.67-10.7,3.3h0c-1.33.64-2.62,1.37-3.84,2.19-.6.41-1.2.86-1.78,1.31-.58.45-1.14.94-1.68,1.46-.9.86-1.72,1.74-2.49,2.66-.26.3-.49.62-.73.94-1.91,2.51-3.35,5.25-4.36,8.12-.26.71-.47,1.44-.69,2.16-.41,1.46-.69,2.96-.9,4.48-.11.75-.17,1.52-.21,2.29-.04.77-.09,1.54-.09,2.31v1.16c.06,2.7.41,5.42,1.01,8.12.17.77.37,1.54.56,2.29.04.19.11.39.15.58,1.03,3.6,2.47,7.09,4.27,10.35,1.2,2.19,2.56,4.26,4.04,6.21.73.96,1.5,1.91,2.32,2.81.79.9,1.63,1.76,2.49,2.57.86.81,1.74,1.59,2.66,2.29.6.47,1.22.94,1.83,1.39.62.45,1.25.9,1.87,1.33,4.68,3.24,9.67,5.83,14.84,7.91,1.01.41,2.02.79,3.03,1.14.56.19,1.14.41,1.7.58,3.87,1.29,7.82,2.31,11.83,3.09,2.58.51,5.2.92,7.82,1.24,6.19.77,12.5,1.09,18.79,1.09h2.21c10.35-.13,20.68-1.05,30.56-2.19,39.46-4.48,73.54-25.28,91.09-61.21,1.14-2.31,2.19-4.65,3.2-7.03h0c11.25-26.61,14.45-56.65,8.96-85.01-.43-2.27-.95-4.54-1.48-6.79l-68.11-1.31c-.13,2.01-.28,3.15-.28,3.15l.02-.02Zm4.38,4.33c.13-1.09.21-1.93.3-2.59l59.86,1.16c.21.99.41,1.97.6,2.96,2.88,14.87,3.31,30.19,1.29,45.48-1.74,13.18-5.24,25.86-10.42,37.81-7.84-1.07-15.81-.88-23.43,1.05-11.58,2.94-22.32,10.13-28.09,20.57-5.43,9.81-5.91,22.52-.34,32.18-11.58,5.42-24.33,8.93-38.08,10.5-8.2.94-19.03,2.01-30.07,2.14h-2.15c-6.59,0-12.56-.34-18.21-1.05-.24-.02-.47-.06-.71-.11-.52-11.27-3.03-28.58-12.37-45.87-8.27-15.3-18.15-23.67-24.18-27.79,1.44-.43,2.94-.77,4.51-1.03,1.76-.3,3.63-.51,5.71-.66h.11c2.88-.19,5.86-.21,8.66-.21h3.97c3.37,0,7.3-.02,11.25-.39,10.87-.99,21.37-3.13,31.23-6.38,24.55-8.12,43.49-23.59,53.35-43.55,3.16-6.41,5.39-13.11,6.66-19.92.06-.34.24-1.8.54-4.31l.02.02Z"/>
  <path class="cls-1" d="m175.96,241.1c-2.08,3.3-6.12,9.45.06,11.23,10.25,2.93,24.03-12.92,29.45-19.54,7.71-9.45,12.8-20.55,14.43-32.65,1.37-10.24,0-20.46,2.43-30.62,1.03-4.28,2.56-8.18,4.49-11.74,1.68-3.09-1.29-6.62-4.64-5.57-5.69,1.8-11.3,4.11-17.03,6.49l-1.78.75c-1.44.6-2.84,1.2-4.3,1.86-5.03,2.23-10.61,3.86-14.82,7.54-1.72,1.5-2.6,3.26-3.29,5.4-1.27,3.9-1.1,8.12-.21,12.08.04.24.11.47.15.71,2.86,11.87,7,24.1,3.67,36.29-1.74,6.43-5.05,12.15-8.59,17.76h-.02Z"/>
  <path class="cls-1" d="m163.16,153.24c8.33,10.09,16.26,10.8,28.09,6.17,3.59-1.41,6.77-2.96,10.27-4.39,13.3-5.48,25.69-10.9,40.57-11.05,62.35-.09,73.95,42.1,75.6,65.47.15,2.21.21,4.24.24,6.04l66.33,1.26c-.6-2.04-1.25-4.07-1.93-6.08-.09-.24-.15-.45-.24-.66-13.72-39.12-62.61-69.16-102.77-73.08-15.72-1.54-32.69-2.91-48.46-.6-9.9,1.46-19.07-.26-28.31-4.65-9.24-4.39-16.43-11.95-25.58-17.1-10.85-6.06-21.63-8.98-34.88-8.87-9.28.06-28.39.32-33.01,10.93-2.79,6.43,4.38,6.45,8.4,7.01,6.83.96,13.12,1.56,19.35,4.33,11.77,5.25,18.36,15.6,26.33,25.26v.02Z"/>
  <path class="cls-1" d="m391.07,351.52c-1.07-1.97-3.46-2.74-5.63-3.36-4.3-1.22-8.83-2.14-13.04-3.51-1.55-.49-3.18-.49-4.68-.06-.75.21-1.48.54-2.15.96-1.44.9-2.71,3.19-3.87,4.46-1.5,1.65-3.07,3.26-4.68,4.82-8.83,8.57-19.09,15.6-30.18,20.91-13.25,6.36-27.6,10.2-42.2,11.87-8.42.96-19.57,2.08-31.06,2.21h-2.28c-7,0-13.36-.36-19.39-1.14-16.39-2.06-29.92-6.88-41.35-14.78-1.35-.92-2.66-1.91-3.95-2.91-8.03-6.34-14.39-16.07-17.42-26.67-.06-.21-.13-.43-.19-.66-4.19-15.4-.82-29.69,9.21-39.25,2.43-2.29,5.28-4.24,8.53-5.81,3.59-1.74,7.6-2.98,11.98-3.71,2.06-.34,4.23-.6,6.64-.77h.39c3.07-.19,6.16-.21,9.04-.21h3.99c3.16,0,6.83,0,10.4-.34,6.14-.54,12.24-1.52,18.24-2.91,14.71-3.41,28.67-9.47,40.42-19.07.19-.15.37-.32.56-.47,1.35-1.16,2.68-2.36,3.95-3.6,1.03-1.01,1.98-1.71,1.95-3.28,0-2.74-1.48-5.25-3.99-6.41-3.18-1.48-6.06-3.41-8.48-5.66-3.09-2.83-5.58-6.08-7.8-9.56-2.41-3.77-9.34-2.36-10.83,2.25-.62,1.91-1.2,3.86-1.72,5.78-.95,3.51-1.76,7.07-2.38,10.65-1.05,5.98-1.37,11.83-4.27,17.33-2.56,4.88-6.79,8.98-12.41,9.9-5.5.9-11.1,1.59-16.69,1.67-7.26.09-16.04-.45-21.84,0-10.67.64-21.76,3.94-29.49,11.68-6.23,6.23-10.18,14.08-11.43,22.82-1.57,11.1,3.18,27.72-8.74,35.01-5.24,3.21-13.21,2.21-19.09,2.23-1.12,0-2.19.15-3.2.45-4.92,1.39-8.53,5.91-8.53,11.27,0,4.63,2.71,8.61,6.59,10.52,1.18.58,2.45.9,3.74,1.05l1.03.13c2.92.3,5.82.6,8.74.9,30.35,3.13,60.55,7.39,91.09,7.99,9.17.19,18.34.09,27.51-.47,6.64-.41,13.25-1.03,19.82-2.04,6.83-.81,13.83-2.04,20.53-3.81,7.6-1.95,15.01-4.63,22.1-7.99,5-2.38,9.79-5.03,15.06-6.86,5.18-1.78,10.52-3.09,15.87-4.33,7.17-1.65,14.28-3.28,21.35-5.25,2.19-.6,4.34-1.31,6.49-2.08,2.28-.84,4.64-1.61,6.36-3.41,1.63-1.69,2.47-4.39,1.33-6.45l.04-.02Z"/>
</svg>