<?xml version="1.0" encoding="UTF-8"?>
<svg id="Layer_3" data-name="Layer 3" xmlns="http://www.w3.org/2000/svg" viewBox="0 0 500 500">
  <defs>
    <style>
      .cls-1 {
        fill: #fcd146;
      }
    </style>
  </defs>
  <rect class="cls-1" x="109.52" y="170.81" width="15.66" height="55.69" rx="1.06" ry="1.06" transform="translate(347.29 179.76) rotate(115.87)"/>
  <rect class="cls-1" x="109.52" y="235.51" width="15.66" height="55.69" rx="1.06" ry="1.06" transform="translate(-68.41 483.86) rotate(-115.87)"/>
  <rect class="cls-1" x="82.26" y="192.49" width="15.66" height="77.02" rx="1.06" ry="1.06" transform="translate(321.1 140.91) rotate(90)"/>
  <path class="cls-1" d="m400.39,316.91l28.46-31.84c28.16-31.28,25.63-79.63-5.65-107.79-2.84-2.56-5.67-5.2-8.51-7.86l-.15-.14c-3.15-2.94-6.32-5.9-9.55-8.81-10.35-9.32-23.08-19.81-38.99-26.96-25.48-11.45-55.28-12.81-78.4-12.71l-105.39.43c-18.76.08-34.9,13.02-38.87,31.73-2.38,11.24.28,23.12,7.26,32.24,6.55,8.55,15.92,13.95,26.33,15.39l37.97,5.22-92.75,103.01c-14.48,16.08-14.35,41.04,1.18,56.11,16.32,15.85,42.48,14.85,57.56-1.9l27.1-30.09c.93,1.03,1.92,2.02,2.97,2.96,10.48,9.43,24.71,12.42,37.59,8.79,1.88,2.89,4.15,5.55,6.78,7.92,10.48,9.43,24.72,12.42,37.59,8.79,1.89,2.91,4.17,5.57,6.82,7.95,16.34,14.68,42.34,12.63,57.03-3.69l41.18-45.73c.85-.95,1.65-1.93,2.43-3Zm-53.3,41.28c-10.25,11.38-27.85,12.31-39.23,2.06-4.69-4.22-7.6-9.68-8.69-15.45-10.42,8.14-25.52,7.89-35.68-1.26-4.69-4.22-7.6-9.68-8.69-15.45-10.42,8.14-25.52,7.89-35.68-1.26-4.55-4.09-7.42-9.36-8.59-14.93l-38.14,42.36c-10,11.1-27.13,13-38.71,3.57-12.38-10.09-13.68-28.42-3.12-40.14l105.16-116.79c1.54-1.72.54-4.46-1.75-4.77l-55.37-7.62c-7.66-1.05-14.51-5.2-19.06-11.75-3.98-5.73-5.63-12.87-4.55-19.77,2.16-13.83,13.73-23.53,27.28-23.59l105.39-.43c21.89-.09,50.01,1.16,73.35,11.64,14.38,6.46,26.19,16.22,35.84,24.9,3.17,2.85,6.28,5.76,9.38,8.66,2.95,2.76,5.88,5.5,8.83,8.15,26.28,23.67,28.41,64.3,4.75,90.58l-72.71,81.28Z"/>
  <rect class="cls-1" x="254.57" y="206.03" width="31.19" height="128.23" rx="2.11" ry="2.11" transform="translate(250.15 -111.39) rotate(42)"/>
  <path class="cls-1" d="m281.78,215.27c3.77-3.38,7.94-6.26,12.63-7.71,7.06-2.18,14.86-1.44,21.37,2.05,1.96,1.05,3.79,2.34,5.44,3.83,6.69,6.02,9.74,14.59,9.06,22.93,8.23-1.55,17.06.58,23.76,6.61,6.69,6.02,9.74,14.59,9.06,22.93,8.23-1.55,17.06.58,23.76,6.61,4.18,3.77,6.94,8.53,8.26,13.61l15.55-17.27c19.19-21.31,17.63-54.23-3.68-73.41-15.78-14.2-31.08-30.78-50.96-39.72-20.45-9.19-46.18-10.66-68.31-10.57l-104.95.43c-6.53.03-12.58,3.91-14.87,10.02-3.53,9.41,2.6,19.49,12.39,20.83l61.57,8.47c9.34,1.28,13.44,12.49,7.13,19.5l-108.98,121.04c-5.56,6.17-5.75,15.76.05,21.7,6.36,6.52,16.78,6.22,22.78-.43,1.77-1.97,3.55-3.94,5.32-5.91,4.63-5.15,9.27-10.29,13.9-15.44,6.47-7.18,12.94-14.37,19.41-21.55,7.28-8.09,14.56-16.17,21.84-24.26,7.07-7.85,14.14-15.7,21.21-23.55,5.83-6.48,11.67-12.96,17.5-19.43,3.57-3.97,7.15-7.94,10.72-11.9,2.79-3.1,5.8-6.45,9.1-9.41Z"/>
  <path class="cls-1" d="m333.07,353.71c1.83-.86,3.53-2.07,4.97-3.67.06-.06.1-.14.16-.2l3.7-4.11c5.76-6.4,5.25-16.26-1.15-22.03-1.7-1.54-3.74-2.68-5.94-3.34-2.25-.67-4.53-.59-6.85-.72-1-.06-2-.15-2.99-.3-.89-.14-1.78-.2-2.67-.43-1.79-.46-3.54-1.33-4.8-2.72-.81-.89-1.35-1.99-1.61-3.16-1-4.49,2.43-6.97,5.05-9.98,1.54-1.73,3.07-3.45,4.61-5.18,2.39-2.46,4.6-5.24,7.15-7.62,1.81-1.69,3.52-3.73,5.72-4.93,1.57-.86,3.51-1.23,5.17-.55,1.01.42,1.84,1.19,2.54,2.03,3.48,4.18,2.04,8.62,2.93,13.5.65,3.53,2.49,6.86,5.54,9.32,6.52,5.27,16.15,4.09,21.77-2.14l3.36-3.73s.1-.08.14-.13c5.4-6,5.29-15.05-.03-20.91-.35-.39-.73-.77-1.13-1.13-3.13-2.82-7.09-4.12-10.99-3.99l-15.24-.69-1.44-13.44c-.01-.94-.12-1.88-.3-2.81,0,0-.03-.32-.06-.31-.18-.82-.4-1.64-.71-2.43-.01-.04-.03-.07-.04-.11-.19-.46-.4-.92-.63-1.37-.06-.11-.11-.21-.17-.32-.21-.37-.43-.74-.67-1.1-.09-.13-.17-.26-.26-.39-.24-.34-.51-.67-.78-.99-.1-.12-.19-.24-.29-.36-.74-.83-1.57-1.62-2.63-2.36-6.56-4.6-15.59-3.28-20.95,2.67l-52.65,58.48c-5.49,6.1-5.78,15.54-.16,21.52,1.87,1.99,4.1,3.35,6.54,4.15.53.17,1.07.31,1.62.43.14.03.28.05.42.08.43.08.87.14,1.3.18.17.02.35.04.52.05.44.03.89.03,1.33.02.14,0,.28,0,.42,0,.55-.03,1.09-.09,1.63-.17.22-.03.44-.09.67-.13.34-.07.68-.14,1.01-.23.24-.06.48-.14.71-.21.34-.11.67-.23,1-.36.21-.08,16.01-5.69,16.01-5.69,0,0,5.64,9.75,8.39,14.47.59,1.01,1.07,2.03,1.8,2.96.69.9,1.49,1.73,2.36,2.45,1.61,1.34,3.5,2.33,5.5,2.93,3.18.96,6.59.9,9.73-.21.46-.16.91-.35,1.4-.57Z"/>
</svg>