<?xml version="1.0" encoding="UTF-8"?>
<svg id="Layer_3" data-name="Layer 3" xmlns="http://www.w3.org/2000/svg" viewBox="0 0 500 500">
  <defs>
    <style>
      .cls-1 {
        fill: #fcd146;
      }
    </style>
  </defs>
  <g>
    <g>
      <path class="cls-1" d="m204.83,304.65l-3.49-1.56c-2.13-.84-4.44-1.71-4.44-4.1,0-2.24,1.94-3.61,4.82-3.61,2.58,0,4.48.87,6.12,2.32l1.67-2.05c-1.82-1.82-4.56-3.08-7.67-3.08-4.75,0-8.17,2.81-8.17,6.61s2.89,5.43,5.35,6.42l3.61,1.6c2.51,1.06,4.44,1.82,4.44,4.48,0,2.28-1.98,3.91-5.39,3.91-2.81,0-5.39-1.22-7.29-3.08l-1.9,2.2c2.24,2.24,5.39,3.68,9.04,3.68,5.47,0,8.81-3.15,8.81-7.1,0-3.68-2.43-5.43-5.51-6.65Z"/>
      <path class="cls-1" d="m234.98,293.03h-3.65l-8.4,24.92h3.27l2.37-7.56h9.04l2.34,7.56h3.42l-8.39-24.92Zm-5.59,14.78l1.18-3.76c.88-2.78,1.67-5.51,2.47-8.4h.15c.76,2.89,1.6,5.62,2.47,8.4l1.16,3.76h-7.44Z"/>
      <path class="cls-1" d="m268.23,293.03h-3.65l-8.4,24.92h3.27l2.37-7.56h9.04l2.33,7.56h3.42l-8.39-24.92Zm-5.59,14.78l1.19-3.76c.87-2.78,1.66-5.51,2.46-8.4h.15c.76,2.89,1.6,5.62,2.47,8.4l1.16,3.76h-7.44Z"/>
      <path class="cls-1" d="m302.01,304.65l-3.49-1.56c-2.13-.84-4.44-1.71-4.44-4.1,0-2.24,1.94-3.61,4.82-3.61,2.58,0,4.48.87,6.12,2.32l1.67-2.05c-1.82-1.82-4.56-3.08-7.67-3.08-4.75,0-8.17,2.81-8.17,6.61s2.89,5.43,5.36,6.42l3.61,1.6c2.51,1.06,4.44,1.82,4.44,4.48,0,2.28-1.98,3.91-5.39,3.91-2.81,0-5.39-1.22-7.29-3.08l-1.9,2.2c2.24,2.24,5.39,3.68,9.04,3.68,5.47,0,8.81-3.15,8.81-7.1,0-3.68-2.43-5.43-5.51-6.65Z"/>
    </g>
    <path class="cls-1" d="m176.03,308.18h-101.8c-.65,0-1.17-.53-1.17-1.17s.53-1.17,1.17-1.17h101.8c.65,0,1.17.53,1.17,1.17s-.53,1.17-1.17,1.17Z"/>
    <path class="cls-1" d="m425.77,308.18h-101.8c-.65,0-1.17-.53-1.17-1.17s.53-1.17,1.17-1.17h101.8c.65,0,1.17.53,1.17,1.17s-.53,1.17-1.17,1.17Z"/>
  </g>
  <path class="cls-1" d="m92.91,183.32v96.3c0,.93-.76,1.69-1.69,1.69h-15.88c-.93,0-1.69-.76-1.69-1.69v-96.3c0-.93.76-1.69,1.69-1.69h15.88c.93,0,1.69.76,1.69,1.69Zm55.69-1.69h-15.87c-.93,0-1.69.76-1.69,1.69v46.06l-8.91-46.38c-.15-.79-.85-1.37-1.66-1.37h-17.41c-.93,0-1.69.76-1.69,1.69v96.3c0,.93.76,1.69,1.69,1.69h16.09c.95,0,1.71-.76,1.71-1.69v-48.14l9.69,48.48c.15.78.85,1.35,1.66,1.35h16.39c.95,0,1.71-.76,1.71-1.69v-96.3c0-.93-.76-1.69-1.71-1.69Zm57.39,0h-15.87c-.93,0-1.69.76-1.69,1.69v46.06l-8.91-46.38c-.15-.79-.85-1.37-1.66-1.37h-17.41c-.95,0-1.69.76-1.69,1.69v96.3c0,.93.74,1.69,1.69,1.69h16.09c.95,0,1.69-.76,1.69-1.69v-48.14l7.09,35.35c1.98-1.96,4.41-3.62,7.26-4.84,2.76-1.17,10.37-1.69,15.11-1.74v-76.93c0-.93-.74-1.69-1.69-1.69Zm166.11-.03h-15.53c-.86,0-1.59.68-1.67,1.54l-6.38,66.32-7.14-66.34c-.08-.86-.81-1.52-1.67-1.52h-15.55c-1.01,0-1.81.9-1.67,1.91l7.48,60.69c4.43.63,8.9,1.27,12.86,3.47,7.85,4.33,13.38,10.67,15.07,19.6.96,5.06.73,9.76-.68,14.07h3.01c.86,0,1.57-.64,1.67-1.49l11.87-96.35c.14-1.01-.66-1.91-1.67-1.91Zm45.11,1.57c-.08-.87-.81-1.53-1.69-1.53h-30.73c-.87,0-1.6.66-1.69,1.53l-9.3,96.29c-.1.99.69,1.86,1.69,1.86h15.94c.88,0,1.62-.68,1.69-1.56l6.34-81.13h.91l7.17,81.14c.08.87.81,1.54,1.69,1.54h15.45c1,0,1.78-.86,1.69-1.85l-9.14-96.29Zm-185.44,46.3c2.55-.88,5.23-1.27,7.92-1.27,1.54,0,3.08.14,4.6.37,2.49.39,4.96.8,7.43,1.27.19.03.35.05.5.05-.01,0-.02,0-.03,0h.07s.05,0,.08,0c.09,0,.17-.01.25-.03.18-.03.35-.08.5-.16.24-.15.44-.37.61-.68,1.08-1.86,2.2-3.7,3.25-5.6,5.31-9.69,13.26-16.12,24-18.66,2.79-.66,5.6-.98,8.39-.98,1.73,0,3.45.12,5.14.37.85.12,1.69.27,2.52.44,4.18.9,8.17,2.52,11.79,4.8.83.51,1.62,1.07,2.4,1.66-7.76-17.34-25.19-29.42-45.43-29.42-27.54,0-49.85,22.31-49.85,49.85,0,3.25.3,6.41.91,9.47,3.37-5.46,8.47-9.29,14.95-11.49Zm82.99-.9c-4.52-9.93-14.5-16.34-25.42-16.34-2.17,0-4.33.25-6.44.74-8.19,1.95-14.26,6.68-18.54,14.5-.79,1.47-1.62,2.86-2.42,4.21l-.91,1.59c-1.83,3.16-5.11,5.07-8.76,5.07-.71,0-1.44-.07-2.17-.2-2.1-.41-4.36-.8-7.1-1.22-1.13-.19-2.23-.27-3.3-.27-1.88,0-3.62.27-5.19.81-6.26,2.13-10.3,6-12.33,11.84-.51,1.47-.85,2.81-1.1,4.21,8.1,16.46,25.07,27.79,44.69,27.79,27.52,0,49.83-22.31,49.83-49.83,0-.29,0-.58-.02-.86-.24-.69-.51-1.39-.81-2.05Z"/>
</svg>