<?xml version="1.0" encoding="UTF-8"?>
<svg id="Layer_3" data-name="Layer 3" xmlns="http://www.w3.org/2000/svg" viewBox="0 0 500 500">
  <defs>
    <style>
      .cls-1 {
        fill: #fcd146;
      }
    </style>
  </defs>
  <polygon class="cls-1" points="191.96 283.5 192.03 283.46 192.03 283.55 191.96 283.5"/>
  <polygon class="cls-1" points="249.87 187.37 300.5 216.6 249.72 245.86 199.19 216.63 249.87 187.37"/>
  <path class="cls-1" d="m188.44,343.85l-50.5-29.15v-129.39l3.58-2.06,108.48-62.64,55.95,32.32s.09.04.15.07l52.35,30.24-50.76,29.26-56.04-32.36-.15-.09c-1.13-.63-2.48-.63-3.58,0-.3.2-.59.39-.83.65l-55.06,31.8-5.43,3.17c-.76.43-.76,1.52,0,1.95l59.52,34.47v58.56l-51.72-29.87c-.17-.15-.39-.3-.59-.41-1.13-.65-2.5-.63-3.63.04-1.13.67-1.85,1.89-1.8,3.19,0,.22.02.43.06.63v59.62Z"/>
  <polygon class="cls-1" points="195.63 289.76 246.11 318.93 246.11 377.14 195.63 347.99 195.63 289.76"/>
  <path class="cls-1" d="m281.21,236l-27.91,16.07v125.42l108.76-62.8v-125.27l-80.85,46.57Zm72.81-2.54c-2.17,4.34-5.65,7.52-9.45,9.12v17.81c0,3.28-1.76,6.34-4.61,7.99l-13.47,7.84c-.63.37-1.04,1.06-1.04,1.8v30.17c0,3.3-1.76,6.36-4.63,8.02l-30.91,17.79c.43,3.56-.22,7.49-2.09,11.16-4.37,8.62-13.73,12.64-20.94,8.99-7.21-3.65-9.53-13.58-5.17-22.2,4.37-8.62,13.75-12.64,20.96-8.99,1.95.98,3.54,2.43,4.74,4.19l29.82-17.16c.65-.37,1.04-1.06,1.04-1.8v-30.17c0-3.28,1.76-6.34,4.61-7.99l13.47-7.84c.63-.37,1.02-1.06,1.02-1.8v-16.66c-1.48-.15-2.93-.56-4.3-1.26-7.21-3.65-9.51-13.6-5.17-22.22,4.37-8.62,13.75-12.64,20.96-8.99,7.21,3.65,9.51,13.6,5.15,22.2Z"/>
  <path class="cls-1" d="m371.03,173.9l-115.64-66.77c-1.63-.93-3.5-1.43-5.39-1.43s-3.74.5-5.39,1.43l-57.89,33.43c-.22.13-57.76,33.34-57.76,33.34-3.32,1.91-5.39,5.5-5.39,9.32v133.54c0,3.84,2.06,7.41,5.39,9.34l57.69,33.3c.06.04.15.09.24.13l57.67,33.3c1.65.98,3.52,1.48,5.43,1.48s3.76-.5,5.39-1.43l115.53-66.71.28-.15c3.21-1.95,5.21-5.47,5.21-9.25v-133.54c0-3.82-2.06-7.41-5.39-9.32Zm-1.78,142.86c0,1.11-.52,2.13-1.37,2.82-.13.09-.26.17-.39.26l-.15.09-115.53,66.73c-.57.3-1.17.48-1.8.48s-1.24-.17-1.8-.5l-.3-.17-57.58-33.23-.04-.02s-.02-.02-.02-.02l-57.69-33.3c-1.11-.65-1.78-1.82-1.78-3.13v-133.54c0-.15,0-.28.02-.43v-.02c.02-.11.04-.22.07-.3.02-.15.07-.3.11-.43.02-.04.04-.11.07-.17.04-.07.06-.13.09-.2.02-.02.04-.07.06-.09.02-.04.02-.09.07-.13.3-.54.76-1,1.3-1.32l115.67-66.77c.06-.04.15-.07.22-.11.07-.02.13-.07.2-.09.09-.04.17-.07.26-.09.02,0,.07-.02.09-.04.04,0,.07-.02.09-.02.11-.02.2-.04.28-.07.07,0,.13-.02.17-.04h.28c.07-.02.13-.02.2-.02.09,0,.17,0,.26.02h.22c.09.02.15.02.24.07.06,0,.13.02.22.04.09.02.15.04.24.09.04.02.06.02.09.02.11.02.22.09.33.13.06.04.15.09.22.11l115.64,66.77c.11.07.22.15.3.22.04.02.06.02.09.04.09.07.17.15.24.22.04.04.07.07.11.11.04.04.09.09.13.13t.02.04c.17.17.3.37.43.56v.02c.13.24.22.46.3.72.02.04.04.07.04.11.02.09.02.17.06.26v.02c0,.07.02.11.02.2.02.07.02.13.02.22s.02.15.02.24v133.54Z"/>
  <polygon class="cls-1" points="191.96 283.5 192.03 283.46 192.03 283.55 191.96 283.5"/>
  <polygon class="cls-1" points="249.87 187.37 300.5 216.6 249.72 245.86 199.19 216.63 249.87 187.37"/>
  <path class="cls-1" d="m188.44,343.85l-50.5-29.15v-129.39l3.58-2.06,108.48-62.64,55.95,32.32s.09.04.15.07l52.35,30.24-50.76,29.26-56.04-32.36-.15-.09c-1.13-.63-2.48-.63-3.58,0-.3.2-.59.39-.83.65l-55.06,31.8-5.43,3.17c-.76.43-.76,1.52,0,1.95l59.52,34.47v58.56l-51.72-29.87c-.17-.15-.39-.3-.59-.41-1.13-.65-2.5-.63-3.63.04-1.13.67-1.85,1.89-1.8,3.19,0,.22.02.43.06.63v59.62Z"/>
  <polygon class="cls-1" points="195.63 289.76 246.11 318.93 246.11 377.14 195.63 347.99 195.63 289.76"/>
  <path class="cls-1" d="m281.21,236l-27.91,16.07v125.42l108.76-62.8v-125.27l-80.85,46.57Zm72.81-2.54c-2.17,4.34-5.65,7.52-9.45,9.12v17.81c0,3.28-1.76,6.34-4.61,7.99l-13.47,7.84c-.63.37-1.04,1.06-1.04,1.8v30.17c0,3.3-1.76,6.36-4.63,8.02l-30.91,17.79c.43,3.56-.22,7.49-2.09,11.16-4.37,8.62-13.73,12.64-20.94,8.99-7.21-3.65-9.53-13.58-5.17-22.2,4.37-8.62,13.75-12.64,20.96-8.99,1.95.98,3.54,2.43,4.74,4.19l29.82-17.16c.65-.37,1.04-1.06,1.04-1.8v-30.17c0-3.28,1.76-6.34,4.61-7.99l13.47-7.84c.63-.37,1.02-1.06,1.02-1.8v-16.66c-1.48-.15-2.93-.56-4.3-1.26-7.21-3.65-9.51-13.6-5.17-22.22,4.37-8.62,13.75-12.64,20.96-8.99,7.21,3.65,9.51,13.6,5.15,22.2Z"/>
  <path class="cls-1" d="m249.54,112.89h.26c.07-.02.13-.02.2-.02-.15,0-.3,0-.46.02Z"/>
  <polygon class="cls-1" points="192.03 283.55 191.96 283.5 192.03 283.46 192.03 283.55"/>
  <polygon class="cls-1" points="249.87 187.37 300.5 216.6 249.72 245.86 199.19 216.63 249.87 187.37"/>
  <path class="cls-1" d="m190.18,280.4c-1.13.67-1.85,1.89-1.8,3.19,0,.22.02.43.06.63v59.62l-50.5-29.15v-129.39l3.58-2.06,108.48-62.64,55.95,32.32s.09.04.15.07l52.35,30.24-50.76,29.26-56.04-32.36-.15-.09c-1.13-.63-2.48-.63-3.58,0-.3.2-.59.39-.83.65l-55.06,31.8-5.43,3.17c-.76.43-.76,1.52,0,1.95l59.52,34.47v58.56l-51.72-29.87c-.17-.15-.39-.3-.59-.41-1.13-.65-2.5-.63-3.63.04Z"/>
  <polygon class="cls-1" points="195.63 289.76 246.11 318.93 246.11 377.14 195.63 347.99 195.63 289.76"/>
  <path class="cls-1" d="m281.21,236l-27.91,16.07v125.42l108.76-62.8v-125.27l-80.85,46.57Zm72.81-2.54c-2.17,4.34-5.65,7.52-9.45,9.12v17.81c0,3.28-1.76,6.34-4.61,7.99l-13.47,7.84c-.63.37-1.04,1.06-1.04,1.8v30.17c0,3.3-1.76,6.36-4.63,8.02l-30.91,17.79c.43,3.56-.22,7.49-2.09,11.16-4.37,8.62-13.73,12.64-20.94,8.99-7.21-3.65-9.53-13.58-5.17-22.2,4.37-8.62,13.75-12.64,20.96-8.99,1.95.98,3.54,2.43,4.74,4.19l29.82-17.16c.65-.37,1.04-1.06,1.04-1.8v-30.17c0-3.28,1.76-6.34,4.61-7.99l13.47-7.84c.63-.37,1.02-1.06,1.02-1.8v-16.66c-1.48-.15-2.93-.56-4.3-1.26-7.21-3.65-9.51-13.6-5.17-22.22,4.37-8.62,13.75-12.64,20.96-8.99,7.21,3.65,9.51,13.6,5.15,22.2Z"/>
  <path class="cls-1" d="m358.45,183.22l-50.76,29.26-56.04-32.36-.15-.09c-1.13-.63-2.48-.63-3.58,0-.3.2-.59.39-.83.65l-55.06,31.8-5.43,3.17c-.76.43-.76,1.52,0,1.95l59.52,34.47v58.56l-51.72-29.87c-.17-.15-.39-.3-.59-.41-1.13-.65-2.5-.63-3.63.04-1.13.67-1.85,1.89-1.8,3.19,0,.22.02.43.06.63v59.62l-50.5-29.15v-129.39l3.58-2.06,108.48-62.64,55.95,32.32s.09.04.15.07l52.35,30.24Z"/>
  <path class="cls-1" d="m368.21,180.7h-.02s.09.09.13.13c-.04-.04-.06-.09-.11-.13Zm-.72,139.15l-.15.09-115.53,66.73,115.53-66.71.15-.09c.13-.09.26-.17.39-.28-.13.09-.26.17-.39.26Zm-175.53-36.34l.07.04v-.09l-.07.04Zm-54.02-98.2v4.13c0-2.56,1.37-4.91,3.58-6.19l-3.58,2.06Zm-7.06-3.02c0,.07-.02.11-.02.17.02-.15.07-.3.11-.43-.02.09-.06.17-.09.26Zm-.11.67v.26c0-.15,0-.28.02-.43,0,.07,0,.11-.02.17Z"/>
</svg>